G04*
G04 #@! TF.GenerationSoftware,Altium Limited,Altium Designer,23.11.1 (41)*
G04*
G04 Layer_Physical_Order=2*
G04 Layer_Color=16711680*
%FSLAX25Y25*%
%MOIN*%
G70*
G04*
G04 #@! TF.SameCoordinates,7FD28054-1643-4BC3-9A3C-097E624A02D2*
G04*
G04*
G04 #@! TF.FilePolarity,Positive*
G04*
G01*
G75*
%ADD13C,0.01000*%
%ADD77R,0.10000X0.07000*%
%ADD78C,0.07008*%
%ADD79C,0.08445*%
%ADD80C,0.03150*%
%ADD81O,0.10000X0.09000*%
%ADD82C,0.06000*%
%ADD83C,0.02300*%
G36*
X-205667Y-1204D02*
X-205656Y-1202D01*
X-205645Y-1204D01*
X-183435D01*
X-165451Y-19189D01*
X-165060Y-19450D01*
X-164599Y-19542D01*
X-164599Y-19542D01*
X87401D01*
X87401Y-19542D01*
X87862Y-19450D01*
X88252Y-19189D01*
X106237Y-1204D01*
X128627Y-1192D01*
X129493Y-1195D01*
X131191Y-1537D01*
X132319Y-2008D01*
X136587Y-6276D01*
X137068Y-7445D01*
X137401Y-9145D01*
X137399Y-10011D01*
X137399Y-10013D01*
X137399Y-10014D01*
X137399Y-282636D01*
X137398Y-343833D01*
X137404Y-343864D01*
X137399Y-343896D01*
X137444Y-344761D01*
X137195Y-346476D01*
X137040Y-346912D01*
X131175Y-352776D01*
X129935Y-353090D01*
X129101Y-353133D01*
X105900D01*
X89052Y-336286D01*
X89052Y-336286D01*
X88662Y-336025D01*
X88201Y-335933D01*
X-165399D01*
X-165399Y-335933D01*
X-165860Y-336025D01*
X-166251Y-336286D01*
X-183098Y-353133D01*
X-205835Y-353128D01*
X-206697Y-353124D01*
X-207762Y-352906D01*
X-214362Y-346306D01*
X-214585Y-345153D01*
X-214581Y-344287D01*
X-214581Y-344284D01*
X-214581Y-344280D01*
X-214581Y-10375D01*
X-214540Y-10169D01*
X-214493Y-9942D01*
X-214489Y-9075D01*
X-214253Y-7922D01*
X-207758Y-1427D01*
X-206525Y-1189D01*
X-205667Y-1204D01*
D02*
G37*
%LPC*%
G36*
X119219Y-11913D02*
X117586D01*
X115985Y-12231D01*
X114477Y-12856D01*
X113119Y-13763D01*
X111965Y-14917D01*
X111058Y-16274D01*
X110433Y-17783D01*
X110115Y-19384D01*
Y-21016D01*
X110433Y-22617D01*
X111058Y-24126D01*
X111965Y-25483D01*
X113119Y-26637D01*
X114477Y-27544D01*
X115985Y-28169D01*
X117586Y-28488D01*
X119219D01*
X120820Y-28169D01*
X122328Y-27544D01*
X123685Y-26637D01*
X124839Y-25483D01*
X125746Y-24126D01*
X126371Y-22617D01*
X126690Y-21016D01*
Y-19384D01*
X126371Y-17783D01*
X125746Y-16274D01*
X124839Y-14917D01*
X123685Y-13763D01*
X122328Y-12856D01*
X120820Y-12231D01*
X119219Y-11913D01*
D02*
G37*
G36*
X-194769D02*
X-196401D01*
X-198002Y-12231D01*
X-199510Y-12856D01*
X-200868Y-13763D01*
X-202022Y-14917D01*
X-202929Y-16274D01*
X-203554Y-17783D01*
X-203872Y-19384D01*
Y-21016D01*
X-203554Y-22617D01*
X-202929Y-24126D01*
X-202022Y-25483D01*
X-200868Y-26637D01*
X-199510Y-27544D01*
X-198002Y-28169D01*
X-196401Y-28488D01*
X-194769D01*
X-193167Y-28169D01*
X-191659Y-27544D01*
X-190302Y-26637D01*
X-189148Y-25483D01*
X-188241Y-24126D01*
X-187616Y-22617D01*
X-187297Y-21016D01*
Y-19384D01*
X-187616Y-17783D01*
X-188241Y-16274D01*
X-189148Y-14917D01*
X-190302Y-13763D01*
X-191659Y-12856D01*
X-193167Y-12231D01*
X-194769Y-11913D01*
D02*
G37*
G36*
X-150119Y-33258D02*
X-150306D01*
Y-37980D01*
X-145584D01*
Y-37793D01*
X-145940Y-36464D01*
X-146627Y-35274D01*
X-147599Y-34301D01*
X-148790Y-33614D01*
X-150119Y-33258D01*
D02*
G37*
G36*
X-151306D02*
X-151494D01*
X-152822Y-33614D01*
X-154013Y-34301D01*
X-154985Y-35274D01*
X-155673Y-36464D01*
X-156029Y-37793D01*
Y-37980D01*
X-151306D01*
Y-33258D01*
D02*
G37*
G36*
X74263Y-33470D02*
X72944D01*
X71670Y-33812D01*
X70527Y-34471D01*
X69594Y-35404D01*
X68935Y-36546D01*
X68594Y-37821D01*
Y-39140D01*
X68935Y-40414D01*
X69594Y-41556D01*
X70527Y-42489D01*
X71670Y-43149D01*
X72944Y-43490D01*
X74263D01*
X75537Y-43149D01*
X76679Y-42489D01*
X77612Y-41556D01*
X78272Y-40414D01*
X78613Y-39140D01*
Y-37821D01*
X78272Y-36546D01*
X77612Y-35404D01*
X76679Y-34471D01*
X75537Y-33812D01*
X74263Y-33470D01*
D02*
G37*
G36*
X-145584Y-38980D02*
X-150306D01*
Y-43703D01*
X-150119D01*
X-148790Y-43347D01*
X-147599Y-42659D01*
X-146627Y-41687D01*
X-145940Y-40496D01*
X-145584Y-39168D01*
Y-38980D01*
D02*
G37*
G36*
X-151306D02*
X-156029D01*
Y-39168D01*
X-155673Y-40496D01*
X-154985Y-41687D01*
X-154013Y-42659D01*
X-152822Y-43347D01*
X-151494Y-43703D01*
X-151306D01*
Y-38980D01*
D02*
G37*
G36*
X-70629Y-24591D02*
X-70936Y-24653D01*
X-71197Y-24827D01*
X-71197Y-24827D01*
X-81768Y-35398D01*
X-81942Y-35658D01*
X-82003Y-35965D01*
Y-43600D01*
X-81942Y-43907D01*
X-81768Y-44168D01*
X-81507Y-44342D01*
X-81200Y-44403D01*
X-72800D01*
X-72778Y-44398D01*
X-72755Y-44402D01*
X-72625Y-44368D01*
X-72493Y-44342D01*
X-72474Y-44329D01*
X-72452Y-44323D01*
X-72344Y-44242D01*
X-72232Y-44168D01*
X-72220Y-44149D01*
X-72201Y-44135D01*
X-62791Y-33603D01*
X-55337D01*
X-55130Y-34103D01*
X-55410Y-34383D01*
X-55928Y-35280D01*
X-56196Y-36282D01*
Y-37318D01*
X-55928Y-38320D01*
X-55410Y-39217D01*
X-54677Y-39950D01*
X-53779Y-40469D01*
X-52778Y-40737D01*
X-51741D01*
X-50740Y-40469D01*
X-49842Y-39950D01*
X-49109Y-39217D01*
X-48591Y-38320D01*
X-48322Y-37318D01*
Y-36282D01*
X-48591Y-35280D01*
X-49109Y-34383D01*
X-49389Y-34103D01*
X-49182Y-33603D01*
X-27935D01*
X-27728Y-34103D01*
X-28008Y-34383D01*
X-28526Y-35280D01*
X-28795Y-36282D01*
Y-37318D01*
X-28526Y-38320D01*
X-28008Y-39217D01*
X-27275Y-39950D01*
X-26377Y-40469D01*
X-25376Y-40737D01*
X-24339D01*
X-23338Y-40469D01*
X-22440Y-39950D01*
X-21707Y-39217D01*
X-21189Y-38320D01*
X-20921Y-37318D01*
Y-36282D01*
X-21189Y-35280D01*
X-21707Y-34383D01*
X-21987Y-34103D01*
X-21780Y-33603D01*
X-15385D01*
X-4820Y-44168D01*
X-4559Y-44342D01*
X-4252Y-44403D01*
X4031D01*
X4032Y-44403D01*
X4033Y-44403D01*
X4187Y-44372D01*
X4338Y-44342D01*
X4339Y-44341D01*
X4340Y-44341D01*
X4469Y-44254D01*
X4598Y-44168D01*
X4599Y-44167D01*
X4600Y-44166D01*
X4953Y-43811D01*
X4953Y-43810D01*
X4955Y-43810D01*
X5041Y-43679D01*
X5126Y-43550D01*
X5126Y-43549D01*
X5127Y-43548D01*
X5156Y-43396D01*
X5186Y-43243D01*
X5186Y-43242D01*
X5186Y-43240D01*
X5143Y-36338D01*
X5113Y-36187D01*
X5082Y-36036D01*
X5081Y-36033D01*
X5080Y-36031D01*
X4994Y-35903D01*
X4908Y-35775D01*
X-6035Y-24827D01*
X-6035Y-24827D01*
X-6035Y-24827D01*
X-6168Y-24737D01*
X-6295Y-24653D01*
X-6295Y-24653D01*
X-6295Y-24653D01*
X-6441Y-24624D01*
X-6602Y-24591D01*
X-6602Y-24591D01*
X-6602Y-24591D01*
X-70629D01*
X-70629Y-24591D01*
D02*
G37*
G36*
X-28800Y-52180D02*
Y-53800D01*
X-27180D01*
X-27477Y-53082D01*
X-28082Y-52477D01*
X-28800Y-52180D01*
D02*
G37*
G36*
X-29800D02*
X-30518Y-52477D01*
X-31123Y-53082D01*
X-31420Y-53800D01*
X-29800D01*
Y-52180D01*
D02*
G37*
G36*
X-27180Y-54800D02*
X-28800D01*
Y-56420D01*
X-28082Y-56123D01*
X-27477Y-55518D01*
X-27180Y-54800D01*
D02*
G37*
G36*
X-29800D02*
X-31420D01*
X-31123Y-55518D01*
X-30518Y-56123D01*
X-29800Y-56420D01*
Y-54800D01*
D02*
G37*
G36*
X-176700Y-69137D02*
Y-70757D01*
X-175080D01*
X-175377Y-70039D01*
X-175982Y-69434D01*
X-176700Y-69137D01*
D02*
G37*
G36*
X-177700D02*
X-178418Y-69434D01*
X-179023Y-70039D01*
X-179320Y-70757D01*
X-177700D01*
Y-69137D01*
D02*
G37*
G36*
X-175080Y-71757D02*
X-176700D01*
Y-73377D01*
X-175982Y-73079D01*
X-175377Y-72475D01*
X-175080Y-71757D01*
D02*
G37*
G36*
X-177700D02*
X-179320D01*
X-179023Y-72475D01*
X-178418Y-73079D01*
X-177700Y-73377D01*
Y-71757D01*
D02*
G37*
G36*
X85892Y-72508D02*
Y-74128D01*
X87512D01*
X87215Y-73410D01*
X86610Y-72806D01*
X85892Y-72508D01*
D02*
G37*
G36*
X84892D02*
X84174Y-72806D01*
X83569Y-73410D01*
X83272Y-74128D01*
X84892D01*
Y-72508D01*
D02*
G37*
G36*
X106956Y-72618D02*
Y-74238D01*
X108576D01*
X108279Y-73520D01*
X107674Y-72915D01*
X106956Y-72618D01*
D02*
G37*
G36*
X105956D02*
X105238Y-72915D01*
X104633Y-73520D01*
X104336Y-74238D01*
X105956D01*
Y-72618D01*
D02*
G37*
G36*
X-143529Y-72890D02*
Y-74510D01*
X-141909D01*
X-142206Y-73792D01*
X-142811Y-73187D01*
X-143529Y-72890D01*
D02*
G37*
G36*
X-144529D02*
X-145247Y-73187D01*
X-145852Y-73792D01*
X-146149Y-74510D01*
X-144529D01*
Y-72890D01*
D02*
G37*
G36*
X-123233Y-72899D02*
Y-74519D01*
X-121613D01*
X-121911Y-73801D01*
X-122515Y-73196D01*
X-123233Y-72899D01*
D02*
G37*
G36*
X-124233D02*
X-124951Y-73196D01*
X-125556Y-73801D01*
X-125853Y-74519D01*
X-124233D01*
Y-72899D01*
D02*
G37*
G36*
X87512Y-75128D02*
X85892D01*
Y-76748D01*
X86610Y-76451D01*
X87215Y-75846D01*
X87512Y-75128D01*
D02*
G37*
G36*
X84892D02*
X83272D01*
X83569Y-75846D01*
X84174Y-76451D01*
X84892Y-76748D01*
Y-75128D01*
D02*
G37*
G36*
X108576Y-75238D02*
X106956D01*
Y-76858D01*
X107674Y-76560D01*
X108279Y-75955D01*
X108576Y-75238D01*
D02*
G37*
G36*
X105956D02*
X104336D01*
X104633Y-75955D01*
X105238Y-76560D01*
X105956Y-76858D01*
Y-75238D01*
D02*
G37*
G36*
X-141909Y-75510D02*
X-143529D01*
Y-77130D01*
X-142811Y-76832D01*
X-142206Y-76227D01*
X-141909Y-75510D01*
D02*
G37*
G36*
X-144529D02*
X-146149D01*
X-145852Y-76227D01*
X-145247Y-76832D01*
X-144529Y-77130D01*
Y-75510D01*
D02*
G37*
G36*
X-121613Y-75519D02*
X-123233D01*
Y-77139D01*
X-122515Y-76841D01*
X-121911Y-76237D01*
X-121613Y-75519D01*
D02*
G37*
G36*
X-124233D02*
X-125853D01*
X-125556Y-76237D01*
X-124951Y-76841D01*
X-124233Y-77139D01*
Y-75519D01*
D02*
G37*
G36*
X-57905Y-79883D02*
Y-81503D01*
X-56285D01*
X-56583Y-80786D01*
X-57187Y-80181D01*
X-57905Y-79883D01*
D02*
G37*
G36*
X-58905D02*
X-59623Y-80181D01*
X-60228Y-80786D01*
X-60525Y-81503D01*
X-58905D01*
Y-79883D01*
D02*
G37*
G36*
X-56285Y-82503D02*
X-57905D01*
Y-84123D01*
X-57187Y-83826D01*
X-56583Y-83221D01*
X-56285Y-82503D01*
D02*
G37*
G36*
X-58905D02*
X-60525D01*
X-60228Y-83221D01*
X-59623Y-83826D01*
X-58905Y-84123D01*
Y-82503D01*
D02*
G37*
G36*
X33684Y-85416D02*
Y-87036D01*
X35304D01*
X35007Y-86318D01*
X34402Y-85713D01*
X33684Y-85416D01*
D02*
G37*
G36*
X32684D02*
X31966Y-85713D01*
X31362Y-86318D01*
X31064Y-87036D01*
X32684D01*
Y-85416D01*
D02*
G37*
G36*
X35304Y-88036D02*
X33684D01*
Y-89656D01*
X34402Y-89359D01*
X35007Y-88754D01*
X35304Y-88036D01*
D02*
G37*
G36*
X32684D02*
X31064D01*
X31362Y-88754D01*
X31966Y-89359D01*
X32684Y-89656D01*
Y-88036D01*
D02*
G37*
G36*
X96164Y-82909D02*
X95034D01*
X93943Y-83201D01*
X92964Y-83766D01*
X92165Y-84565D01*
X91601Y-85544D01*
X91308Y-86635D01*
Y-87765D01*
X91601Y-88856D01*
X92165Y-89835D01*
X92964Y-90634D01*
X93943Y-91199D01*
X95034Y-91491D01*
X96164D01*
X97256Y-91199D01*
X98234Y-90634D01*
X99033Y-89835D01*
X99598Y-88856D01*
X99891Y-87765D01*
Y-86635D01*
X99598Y-85544D01*
X99033Y-84565D01*
X98234Y-83766D01*
X97256Y-83201D01*
X96164Y-82909D01*
D02*
G37*
G36*
X-133220D02*
X-134350D01*
X-135441Y-83201D01*
X-136420Y-83766D01*
X-137219Y-84565D01*
X-137784Y-85544D01*
X-138076Y-86635D01*
Y-87765D01*
X-137784Y-88856D01*
X-137219Y-89835D01*
X-136420Y-90634D01*
X-135441Y-91199D01*
X-134350Y-91491D01*
X-133220D01*
X-132128Y-91199D01*
X-131150Y-90634D01*
X-130351Y-89835D01*
X-129786Y-88856D01*
X-129493Y-87765D01*
Y-86635D01*
X-129786Y-85544D01*
X-130351Y-84565D01*
X-131150Y-83766D01*
X-132128Y-83201D01*
X-133220Y-82909D01*
D02*
G37*
G36*
X-19592Y-96058D02*
X-20362D01*
X-21075Y-96353D01*
X-21491Y-96769D01*
X-62162D01*
X-62406Y-96526D01*
X-63118Y-96231D01*
X-63888D01*
X-64600Y-96526D01*
X-64930Y-96855D01*
X-67487D01*
X-67609Y-96831D01*
X-94173D01*
X-94503Y-96501D01*
X-95215Y-96206D01*
X-95985D01*
X-96697Y-96501D01*
X-97242Y-97046D01*
X-97537Y-97759D01*
Y-98529D01*
X-97242Y-99241D01*
X-96697Y-99786D01*
X-95985Y-100081D01*
X-95215D01*
X-94503Y-99786D01*
X-94173Y-99457D01*
X-67706D01*
X-67585Y-99481D01*
X-64930D01*
X-64600Y-99811D01*
X-63888Y-100106D01*
X-63118D01*
X-62406Y-99811D01*
X-61989Y-99394D01*
X-21318D01*
X-21075Y-99638D01*
X-20362Y-99933D01*
X-19592D01*
X-18880Y-99638D01*
X-18335Y-99093D01*
X-18040Y-98381D01*
Y-97610D01*
X-18335Y-96898D01*
X-18880Y-96353D01*
X-19592Y-96058D01*
D02*
G37*
G36*
X-106985Y-106957D02*
Y-108577D01*
X-105365D01*
X-105663Y-107859D01*
X-106267Y-107254D01*
X-106985Y-106957D01*
D02*
G37*
G36*
X-107985D02*
X-108703Y-107254D01*
X-109308Y-107859D01*
X-109605Y-108577D01*
X-107985D01*
Y-106957D01*
D02*
G37*
G36*
X-81618Y-108481D02*
Y-110101D01*
X-79998D01*
X-80295Y-109383D01*
X-80900Y-108779D01*
X-81618Y-108481D01*
D02*
G37*
G36*
X-82618D02*
X-83336Y-108779D01*
X-83941Y-109383D01*
X-84238Y-110101D01*
X-82618D01*
Y-108481D01*
D02*
G37*
G36*
X-105365Y-109577D02*
X-106985D01*
Y-111197D01*
X-106267Y-110900D01*
X-105663Y-110295D01*
X-105365Y-109577D01*
D02*
G37*
G36*
X-107985D02*
X-109605D01*
X-109308Y-110295D01*
X-108703Y-110900D01*
X-107985Y-111197D01*
Y-109577D01*
D02*
G37*
G36*
X-79998Y-111101D02*
X-81618D01*
Y-112721D01*
X-80900Y-112424D01*
X-80295Y-111819D01*
X-79998Y-111101D01*
D02*
G37*
G36*
X-82618D02*
X-84238D01*
X-83941Y-111819D01*
X-83336Y-112424D01*
X-82618Y-112721D01*
Y-111101D01*
D02*
G37*
G36*
X-159413Y-113713D02*
X-170987D01*
Y-122287D01*
X-159413D01*
Y-113713D01*
D02*
G37*
G36*
X-192213D02*
X-203787D01*
Y-122287D01*
X-192213D01*
Y-113713D01*
D02*
G37*
G36*
X-30026Y-123316D02*
Y-124936D01*
X-28405D01*
X-28703Y-124218D01*
X-29308Y-123613D01*
X-30026Y-123316D01*
D02*
G37*
G36*
X-31025D02*
X-31743Y-123613D01*
X-32348Y-124218D01*
X-32645Y-124936D01*
X-31025D01*
Y-123316D01*
D02*
G37*
G36*
X-28405Y-125936D02*
X-30026D01*
Y-127556D01*
X-29308Y-127259D01*
X-28703Y-126654D01*
X-28405Y-125936D01*
D02*
G37*
G36*
X-31025D02*
X-32645D01*
X-32348Y-126654D01*
X-31743Y-127259D01*
X-31025Y-127556D01*
Y-125936D01*
D02*
G37*
G36*
X-164700Y-134478D02*
X-165700D01*
X-167080Y-134660D01*
X-168367Y-135193D01*
X-169471Y-136040D01*
X-170318Y-137144D01*
X-170851Y-138431D01*
X-171033Y-139811D01*
X-170851Y-141191D01*
X-170318Y-142478D01*
X-169471Y-143582D01*
X-168367Y-144430D01*
X-167080Y-144962D01*
X-165700Y-145144D01*
X-164700D01*
X-163320Y-144962D01*
X-162033Y-144430D01*
X-160929Y-143582D01*
X-160082Y-142478D01*
X-159549Y-141191D01*
X-159367Y-139811D01*
X-159549Y-138431D01*
X-160082Y-137144D01*
X-160929Y-136040D01*
X-162033Y-135193D01*
X-163320Y-134660D01*
X-164700Y-134478D01*
D02*
G37*
G36*
X-197500D02*
X-198500D01*
X-199880Y-134660D01*
X-201167Y-135193D01*
X-202271Y-136040D01*
X-203118Y-137144D01*
X-203651Y-138431D01*
X-203833Y-139811D01*
X-203651Y-141191D01*
X-203118Y-142478D01*
X-202271Y-143582D01*
X-201167Y-144430D01*
X-199880Y-144962D01*
X-198500Y-145144D01*
X-197500D01*
X-196120Y-144962D01*
X-194834Y-144430D01*
X-193729Y-143582D01*
X-192882Y-142478D01*
X-192349Y-141191D01*
X-192167Y-139811D01*
X-192349Y-138431D01*
X-192882Y-137144D01*
X-193729Y-136040D01*
X-194834Y-135193D01*
X-196120Y-134660D01*
X-197500Y-134478D01*
D02*
G37*
G36*
X-3018Y-147016D02*
X-3789D01*
X-4501Y-147311D01*
X-4831Y-147641D01*
X-12431D01*
X-12933Y-147741D01*
X-13359Y-148025D01*
X-26470Y-161137D01*
X-26715D01*
X-27427Y-161432D01*
X-27972Y-161977D01*
X-28267Y-162689D01*
Y-163459D01*
X-27972Y-164172D01*
X-27427Y-164716D01*
X-26715Y-165011D01*
X-25944D01*
X-25232Y-164716D01*
X-24687Y-164172D01*
X-24392Y-163459D01*
Y-162771D01*
X-11887Y-150266D01*
X-4831D01*
X-4501Y-150596D01*
X-3789Y-150891D01*
X-3018D01*
X-2306Y-150596D01*
X-1761Y-150051D01*
X-1466Y-149339D01*
Y-148568D01*
X-1761Y-147856D01*
X-2306Y-147311D01*
X-3018Y-147016D01*
D02*
G37*
G36*
X-46424Y-151103D02*
Y-152723D01*
X-44804D01*
X-45101Y-152006D01*
X-45706Y-151401D01*
X-46424Y-151103D01*
D02*
G37*
G36*
X-47424D02*
X-48142Y-151401D01*
X-48747Y-152006D01*
X-49044Y-152723D01*
X-47424D01*
Y-151103D01*
D02*
G37*
G36*
X-44804Y-153723D02*
X-46424D01*
Y-155343D01*
X-45706Y-155046D01*
X-45101Y-154441D01*
X-44804Y-153723D01*
D02*
G37*
G36*
X-47424D02*
X-49044D01*
X-48747Y-154441D01*
X-48142Y-155046D01*
X-47424Y-155343D01*
Y-153723D01*
D02*
G37*
G36*
X-192000Y-161900D02*
X-197500D01*
Y-165900D01*
X-192000D01*
Y-161900D01*
D02*
G37*
G36*
X-198500D02*
X-204000D01*
Y-165900D01*
X-198500D01*
Y-161900D01*
D02*
G37*
G36*
X-159413Y-162113D02*
X-170987D01*
Y-170687D01*
X-159413D01*
Y-162113D01*
D02*
G37*
G36*
X-192000Y-166900D02*
X-197500D01*
Y-170900D01*
X-192000D01*
Y-166900D01*
D02*
G37*
G36*
X-198500D02*
X-204000D01*
Y-170900D01*
X-198500D01*
Y-166900D01*
D02*
G37*
G36*
X-197500Y-182664D02*
D01*
Y-187711D01*
X-192018D01*
X-192142Y-186775D01*
X-192696Y-185437D01*
X-193577Y-184288D01*
X-194726Y-183407D01*
X-196064Y-182853D01*
X-197500Y-182664D01*
D02*
G37*
G36*
X-198500D02*
X-199936Y-182853D01*
X-201274Y-183407D01*
X-202423Y-184288D01*
X-203304Y-185437D01*
X-203858Y-186775D01*
X-203982Y-187711D01*
X-198500D01*
Y-182664D01*
D02*
G37*
G36*
X-164700Y-182878D02*
X-165700D01*
X-167080Y-183060D01*
X-168367Y-183592D01*
X-169471Y-184440D01*
X-170318Y-185545D01*
X-170851Y-186831D01*
X-171033Y-188211D01*
X-170851Y-189591D01*
X-170318Y-190877D01*
X-169471Y-191982D01*
X-168367Y-192830D01*
X-167080Y-193362D01*
X-165700Y-193544D01*
X-164700D01*
X-163320Y-193362D01*
X-162033Y-192830D01*
X-160929Y-191982D01*
X-160082Y-190877D01*
X-159549Y-189591D01*
X-159367Y-188211D01*
X-159549Y-186831D01*
X-160082Y-185545D01*
X-160929Y-184440D01*
X-162033Y-183592D01*
X-163320Y-183060D01*
X-164700Y-182878D01*
D02*
G37*
G36*
X-192018Y-188711D02*
X-197500D01*
Y-193758D01*
X-196064Y-193570D01*
X-194726Y-193015D01*
X-193577Y-192134D01*
X-192696Y-190985D01*
X-192142Y-189647D01*
X-192018Y-188711D01*
D02*
G37*
G36*
X-198500D02*
X-203982D01*
X-203858Y-189647D01*
X-203304Y-190985D01*
X-202423Y-192134D01*
X-201274Y-193015D01*
X-199936Y-193570D01*
X-198500Y-193758D01*
D01*
Y-188711D01*
D02*
G37*
G36*
X-48362Y-183479D02*
X-49132D01*
X-49844Y-183774D01*
X-50389Y-184319D01*
X-50684Y-185031D01*
Y-185497D01*
X-53859Y-188672D01*
X-54143Y-189097D01*
X-54243Y-189600D01*
Y-197778D01*
X-54573Y-198108D01*
X-54868Y-198820D01*
Y-199591D01*
X-54573Y-200303D01*
X-54028Y-200848D01*
X-53316Y-201143D01*
X-52545D01*
X-51833Y-200848D01*
X-51288Y-200303D01*
X-50993Y-199591D01*
Y-198820D01*
X-51288Y-198108D01*
X-51618Y-197778D01*
Y-190144D01*
X-48828Y-187354D01*
X-48362D01*
X-47649Y-187059D01*
X-47104Y-186514D01*
X-46809Y-185801D01*
Y-185031D01*
X-47104Y-184319D01*
X-47649Y-183774D01*
X-48362Y-183479D01*
D02*
G37*
G36*
X-22688Y-191881D02*
X-23459D01*
X-24171Y-192176D01*
X-24716Y-192721D01*
X-25010Y-193433D01*
Y-194203D01*
X-24716Y-194916D01*
X-24171Y-195461D01*
X-23459Y-195756D01*
X-22688D01*
X-21976Y-195461D01*
X-21646Y-195131D01*
X-14783D01*
X740Y-210655D01*
X1166Y-210939D01*
X1669Y-211039D01*
X27845D01*
X28175Y-211369D01*
X28887Y-211664D01*
X29658D01*
X30370Y-211369D01*
X30915Y-210824D01*
X31210Y-210112D01*
Y-209341D01*
X30915Y-208629D01*
X30370Y-208084D01*
X29658Y-207789D01*
X28887D01*
X28175Y-208084D01*
X27845Y-208414D01*
X2212D01*
X-13311Y-192890D01*
X-13737Y-192605D01*
X-14240Y-192506D01*
X-21646D01*
X-21976Y-192176D01*
X-22688Y-191881D01*
D02*
G37*
G36*
X-50570Y-210077D02*
Y-211697D01*
X-48950D01*
X-49247Y-210980D01*
X-49852Y-210375D01*
X-50570Y-210077D01*
D02*
G37*
G36*
X-51570D02*
X-52288Y-210375D01*
X-52893Y-210980D01*
X-53190Y-211697D01*
X-51570D01*
Y-210077D01*
D02*
G37*
G36*
X-92345D02*
Y-211697D01*
X-90725D01*
X-91022Y-210980D01*
X-91627Y-210375D01*
X-92345Y-210077D01*
D02*
G37*
G36*
X-93345D02*
X-94063Y-210375D01*
X-94668Y-210980D01*
X-94965Y-211697D01*
X-93345D01*
Y-210077D01*
D02*
G37*
G36*
X-48950Y-212697D02*
X-50570D01*
Y-214317D01*
X-49852Y-214020D01*
X-49247Y-213415D01*
X-48950Y-212697D01*
D02*
G37*
G36*
X-51570D02*
X-53190D01*
X-52893Y-213415D01*
X-52288Y-214020D01*
X-51570Y-214317D01*
Y-212697D01*
D02*
G37*
G36*
X-90725D02*
X-92345D01*
Y-214317D01*
X-91627Y-214020D01*
X-91022Y-213415D01*
X-90725Y-212697D01*
D02*
G37*
G36*
X-93345D02*
X-94965D01*
X-94668Y-213415D01*
X-94063Y-214020D01*
X-93345Y-214317D01*
Y-212697D01*
D02*
G37*
G36*
X-159413Y-210513D02*
X-170987D01*
Y-219087D01*
X-159413D01*
Y-210513D01*
D02*
G37*
G36*
X-192213D02*
X-203787D01*
Y-219087D01*
X-192213D01*
Y-210513D01*
D02*
G37*
G36*
X-58355Y-225405D02*
Y-227025D01*
X-56735D01*
X-57033Y-226307D01*
X-57638Y-225702D01*
X-58355Y-225405D01*
D02*
G37*
G36*
X-59355D02*
X-60073Y-225702D01*
X-60678Y-226307D01*
X-60975Y-227025D01*
X-59355D01*
Y-225405D01*
D02*
G37*
G36*
X-56735Y-228025D02*
X-58355D01*
Y-229645D01*
X-57638Y-229348D01*
X-57033Y-228743D01*
X-56735Y-228025D01*
D02*
G37*
G36*
X-59355D02*
X-60975D01*
X-60678Y-228743D01*
X-60073Y-229348D01*
X-59355Y-229645D01*
Y-228025D01*
D02*
G37*
G36*
X-34638Y-235880D02*
Y-237500D01*
X-33018D01*
X-33315Y-236782D01*
X-33920Y-236177D01*
X-34638Y-235880D01*
D02*
G37*
G36*
X-35638D02*
X-36356Y-236177D01*
X-36960Y-236782D01*
X-37258Y-237500D01*
X-35638D01*
Y-235880D01*
D02*
G37*
G36*
X-33018Y-238500D02*
X-34638D01*
Y-240120D01*
X-33920Y-239823D01*
X-33315Y-239218D01*
X-33018Y-238500D01*
D02*
G37*
G36*
X-35638D02*
X-37258D01*
X-36960Y-239218D01*
X-36356Y-239823D01*
X-35638Y-240120D01*
Y-238500D01*
D02*
G37*
G36*
X-164700Y-231278D02*
X-165700D01*
X-167080Y-231460D01*
X-168367Y-231993D01*
X-169471Y-232840D01*
X-170318Y-233945D01*
X-170851Y-235231D01*
X-171033Y-236611D01*
X-170851Y-237991D01*
X-170318Y-239278D01*
X-169471Y-240382D01*
X-168367Y-241230D01*
X-167080Y-241762D01*
X-165700Y-241944D01*
X-164700D01*
X-163320Y-241762D01*
X-162033Y-241230D01*
X-160929Y-240382D01*
X-160082Y-239278D01*
X-159549Y-237991D01*
X-159367Y-236611D01*
X-159549Y-235231D01*
X-160082Y-233945D01*
X-160929Y-232840D01*
X-162033Y-231993D01*
X-163320Y-231460D01*
X-164700Y-231278D01*
D02*
G37*
G36*
X-197500D02*
X-198500D01*
X-199880Y-231460D01*
X-201167Y-231993D01*
X-202271Y-232840D01*
X-203118Y-233945D01*
X-203651Y-235231D01*
X-203833Y-236611D01*
X-203651Y-237991D01*
X-203118Y-239278D01*
X-202271Y-240382D01*
X-201167Y-241230D01*
X-199880Y-241762D01*
X-198500Y-241944D01*
X-197500D01*
X-196120Y-241762D01*
X-194834Y-241230D01*
X-193729Y-240382D01*
X-192882Y-239278D01*
X-192349Y-237991D01*
X-192167Y-236611D01*
X-192349Y-235231D01*
X-192882Y-233945D01*
X-193729Y-232840D01*
X-194834Y-231993D01*
X-196120Y-231460D01*
X-197500Y-231278D01*
D02*
G37*
G36*
X-84815Y-229116D02*
X-85585D01*
X-86298Y-229411D01*
X-86842Y-229956D01*
X-87137Y-230668D01*
Y-231439D01*
X-86842Y-232151D01*
X-86513Y-232481D01*
Y-244613D01*
X-86842Y-244943D01*
X-87137Y-245655D01*
Y-246426D01*
X-86842Y-247138D01*
X-86298Y-247683D01*
X-85585Y-247978D01*
X-84815D01*
X-84102Y-247683D01*
X-83558Y-247138D01*
X-83263Y-246426D01*
Y-245655D01*
X-83558Y-244943D01*
X-83887Y-244613D01*
Y-232481D01*
X-83558Y-232151D01*
X-83263Y-231439D01*
Y-230668D01*
X-83558Y-229956D01*
X-84102Y-229411D01*
X-84815Y-229116D01*
D02*
G37*
G36*
X-66440Y-246601D02*
Y-248221D01*
X-64820D01*
X-65118Y-247503D01*
X-65722Y-246898D01*
X-66440Y-246601D01*
D02*
G37*
G36*
X-67440D02*
X-68158Y-246898D01*
X-68763Y-247503D01*
X-69060Y-248221D01*
X-67440D01*
Y-246601D01*
D02*
G37*
G36*
X-64820Y-249221D02*
X-66440D01*
Y-250841D01*
X-65722Y-250544D01*
X-65118Y-249939D01*
X-64820Y-249221D01*
D02*
G37*
G36*
X-67440D02*
X-69060D01*
X-68763Y-249939D01*
X-68158Y-250544D01*
X-67440Y-250841D01*
Y-249221D01*
D02*
G37*
G36*
X-188976Y-259880D02*
Y-261500D01*
X-187356D01*
X-187654Y-260782D01*
X-188259Y-260177D01*
X-188976Y-259880D01*
D02*
G37*
G36*
X-189976D02*
X-190694Y-260177D01*
X-191299Y-260782D01*
X-191596Y-261500D01*
X-189976D01*
Y-259880D01*
D02*
G37*
G36*
X75973Y-260107D02*
Y-261727D01*
X77593D01*
X77296Y-261009D01*
X76691Y-260405D01*
X75973Y-260107D01*
D02*
G37*
G36*
X74973D02*
X74255Y-260405D01*
X73650Y-261009D01*
X73353Y-261727D01*
X74973D01*
Y-260107D01*
D02*
G37*
G36*
X-112707Y-260144D02*
Y-261764D01*
X-111087D01*
X-111384Y-261046D01*
X-111989Y-260441D01*
X-112707Y-260144D01*
D02*
G37*
G36*
X-113707D02*
X-114425Y-260441D01*
X-115030Y-261046D01*
X-115327Y-261764D01*
X-113707D01*
Y-260144D01*
D02*
G37*
G36*
X116234Y-260150D02*
Y-261770D01*
X117854D01*
X117557Y-261052D01*
X116952Y-260447D01*
X116234Y-260150D01*
D02*
G37*
G36*
X115234D02*
X114516Y-260447D01*
X113911Y-261052D01*
X113614Y-261770D01*
X115234D01*
Y-260150D01*
D02*
G37*
G36*
X-153100Y-260201D02*
Y-261821D01*
X-151480D01*
X-151777Y-261103D01*
X-152382Y-260498D01*
X-153100Y-260201D01*
D02*
G37*
G36*
X-154100D02*
X-154818Y-260498D01*
X-155423Y-261103D01*
X-155720Y-261821D01*
X-154100D01*
Y-260201D01*
D02*
G37*
G36*
X-187356Y-262500D02*
X-188976D01*
Y-264120D01*
X-188259Y-263823D01*
X-187654Y-263218D01*
X-187356Y-262500D01*
D02*
G37*
G36*
X-189976D02*
X-191596D01*
X-191299Y-263218D01*
X-190694Y-263823D01*
X-189976Y-264120D01*
Y-262500D01*
D02*
G37*
G36*
X77593Y-262727D02*
X75973D01*
Y-264347D01*
X76691Y-264050D01*
X77296Y-263445D01*
X77593Y-262727D01*
D02*
G37*
G36*
X74973D02*
X73353D01*
X73650Y-263445D01*
X74255Y-264050D01*
X74973Y-264347D01*
Y-262727D01*
D02*
G37*
G36*
X-111087Y-262764D02*
X-112707D01*
Y-264384D01*
X-111989Y-264087D01*
X-111384Y-263482D01*
X-111087Y-262764D01*
D02*
G37*
G36*
X-113707D02*
X-115327D01*
X-115030Y-263482D01*
X-114425Y-264087D01*
X-113707Y-264384D01*
Y-262764D01*
D02*
G37*
G36*
X117854Y-262770D02*
X116234D01*
Y-264390D01*
X116952Y-264093D01*
X117557Y-263488D01*
X117854Y-262770D01*
D02*
G37*
G36*
X115234D02*
X113614D01*
X113911Y-263488D01*
X114516Y-264093D01*
X115234Y-264390D01*
Y-262770D01*
D02*
G37*
G36*
X-151480Y-262821D02*
X-153100D01*
Y-264441D01*
X-152382Y-264143D01*
X-151777Y-263538D01*
X-151480Y-262821D01*
D02*
G37*
G36*
X-154100D02*
X-155720D01*
X-155423Y-263538D01*
X-154818Y-264143D01*
X-154100Y-264441D01*
Y-262821D01*
D02*
G37*
G36*
X96164Y-262909D02*
X95034D01*
X93943Y-263201D01*
X92964Y-263766D01*
X92165Y-264565D01*
X91601Y-265544D01*
X91308Y-266635D01*
Y-267765D01*
X91601Y-268856D01*
X92165Y-269835D01*
X92964Y-270634D01*
X93943Y-271199D01*
X95034Y-271491D01*
X96164D01*
X97256Y-271199D01*
X98234Y-270634D01*
X99033Y-269835D01*
X99598Y-268856D01*
X99891Y-267765D01*
Y-266635D01*
X99598Y-265544D01*
X99033Y-264565D01*
X98234Y-263766D01*
X97256Y-263201D01*
X96164Y-262909D01*
D02*
G37*
G36*
X-133220D02*
X-134350D01*
X-135441Y-263201D01*
X-136420Y-263766D01*
X-137219Y-264565D01*
X-137784Y-265544D01*
X-138076Y-266635D01*
Y-267765D01*
X-137784Y-268856D01*
X-137219Y-269835D01*
X-136420Y-270634D01*
X-135441Y-271199D01*
X-134350Y-271491D01*
X-133220D01*
X-132128Y-271199D01*
X-131150Y-270634D01*
X-130351Y-269835D01*
X-129786Y-268856D01*
X-129493Y-267765D01*
Y-266635D01*
X-129786Y-265544D01*
X-130351Y-264565D01*
X-131150Y-263766D01*
X-132128Y-263201D01*
X-133220Y-262909D01*
D02*
G37*
G36*
X-172356Y-251273D02*
X-173126D01*
X-173839Y-251568D01*
X-174384Y-252113D01*
X-174679Y-252825D01*
Y-253596D01*
X-174384Y-254308D01*
X-174054Y-254638D01*
Y-268538D01*
X-174384Y-268868D01*
X-174679Y-269580D01*
Y-270351D01*
X-174384Y-271063D01*
X-173839Y-271608D01*
X-173126Y-271903D01*
X-172356D01*
X-171644Y-271608D01*
X-171099Y-271063D01*
X-170804Y-270351D01*
Y-269580D01*
X-171099Y-268868D01*
X-171429Y-268538D01*
Y-254638D01*
X-171099Y-254308D01*
X-170804Y-253596D01*
Y-252825D01*
X-171099Y-252113D01*
X-171644Y-251568D01*
X-172356Y-251273D01*
D02*
G37*
G36*
X-159100Y-273080D02*
Y-274700D01*
X-157480D01*
X-157777Y-273982D01*
X-158382Y-273377D01*
X-159100Y-273080D01*
D02*
G37*
G36*
X-160100D02*
X-160818Y-273377D01*
X-161423Y-273982D01*
X-161720Y-274700D01*
X-160100D01*
Y-273080D01*
D02*
G37*
G36*
X-157480Y-275700D02*
X-159100D01*
Y-277320D01*
X-158382Y-277023D01*
X-157777Y-276418D01*
X-157480Y-275700D01*
D02*
G37*
G36*
X-160100D02*
X-161720D01*
X-161423Y-276418D01*
X-160818Y-277023D01*
X-160100Y-277320D01*
Y-275700D01*
D02*
G37*
G36*
X-49846Y-278405D02*
Y-280025D01*
X-48226D01*
X-48523Y-279307D01*
X-49128Y-278703D01*
X-49846Y-278405D01*
D02*
G37*
G36*
X-50846D02*
X-51564Y-278703D01*
X-52169Y-279307D01*
X-52466Y-280025D01*
X-50846D01*
Y-278405D01*
D02*
G37*
G36*
X-23962Y-279981D02*
Y-281601D01*
X-22342D01*
X-22639Y-280883D01*
X-23244Y-280278D01*
X-23962Y-279981D01*
D02*
G37*
G36*
X-24962D02*
X-25680Y-280278D01*
X-26285Y-280883D01*
X-26582Y-281601D01*
X-24962D01*
Y-279981D01*
D02*
G37*
G36*
X-48226Y-281025D02*
X-49846D01*
Y-282645D01*
X-49128Y-282348D01*
X-48523Y-281743D01*
X-48226Y-281025D01*
D02*
G37*
G36*
X-50846D02*
X-52466D01*
X-52169Y-281743D01*
X-51564Y-282348D01*
X-50846Y-282645D01*
Y-281025D01*
D02*
G37*
G36*
X-22342Y-282601D02*
X-23962D01*
Y-284221D01*
X-23244Y-283924D01*
X-22639Y-283319D01*
X-22342Y-282601D01*
D02*
G37*
G36*
X-24962D02*
X-26582D01*
X-26285Y-283319D01*
X-25680Y-283924D01*
X-24962Y-284221D01*
Y-282601D01*
D02*
G37*
G36*
X-92294Y-287625D02*
Y-289245D01*
X-90674D01*
X-90972Y-288527D01*
X-91576Y-287922D01*
X-92294Y-287625D01*
D02*
G37*
G36*
X-93294D02*
X-94012Y-287922D01*
X-94617Y-288527D01*
X-94914Y-289245D01*
X-93294D01*
Y-287625D01*
D02*
G37*
G36*
X-90674Y-290245D02*
X-92294D01*
Y-291865D01*
X-91576Y-291567D01*
X-90972Y-290963D01*
X-90674Y-290245D01*
D02*
G37*
G36*
X-93294D02*
X-94914D01*
X-94617Y-290963D01*
X-94012Y-291567D01*
X-93294Y-291865D01*
Y-290245D01*
D02*
G37*
G36*
X6693Y-305971D02*
Y-307591D01*
X8313D01*
X8016Y-306873D01*
X7411Y-306269D01*
X6693Y-305971D01*
D02*
G37*
G36*
X5693D02*
X4975Y-306269D01*
X4371Y-306873D01*
X4073Y-307591D01*
X5693D01*
Y-305971D01*
D02*
G37*
G36*
X61635Y-306789D02*
Y-308409D01*
X63255D01*
X62958Y-307691D01*
X62353Y-307086D01*
X61635Y-306789D01*
D02*
G37*
G36*
X60635D02*
X59917Y-307086D01*
X59312Y-307691D01*
X59015Y-308409D01*
X60635D01*
Y-306789D01*
D02*
G37*
G36*
X8313Y-308591D02*
X6693D01*
Y-310211D01*
X7411Y-309914D01*
X8016Y-309309D01*
X8313Y-308591D01*
D02*
G37*
G36*
X5693D02*
X4073D01*
X4371Y-309309D01*
X4975Y-309914D01*
X5693Y-310211D01*
Y-308591D01*
D02*
G37*
G36*
X63255Y-309409D02*
X61635D01*
Y-311029D01*
X62353Y-310732D01*
X62958Y-310127D01*
X63255Y-309409D01*
D02*
G37*
G36*
X60635D02*
X59015D01*
X59312Y-310127D01*
X59917Y-310732D01*
X60635Y-311029D01*
Y-309409D01*
D02*
G37*
G36*
X74262Y-311185D02*
X72943D01*
X71669Y-311526D01*
X70526Y-312186D01*
X69594Y-313119D01*
X68934Y-314261D01*
X68593Y-315535D01*
Y-316854D01*
X68934Y-318128D01*
X69594Y-319271D01*
X70526Y-320203D01*
X71669Y-320863D01*
X72943Y-321204D01*
X74262D01*
X75536Y-320863D01*
X76679Y-320203D01*
X77612Y-319271D01*
X78271Y-318128D01*
X78613Y-316854D01*
Y-315535D01*
X78271Y-314261D01*
X77612Y-313119D01*
X76679Y-312186D01*
X75536Y-311526D01*
X74262Y-311185D01*
D02*
G37*
G36*
X-541D02*
X-1860D01*
X-3134Y-311526D01*
X-4277Y-312186D01*
X-5209Y-313119D01*
X-5869Y-314261D01*
X-6210Y-315535D01*
Y-316854D01*
X-5869Y-318128D01*
X-5209Y-319271D01*
X-4277Y-320203D01*
X-3134Y-320863D01*
X-1860Y-321204D01*
X-541D01*
X733Y-320863D01*
X1876Y-320203D01*
X2808Y-319271D01*
X3468Y-318128D01*
X3809Y-316854D01*
Y-315535D01*
X3468Y-314261D01*
X2808Y-313119D01*
X1876Y-312186D01*
X733Y-311526D01*
X-541Y-311185D01*
D02*
G37*
G36*
X-80544D02*
X-81863D01*
X-83137Y-311526D01*
X-84280Y-312186D01*
X-85212Y-313119D01*
X-85872Y-314261D01*
X-86213Y-315535D01*
Y-316854D01*
X-85872Y-318128D01*
X-85212Y-319271D01*
X-84280Y-320203D01*
X-83137Y-320863D01*
X-81863Y-321204D01*
X-80544D01*
X-79270Y-320863D01*
X-78127Y-320203D01*
X-77195Y-319271D01*
X-76535Y-318128D01*
X-76194Y-316854D01*
Y-315535D01*
X-76535Y-314261D01*
X-77195Y-313119D01*
X-78127Y-312186D01*
X-79270Y-311526D01*
X-80544Y-311185D01*
D02*
G37*
G36*
X-150147D02*
X-151466D01*
X-152741Y-311526D01*
X-153883Y-312186D01*
X-154816Y-313119D01*
X-155475Y-314261D01*
X-155817Y-315535D01*
Y-316854D01*
X-155475Y-318128D01*
X-154816Y-319271D01*
X-153883Y-320203D01*
X-152741Y-320863D01*
X-151466Y-321204D01*
X-150147D01*
X-148873Y-320863D01*
X-147731Y-320203D01*
X-146798Y-319271D01*
X-146138Y-318128D01*
X-145797Y-316854D01*
Y-315535D01*
X-146138Y-314261D01*
X-146798Y-313119D01*
X-147731Y-312186D01*
X-148873Y-311526D01*
X-150147Y-311185D01*
D02*
G37*
G36*
X119219Y-325839D02*
X117586D01*
X115985Y-326157D01*
X114477Y-326782D01*
X113119Y-327689D01*
X111965Y-328843D01*
X111058Y-330201D01*
X110433Y-331709D01*
X110115Y-333310D01*
Y-334943D01*
X110433Y-336544D01*
X111058Y-338052D01*
X111965Y-339409D01*
X113119Y-340564D01*
X114477Y-341471D01*
X115985Y-342095D01*
X117586Y-342414D01*
X119219D01*
X120820Y-342095D01*
X122328Y-341471D01*
X123685Y-340564D01*
X124839Y-339409D01*
X125746Y-338052D01*
X126371Y-336544D01*
X126690Y-334943D01*
Y-333310D01*
X126371Y-331709D01*
X125746Y-330201D01*
X124839Y-328843D01*
X123685Y-327689D01*
X122328Y-326782D01*
X120820Y-326157D01*
X119219Y-325839D01*
D02*
G37*
G36*
X-194769D02*
X-196401D01*
X-198002Y-326157D01*
X-199510Y-326782D01*
X-200868Y-327689D01*
X-202022Y-328843D01*
X-202929Y-330201D01*
X-203554Y-331709D01*
X-203872Y-333310D01*
Y-334943D01*
X-203554Y-336544D01*
X-202929Y-338052D01*
X-202022Y-339409D01*
X-200868Y-340564D01*
X-199510Y-341471D01*
X-198002Y-342095D01*
X-196401Y-342414D01*
X-194769D01*
X-193167Y-342095D01*
X-191659Y-341471D01*
X-190302Y-340564D01*
X-189148Y-339409D01*
X-188241Y-338052D01*
X-187616Y-336544D01*
X-187297Y-334943D01*
Y-333310D01*
X-187616Y-331709D01*
X-188241Y-330201D01*
X-189148Y-328843D01*
X-190302Y-327689D01*
X-191659Y-326782D01*
X-193167Y-326157D01*
X-194769Y-325839D01*
D02*
G37*
%LPD*%
G36*
X4341Y-36343D02*
X4383Y-43245D01*
X4031Y-43600D01*
X-4252D01*
X-15052Y-32800D01*
X-63150D01*
X-72800Y-43600D01*
X-81200D01*
Y-35965D01*
X-70629Y-25394D01*
X-6602D01*
X4341Y-36343D01*
D02*
G37*
D13*
X-52930Y-199205D02*
Y-189600D01*
X-48747Y-185416D01*
X-26329Y-163074D02*
Y-162852D01*
X-12431Y-148953D01*
X-3403D01*
X-172741Y-269966D02*
Y-253211D01*
X-20063Y-98082D02*
X-19977Y-97996D01*
X-63503Y-98168D02*
X-63417Y-98082D01*
X-20063D01*
X-95600Y-98144D02*
X-67609D01*
X-67585Y-98168D01*
X-85200Y-246040D02*
Y-231053D01*
X1669Y-209726D02*
X29272D01*
X-14240Y-193818D02*
X1669Y-209726D01*
X-23073Y-193818D02*
X-14240D01*
X-67585Y-98168D02*
X-63503D01*
D77*
X-198000Y-214800D02*
D03*
X-165200D02*
D03*
Y-166400D02*
D03*
X-198000D02*
D03*
X-165200Y-118000D02*
D03*
X-198000D02*
D03*
D78*
X-133785Y-267200D02*
D03*
Y-87200D02*
D03*
X95599D02*
D03*
Y-267200D02*
D03*
D79*
X-1201Y-316195D02*
D03*
X-81204D02*
D03*
X73603D02*
D03*
X-150807D02*
D03*
X-150806Y-38480D02*
D03*
X-76003D02*
D03*
X-1200D02*
D03*
X73603D02*
D03*
D80*
X-24858Y-36800D02*
D03*
X-52259D02*
D03*
D81*
X-165200Y-236611D02*
D03*
Y-188211D02*
D03*
X-198000Y-236611D02*
D03*
Y-188211D02*
D03*
X-165200Y-139811D02*
D03*
X-198000D02*
D03*
D82*
X-195585Y-334126D02*
D03*
Y-20200D02*
D03*
X118402D02*
D03*
Y-334126D02*
D03*
D83*
X-58855Y-227525D02*
D03*
X-26329Y-163074D02*
D03*
X-48747Y-185416D02*
D03*
X-189476Y-262000D02*
D03*
X-172741Y-269966D02*
D03*
X115734Y-262270D02*
D03*
X75473Y-262227D02*
D03*
X-113207Y-262264D02*
D03*
X-153600Y-262321D02*
D03*
X85392Y-74628D02*
D03*
X106456Y-74738D02*
D03*
X-82118Y-110601D02*
D03*
X-51070Y-212197D02*
D03*
X-30525Y-125436D02*
D03*
X33184Y-87536D02*
D03*
X-19977Y-97996D02*
D03*
X-95600Y-98144D02*
D03*
X-172741Y-253211D02*
D03*
X-85200Y-246040D02*
D03*
Y-231053D02*
D03*
X-52930Y-199205D02*
D03*
X-46924Y-153223D02*
D03*
X-29300Y-54300D02*
D03*
X6193Y-308091D02*
D03*
X61135Y-308909D02*
D03*
X-66940Y-248721D02*
D03*
X29272Y-209726D02*
D03*
X-24462Y-282101D02*
D03*
X-23073Y-193818D02*
D03*
X-3403Y-148953D02*
D03*
X-58405Y-82003D02*
D03*
X-63503Y-98168D02*
D03*
X-107485Y-109077D02*
D03*
X-92845Y-212197D02*
D03*
X-123733Y-75019D02*
D03*
X-144029Y-75010D02*
D03*
X-29823Y-253094D02*
D03*
X-33760D02*
D03*
X-25032Y-256568D02*
D03*
Y-260596D02*
D03*
Y-264536D02*
D03*
Y-268564D02*
D03*
X-33760Y-271704D02*
D03*
X-29823D02*
D03*
X-3403Y-159901D02*
D03*
X520D02*
D03*
X4578D02*
D03*
X8576D02*
D03*
X12573D02*
D03*
X16601D02*
D03*
X24566D02*
D03*
X20570D02*
D03*
X28593D02*
D03*
X32533D02*
D03*
X36561D02*
D03*
X39955Y-163918D02*
D03*
X39941Y-168118D02*
D03*
X39955Y-172118D02*
D03*
Y-176116D02*
D03*
X40000Y-180145D02*
D03*
Y-184237D02*
D03*
X40014Y-188145D02*
D03*
Y-192197D02*
D03*
X40007Y-196207D02*
D03*
X28044Y-143039D02*
D03*
X32054Y-143046D02*
D03*
X36106D02*
D03*
X40014Y-143032D02*
D03*
X44106D02*
D03*
X48135Y-142986D02*
D03*
X52133D02*
D03*
X56133Y-142972D02*
D03*
X60333Y-142986D02*
D03*
X63900Y-139197D02*
D03*
Y-135170D02*
D03*
Y-131230D02*
D03*
Y-127202D02*
D03*
Y-123207D02*
D03*
Y-119237D02*
D03*
Y-115209D02*
D03*
Y-111212D02*
D03*
Y-107215D02*
D03*
Y-103156D02*
D03*
Y-99233D02*
D03*
X60800Y-94797D02*
D03*
X56600Y-94784D02*
D03*
X52600Y-94797D02*
D03*
X48603D02*
D03*
X44574Y-94843D02*
D03*
X40481D02*
D03*
X36573Y-94857D02*
D03*
X28511Y-94850D02*
D03*
X32521Y-94857D02*
D03*
X-159600Y-275200D02*
D03*
X-50346Y-280525D02*
D03*
X-58008Y-184600D02*
D03*
X-61932D02*
D03*
X-65990D02*
D03*
X-69988D02*
D03*
X-73985D02*
D03*
X-78013D02*
D03*
X-81982D02*
D03*
X-85978D02*
D03*
X-90005D02*
D03*
X-93945D02*
D03*
X-54098Y-149911D02*
D03*
X-54105Y-153921D02*
D03*
Y-157973D02*
D03*
X-54092Y-161881D02*
D03*
Y-165974D02*
D03*
X-54046Y-170003D02*
D03*
Y-174000D02*
D03*
X-54032Y-178000D02*
D03*
X-54046Y-182200D02*
D03*
X-97973Y-184600D02*
D03*
X-101948Y-182289D02*
D03*
X-101934Y-178089D02*
D03*
X-101948Y-174089D02*
D03*
Y-170092D02*
D03*
X-101993Y-166063D02*
D03*
Y-161970D02*
D03*
X-102007Y-158062D02*
D03*
Y-154010D02*
D03*
X-35138Y-238000D02*
D03*
X-102000Y-150000D02*
D03*
X-177200Y-71257D02*
D03*
X-92794Y-289745D02*
D03*
M02*
