G04*
G04 #@! TF.GenerationSoftware,Altium Limited,Altium Designer,23.11.1 (41)*
G04*
G04 Layer_Physical_Order=1*
G04 Layer_Color=255*
%FSLAX25Y25*%
%MOIN*%
G70*
G04*
G04 #@! TF.SameCoordinates,7FD28054-1643-4BC3-9A3C-097E624A02D2*
G04*
G04*
G04 #@! TF.FilePolarity,Positive*
G04*
G01*
G75*
%ADD13C,0.01000*%
%ADD14R,0.03543X0.02756*%
%ADD15R,0.12500X0.04488*%
%ADD16R,0.02756X0.03543*%
%ADD17R,0.04528X0.05118*%
%ADD18R,0.12598X0.06299*%
%ADD19R,0.04331X0.06693*%
%ADD20R,0.08071X0.09449*%
%ADD21R,0.06693X0.04331*%
%ADD22R,0.04098X0.15898*%
%ADD23R,0.42299X0.32701*%
%ADD24R,0.07480X0.03543*%
%ADD25R,0.07480X0.12598*%
%ADD26R,0.15748X0.21654*%
%ADD27R,0.07284X0.14173*%
%ADD28R,0.03937X0.13386*%
%ADD29R,0.42126X0.33858*%
%ADD30R,0.04331X0.02165*%
%ADD31R,0.04409X0.05394*%
%ADD32R,0.09449X0.08071*%
%ADD33R,0.02165X0.04331*%
%ADD34R,0.03150X0.05512*%
%ADD35R,0.04724X0.09449*%
%ADD36R,0.03937X0.05709*%
%ADD37R,0.03543X0.05512*%
%ADD38R,0.15898X0.04098*%
%ADD39R,0.32701X0.42299*%
%ADD73C,0.02300*%
%ADD74C,0.04300*%
%ADD75C,0.01500*%
%ADD76C,0.02800*%
%ADD77R,0.10000X0.07000*%
%ADD78C,0.07008*%
%ADD79C,0.08445*%
%ADD80C,0.03150*%
%ADD81O,0.10000X0.09000*%
%ADD82C,0.06000*%
%ADD83C,0.02300*%
G36*
X-205667Y-1204D02*
X-205656Y-1202D01*
X-205645Y-1204D01*
X-183435D01*
X-165451Y-19189D01*
X-165060Y-19450D01*
X-164599Y-19542D01*
X-164599Y-19542D01*
X87401D01*
X87401Y-19542D01*
X87862Y-19450D01*
X88252Y-19189D01*
X106237Y-1204D01*
X128627Y-1192D01*
X129493Y-1195D01*
X131191Y-1537D01*
X132319Y-2008D01*
X136587Y-6276D01*
X137068Y-7445D01*
X137401Y-9145D01*
X137399Y-10011D01*
X137399Y-10013D01*
X137399Y-10014D01*
X137399Y-282636D01*
X137398Y-343833D01*
X137404Y-343864D01*
X137399Y-343896D01*
X137444Y-344761D01*
X137195Y-346476D01*
X137040Y-346912D01*
X131175Y-352776D01*
X129935Y-353090D01*
X129101Y-353133D01*
X105900D01*
X89052Y-336286D01*
X89052Y-336286D01*
X88662Y-336025D01*
X88201Y-335933D01*
X-165399D01*
X-165399Y-335933D01*
X-165860Y-336025D01*
X-166251Y-336286D01*
X-183098Y-353133D01*
X-205835Y-353128D01*
X-206697Y-353124D01*
X-207762Y-352906D01*
X-214362Y-346306D01*
X-214585Y-345153D01*
X-214581Y-344287D01*
X-214581Y-344284D01*
X-214581Y-344280D01*
X-214581Y-10375D01*
X-214540Y-10169D01*
X-214493Y-9942D01*
X-214489Y-9075D01*
X-214253Y-7922D01*
X-207758Y-1427D01*
X-206525Y-1189D01*
X-205667Y-1204D01*
D02*
G37*
%LPC*%
G36*
X119219Y-11913D02*
X117586D01*
X115985Y-12231D01*
X114477Y-12856D01*
X113119Y-13763D01*
X111965Y-14917D01*
X111058Y-16274D01*
X110433Y-17783D01*
X110115Y-19384D01*
Y-21016D01*
X110433Y-22617D01*
X111058Y-24126D01*
X111965Y-25483D01*
X113119Y-26637D01*
X114477Y-27544D01*
X115985Y-28169D01*
X117586Y-28488D01*
X119219D01*
X120820Y-28169D01*
X122328Y-27544D01*
X123685Y-26637D01*
X124839Y-25483D01*
X125746Y-24126D01*
X126371Y-22617D01*
X126690Y-21016D01*
Y-19384D01*
X126371Y-17783D01*
X125746Y-16274D01*
X124839Y-14917D01*
X123685Y-13763D01*
X122328Y-12856D01*
X120820Y-12231D01*
X119219Y-11913D01*
D02*
G37*
G36*
X-194769D02*
X-196401D01*
X-198002Y-12231D01*
X-199510Y-12856D01*
X-200868Y-13763D01*
X-202022Y-14917D01*
X-202929Y-16274D01*
X-203554Y-17783D01*
X-203872Y-19384D01*
Y-21016D01*
X-203554Y-22617D01*
X-202929Y-24126D01*
X-202022Y-25483D01*
X-200868Y-26637D01*
X-199510Y-27544D01*
X-198002Y-28169D01*
X-196401Y-28488D01*
X-194769D01*
X-193167Y-28169D01*
X-191659Y-27544D01*
X-190302Y-26637D01*
X-189148Y-25483D01*
X-188241Y-24126D01*
X-187616Y-22617D01*
X-187297Y-21016D01*
Y-19384D01*
X-187616Y-17783D01*
X-188241Y-16274D01*
X-189148Y-14917D01*
X-190302Y-13763D01*
X-191659Y-12856D01*
X-193167Y-12231D01*
X-194769Y-11913D01*
D02*
G37*
G36*
X78369Y-32797D02*
X71267D01*
X71256Y-32799D01*
X71244Y-32798D01*
X71102Y-32830D01*
X70960Y-32858D01*
X70950Y-32865D01*
X70939Y-32867D01*
X70821Y-32952D01*
X70700Y-33032D01*
X70693Y-33042D01*
X70684Y-33049D01*
X59987Y-44374D01*
X13200D01*
X13066Y-44400D01*
X12931Y-44420D01*
X12913Y-44431D01*
X12893Y-44435D01*
X12811Y-44489D01*
X12345D01*
Y-44867D01*
X-4585Y-60172D01*
X-23999D01*
Y-60154D01*
X-34697D01*
X-35023Y-60154D01*
X-35197Y-59726D01*
Y-52564D01*
X-34058D01*
Y-48808D01*
Y-45052D01*
X-35417D01*
X-35432Y-45030D01*
X-35693Y-44856D01*
X-36000Y-44795D01*
X-40182D01*
X-40183Y-44795D01*
X-40184Y-44795D01*
X-40336Y-44825D01*
X-40489Y-44856D01*
X-40490Y-44856D01*
X-40491Y-44856D01*
X-40951Y-45030D01*
X-41212Y-44856D01*
X-41519Y-44795D01*
X-47108Y-44795D01*
X-47415Y-44856D01*
X-47676Y-45030D01*
X-47850Y-45290D01*
X-47911Y-45597D01*
Y-60148D01*
X-48409Y-60154D01*
Y-60154D01*
X-59432D01*
Y-60172D01*
X-74990D01*
X-75297Y-60233D01*
X-75558Y-60408D01*
X-75732Y-60668D01*
X-75793Y-60975D01*
Y-91469D01*
X-83385D01*
Y-91193D01*
X-84238D01*
Y-83105D01*
X-84338Y-82603D01*
X-84622Y-82177D01*
X-106752Y-60047D01*
X-107178Y-59763D01*
X-107680Y-59663D01*
X-196716D01*
X-197218Y-59763D01*
X-197644Y-60047D01*
X-208259Y-70662D01*
X-208543Y-71088D01*
X-208643Y-71590D01*
Y-108669D01*
X-208543Y-109172D01*
X-208259Y-109598D01*
X-203787Y-114069D01*
Y-122287D01*
X-199313D01*
Y-134585D01*
X-199880Y-134660D01*
X-201167Y-135193D01*
X-202271Y-136040D01*
X-203118Y-137144D01*
X-203651Y-138431D01*
X-203833Y-139811D01*
X-203651Y-141191D01*
X-203118Y-142478D01*
X-202271Y-143582D01*
X-201167Y-144430D01*
X-199880Y-144962D01*
X-198500Y-145144D01*
X-197500D01*
X-196120Y-144962D01*
X-194834Y-144430D01*
X-193729Y-143582D01*
X-192882Y-142478D01*
X-192349Y-141191D01*
X-192167Y-139811D01*
X-192349Y-138431D01*
X-192882Y-137144D01*
X-193729Y-136040D01*
X-194834Y-135193D01*
X-196120Y-134660D01*
X-196687Y-134585D01*
Y-122287D01*
X-192213D01*
Y-113713D01*
X-200431D01*
X-206018Y-108126D01*
Y-72134D01*
X-196172Y-62288D01*
X-108224D01*
X-86863Y-83649D01*
Y-91193D01*
X-87716D01*
Y-96311D01*
X-83385D01*
Y-94094D01*
X-75793D01*
Y-131899D01*
X-75804Y-131913D01*
X-80151D01*
Y-116026D01*
X-80212Y-115719D01*
X-80386Y-115459D01*
X-80647Y-115285D01*
X-80954Y-115224D01*
X-87163D01*
X-87260Y-115243D01*
X-87555D01*
Y-115341D01*
X-87731Y-115459D01*
X-87905Y-115719D01*
X-87966Y-116026D01*
Y-138831D01*
X-87905Y-139139D01*
X-87731Y-139399D01*
X-87470Y-139573D01*
X-87163Y-139634D01*
X-55664D01*
X-55562Y-139648D01*
X-46998D01*
X-46922Y-139638D01*
X-42864D01*
Y-133732D01*
X-46922D01*
X-46998Y-133722D01*
X-53054D01*
X-53368Y-133333D01*
X-41285Y-77143D01*
X-40787Y-77098D01*
X-22679Y-120775D01*
X-22957Y-121191D01*
X-24959D01*
Y-125037D01*
X-22294D01*
Y-122985D01*
X-21803Y-122888D01*
X-20780Y-125356D01*
Y-180298D01*
X-25632D01*
Y-184629D01*
X-20780D01*
Y-186204D01*
X-25632D01*
Y-190534D01*
X-24386D01*
Y-192391D01*
X-24500Y-192506D01*
X-110201D01*
X-110703Y-192605D01*
X-111129Y-192890D01*
X-113774Y-195535D01*
X-115824D01*
X-116287Y-195444D01*
X-116287Y-195035D01*
Y-192700D01*
X-123537D01*
X-130787D01*
X-130787Y-195444D01*
X-131249Y-195535D01*
X-136316D01*
X-136779Y-195444D01*
X-136779Y-195035D01*
Y-192700D01*
X-144029D01*
X-151279D01*
X-151279Y-195444D01*
X-151741Y-195535D01*
X-157009D01*
X-160769Y-191774D01*
X-160082Y-190877D01*
X-159549Y-189591D01*
X-159367Y-188211D01*
X-159549Y-186831D01*
X-160082Y-185545D01*
X-160929Y-184440D01*
X-162033Y-183592D01*
X-163320Y-183060D01*
X-163775Y-183000D01*
Y-170687D01*
X-159413D01*
Y-162113D01*
X-170987D01*
Y-170687D01*
X-166400D01*
Y-182970D01*
X-167080Y-183060D01*
X-168367Y-183592D01*
X-169471Y-184440D01*
X-170318Y-185545D01*
X-170851Y-186831D01*
X-171033Y-188211D01*
X-170851Y-189591D01*
X-170318Y-190877D01*
X-169471Y-191982D01*
X-168367Y-192830D01*
X-167080Y-193362D01*
X-165700Y-193544D01*
X-164700D01*
X-163320Y-193362D01*
X-163019Y-193238D01*
X-158481Y-197775D01*
X-158055Y-198060D01*
X-157553Y-198160D01*
X-113230D01*
X-112727Y-198060D01*
X-112302Y-197775D01*
X-109657Y-195131D01*
X-24500D01*
X-24171Y-195461D01*
X-23459Y-195756D01*
X-22688D01*
X-21976Y-195461D01*
X-21431Y-194916D01*
X-21280Y-194552D01*
X-20780Y-194651D01*
Y-208260D01*
X-28235D01*
Y-216134D01*
X-20780D01*
Y-228004D01*
X-20719Y-228311D01*
X-20545Y-228572D01*
X-20284Y-228746D01*
X-19977Y-228807D01*
X-255D01*
Y-228813D01*
X4797D01*
Y-237335D01*
X4297Y-237650D01*
X4073Y-237605D01*
X-13948D01*
Y-234516D01*
X-19932D01*
Y-241484D01*
X-16076D01*
X-15885Y-241522D01*
X-15278D01*
X-15109Y-241556D01*
X-9603D01*
Y-287632D01*
X-9542Y-287939D01*
X-9368Y-288199D01*
X-9107Y-288373D01*
X-8800Y-288434D01*
X13012D01*
X13319Y-288373D01*
X13580Y-288199D01*
X13754Y-287939D01*
X13815Y-287632D01*
Y-214640D01*
X13754Y-214333D01*
X13580Y-214072D01*
X13319Y-213898D01*
X13012Y-213837D01*
X5750D01*
X5600Y-213837D01*
X5257Y-213853D01*
X4980Y-213843D01*
X4797Y-213837D01*
X4763Y-213837D01*
X-7997D01*
Y-129853D01*
X-5350D01*
Y-135074D01*
X9337D01*
Y-146225D01*
X8484D01*
Y-147641D01*
X-1976D01*
X-2306Y-147311D01*
X-3018Y-147016D01*
X-3789D01*
X-4501Y-147311D01*
X-5046Y-147856D01*
X-5341Y-148568D01*
Y-149339D01*
X-5046Y-150051D01*
X-4501Y-150596D01*
X-3789Y-150891D01*
X-3018D01*
X-2306Y-150596D01*
X-1976Y-150266D01*
X8484D01*
Y-151344D01*
X12815D01*
Y-146225D01*
X11962D01*
Y-135074D01*
X12123D01*
Y-129401D01*
X12123Y-129401D01*
X12149Y-129050D01*
X12149Y-128912D01*
Y-121791D01*
X12088Y-121483D01*
X11914Y-121223D01*
X11654Y-121049D01*
X11346Y-120988D01*
X-14044D01*
X-35197Y-71336D01*
Y-70227D01*
X-35023Y-69799D01*
X-34378Y-69799D01*
X-34249Y-69825D01*
X997D01*
X1135Y-69797D01*
X1275Y-69775D01*
X1289Y-69767D01*
X1304Y-69764D01*
X1422Y-69685D01*
X1542Y-69611D01*
X16768Y-55513D01*
X21991D01*
Y-55418D01*
X66942D01*
X66968Y-55413D01*
X66994Y-55417D01*
X67121Y-55383D01*
X67250Y-55357D01*
X67272Y-55342D01*
X67297Y-55336D01*
X67401Y-55256D01*
X67510Y-55183D01*
X67525Y-55161D01*
X67546Y-55145D01*
X78973Y-42128D01*
X79038Y-42015D01*
X79111Y-41906D01*
X79116Y-41880D01*
X79129Y-41857D01*
X79146Y-41727D01*
X79172Y-41598D01*
Y-33600D01*
X79111Y-33293D01*
X78937Y-33032D01*
X78676Y-32858D01*
X78369Y-32797D01*
D02*
G37*
G36*
X-150119Y-33258D02*
X-150306D01*
Y-37980D01*
X-145584D01*
Y-37793D01*
X-145940Y-36464D01*
X-146627Y-35274D01*
X-147599Y-34301D01*
X-148790Y-33614D01*
X-150119Y-33258D01*
D02*
G37*
G36*
X-151306D02*
X-151494D01*
X-152822Y-33614D01*
X-154013Y-34301D01*
X-154985Y-35274D01*
X-155673Y-36464D01*
X-156029Y-37793D01*
Y-37980D01*
X-151306D01*
Y-33258D01*
D02*
G37*
G36*
X-540Y-33470D02*
X-1859D01*
X-3134Y-33812D01*
X-4276Y-34471D01*
X-5209Y-35404D01*
X-5868Y-36546D01*
X-6210Y-37821D01*
Y-39140D01*
X-5868Y-40414D01*
X-5209Y-41556D01*
X-4276Y-42489D01*
X-3134Y-43149D01*
X-1859Y-43490D01*
X-540D01*
X734Y-43149D01*
X1876Y-42489D01*
X2809Y-41556D01*
X3469Y-40414D01*
X3810Y-39140D01*
Y-37821D01*
X3469Y-36546D01*
X2809Y-35404D01*
X1876Y-34471D01*
X734Y-33812D01*
X-540Y-33470D01*
D02*
G37*
G36*
X-75343D02*
X-76663D01*
X-77937Y-33812D01*
X-79079Y-34471D01*
X-80012Y-35404D01*
X-80671Y-36546D01*
X-81013Y-37821D01*
Y-39140D01*
X-80671Y-40414D01*
X-80012Y-41556D01*
X-79079Y-42489D01*
X-77937Y-43149D01*
X-76663Y-43490D01*
X-75343D01*
X-74069Y-43149D01*
X-72927Y-42489D01*
X-71994Y-41556D01*
X-71335Y-40414D01*
X-70993Y-39140D01*
Y-37821D01*
X-71335Y-36546D01*
X-71994Y-35404D01*
X-72927Y-34471D01*
X-74069Y-33812D01*
X-75343Y-33470D01*
D02*
G37*
G36*
X-145584Y-38980D02*
X-150306D01*
Y-43703D01*
X-150119D01*
X-148790Y-43347D01*
X-147599Y-42659D01*
X-146627Y-41687D01*
X-145940Y-40496D01*
X-145584Y-39168D01*
Y-38980D01*
D02*
G37*
G36*
X-151306D02*
X-156029D01*
Y-39168D01*
X-155673Y-40496D01*
X-154985Y-41687D01*
X-154013Y-42659D01*
X-152822Y-43347D01*
X-151494Y-43703D01*
X-151306D01*
Y-38980D01*
D02*
G37*
G36*
X-30984Y-45052D02*
X-33059D01*
Y-48308D01*
X-30984D01*
Y-45052D01*
D02*
G37*
G36*
X-20527Y-21446D02*
X-26826D01*
Y-32469D01*
X-25839D01*
X-25773Y-32969D01*
X-26377Y-33131D01*
X-27275Y-33650D01*
X-28008Y-34383D01*
X-28526Y-35280D01*
X-28795Y-36282D01*
Y-37318D01*
X-28526Y-38320D01*
X-28008Y-39217D01*
X-27275Y-39950D01*
X-26377Y-40469D01*
X-25773Y-40631D01*
X-25839Y-41131D01*
X-26826D01*
Y-52154D01*
X-20527D01*
Y-41131D01*
X-23877D01*
X-23943Y-40631D01*
X-23338Y-40469D01*
X-22440Y-39950D01*
X-21707Y-39217D01*
X-21189Y-38320D01*
X-20921Y-37318D01*
Y-36282D01*
X-21189Y-35280D01*
X-21707Y-34383D01*
X-22440Y-33650D01*
X-23338Y-33131D01*
X-23943Y-32969D01*
X-23877Y-32469D01*
X-20527D01*
Y-21446D01*
D02*
G37*
G36*
X-50291D02*
X-56590D01*
Y-32469D01*
X-53240D01*
X-53174Y-32969D01*
X-53779Y-33131D01*
X-54677Y-33650D01*
X-55410Y-34383D01*
X-55928Y-35280D01*
X-56196Y-36282D01*
Y-37318D01*
X-55928Y-38320D01*
X-55410Y-39217D01*
X-54677Y-39950D01*
X-53779Y-40469D01*
X-53174Y-40631D01*
X-53240Y-41131D01*
X-56590D01*
Y-52154D01*
X-50291D01*
Y-41131D01*
X-51278D01*
X-51344Y-40631D01*
X-50740Y-40469D01*
X-49842Y-39950D01*
X-49109Y-39217D01*
X-48591Y-38320D01*
X-48322Y-37318D01*
Y-36282D01*
X-48591Y-35280D01*
X-49109Y-34383D01*
X-49842Y-33650D01*
X-50740Y-33131D01*
X-51344Y-32969D01*
X-51278Y-32469D01*
X-50291D01*
Y-21446D01*
D02*
G37*
G36*
X-28800Y-52180D02*
Y-53800D01*
X-27180D01*
X-27477Y-53082D01*
X-28082Y-52477D01*
X-28800Y-52180D01*
D02*
G37*
G36*
X-30984Y-49308D02*
X-33059D01*
Y-52564D01*
X-31312Y-52564D01*
X-31311Y-52564D01*
X-31104Y-53064D01*
X-31123Y-53082D01*
X-31420Y-53800D01*
X-29800D01*
Y-52180D01*
X-30518Y-52477D01*
X-30984Y-52236D01*
X-30984Y-52200D01*
Y-49308D01*
D02*
G37*
G36*
X-27180Y-54800D02*
X-28800D01*
Y-56420D01*
X-28082Y-56123D01*
X-27477Y-55518D01*
X-27180Y-54800D01*
D02*
G37*
G36*
X-29800D02*
X-31420D01*
X-31123Y-55518D01*
X-30518Y-56123D01*
X-29800Y-56420D01*
Y-54800D01*
D02*
G37*
G36*
X-153527Y-66605D02*
X-157858D01*
Y-68665D01*
X-165403D01*
Y-68304D01*
X-169143D01*
Y-74209D01*
X-165403D01*
Y-71290D01*
X-157858D01*
Y-71723D01*
X-153527D01*
Y-66605D01*
D02*
G37*
G36*
X-170309Y-68091D02*
X-171891D01*
Y-70757D01*
X-170309D01*
Y-68091D01*
D02*
G37*
G36*
X-172891D02*
X-174474D01*
Y-70757D01*
X-172891D01*
Y-68091D01*
D02*
G37*
G36*
X-176700Y-69137D02*
Y-70757D01*
X-175080D01*
X-175377Y-70039D01*
X-175982Y-69434D01*
X-176700Y-69137D01*
D02*
G37*
G36*
X-177700D02*
X-178418Y-69434D01*
X-179023Y-70039D01*
X-179320Y-70757D01*
X-177700D01*
Y-69137D01*
D02*
G37*
G36*
X-175080Y-71757D02*
X-176700D01*
Y-73377D01*
X-175982Y-73079D01*
X-175377Y-72475D01*
X-175080Y-71757D01*
D02*
G37*
G36*
X-177700D02*
X-179320D01*
X-179023Y-72475D01*
X-178418Y-73079D01*
X-177700Y-73377D01*
Y-71757D01*
D02*
G37*
G36*
X85892Y-72508D02*
Y-74128D01*
X87512D01*
X87215Y-73410D01*
X86610Y-72806D01*
X85892Y-72508D01*
D02*
G37*
G36*
X84892D02*
X84174Y-72806D01*
X83569Y-73410D01*
X83272Y-74128D01*
X84892D01*
Y-72508D01*
D02*
G37*
G36*
X106956Y-72618D02*
Y-74238D01*
X108576D01*
X108279Y-73520D01*
X107674Y-72915D01*
X106956Y-72618D01*
D02*
G37*
G36*
X105956D02*
X105238Y-72915D01*
X104633Y-73520D01*
X104336Y-74238D01*
X105956D01*
Y-72618D01*
D02*
G37*
G36*
X-170309Y-71757D02*
X-171891D01*
Y-74422D01*
X-170309D01*
Y-71757D01*
D02*
G37*
G36*
X-172891D02*
X-174474D01*
Y-74422D01*
X-172891D01*
Y-71757D01*
D02*
G37*
G36*
X-143529Y-72890D02*
Y-74510D01*
X-141909D01*
X-142206Y-73792D01*
X-142811Y-73187D01*
X-143529Y-72890D01*
D02*
G37*
G36*
X-144529D02*
X-145247Y-73187D01*
X-145852Y-73792D01*
X-146149Y-74510D01*
X-144529D01*
Y-72890D01*
D02*
G37*
G36*
X-123233Y-72899D02*
Y-74519D01*
X-121613D01*
X-121911Y-73801D01*
X-122515Y-73196D01*
X-123233Y-72899D01*
D02*
G37*
G36*
X-124233D02*
X-124951Y-73196D01*
X-125556Y-73801D01*
X-125853Y-74519D01*
X-124233D01*
Y-72899D01*
D02*
G37*
G36*
X87512Y-75128D02*
X85892D01*
Y-76748D01*
X86610Y-76451D01*
X87215Y-75846D01*
X87512Y-75128D01*
D02*
G37*
G36*
X84892D02*
X83272D01*
X83569Y-75846D01*
X84174Y-76451D01*
X84892Y-76748D01*
Y-75128D01*
D02*
G37*
G36*
X108576Y-75238D02*
X106956D01*
Y-76858D01*
X107674Y-76560D01*
X108279Y-75955D01*
X108576Y-75238D01*
D02*
G37*
G36*
X105956D02*
X104336D01*
X104633Y-75955D01*
X105238Y-76560D01*
X105956Y-76858D01*
Y-75238D01*
D02*
G37*
G36*
X-141909Y-75510D02*
X-143529D01*
Y-77130D01*
X-142811Y-76832D01*
X-142206Y-76227D01*
X-141909Y-75510D01*
D02*
G37*
G36*
X-144529D02*
X-146149D01*
X-145852Y-76227D01*
X-145247Y-76832D01*
X-144529Y-77130D01*
Y-75510D01*
D02*
G37*
G36*
X-121613Y-75519D02*
X-123233D01*
Y-77139D01*
X-122515Y-76841D01*
X-121911Y-76237D01*
X-121613Y-75519D01*
D02*
G37*
G36*
X-124233D02*
X-125853D01*
X-125556Y-76237D01*
X-124951Y-76841D01*
X-124233Y-77139D01*
Y-75519D01*
D02*
G37*
G36*
X-195022Y-75255D02*
X-201124D01*
Y-81948D01*
X-195022D01*
Y-78913D01*
X-171702D01*
Y-81296D01*
X-167962D01*
Y-75391D01*
X-171702D01*
Y-76287D01*
X-195022D01*
Y-75255D01*
D02*
G37*
G36*
X113097Y-78956D02*
X106347D01*
Y-81700D01*
X113097D01*
Y-78956D01*
D02*
G37*
G36*
X105347D02*
X98597D01*
Y-81700D01*
X105347D01*
Y-78956D01*
D02*
G37*
G36*
X-136779D02*
X-143529D01*
Y-81700D01*
X-136779D01*
Y-78956D01*
D02*
G37*
G36*
X-144529D02*
X-151279D01*
Y-81700D01*
X-144529D01*
Y-78956D01*
D02*
G37*
G36*
X-116287D02*
X-123037D01*
Y-81700D01*
X-116287D01*
Y-78956D01*
D02*
G37*
G36*
X-124037D02*
X-130787D01*
Y-81700D01*
X-124037D01*
Y-78956D01*
D02*
G37*
G36*
X92605D02*
X85855D01*
Y-81700D01*
X92605D01*
Y-78956D01*
D02*
G37*
G36*
X84855D02*
X78105D01*
Y-81700D01*
X84855D01*
Y-78956D01*
D02*
G37*
G36*
X105347Y-82700D02*
X98597D01*
Y-83480D01*
X98097Y-83687D01*
X97256Y-83201D01*
X96164Y-82909D01*
X95034D01*
X93943Y-83201D01*
X93105Y-83685D01*
X92605Y-83475D01*
Y-82700D01*
X85855D01*
Y-85444D01*
X91110D01*
X91493Y-85944D01*
X91308Y-86635D01*
Y-87765D01*
X91493Y-88456D01*
X91110Y-88956D01*
X85855D01*
Y-91700D01*
X92605D01*
Y-90925D01*
X93105Y-90715D01*
X93943Y-91199D01*
X95034Y-91491D01*
X96164D01*
X97256Y-91199D01*
X98097Y-90713D01*
X98597Y-90920D01*
Y-91700D01*
X105347D01*
Y-88956D01*
X100089D01*
X99706Y-88456D01*
X99891Y-87765D01*
Y-86635D01*
X99706Y-85944D01*
X100089Y-85444D01*
X105347D01*
Y-82700D01*
D02*
G37*
G36*
X113097D02*
X106347D01*
Y-85444D01*
X113097D01*
Y-82700D01*
D02*
G37*
G36*
X84855Y-82700D02*
X78105D01*
Y-85444D01*
X84855D01*
Y-82700D01*
D02*
G37*
G36*
X-116287Y-82700D02*
X-123037D01*
Y-85444D01*
X-116287D01*
Y-82700D01*
D02*
G37*
G36*
X-144529Y-82700D02*
X-151279D01*
Y-85444D01*
X-144529D01*
Y-82700D01*
D02*
G37*
G36*
X27636Y-83148D02*
X24971D01*
Y-86994D01*
X27636D01*
Y-83148D01*
D02*
G37*
G36*
X33684Y-85416D02*
Y-87036D01*
X35304D01*
X35007Y-86318D01*
X34402Y-85713D01*
X33684Y-85416D01*
D02*
G37*
G36*
X35304Y-88036D02*
X33684D01*
Y-89656D01*
X34402Y-89359D01*
X35007Y-88754D01*
X35304Y-88036D01*
D02*
G37*
G36*
X31301Y-83148D02*
X28636D01*
Y-87494D01*
Y-91840D01*
X31301D01*
Y-89400D01*
X31801Y-89193D01*
X31966Y-89359D01*
X32684Y-89656D01*
Y-87536D01*
Y-85416D01*
X31966Y-85713D01*
X31801Y-85878D01*
X31301Y-85671D01*
Y-83148D01*
D02*
G37*
G36*
X-195022Y-82735D02*
X-201124D01*
Y-89428D01*
X-195022D01*
Y-89407D01*
X-194667Y-89055D01*
X-183799Y-89140D01*
Y-90013D01*
X-178681D01*
Y-85682D01*
X-183799D01*
Y-86160D01*
X-184154Y-86512D01*
X-195022Y-86427D01*
Y-82735D01*
D02*
G37*
G36*
X113097Y-88956D02*
X106347D01*
Y-91700D01*
X113097D01*
Y-88956D01*
D02*
G37*
G36*
X-144529D02*
X-151279D01*
Y-91700D01*
X-144529D01*
Y-88956D01*
D02*
G37*
G36*
X-116287D02*
X-123037D01*
Y-91700D01*
X-116287D01*
Y-88956D01*
D02*
G37*
G36*
X-136779Y-82700D02*
X-143529D01*
Y-85444D01*
X-138275D01*
X-137891Y-85944D01*
X-138076Y-86635D01*
Y-87765D01*
X-137891Y-88456D01*
X-138275Y-88956D01*
X-143529D01*
Y-91700D01*
X-136779D01*
Y-90925D01*
X-136279Y-90715D01*
X-135441Y-91199D01*
X-134350Y-91491D01*
X-133220D01*
X-132128Y-91199D01*
X-131287Y-90713D01*
X-130787Y-90920D01*
Y-91700D01*
X-124037D01*
Y-88956D01*
X-129295D01*
X-129679Y-88456D01*
X-129493Y-87765D01*
Y-86635D01*
X-129679Y-85944D01*
X-129295Y-85444D01*
X-124037D01*
Y-82700D01*
X-130787D01*
Y-83480D01*
X-131287Y-83687D01*
X-132128Y-83201D01*
X-133220Y-82909D01*
X-134350D01*
X-135441Y-83201D01*
X-136279Y-83685D01*
X-136779Y-83475D01*
Y-82700D01*
D02*
G37*
G36*
X84855Y-88956D02*
X78105D01*
Y-91700D01*
X84855D01*
Y-88956D01*
D02*
G37*
G36*
X27636Y-87994D02*
X24971D01*
Y-91840D01*
X27636D01*
Y-87994D01*
D02*
G37*
G36*
X113097Y-92700D02*
X106347D01*
Y-95444D01*
X113097D01*
Y-92700D01*
D02*
G37*
G36*
X105347D02*
X98597D01*
Y-95444D01*
X105347D01*
Y-92700D01*
D02*
G37*
G36*
X92605Y-92700D02*
X85855D01*
Y-95444D01*
X92605D01*
Y-92700D01*
D02*
G37*
G36*
X84855D02*
X78105D01*
Y-95444D01*
X84855D01*
Y-92700D01*
D02*
G37*
G36*
X-116287Y-92700D02*
X-123037D01*
Y-95444D01*
X-116287D01*
Y-92700D01*
D02*
G37*
G36*
X-124037D02*
X-130787D01*
Y-95444D01*
X-124037D01*
Y-92700D01*
D02*
G37*
G36*
X-136779Y-92700D02*
X-143529D01*
Y-95444D01*
X-136779D01*
Y-92700D01*
D02*
G37*
G36*
X-144529D02*
X-151279D01*
Y-95444D01*
X-144529D01*
Y-92700D01*
D02*
G37*
G36*
X-104863Y-95682D02*
X-109981D01*
Y-96710D01*
X-155687D01*
X-156189Y-96810D01*
X-156615Y-97095D01*
X-166128Y-106608D01*
X-166413Y-107034D01*
X-166513Y-107536D01*
Y-113713D01*
X-170987D01*
Y-122287D01*
X-166513D01*
Y-134585D01*
X-167080Y-134660D01*
X-168367Y-135193D01*
X-169471Y-136040D01*
X-170318Y-137144D01*
X-170851Y-138431D01*
X-171033Y-139811D01*
X-170851Y-141191D01*
X-170318Y-142478D01*
X-169471Y-143582D01*
X-168367Y-144430D01*
X-167080Y-144962D01*
X-165700Y-145144D01*
X-164700D01*
X-163320Y-144962D01*
X-162033Y-144430D01*
X-160929Y-143582D01*
X-160082Y-142478D01*
X-159549Y-141191D01*
X-159367Y-139811D01*
X-159549Y-138431D01*
X-160082Y-137144D01*
X-160929Y-136040D01*
X-162033Y-135193D01*
X-163320Y-134660D01*
X-163887Y-134585D01*
Y-122287D01*
X-159413D01*
Y-113713D01*
X-163887D01*
Y-108080D01*
X-155143Y-99336D01*
X-151279D01*
Y-101700D01*
X-144029D01*
X-136779D01*
Y-99336D01*
X-130787D01*
Y-101700D01*
X-123537D01*
X-116287D01*
Y-99336D01*
X-109981D01*
Y-100013D01*
X-104863D01*
Y-99308D01*
X-97176D01*
X-96697Y-99786D01*
X-95985Y-100081D01*
X-95215D01*
X-94503Y-99786D01*
X-93958Y-99241D01*
X-93663Y-98529D01*
Y-97759D01*
X-93958Y-97046D01*
X-94503Y-96501D01*
X-95215Y-96206D01*
X-95985D01*
X-96697Y-96501D01*
X-96879Y-96683D01*
X-104863D01*
Y-95682D01*
D02*
G37*
G36*
X113097Y-98956D02*
X106347D01*
Y-101700D01*
X113097D01*
Y-98956D01*
D02*
G37*
G36*
X105347D02*
X98597D01*
Y-101700D01*
X105347D01*
Y-98956D01*
D02*
G37*
G36*
X92605D02*
X85855D01*
Y-101700D01*
X92605D01*
Y-98956D01*
D02*
G37*
G36*
X84855D02*
X78105D01*
Y-101700D01*
X84855D01*
Y-98956D01*
D02*
G37*
G36*
X-78953Y-98773D02*
X-81618D01*
Y-102620D01*
X-78953D01*
Y-98773D01*
D02*
G37*
G36*
X-82618D02*
X-85283D01*
Y-102620D01*
X-82618D01*
Y-98773D01*
D02*
G37*
G36*
X-104650Y-101375D02*
X-106922D01*
Y-103253D01*
X-104650D01*
Y-101375D01*
D02*
G37*
G36*
X-107922D02*
X-110194D01*
Y-103253D01*
X-107922D01*
Y-101375D01*
D02*
G37*
G36*
X21991Y-68899D02*
X12345D01*
Y-79922D01*
X12397D01*
Y-102212D01*
X12123Y-102598D01*
X-5350D01*
Y-104122D01*
X-11994D01*
X-18040Y-98077D01*
Y-97610D01*
X-18335Y-96898D01*
X-18880Y-96353D01*
X-19592Y-96058D01*
X-20362D01*
X-21075Y-96353D01*
X-21620Y-96898D01*
X-21914Y-97610D01*
Y-98381D01*
X-21620Y-99093D01*
X-21075Y-99638D01*
X-20362Y-99933D01*
X-19896D01*
X-13466Y-106363D01*
X-13040Y-106647D01*
X-12538Y-106747D01*
X-5350D01*
Y-108271D01*
X-5350D01*
X-5313Y-108317D01*
X-5346Y-108484D01*
Y-109299D01*
X-5350D01*
Y-114972D01*
X-5346D01*
Y-115787D01*
X-5285Y-116094D01*
X-5111Y-116355D01*
X-4850Y-116529D01*
X-4543Y-116590D01*
X15243D01*
Y-146225D01*
X14390D01*
Y-151344D01*
X18721D01*
Y-146225D01*
X17868D01*
Y-116590D01*
X21246D01*
X21553Y-116529D01*
X21814Y-116355D01*
X21988Y-116094D01*
X22049Y-115787D01*
Y-69777D01*
X21991Y-69484D01*
Y-68899D01*
D02*
G37*
G36*
X113097Y-102700D02*
X106347D01*
Y-105444D01*
X113097D01*
Y-102700D01*
D02*
G37*
G36*
X105347D02*
X98597D01*
Y-105444D01*
X105347D01*
Y-102700D01*
D02*
G37*
G36*
X92605Y-102700D02*
X85855D01*
Y-105444D01*
X92605D01*
Y-102700D01*
D02*
G37*
G36*
X84855D02*
X78105D01*
Y-105444D01*
X84855D01*
Y-102700D01*
D02*
G37*
G36*
X-116287Y-102700D02*
X-123037D01*
Y-105444D01*
X-116287D01*
Y-102700D01*
D02*
G37*
G36*
X-124037D02*
X-130787D01*
Y-105444D01*
X-124037D01*
Y-102700D01*
D02*
G37*
G36*
X-136779Y-102700D02*
X-143529D01*
Y-105444D01*
X-136779D01*
Y-102700D01*
D02*
G37*
G36*
X-144529D02*
X-151279D01*
Y-105444D01*
X-144529D01*
Y-102700D01*
D02*
G37*
G36*
X-104650Y-104253D02*
X-106922D01*
Y-106131D01*
X-104650D01*
Y-104253D01*
D02*
G37*
G36*
X-107922D02*
X-110194D01*
Y-106131D01*
X-107922D01*
Y-104253D01*
D02*
G37*
G36*
X-78953Y-103620D02*
X-81618D01*
Y-107466D01*
X-78953D01*
Y-103620D01*
D02*
G37*
G36*
X-82618D02*
X-85283D01*
Y-107466D01*
X-82618D01*
Y-103620D01*
D02*
G37*
G36*
X-106985Y-106957D02*
Y-108577D01*
X-105365D01*
X-105663Y-107859D01*
X-106267Y-107254D01*
X-106985Y-106957D01*
D02*
G37*
G36*
X-107985D02*
X-108703Y-107254D01*
X-109308Y-107859D01*
X-109605Y-108577D01*
X-107985D01*
Y-106957D01*
D02*
G37*
G36*
X-81618Y-108481D02*
Y-110101D01*
X-79998D01*
X-80295Y-109383D01*
X-80900Y-108779D01*
X-81618Y-108481D01*
D02*
G37*
G36*
X-82618D02*
X-83336Y-108779D01*
X-83941Y-109383D01*
X-84238Y-110101D01*
X-82618D01*
Y-108481D01*
D02*
G37*
G36*
X-105365Y-109577D02*
X-106985D01*
Y-111197D01*
X-106267Y-110900D01*
X-105663Y-110295D01*
X-105365Y-109577D01*
D02*
G37*
G36*
X-107985D02*
X-109605D01*
X-109308Y-110295D01*
X-108703Y-110900D01*
X-107985Y-111197D01*
Y-109577D01*
D02*
G37*
G36*
X113097Y-108956D02*
X106347D01*
Y-111700D01*
X113097D01*
Y-108956D01*
D02*
G37*
G36*
X105347D02*
X98597D01*
Y-111700D01*
X105347D01*
Y-108956D01*
D02*
G37*
G36*
X-136779D02*
X-143529D01*
Y-111700D01*
X-136779D01*
Y-108956D01*
D02*
G37*
G36*
X-144529D02*
X-151279D01*
Y-111700D01*
X-144529D01*
Y-108956D01*
D02*
G37*
G36*
X-116287D02*
X-123037D01*
Y-111700D01*
X-116287D01*
Y-108956D01*
D02*
G37*
G36*
X-124037D02*
X-130787D01*
Y-111700D01*
X-124037D01*
Y-108956D01*
D02*
G37*
G36*
X92605D02*
X85855D01*
Y-111700D01*
X92605D01*
Y-108956D01*
D02*
G37*
G36*
X84855D02*
X78105D01*
Y-111700D01*
X84855D01*
Y-108956D01*
D02*
G37*
G36*
X-79998Y-111101D02*
X-81618D01*
Y-112721D01*
X-80900Y-112424D01*
X-80295Y-111819D01*
X-79998Y-111101D01*
D02*
G37*
G36*
X-82618D02*
X-84238D01*
X-83941Y-111819D01*
X-83336Y-112424D01*
X-82618Y-112721D01*
Y-111101D01*
D02*
G37*
G36*
X113097Y-112700D02*
X106347D01*
Y-115444D01*
X113097D01*
Y-112700D01*
D02*
G37*
G36*
X105347D02*
X98597D01*
Y-115444D01*
X105347D01*
Y-112700D01*
D02*
G37*
G36*
X92605Y-112700D02*
X85855D01*
Y-115444D01*
X92605D01*
Y-112700D01*
D02*
G37*
G36*
X84855D02*
X78105D01*
Y-115444D01*
X84855D01*
Y-112700D01*
D02*
G37*
G36*
X-116287Y-112700D02*
X-123037D01*
Y-115444D01*
X-116287D01*
Y-112700D01*
D02*
G37*
G36*
X-124037D02*
X-130787D01*
Y-115444D01*
X-124037D01*
Y-112700D01*
D02*
G37*
G36*
X-136779Y-112700D02*
X-143529D01*
Y-115444D01*
X-136779D01*
Y-112700D01*
D02*
G37*
G36*
X-144529D02*
X-151279D01*
Y-115444D01*
X-144529D01*
Y-112700D01*
D02*
G37*
G36*
X113097Y-118956D02*
X106347D01*
Y-121700D01*
X113097D01*
Y-118956D01*
D02*
G37*
G36*
X105347D02*
X98597D01*
Y-121700D01*
X105347D01*
Y-118956D01*
D02*
G37*
G36*
X-136779D02*
X-143529D01*
Y-121700D01*
X-136779D01*
Y-118956D01*
D02*
G37*
G36*
X-144529D02*
X-151279D01*
Y-121700D01*
X-144529D01*
Y-118956D01*
D02*
G37*
G36*
X-116287D02*
X-123037D01*
Y-121700D01*
X-116287D01*
Y-118956D01*
D02*
G37*
G36*
X-124037D02*
X-130787D01*
Y-121700D01*
X-124037D01*
Y-118956D01*
D02*
G37*
G36*
X92605D02*
X85855D01*
Y-121700D01*
X92605D01*
Y-118956D01*
D02*
G37*
G36*
X84855D02*
X78105D01*
Y-121700D01*
X84855D01*
Y-118956D01*
D02*
G37*
G36*
X-25959Y-121191D02*
X-28624D01*
Y-123590D01*
X-29124Y-123797D01*
X-29308Y-123613D01*
X-30026Y-123316D01*
Y-125436D01*
Y-127556D01*
X-29308Y-127259D01*
X-29124Y-127075D01*
X-28624Y-127283D01*
Y-129883D01*
X-25959D01*
Y-125537D01*
Y-121191D01*
D02*
G37*
G36*
X-31025Y-123316D02*
X-31743Y-123613D01*
X-32348Y-124218D01*
X-32645Y-124936D01*
X-31025D01*
Y-123316D01*
D02*
G37*
G36*
X113097Y-122700D02*
X106347D01*
Y-125444D01*
X113097D01*
Y-122700D01*
D02*
G37*
G36*
X105347D02*
X98597D01*
Y-125444D01*
X105347D01*
Y-122700D01*
D02*
G37*
G36*
X92605Y-122700D02*
X85855D01*
Y-125444D01*
X92605D01*
Y-122700D01*
D02*
G37*
G36*
X84855D02*
X78105D01*
Y-125444D01*
X84855D01*
Y-122700D01*
D02*
G37*
G36*
X-116287Y-122700D02*
X-123037D01*
Y-125444D01*
X-116287D01*
Y-122700D01*
D02*
G37*
G36*
X-124037D02*
X-130787D01*
Y-125444D01*
X-124037D01*
Y-122700D01*
D02*
G37*
G36*
X-136779Y-122700D02*
X-143529D01*
Y-125444D01*
X-136779D01*
Y-122700D01*
D02*
G37*
G36*
X-144529D02*
X-151279D01*
Y-125444D01*
X-144529D01*
Y-122700D01*
D02*
G37*
G36*
X-31025Y-125936D02*
X-32645D01*
X-32348Y-126654D01*
X-31743Y-127259D01*
X-31025Y-127556D01*
Y-125936D01*
D02*
G37*
G36*
X-22294Y-126037D02*
X-24959D01*
Y-129883D01*
X-22294D01*
Y-126037D01*
D02*
G37*
G36*
X113097Y-128956D02*
X106347D01*
Y-131700D01*
X113097D01*
Y-128956D01*
D02*
G37*
G36*
X105347D02*
X98597D01*
Y-131700D01*
X105347D01*
Y-128956D01*
D02*
G37*
G36*
X-136779D02*
X-143529D01*
Y-131700D01*
X-136779D01*
Y-128956D01*
D02*
G37*
G36*
X-144529D02*
X-151279D01*
Y-131700D01*
X-144529D01*
Y-128956D01*
D02*
G37*
G36*
X-116287D02*
X-123037D01*
Y-131700D01*
X-116287D01*
Y-128956D01*
D02*
G37*
G36*
X-124037D02*
X-130787D01*
Y-131700D01*
X-124037D01*
Y-128956D01*
D02*
G37*
G36*
X92605D02*
X85855D01*
Y-131700D01*
X92605D01*
Y-128956D01*
D02*
G37*
G36*
X84855D02*
X78105D01*
Y-131700D01*
X84855D01*
Y-128956D01*
D02*
G37*
G36*
X-147621Y-66605D02*
X-151952D01*
Y-71723D01*
X-147621D01*
Y-71290D01*
X-112167D01*
X-92763Y-90693D01*
X-92808Y-91193D01*
X-93621D01*
Y-96311D01*
X-92731D01*
Y-115243D01*
X-94255D01*
Y-132715D01*
X-88582D01*
Y-115243D01*
X-90106D01*
Y-96311D01*
X-89290D01*
Y-91193D01*
X-90106D01*
Y-90181D01*
X-90206Y-89679D01*
X-90491Y-89253D01*
X-110695Y-69049D01*
X-111120Y-68765D01*
X-111623Y-68665D01*
X-147621D01*
Y-66605D01*
D02*
G37*
G36*
X113097Y-132700D02*
X106347D01*
Y-135444D01*
X113097D01*
Y-132700D01*
D02*
G37*
G36*
X105347D02*
X98597D01*
Y-135444D01*
X105347D01*
Y-132700D01*
D02*
G37*
G36*
X92605Y-132700D02*
X85855D01*
Y-135444D01*
X92605D01*
Y-132700D01*
D02*
G37*
G36*
X84855D02*
X78105D01*
Y-135444D01*
X84855D01*
Y-132700D01*
D02*
G37*
G36*
X-116287Y-132700D02*
X-123037D01*
Y-135444D01*
X-116287D01*
Y-132700D01*
D02*
G37*
G36*
X-124037D02*
X-130787D01*
Y-135444D01*
X-124037D01*
Y-132700D01*
D02*
G37*
G36*
X-136779Y-132700D02*
X-143529D01*
Y-135444D01*
X-136779D01*
Y-132700D01*
D02*
G37*
G36*
X-144529D02*
X-151279D01*
Y-135444D01*
X-144529D01*
Y-132700D01*
D02*
G37*
G36*
X113097Y-138956D02*
X106347D01*
Y-141700D01*
X113097D01*
Y-138956D01*
D02*
G37*
G36*
X105347D02*
X98597D01*
Y-141700D01*
X105347D01*
Y-138956D01*
D02*
G37*
G36*
X-136779D02*
X-143529D01*
Y-141700D01*
X-136779D01*
Y-138956D01*
D02*
G37*
G36*
X-144529D02*
X-151279D01*
Y-141700D01*
X-144529D01*
Y-138956D01*
D02*
G37*
G36*
X-116287D02*
X-123037D01*
Y-141700D01*
X-116287D01*
Y-138956D01*
D02*
G37*
G36*
X-124037D02*
X-130787D01*
Y-141700D01*
X-124037D01*
Y-138956D01*
D02*
G37*
G36*
X92605D02*
X85855D01*
Y-141700D01*
X92605D01*
Y-138956D01*
D02*
G37*
G36*
X84855D02*
X78105D01*
Y-141700D01*
X84855D01*
Y-138956D01*
D02*
G37*
G36*
X113097Y-142700D02*
X106347D01*
Y-145444D01*
X113097D01*
Y-142700D01*
D02*
G37*
G36*
X105347D02*
X98597D01*
Y-145444D01*
X105347D01*
Y-142700D01*
D02*
G37*
G36*
X92605Y-142700D02*
X85855D01*
Y-145444D01*
X92605D01*
Y-142700D01*
D02*
G37*
G36*
X84855D02*
X78105D01*
Y-145444D01*
X84855D01*
Y-142700D01*
D02*
G37*
G36*
X-116287Y-142700D02*
X-123037D01*
Y-145444D01*
X-116287D01*
Y-142700D01*
D02*
G37*
G36*
X-124037D02*
X-130787D01*
Y-145444D01*
X-124037D01*
Y-142700D01*
D02*
G37*
G36*
X-136779Y-142700D02*
X-143529D01*
Y-145444D01*
X-136779D01*
Y-142700D01*
D02*
G37*
G36*
X-144529D02*
X-151279D01*
Y-145444D01*
X-144529D01*
Y-142700D01*
D02*
G37*
G36*
X-42652Y-144150D02*
X-46498D01*
Y-146815D01*
X-42652D01*
Y-144150D01*
D02*
G37*
G36*
X-47498D02*
X-51344D01*
Y-146815D01*
X-47498D01*
Y-144150D01*
D02*
G37*
G36*
X-42652Y-147815D02*
X-46498D01*
Y-150480D01*
X-42652D01*
Y-147815D01*
D02*
G37*
G36*
X-47498D02*
X-51344D01*
Y-150480D01*
X-47498D01*
Y-147815D01*
D02*
G37*
G36*
X113097Y-148956D02*
X106347D01*
Y-151700D01*
X113097D01*
Y-148956D01*
D02*
G37*
G36*
X105347D02*
X98597D01*
Y-151700D01*
X105347D01*
Y-148956D01*
D02*
G37*
G36*
X-136779D02*
X-143529D01*
Y-151700D01*
X-136779D01*
Y-148956D01*
D02*
G37*
G36*
X-144529D02*
X-151279D01*
Y-151700D01*
X-144529D01*
Y-148956D01*
D02*
G37*
G36*
X-116287D02*
X-123037D01*
Y-151700D01*
X-116287D01*
Y-148956D01*
D02*
G37*
G36*
X-124037D02*
X-130787D01*
Y-151700D01*
X-124037D01*
Y-148956D01*
D02*
G37*
G36*
X92605D02*
X85855D01*
Y-151700D01*
X92605D01*
Y-148956D01*
D02*
G37*
G36*
X84855D02*
X78105D01*
Y-151700D01*
X84855D01*
Y-148956D01*
D02*
G37*
G36*
X-46424Y-151103D02*
Y-152723D01*
X-44804D01*
X-45101Y-152006D01*
X-45706Y-151401D01*
X-46424Y-151103D01*
D02*
G37*
G36*
X-47424D02*
X-48142Y-151401D01*
X-48747Y-152006D01*
X-49044Y-152723D01*
X-47424D01*
Y-151103D01*
D02*
G37*
G36*
X-44804Y-153723D02*
X-46424D01*
Y-155343D01*
X-45706Y-155046D01*
X-45101Y-154441D01*
X-44804Y-153723D01*
D02*
G37*
G36*
X-47424D02*
X-49044D01*
X-48747Y-154441D01*
X-48142Y-155046D01*
X-47424Y-155343D01*
Y-153723D01*
D02*
G37*
G36*
X113097Y-152700D02*
X106347D01*
Y-155444D01*
X113097D01*
Y-152700D01*
D02*
G37*
G36*
X105347D02*
X98597D01*
Y-155444D01*
X105347D01*
Y-152700D01*
D02*
G37*
G36*
X92605Y-152700D02*
X85855D01*
Y-155444D01*
X92605D01*
Y-152700D01*
D02*
G37*
G36*
X84855D02*
X78105D01*
Y-155444D01*
X84855D01*
Y-152700D01*
D02*
G37*
G36*
X-116287Y-152700D02*
X-123037D01*
Y-155444D01*
X-116287D01*
Y-152700D01*
D02*
G37*
G36*
X-124037D02*
X-130787D01*
Y-155444D01*
X-124037D01*
Y-152700D01*
D02*
G37*
G36*
X-136779Y-152700D02*
X-143529D01*
Y-155444D01*
X-136779D01*
Y-152700D01*
D02*
G37*
G36*
X-144529D02*
X-151279D01*
Y-155444D01*
X-144529D01*
Y-152700D01*
D02*
G37*
G36*
X113097Y-158956D02*
X106347D01*
Y-161700D01*
X113097D01*
Y-158956D01*
D02*
G37*
G36*
X105347D02*
X98597D01*
Y-161700D01*
X105347D01*
Y-158956D01*
D02*
G37*
G36*
X-136779D02*
X-143529D01*
Y-161700D01*
X-136779D01*
Y-158956D01*
D02*
G37*
G36*
X-144529D02*
X-151279D01*
Y-161700D01*
X-144529D01*
Y-158956D01*
D02*
G37*
G36*
X-116287D02*
X-123037D01*
Y-161700D01*
X-116287D01*
Y-158956D01*
D02*
G37*
G36*
X-124037D02*
X-130787D01*
Y-161700D01*
X-124037D01*
Y-158956D01*
D02*
G37*
G36*
X92605D02*
X85855D01*
Y-161700D01*
X92605D01*
Y-158956D01*
D02*
G37*
G36*
X84855D02*
X78105D01*
Y-161700D01*
X84855D01*
Y-158956D01*
D02*
G37*
G36*
X113097Y-162700D02*
X106347D01*
Y-165444D01*
X113097D01*
Y-162700D01*
D02*
G37*
G36*
X105347D02*
X98597D01*
Y-165444D01*
X105347D01*
Y-162700D01*
D02*
G37*
G36*
X92605Y-162700D02*
X85855D01*
Y-165444D01*
X92605D01*
Y-162700D01*
D02*
G37*
G36*
X84855D02*
X78105D01*
Y-165444D01*
X84855D01*
Y-162700D01*
D02*
G37*
G36*
X-116287Y-162700D02*
X-123037D01*
Y-165444D01*
X-116287D01*
Y-162700D01*
D02*
G37*
G36*
X-124037D02*
X-130787D01*
Y-165444D01*
X-124037D01*
Y-162700D01*
D02*
G37*
G36*
X-136779Y-162700D02*
X-143529D01*
Y-165444D01*
X-136779D01*
Y-162700D01*
D02*
G37*
G36*
X-144529D02*
X-151279D01*
Y-165444D01*
X-144529D01*
Y-162700D01*
D02*
G37*
G36*
X-192000Y-161900D02*
X-197500D01*
Y-165900D01*
X-192000D01*
Y-161900D01*
D02*
G37*
G36*
X-198500D02*
X-204000D01*
Y-165900D01*
X-198500D01*
Y-161900D01*
D02*
G37*
G36*
X-192000Y-166900D02*
X-197500D01*
Y-170900D01*
X-192000D01*
Y-166900D01*
D02*
G37*
G36*
X-198500D02*
X-204000D01*
Y-170900D01*
X-198500D01*
Y-166900D01*
D02*
G37*
G36*
X113097Y-168956D02*
X106347D01*
Y-171700D01*
X113097D01*
Y-168956D01*
D02*
G37*
G36*
X105347D02*
X98597D01*
Y-171700D01*
X105347D01*
Y-168956D01*
D02*
G37*
G36*
X-136779D02*
X-143529D01*
Y-171700D01*
X-136779D01*
Y-168956D01*
D02*
G37*
G36*
X-144529D02*
X-151279D01*
Y-171700D01*
X-144529D01*
Y-168956D01*
D02*
G37*
G36*
X-116287D02*
X-123037D01*
Y-171700D01*
X-116287D01*
Y-168956D01*
D02*
G37*
G36*
X-124037D02*
X-130787D01*
Y-171700D01*
X-124037D01*
Y-168956D01*
D02*
G37*
G36*
X92605D02*
X85855D01*
Y-171700D01*
X92605D01*
Y-168956D01*
D02*
G37*
G36*
X84855D02*
X78105D01*
Y-171700D01*
X84855D01*
Y-168956D01*
D02*
G37*
G36*
X113097Y-172700D02*
X106347D01*
Y-175444D01*
X113097D01*
Y-172700D01*
D02*
G37*
G36*
X105347D02*
X98597D01*
Y-175444D01*
X105347D01*
Y-172700D01*
D02*
G37*
G36*
X92605Y-172700D02*
X85855D01*
Y-175444D01*
X92605D01*
Y-172700D01*
D02*
G37*
G36*
X84855D02*
X78105D01*
Y-175444D01*
X84855D01*
Y-172700D01*
D02*
G37*
G36*
X-116287Y-172700D02*
X-123037D01*
Y-175444D01*
X-116287D01*
Y-172700D01*
D02*
G37*
G36*
X-124037D02*
X-130787D01*
Y-175444D01*
X-124037D01*
Y-172700D01*
D02*
G37*
G36*
X-136779Y-172700D02*
X-143529D01*
Y-175444D01*
X-136779D01*
Y-172700D01*
D02*
G37*
G36*
X-144529D02*
X-151279D01*
Y-175444D01*
X-144529D01*
Y-172700D01*
D02*
G37*
G36*
X113097Y-178956D02*
X106347D01*
Y-181700D01*
X113097D01*
Y-178956D01*
D02*
G37*
G36*
X105347D02*
X98597D01*
Y-181700D01*
X105347D01*
Y-178956D01*
D02*
G37*
G36*
X-136779D02*
X-143529D01*
Y-181700D01*
X-136779D01*
Y-178956D01*
D02*
G37*
G36*
X-144529D02*
X-151279D01*
Y-181700D01*
X-144529D01*
Y-178956D01*
D02*
G37*
G36*
X-116287D02*
X-123037D01*
Y-181700D01*
X-116287D01*
Y-178956D01*
D02*
G37*
G36*
X-124037D02*
X-130787D01*
Y-181700D01*
X-124037D01*
Y-178956D01*
D02*
G37*
G36*
X92605D02*
X85855D01*
Y-181700D01*
X92605D01*
Y-178956D01*
D02*
G37*
G36*
X84855D02*
X78105D01*
Y-181700D01*
X84855D01*
Y-178956D01*
D02*
G37*
G36*
X113097Y-182700D02*
X106347D01*
Y-185444D01*
X113097D01*
Y-182700D01*
D02*
G37*
G36*
X105347D02*
X98597D01*
Y-185444D01*
X105347D01*
Y-182700D01*
D02*
G37*
G36*
X92605Y-182700D02*
X85855D01*
Y-185444D01*
X92605D01*
Y-182700D01*
D02*
G37*
G36*
X84855D02*
X78105D01*
Y-185444D01*
X84855D01*
Y-182700D01*
D02*
G37*
G36*
X-116287Y-182700D02*
X-123037D01*
Y-185444D01*
X-116287D01*
Y-182700D01*
D02*
G37*
G36*
X-124037D02*
X-130787D01*
Y-185444D01*
X-124037D01*
Y-182700D01*
D02*
G37*
G36*
X-136779Y-182700D02*
X-143529D01*
Y-185444D01*
X-136779D01*
Y-182700D01*
D02*
G37*
G36*
X-144529D02*
X-151279D01*
Y-185444D01*
X-144529D01*
Y-182700D01*
D02*
G37*
G36*
X-25944Y-161137D02*
X-26715D01*
X-27427Y-161432D01*
X-27972Y-161977D01*
X-28267Y-162689D01*
Y-163117D01*
X-48628Y-183479D01*
X-49132D01*
X-49844Y-183774D01*
X-50389Y-184319D01*
X-50684Y-185031D01*
Y-185801D01*
X-50389Y-186514D01*
X-49844Y-187059D01*
X-49132Y-187354D01*
X-48362D01*
X-47649Y-187059D01*
X-47104Y-186514D01*
X-46809Y-185801D01*
Y-185373D01*
X-26448Y-165011D01*
X-25944D01*
X-25232Y-164716D01*
X-24687Y-164172D01*
X-24392Y-163459D01*
Y-162689D01*
X-24687Y-161977D01*
X-25232Y-161432D01*
X-25944Y-161137D01*
D02*
G37*
G36*
X-197500Y-182664D02*
D01*
Y-187711D01*
X-192018D01*
X-192142Y-186775D01*
X-192696Y-185437D01*
X-193577Y-184288D01*
X-194726Y-183407D01*
X-196064Y-182853D01*
X-197500Y-182664D01*
D02*
G37*
G36*
X-198500D02*
X-199936Y-182853D01*
X-201274Y-183407D01*
X-202423Y-184288D01*
X-203304Y-185437D01*
X-203858Y-186775D01*
X-203982Y-187711D01*
X-198500D01*
Y-182664D01*
D02*
G37*
G36*
X113097Y-188956D02*
X106347D01*
Y-191700D01*
X113097D01*
Y-188956D01*
D02*
G37*
G36*
X105347D02*
X98597D01*
Y-191700D01*
X105347D01*
Y-188956D01*
D02*
G37*
G36*
X-136779D02*
X-143529D01*
Y-191700D01*
X-136779D01*
Y-188956D01*
D02*
G37*
G36*
X-144529D02*
X-151279D01*
Y-191700D01*
X-144529D01*
Y-188956D01*
D02*
G37*
G36*
X-116287D02*
X-123037D01*
Y-191700D01*
X-116287D01*
Y-188956D01*
D02*
G37*
G36*
X-124037D02*
X-130787D01*
Y-191700D01*
X-124037D01*
Y-188956D01*
D02*
G37*
G36*
X92605D02*
X85855D01*
Y-191700D01*
X92605D01*
Y-188956D01*
D02*
G37*
G36*
X84855D02*
X78105D01*
Y-191700D01*
X84855D01*
Y-188956D01*
D02*
G37*
G36*
X-192018Y-188711D02*
X-197500D01*
Y-193758D01*
X-196064Y-193570D01*
X-194726Y-193015D01*
X-193577Y-192134D01*
X-192696Y-190985D01*
X-192142Y-189647D01*
X-192018Y-188711D01*
D02*
G37*
G36*
X-198500D02*
X-203982D01*
X-203858Y-189647D01*
X-203304Y-190985D01*
X-202423Y-192134D01*
X-201274Y-193015D01*
X-199936Y-193570D01*
X-198500Y-193758D01*
D01*
Y-188711D01*
D02*
G37*
G36*
X113097Y-192700D02*
X106347D01*
Y-195444D01*
X113097D01*
Y-192700D01*
D02*
G37*
G36*
X105347D02*
X98597D01*
Y-195444D01*
X105347D01*
Y-192700D01*
D02*
G37*
G36*
X92605Y-192700D02*
X85855D01*
Y-195444D01*
X92605D01*
Y-192700D01*
D02*
G37*
G36*
X84855D02*
X78105D01*
Y-195444D01*
X84855D01*
Y-192700D01*
D02*
G37*
G36*
X113097Y-198956D02*
X106347D01*
Y-201700D01*
X113097D01*
Y-198956D01*
D02*
G37*
G36*
X105347D02*
X98597D01*
Y-201700D01*
X105347D01*
Y-198956D01*
D02*
G37*
G36*
X-136779D02*
X-143529D01*
Y-201700D01*
X-136779D01*
Y-198956D01*
D02*
G37*
G36*
X-144529D02*
X-151279D01*
Y-201700D01*
X-144529D01*
Y-198956D01*
D02*
G37*
G36*
X-116287D02*
X-123037D01*
Y-201700D01*
X-116287D01*
Y-198956D01*
D02*
G37*
G36*
X-124037D02*
X-130787D01*
Y-201700D01*
X-124037D01*
Y-198956D01*
D02*
G37*
G36*
X92605D02*
X85855D01*
Y-201700D01*
X92605D01*
Y-198956D01*
D02*
G37*
G36*
X84855D02*
X78105D01*
Y-201700D01*
X84855D01*
Y-198956D01*
D02*
G37*
G36*
X113097Y-202700D02*
X106347D01*
Y-205444D01*
X113097D01*
Y-202700D01*
D02*
G37*
G36*
X105347D02*
X98597D01*
Y-205444D01*
X105347D01*
Y-202700D01*
D02*
G37*
G36*
X92605Y-202700D02*
X85855D01*
Y-205444D01*
X92605D01*
Y-202700D01*
D02*
G37*
G36*
X84855D02*
X78105D01*
Y-205444D01*
X84855D01*
Y-202700D01*
D02*
G37*
G36*
X-116287Y-202700D02*
X-123037D01*
Y-205444D01*
X-116287D01*
Y-202700D01*
D02*
G37*
G36*
X-124037D02*
X-130787D01*
Y-205444D01*
X-124037D01*
Y-202700D01*
D02*
G37*
G36*
X-136779Y-202700D02*
X-143529D01*
Y-205444D01*
X-136779D01*
Y-202700D01*
D02*
G37*
G36*
X-144529D02*
X-151279D01*
Y-205444D01*
X-144529D01*
Y-202700D01*
D02*
G37*
G36*
X-50570Y-210077D02*
Y-211697D01*
X-48950D01*
X-49247Y-210980D01*
X-49852Y-210375D01*
X-50570Y-210077D01*
D02*
G37*
G36*
X-51570D02*
X-52288Y-210375D01*
X-52893Y-210980D01*
X-53190Y-211697D01*
X-51570D01*
Y-210077D01*
D02*
G37*
G36*
X-92345D02*
Y-211697D01*
X-90725D01*
X-91022Y-210980D01*
X-91627Y-210375D01*
X-92345Y-210077D01*
D02*
G37*
G36*
X-93345D02*
X-94063Y-210375D01*
X-94668Y-210980D01*
X-94965Y-211697D01*
X-93345D01*
Y-210077D01*
D02*
G37*
G36*
X-33535Y-208048D02*
X-40334D01*
Y-211697D01*
X-33535D01*
Y-208048D01*
D02*
G37*
G36*
X-41334D02*
X-48133D01*
Y-211697D01*
X-41334D01*
Y-208048D01*
D02*
G37*
G36*
X113097Y-208956D02*
X106347D01*
Y-211700D01*
X113097D01*
Y-208956D01*
D02*
G37*
G36*
X105347D02*
X98597D01*
Y-211700D01*
X105347D01*
Y-208956D01*
D02*
G37*
G36*
X-136779D02*
X-143529D01*
Y-211700D01*
X-136779D01*
Y-208956D01*
D02*
G37*
G36*
X-144529D02*
X-151279D01*
Y-211700D01*
X-144529D01*
Y-208956D01*
D02*
G37*
G36*
X-116287D02*
X-123037D01*
Y-211700D01*
X-116287D01*
Y-208956D01*
D02*
G37*
G36*
X-124037D02*
X-130787D01*
Y-211700D01*
X-124037D01*
Y-208956D01*
D02*
G37*
G36*
X92605D02*
X85855D01*
Y-211700D01*
X92605D01*
Y-208956D01*
D02*
G37*
G36*
X84855D02*
X78105D01*
Y-211700D01*
X84855D01*
Y-208956D01*
D02*
G37*
G36*
X-48950Y-212697D02*
X-50570D01*
Y-214317D01*
X-49852Y-214020D01*
X-49247Y-213415D01*
X-48950Y-212697D01*
D02*
G37*
G36*
X-51570D02*
X-53190D01*
X-52893Y-213415D01*
X-52288Y-214020D01*
X-51570Y-214317D01*
Y-212697D01*
D02*
G37*
G36*
X-90725D02*
X-92345D01*
Y-214317D01*
X-91627Y-214020D01*
X-91022Y-213415D01*
X-90725Y-212697D01*
D02*
G37*
G36*
X-93345D02*
X-94965D01*
X-94668Y-213415D01*
X-94063Y-214020D01*
X-93345Y-214317D01*
Y-212697D01*
D02*
G37*
G36*
X113097Y-212700D02*
X106347D01*
Y-215444D01*
X113097D01*
Y-212700D01*
D02*
G37*
G36*
X105347D02*
X98597D01*
Y-215444D01*
X105347D01*
Y-212700D01*
D02*
G37*
G36*
X92605Y-212700D02*
X85855D01*
Y-215444D01*
X92605D01*
Y-212700D01*
D02*
G37*
G36*
X84855D02*
X78105D01*
Y-215444D01*
X84855D01*
Y-212700D01*
D02*
G37*
G36*
X-116287Y-212700D02*
X-123037D01*
Y-215444D01*
X-116287D01*
Y-212700D01*
D02*
G37*
G36*
X-124037D02*
X-130787D01*
Y-215444D01*
X-124037D01*
Y-212700D01*
D02*
G37*
G36*
X-136779Y-212700D02*
X-143529D01*
Y-215444D01*
X-136779D01*
Y-212700D01*
D02*
G37*
G36*
X-144529D02*
X-151279D01*
Y-215444D01*
X-144529D01*
Y-212700D01*
D02*
G37*
G36*
X-33535Y-212697D02*
X-40334D01*
Y-216347D01*
X-33535D01*
Y-212697D01*
D02*
G37*
G36*
X-41334D02*
X-48133D01*
Y-216347D01*
X-41334D01*
Y-212697D01*
D02*
G37*
G36*
X113097Y-218956D02*
X106347D01*
Y-221700D01*
X113097D01*
Y-218956D01*
D02*
G37*
G36*
X105347D02*
X98597D01*
Y-221700D01*
X105347D01*
Y-218956D01*
D02*
G37*
G36*
X-136779D02*
X-143529D01*
Y-221700D01*
X-136779D01*
Y-218956D01*
D02*
G37*
G36*
X-144529D02*
X-151279D01*
Y-221700D01*
X-144529D01*
Y-218956D01*
D02*
G37*
G36*
X-116287D02*
X-123037D01*
Y-221700D01*
X-116287D01*
Y-218956D01*
D02*
G37*
G36*
X-124037D02*
X-130787D01*
Y-221700D01*
X-124037D01*
Y-218956D01*
D02*
G37*
G36*
X92605D02*
X85855D01*
Y-221700D01*
X92605D01*
Y-218956D01*
D02*
G37*
G36*
X84855D02*
X78105D01*
Y-221700D01*
X84855D01*
Y-218956D01*
D02*
G37*
G36*
X113097Y-222700D02*
X106347D01*
Y-225444D01*
X113097D01*
Y-222700D01*
D02*
G37*
G36*
X105347D02*
X98597D01*
Y-225444D01*
X105347D01*
Y-222700D01*
D02*
G37*
G36*
X92605Y-222700D02*
X85855D01*
Y-225444D01*
X92605D01*
Y-222700D01*
D02*
G37*
G36*
X84855D02*
X78105D01*
Y-225444D01*
X84855D01*
Y-222700D01*
D02*
G37*
G36*
X-116287Y-222700D02*
X-123037D01*
Y-225444D01*
X-116287D01*
Y-222700D01*
D02*
G37*
G36*
X-124037D02*
X-130787D01*
Y-225444D01*
X-124037D01*
Y-222700D01*
D02*
G37*
G36*
X-136779Y-222700D02*
X-143529D01*
Y-225444D01*
X-136779D01*
Y-222700D01*
D02*
G37*
G36*
X-144529D02*
X-151279D01*
Y-225444D01*
X-144529D01*
Y-222700D01*
D02*
G37*
G36*
X-58355Y-225405D02*
Y-227025D01*
X-56735D01*
X-57033Y-226307D01*
X-57638Y-225702D01*
X-58355Y-225405D01*
D02*
G37*
G36*
X-59355D02*
X-60073Y-225702D01*
X-60678Y-226307D01*
X-60975Y-227025D01*
X-59355D01*
Y-225405D01*
D02*
G37*
G36*
X-56735Y-228025D02*
X-60975D01*
X-60726Y-228626D01*
X-60948Y-229126D01*
X-61662D01*
Y-231004D01*
X-56119D01*
Y-229126D01*
X-56762D01*
X-56984Y-228626D01*
X-56735Y-228025D01*
D02*
G37*
G36*
X113097Y-228956D02*
X106347D01*
Y-231700D01*
X113097D01*
Y-228956D01*
D02*
G37*
G36*
X105347D02*
X98597D01*
Y-231700D01*
X105347D01*
Y-228956D01*
D02*
G37*
G36*
X-136779D02*
X-143529D01*
Y-231700D01*
X-136779D01*
Y-228956D01*
D02*
G37*
G36*
X-144529D02*
X-151279D01*
Y-231700D01*
X-144529D01*
Y-228956D01*
D02*
G37*
G36*
X-116287D02*
X-123037D01*
Y-231700D01*
X-116287D01*
Y-228956D01*
D02*
G37*
G36*
X-124037D02*
X-130787D01*
Y-231700D01*
X-124037D01*
Y-228956D01*
D02*
G37*
G36*
X92605D02*
X85855D01*
Y-231700D01*
X92605D01*
Y-228956D01*
D02*
G37*
G36*
X84855D02*
X78105D01*
Y-231700D01*
X84855D01*
Y-228956D01*
D02*
G37*
G36*
X-52545Y-197268D02*
X-53316D01*
X-54028Y-197563D01*
X-54573Y-198108D01*
X-54868Y-198820D01*
Y-199076D01*
X-84908Y-229116D01*
X-85585D01*
X-86298Y-229411D01*
X-86842Y-229956D01*
X-87137Y-230668D01*
Y-231439D01*
X-86842Y-232151D01*
X-86298Y-232696D01*
X-85585Y-232991D01*
X-84815D01*
X-84102Y-232696D01*
X-83558Y-232151D01*
X-83263Y-231439D01*
Y-231183D01*
X-53222Y-201143D01*
X-52545D01*
X-51833Y-200848D01*
X-51288Y-200303D01*
X-50993Y-199591D01*
Y-198820D01*
X-51288Y-198108D01*
X-51833Y-197563D01*
X-52545Y-197268D01*
D02*
G37*
G36*
X-56119Y-232004D02*
X-58391D01*
Y-233882D01*
X-56119D01*
Y-232004D01*
D02*
G37*
G36*
X-59391D02*
X-61662D01*
Y-233882D01*
X-59391D01*
Y-232004D01*
D02*
G37*
G36*
X113097Y-232700D02*
X106347D01*
Y-235444D01*
X113097D01*
Y-232700D01*
D02*
G37*
G36*
X105347D02*
X98597D01*
Y-235444D01*
X105347D01*
Y-232700D01*
D02*
G37*
G36*
X92605Y-232700D02*
X85855D01*
Y-235444D01*
X92605D01*
Y-232700D01*
D02*
G37*
G36*
X84855D02*
X78105D01*
Y-235444D01*
X84855D01*
Y-232700D01*
D02*
G37*
G36*
X-116287Y-232700D02*
X-123037D01*
Y-235444D01*
X-116287D01*
Y-232700D01*
D02*
G37*
G36*
X-124037D02*
X-130787D01*
Y-235444D01*
X-124037D01*
Y-232700D01*
D02*
G37*
G36*
X-136779Y-232700D02*
X-143529D01*
Y-235444D01*
X-136779D01*
Y-232700D01*
D02*
G37*
G36*
X-144529D02*
X-151279D01*
Y-235444D01*
X-144529D01*
Y-232700D01*
D02*
G37*
G36*
X-25546Y-234303D02*
X-28251D01*
Y-237500D01*
X-25546D01*
Y-234303D01*
D02*
G37*
G36*
X-29251D02*
X-31956D01*
Y-237500D01*
X-29251D01*
Y-234303D01*
D02*
G37*
G36*
X-34638Y-235880D02*
Y-237500D01*
X-33018D01*
X-33315Y-236782D01*
X-33920Y-236177D01*
X-34638Y-235880D01*
D02*
G37*
G36*
X-35638D02*
X-36356Y-236177D01*
X-36960Y-236782D01*
X-37258Y-237500D01*
X-35638D01*
Y-235880D01*
D02*
G37*
G36*
X-33018Y-238500D02*
X-34638D01*
Y-240120D01*
X-33920Y-239823D01*
X-33315Y-239218D01*
X-33018Y-238500D01*
D02*
G37*
G36*
X-35638D02*
X-37258D01*
X-36960Y-239218D01*
X-36356Y-239823D01*
X-35638Y-240120D01*
Y-238500D01*
D02*
G37*
G36*
X-25546Y-238500D02*
X-28251D01*
Y-241697D01*
X-25546D01*
Y-238500D01*
D02*
G37*
G36*
X-29251D02*
X-31956D01*
Y-241697D01*
X-29251D01*
Y-238500D01*
D02*
G37*
G36*
X113097Y-238956D02*
X106347D01*
Y-241700D01*
X113097D01*
Y-238956D01*
D02*
G37*
G36*
X105347D02*
X98597D01*
Y-241700D01*
X105347D01*
Y-238956D01*
D02*
G37*
G36*
X92605D02*
X85855D01*
Y-241700D01*
X92605D01*
Y-238956D01*
D02*
G37*
G36*
X84855D02*
X78105D01*
Y-241700D01*
X84855D01*
Y-238956D01*
D02*
G37*
G36*
X113097Y-242700D02*
X106347D01*
Y-245444D01*
X113097D01*
Y-242700D01*
D02*
G37*
G36*
X105347D02*
X98597D01*
Y-245444D01*
X105347D01*
Y-242700D01*
D02*
G37*
G36*
X92605Y-242700D02*
X85855D01*
Y-245444D01*
X92605D01*
Y-242700D01*
D02*
G37*
G36*
X84855D02*
X78105D01*
Y-245444D01*
X84855D01*
Y-242700D01*
D02*
G37*
G36*
X-66440Y-246601D02*
Y-248221D01*
X-64820D01*
X-65118Y-247503D01*
X-65722Y-246898D01*
X-66440Y-246601D01*
D02*
G37*
G36*
X-67440D02*
X-68158Y-246898D01*
X-68763Y-247503D01*
X-69060Y-248221D01*
X-67440D01*
Y-246601D01*
D02*
G37*
G36*
X113097Y-248956D02*
X106347D01*
Y-251700D01*
X113097D01*
Y-248956D01*
D02*
G37*
G36*
X105347D02*
X98597D01*
Y-251700D01*
X105347D01*
Y-248956D01*
D02*
G37*
G36*
X-136779D02*
X-143529D01*
Y-251700D01*
X-136779D01*
Y-248956D01*
D02*
G37*
G36*
X-144529D02*
X-151279D01*
Y-251700D01*
X-144529D01*
Y-248956D01*
D02*
G37*
G36*
X-116287D02*
X-123037D01*
Y-251700D01*
X-116287D01*
Y-248956D01*
D02*
G37*
G36*
X-124037D02*
X-130787D01*
Y-251700D01*
X-124037D01*
Y-248956D01*
D02*
G37*
G36*
X92605D02*
X85855D01*
Y-251700D01*
X92605D01*
Y-248956D01*
D02*
G37*
G36*
X84855D02*
X78105D01*
Y-251700D01*
X84855D01*
Y-248956D01*
D02*
G37*
G36*
X-64820Y-249221D02*
X-69060D01*
X-68763Y-249939D01*
X-68164Y-250538D01*
X-68164Y-250571D01*
X-68272Y-251038D01*
X-71268D01*
Y-253703D01*
X-62575D01*
Y-251038D01*
X-65609D01*
X-65716Y-250571D01*
X-65717Y-250538D01*
X-65118Y-249939D01*
X-64820Y-249221D01*
D02*
G37*
G36*
X-178681Y-91587D02*
X-183799D01*
Y-95918D01*
X-182553D01*
X-182553Y-244712D01*
X-182453Y-245214D01*
X-182168Y-245640D01*
X-174679Y-253130D01*
Y-253596D01*
X-174384Y-254308D01*
X-174104Y-254587D01*
X-174311Y-255087D01*
X-177667D01*
X-193140Y-239615D01*
X-192882Y-239278D01*
X-192349Y-237991D01*
X-192167Y-236611D01*
X-192349Y-235231D01*
X-192882Y-233945D01*
X-193729Y-232840D01*
X-194834Y-231993D01*
X-196120Y-231460D01*
X-196687Y-231385D01*
Y-219087D01*
X-192213D01*
Y-210513D01*
X-203787D01*
Y-219087D01*
X-199313D01*
Y-231385D01*
X-199880Y-231460D01*
X-201167Y-231993D01*
X-202271Y-232840D01*
X-203118Y-233945D01*
X-203651Y-235231D01*
X-203833Y-236611D01*
X-203651Y-237991D01*
X-203118Y-239278D01*
X-202271Y-240382D01*
X-201167Y-241230D01*
X-199880Y-241762D01*
X-198500Y-241944D01*
X-197500D01*
X-196120Y-241762D01*
X-195119Y-241348D01*
X-179139Y-257328D01*
X-178713Y-257613D01*
X-178211Y-257713D01*
X-167229D01*
Y-260055D01*
X-167918Y-260744D01*
X-176811D01*
Y-259108D01*
X-180551D01*
Y-265014D01*
X-176811D01*
Y-263369D01*
X-167374D01*
X-166872Y-263269D01*
X-166446Y-262985D01*
X-164979Y-261518D01*
X-162111D01*
Y-257713D01*
X-111456D01*
X-108723Y-260446D01*
X-108297Y-260731D01*
X-107794Y-260831D01*
X-60350D01*
Y-261668D01*
X-70728Y-261668D01*
X-70762Y-261675D01*
X-70797Y-261671D01*
X-70915Y-261705D01*
X-71035Y-261729D01*
X-71064Y-261749D01*
X-71098Y-261758D01*
X-71193Y-261835D01*
X-71296Y-261903D01*
X-71315Y-261932D01*
X-71342Y-261954D01*
X-76635Y-268246D01*
X-129212D01*
X-129516Y-267849D01*
X-129493Y-267765D01*
Y-266635D01*
X-129679Y-265944D01*
X-129295Y-265444D01*
X-124037D01*
Y-262700D01*
X-130787D01*
Y-263480D01*
X-131287Y-263687D01*
X-132128Y-263201D01*
X-133220Y-262909D01*
X-134350D01*
X-135441Y-263201D01*
X-136279Y-263685D01*
X-136779Y-263475D01*
Y-262700D01*
X-143529D01*
Y-265444D01*
X-138275D01*
X-137891Y-265944D01*
X-138076Y-266635D01*
Y-267765D01*
X-138054Y-267849D01*
X-138358Y-268246D01*
X-151330D01*
X-151638Y-268307D01*
X-151898Y-268481D01*
X-152013Y-268653D01*
X-171314D01*
X-171644Y-268323D01*
X-172356Y-268028D01*
X-173126D01*
X-173839Y-268323D01*
X-174384Y-268868D01*
X-174679Y-269580D01*
Y-270351D01*
X-174384Y-271063D01*
X-173839Y-271608D01*
X-173126Y-271903D01*
X-172356D01*
X-171644Y-271608D01*
X-171314Y-271278D01*
X-152133D01*
Y-274277D01*
X-158144Y-280287D01*
X-164482D01*
Y-279041D01*
X-168813D01*
Y-284159D01*
X-164482D01*
Y-282913D01*
X-157600D01*
X-157098Y-282813D01*
X-156672Y-282528D01*
X-149732Y-275588D01*
X-126513D01*
Y-293595D01*
X-127759D01*
Y-297926D01*
X-122641D01*
Y-293595D01*
X-123887D01*
Y-275588D01*
X-71600D01*
X-71566Y-275581D01*
X-71532Y-275585D01*
X-71414Y-275551D01*
X-71293Y-275527D01*
X-71264Y-275508D01*
X-71231Y-275498D01*
X-71135Y-275421D01*
X-71032Y-275353D01*
X-71013Y-275324D01*
X-70986Y-275303D01*
X-65978Y-269366D01*
X-60334D01*
Y-273888D01*
X-59835D01*
Y-284266D01*
X-60189D01*
Y-286319D01*
X-73426D01*
Y-286183D01*
X-78544D01*
Y-290513D01*
X-73426D01*
Y-288944D01*
X-60189D01*
Y-289384D01*
X-55858D01*
Y-284266D01*
X-57209D01*
Y-273888D01*
X-51279D01*
Y-268770D01*
X-51279D01*
X-51300Y-268745D01*
X-51264Y-268564D01*
Y-262880D01*
X-43396D01*
Y-285512D01*
X-49952D01*
Y-284266D01*
X-54283D01*
Y-289384D01*
X-49952D01*
Y-288137D01*
X-43396D01*
Y-299536D01*
X-43335Y-299843D01*
X-43161Y-300104D01*
X-42901Y-300278D01*
X-42594Y-300339D01*
X24400D01*
X24707Y-300278D01*
X24968Y-300104D01*
X25142Y-299843D01*
X25203Y-299536D01*
Y-288434D01*
X32028D01*
Y-309558D01*
X30584D01*
Y-316842D01*
X36096D01*
Y-309558D01*
X34653D01*
Y-288434D01*
X40961D01*
X41268Y-288373D01*
X41529Y-288199D01*
X41703Y-287939D01*
X41764Y-287632D01*
Y-275603D01*
X56771D01*
Y-286438D01*
X65629D01*
Y-275603D01*
X113080D01*
X113388Y-275542D01*
X113648Y-275368D01*
X113822Y-275107D01*
X113883Y-274800D01*
Y-269509D01*
X113822Y-269201D01*
X113648Y-268941D01*
X113388Y-268767D01*
X113080Y-268706D01*
X100049D01*
X99745Y-268309D01*
X99891Y-267765D01*
Y-266635D01*
X99706Y-265944D01*
X100089Y-265444D01*
X105347D01*
Y-262700D01*
X98597D01*
Y-263480D01*
X98097Y-263687D01*
X97256Y-263201D01*
X96164Y-262909D01*
X95034D01*
X93943Y-263201D01*
X93105Y-263685D01*
X92605Y-263475D01*
Y-262700D01*
X85855D01*
Y-265444D01*
X91110D01*
X91493Y-265944D01*
X91308Y-266635D01*
Y-267765D01*
X91454Y-268309D01*
X91149Y-268706D01*
X41764D01*
Y-238500D01*
X41703Y-238193D01*
X41529Y-237932D01*
X41268Y-237758D01*
X40961Y-237697D01*
X27119D01*
X27119Y-228813D01*
X32028D01*
Y-213853D01*
X30585D01*
Y-211154D01*
X30915Y-210824D01*
X31210Y-210112D01*
Y-209341D01*
X30915Y-208629D01*
X30370Y-208084D01*
X29658Y-207789D01*
X28887D01*
X28175Y-208084D01*
X27630Y-208629D01*
X27335Y-209341D01*
Y-210112D01*
X27630Y-210824D01*
X27960Y-211154D01*
Y-213853D01*
X26517D01*
X26517Y-213853D01*
X26316Y-213837D01*
X26023Y-213837D01*
X18967Y-213837D01*
X18660Y-213898D01*
X18399Y-214072D01*
X18225Y-214333D01*
X18164Y-214640D01*
Y-283031D01*
Y-287632D01*
Y-293451D01*
X-36797D01*
Y-256800D01*
X-36858Y-256493D01*
X-37032Y-256232D01*
X-37293Y-256058D01*
X-37600Y-255997D01*
X-51279D01*
Y-251054D01*
X-57578D01*
Y-239575D01*
X-56332D01*
Y-235244D01*
X-61450D01*
Y-236606D01*
X-159368D01*
X-159549Y-235231D01*
X-160082Y-233945D01*
X-160929Y-232840D01*
X-162033Y-231993D01*
X-163320Y-231460D01*
X-163775Y-231400D01*
Y-219087D01*
X-159413D01*
Y-210513D01*
X-170987D01*
Y-219087D01*
X-166400D01*
Y-231370D01*
X-167080Y-231460D01*
X-168367Y-231993D01*
X-169471Y-232840D01*
X-170318Y-233945D01*
X-170851Y-235231D01*
X-171033Y-236611D01*
X-170851Y-237991D01*
X-170318Y-239278D01*
X-169471Y-240382D01*
X-168367Y-241230D01*
X-167080Y-241762D01*
X-165700Y-241944D01*
X-164700D01*
X-163320Y-241762D01*
X-162033Y-241230D01*
X-160929Y-240382D01*
X-160082Y-239278D01*
X-160062Y-239231D01*
X-151279D01*
Y-241700D01*
X-144029D01*
X-136779D01*
Y-239231D01*
X-130787D01*
Y-241700D01*
X-123537D01*
X-116287D01*
Y-239231D01*
X-61450D01*
Y-239575D01*
X-60203D01*
Y-251054D01*
X-60334D01*
Y-256172D01*
X-60334Y-256172D01*
X-60324Y-256672D01*
X-60350Y-256800D01*
Y-258206D01*
X-107251D01*
X-109984Y-255472D01*
X-110410Y-255187D01*
X-110913Y-255087D01*
X-116287D01*
Y-252700D01*
X-123537D01*
X-130787D01*
Y-255087D01*
X-136779D01*
Y-252700D01*
X-144029D01*
X-151279D01*
Y-255087D01*
X-162111D01*
Y-253138D01*
X-156326Y-247353D01*
X-86627D01*
X-86298Y-247683D01*
X-85585Y-247978D01*
X-84815D01*
X-84102Y-247683D01*
X-83558Y-247138D01*
X-83263Y-246426D01*
Y-245655D01*
X-83558Y-244943D01*
X-84102Y-244398D01*
X-84815Y-244103D01*
X-85585D01*
X-86298Y-244398D01*
X-86627Y-244727D01*
X-116287D01*
Y-242700D01*
X-123537D01*
X-130787D01*
Y-244727D01*
X-136779D01*
Y-242700D01*
X-144029D01*
X-151279D01*
Y-244727D01*
X-156869D01*
X-157372Y-244827D01*
X-157798Y-245112D01*
X-163968Y-251282D01*
X-167229D01*
Y-255087D01*
X-171171D01*
X-171378Y-254587D01*
X-171099Y-254308D01*
X-170804Y-253596D01*
Y-252825D01*
X-171099Y-252113D01*
X-171644Y-251568D01*
X-172356Y-251273D01*
X-172822D01*
X-179927Y-244168D01*
X-179927Y-95918D01*
X-178681D01*
Y-91587D01*
D02*
G37*
G36*
X113097Y-252700D02*
X106347D01*
Y-255444D01*
X113097D01*
Y-252700D01*
D02*
G37*
G36*
X105347D02*
X98597D01*
Y-255444D01*
X105347D01*
Y-252700D01*
D02*
G37*
G36*
X92605Y-252700D02*
X85855D01*
Y-255444D01*
X92605D01*
Y-252700D01*
D02*
G37*
G36*
X84855D02*
X78105D01*
Y-255444D01*
X84855D01*
Y-252700D01*
D02*
G37*
G36*
X-62575Y-254703D02*
X-66421D01*
Y-257368D01*
X-62575D01*
Y-254703D01*
D02*
G37*
G36*
X-67421D02*
X-71268D01*
Y-257368D01*
X-67421D01*
Y-254703D01*
D02*
G37*
G36*
X-144529Y-258956D02*
X-151279D01*
Y-260999D01*
X-151769Y-261101D01*
X-151779Y-261101D01*
X-152382Y-260498D01*
X-153100Y-260201D01*
Y-262321D01*
Y-264441D01*
X-152382Y-264143D01*
X-151779Y-263540D01*
X-151769Y-263540D01*
X-151279Y-263642D01*
Y-265444D01*
X-144529D01*
Y-262200D01*
Y-258956D01*
D02*
G37*
G36*
X-188976Y-259880D02*
Y-261500D01*
X-187356D01*
X-187654Y-260782D01*
X-188259Y-260177D01*
X-188976Y-259880D01*
D02*
G37*
G36*
X-189976D02*
X-190694Y-260177D01*
X-191299Y-260782D01*
X-191596Y-261500D01*
X-189976D01*
Y-259880D01*
D02*
G37*
G36*
X-181717Y-258895D02*
X-183299D01*
Y-261561D01*
X-181717D01*
Y-258895D01*
D02*
G37*
G36*
X-184299D02*
X-185882D01*
Y-261561D01*
X-184299D01*
Y-258895D01*
D02*
G37*
G36*
X105347Y-258956D02*
X98597D01*
Y-261700D01*
X105347D01*
Y-258956D01*
D02*
G37*
G36*
X-136779D02*
X-143529D01*
Y-261700D01*
X-136779D01*
Y-258956D01*
D02*
G37*
G36*
X-116287D02*
X-123037D01*
Y-261700D01*
X-116287D01*
Y-258956D01*
D02*
G37*
G36*
X-124037D02*
X-130787D01*
Y-261700D01*
X-124037D01*
Y-258956D01*
D02*
G37*
G36*
X92605D02*
X85855D01*
Y-261700D01*
X92605D01*
Y-258956D01*
D02*
G37*
G36*
X74973Y-260107D02*
X74255Y-260405D01*
X73650Y-261009D01*
X73353Y-261727D01*
X74973D01*
Y-260107D01*
D02*
G37*
G36*
X-112707Y-260144D02*
Y-261764D01*
X-111087D01*
X-111384Y-261046D01*
X-111989Y-260441D01*
X-112707Y-260144D01*
D02*
G37*
G36*
X-113707D02*
X-114425Y-260441D01*
X-115030Y-261046D01*
X-115327Y-261764D01*
X-113707D01*
Y-260144D01*
D02*
G37*
G36*
X116234Y-260150D02*
Y-261770D01*
X117854D01*
X117557Y-261052D01*
X116952Y-260447D01*
X116234Y-260150D01*
D02*
G37*
G36*
X84855Y-258956D02*
X78105D01*
Y-261756D01*
X77623Y-261800D01*
X77296Y-261009D01*
X76691Y-260405D01*
X75973Y-260107D01*
Y-262227D01*
Y-264347D01*
X76691Y-264050D01*
X77296Y-263445D01*
X77623Y-262655D01*
X78105Y-262698D01*
Y-265444D01*
X84855D01*
Y-262200D01*
Y-258956D01*
D02*
G37*
G36*
X-154100Y-260201D02*
X-154818Y-260498D01*
X-155423Y-261103D01*
X-155720Y-261821D01*
X-154100D01*
Y-260201D01*
D02*
G37*
G36*
X-187356Y-262500D02*
X-188976D01*
Y-264120D01*
X-188259Y-263823D01*
X-187654Y-263218D01*
X-187356Y-262500D01*
D02*
G37*
G36*
X-189976D02*
X-191596D01*
X-191299Y-263218D01*
X-190694Y-263823D01*
X-189976Y-264120D01*
Y-262500D01*
D02*
G37*
G36*
X74973Y-262727D02*
X73353D01*
X73650Y-263445D01*
X74255Y-264050D01*
X74973Y-264347D01*
Y-262727D01*
D02*
G37*
G36*
X-111087Y-262764D02*
X-112707D01*
Y-264384D01*
X-111989Y-264087D01*
X-111384Y-263482D01*
X-111087Y-262764D01*
D02*
G37*
G36*
X-113707D02*
X-115327D01*
X-115030Y-263482D01*
X-114425Y-264087D01*
X-113707Y-264384D01*
Y-262764D01*
D02*
G37*
G36*
X117854Y-262770D02*
X116234D01*
Y-264390D01*
X116952Y-264093D01*
X117557Y-263488D01*
X117854Y-262770D01*
D02*
G37*
G36*
X113097Y-258956D02*
X106347D01*
Y-262200D01*
Y-265444D01*
X113097D01*
Y-262730D01*
X113584Y-262698D01*
X113911Y-263488D01*
X114516Y-264093D01*
X115234Y-264390D01*
Y-262270D01*
Y-260150D01*
X114516Y-260447D01*
X113911Y-261052D01*
X113584Y-261842D01*
X113097Y-261809D01*
Y-258956D01*
D02*
G37*
G36*
X-154100Y-262821D02*
X-155720D01*
X-155423Y-263538D01*
X-154818Y-264143D01*
X-154100Y-264441D01*
Y-262821D01*
D02*
G37*
G36*
X-181717Y-262561D02*
X-183299D01*
Y-265226D01*
X-181717D01*
Y-262561D01*
D02*
G37*
G36*
X-184299D02*
X-185882D01*
Y-265226D01*
X-184299D01*
Y-262561D01*
D02*
G37*
G36*
X-116287Y-262700D02*
X-123037D01*
Y-265444D01*
X-116287D01*
Y-262700D01*
D02*
G37*
G36*
X-194949Y-265801D02*
X-201051D01*
Y-272494D01*
X-194949D01*
Y-270513D01*
X-183110D01*
Y-272100D01*
X-179370D01*
Y-266195D01*
X-183110D01*
Y-267887D01*
X-194949D01*
Y-265801D01*
D02*
G37*
G36*
X-159100Y-273080D02*
Y-274700D01*
X-157480D01*
X-157777Y-273982D01*
X-158382Y-273377D01*
X-159100Y-273080D01*
D02*
G37*
G36*
X-160100D02*
X-160818Y-273377D01*
X-161423Y-273982D01*
X-161720Y-274700D01*
X-160100D01*
Y-273080D01*
D02*
G37*
G36*
X-157480Y-275700D02*
X-159100D01*
Y-277320D01*
X-158382Y-277023D01*
X-157777Y-276418D01*
X-157480Y-275700D01*
D02*
G37*
G36*
X-160100D02*
X-161720D01*
X-161423Y-276418D01*
X-160818Y-277023D01*
X-160100Y-277320D01*
Y-275700D01*
D02*
G37*
G36*
X-49846Y-278405D02*
Y-280025D01*
X-48226D01*
X-48523Y-279307D01*
X-49128Y-278703D01*
X-49846Y-278405D01*
D02*
G37*
G36*
X-50846D02*
X-51564Y-278703D01*
X-52169Y-279307D01*
X-52466Y-280025D01*
X-50846D01*
Y-278405D01*
D02*
G37*
G36*
X-29892Y-277754D02*
X-32557D01*
Y-281601D01*
X-29892D01*
Y-277754D01*
D02*
G37*
G36*
X-23962Y-279981D02*
Y-281601D01*
X-22342D01*
X-22639Y-280883D01*
X-23244Y-280278D01*
X-23962Y-279981D01*
D02*
G37*
G36*
X-48226Y-281025D02*
X-49846D01*
Y-282645D01*
X-49128Y-282348D01*
X-48523Y-281743D01*
X-48226Y-281025D01*
D02*
G37*
G36*
X-50846D02*
X-52466D01*
X-52169Y-281743D01*
X-51564Y-282348D01*
X-50846Y-282645D01*
Y-281025D01*
D02*
G37*
G36*
X-194949Y-273281D02*
X-201051D01*
Y-279974D01*
X-196707D01*
X-194153Y-282528D01*
X-193727Y-282813D01*
X-193225Y-282913D01*
X-174718D01*
Y-284159D01*
X-170387D01*
Y-279041D01*
X-174718D01*
Y-280287D01*
X-192681D01*
X-194949Y-278019D01*
Y-273281D01*
D02*
G37*
G36*
X-22342Y-282601D02*
X-23962D01*
Y-284221D01*
X-23244Y-283924D01*
X-22639Y-283319D01*
X-22342Y-282601D01*
D02*
G37*
G36*
X-26226Y-277754D02*
X-28892D01*
Y-282101D01*
Y-286447D01*
X-26226D01*
Y-284030D01*
X-25764Y-283839D01*
X-25680Y-283924D01*
X-24962Y-284221D01*
Y-282101D01*
Y-279981D01*
X-25680Y-280278D01*
X-25764Y-280363D01*
X-26226Y-280171D01*
Y-277754D01*
D02*
G37*
G36*
X-29892Y-282601D02*
X-32557D01*
Y-286447D01*
X-29892D01*
Y-282601D01*
D02*
G37*
G36*
X-92294Y-287625D02*
Y-289245D01*
X-90674D01*
X-90972Y-288527D01*
X-91576Y-287922D01*
X-92294Y-287625D01*
D02*
G37*
G36*
X-93294D02*
X-94012Y-287922D01*
X-94617Y-288527D01*
X-94914Y-289245D01*
X-93294D01*
Y-287625D01*
D02*
G37*
G36*
X-96035Y-287763D02*
X-98700D01*
Y-289346D01*
X-96035D01*
Y-287763D01*
D02*
G37*
G36*
X-99700D02*
X-102365D01*
Y-289346D01*
X-99700D01*
Y-287763D01*
D02*
G37*
G36*
X-90674Y-290245D02*
X-92294D01*
Y-291865D01*
X-91576Y-291567D01*
X-90972Y-290963D01*
X-90674Y-290245D01*
D02*
G37*
G36*
X-93294D02*
X-94914D01*
X-94617Y-290963D01*
X-94012Y-291567D01*
X-93294Y-291865D01*
Y-290245D01*
D02*
G37*
G36*
X-96035Y-290346D02*
X-98700D01*
Y-291928D01*
X-96035D01*
Y-290346D01*
D02*
G37*
G36*
X-99700D02*
X-102365D01*
Y-291928D01*
X-99700D01*
Y-290346D01*
D02*
G37*
G36*
X-73426Y-292088D02*
X-78544D01*
Y-293651D01*
X-96247D01*
Y-293094D01*
X-102153D01*
Y-296834D01*
X-96247D01*
Y-296276D01*
X-78544D01*
Y-296419D01*
X-73426D01*
Y-292088D01*
D02*
G37*
G36*
X65842Y-290950D02*
X61700D01*
Y-298536D01*
X65842D01*
Y-290950D01*
D02*
G37*
G36*
X60700D02*
X56558D01*
Y-298536D01*
X60700D01*
Y-290950D01*
D02*
G37*
G36*
X6693Y-305971D02*
Y-307591D01*
X8313D01*
X8016Y-306873D01*
X7411Y-306269D01*
X6693Y-305971D01*
D02*
G37*
G36*
X5693D02*
X4975Y-306269D01*
X4371Y-306873D01*
X4073Y-307591D01*
X5693D01*
Y-305971D01*
D02*
G37*
G36*
X13650Y-305320D02*
X11772D01*
Y-307591D01*
X13650D01*
Y-305320D01*
D02*
G37*
G36*
X10772D02*
X8895D01*
Y-307591D01*
X10772D01*
Y-305320D01*
D02*
G37*
G36*
X65842Y-299536D02*
X61200D01*
X56558D01*
Y-307123D01*
X59227D01*
X59418Y-307585D01*
X59312Y-307691D01*
X59015Y-308409D01*
X63255D01*
X62958Y-307691D01*
X62852Y-307585D01*
X63043Y-307123D01*
X65842D01*
Y-299536D01*
D02*
G37*
G36*
X8313Y-308591D02*
X6693D01*
Y-310211D01*
X7411Y-309914D01*
X8016Y-309309D01*
X8313Y-308591D01*
D02*
G37*
G36*
X5693D02*
X4073D01*
X4371Y-309309D01*
X4975Y-309914D01*
X5693Y-310211D01*
Y-308591D01*
D02*
G37*
G36*
X78419Y-310386D02*
X71965D01*
X71962Y-310387D01*
X71960Y-310386D01*
X71807Y-310418D01*
X71657Y-310447D01*
X71655Y-310449D01*
X71653Y-310449D01*
X71525Y-310536D01*
X71397Y-310621D01*
X71395Y-310624D01*
X71393Y-310625D01*
X64573Y-317534D01*
X9301Y-317534D01*
X1445Y-310627D01*
X1333Y-310562D01*
X1226Y-310490D01*
X1199Y-310484D01*
X1174Y-310470D01*
X1046Y-310453D01*
X919Y-310427D01*
X-6080Y-310388D01*
X-6081Y-310388D01*
X-6082Y-310388D01*
X-6235Y-310418D01*
X-6387Y-310448D01*
X-6388Y-310448D01*
X-6389Y-310448D01*
X-6518Y-310534D01*
X-6649Y-310620D01*
X-6649Y-310621D01*
X-6650Y-310622D01*
X-7005Y-310974D01*
X-7005Y-310975D01*
X-7006Y-310976D01*
X-7092Y-311105D01*
X-7180Y-311234D01*
X-7180Y-311235D01*
X-7180Y-311236D01*
X-7210Y-311387D01*
X-7241Y-311541D01*
X-7241Y-311543D01*
X-7241Y-311544D01*
Y-318583D01*
X-7241Y-318583D01*
X-7180Y-318891D01*
X-7006Y-319151D01*
X-7006Y-319151D01*
X347Y-326505D01*
X608Y-326679D01*
X915Y-326740D01*
X71185D01*
X71492Y-326679D01*
X71753Y-326505D01*
X71753Y-326505D01*
X78987Y-319271D01*
X79161Y-319010D01*
X79222Y-318703D01*
X79222Y-311189D01*
X79161Y-310882D01*
X78987Y-310621D01*
X78726Y-310447D01*
X78419Y-310386D01*
D02*
G37*
G36*
X-75985Y-310449D02*
X-83359D01*
X-83361Y-310450D01*
X-83364Y-310449D01*
X-83515Y-310480D01*
X-83666Y-310510D01*
X-83668Y-310512D01*
X-83671Y-310512D01*
X-83798Y-310598D01*
X-83926Y-310684D01*
X-83928Y-310686D01*
X-83930Y-310688D01*
X-90751Y-317597D01*
X-140415Y-317597D01*
X-148270Y-310690D01*
X-148382Y-310625D01*
X-148489Y-310553D01*
X-148516Y-310547D01*
X-148541Y-310533D01*
X-148669Y-310516D01*
X-148796Y-310490D01*
X-155795Y-310451D01*
X-155796Y-310451D01*
X-155797Y-310451D01*
X-155950Y-310481D01*
X-156102Y-310510D01*
X-156103Y-310511D01*
X-156104Y-310511D01*
X-156234Y-310597D01*
X-156364Y-310683D01*
X-156364Y-310684D01*
X-156365Y-310685D01*
X-156720Y-311037D01*
X-156720Y-311038D01*
X-156721Y-311039D01*
X-156807Y-311168D01*
X-156895Y-311297D01*
X-156895Y-311298D01*
X-156895Y-311299D01*
X-156925Y-311450D01*
X-156957Y-311604D01*
X-156956Y-311605D01*
X-156957Y-311607D01*
Y-318646D01*
X-156957Y-318646D01*
X-156895Y-318954D01*
X-156721Y-319214D01*
X-156721Y-319214D01*
X-149368Y-326568D01*
X-149107Y-326742D01*
X-148800Y-326803D01*
X-83200D01*
X-82893Y-326742D01*
X-82632Y-326568D01*
X-82458Y-326307D01*
X-82440Y-326217D01*
X-75417Y-319194D01*
X-75243Y-318933D01*
X-75182Y-318626D01*
Y-311252D01*
X-75243Y-310945D01*
X-75417Y-310684D01*
X-75678Y-310510D01*
X-75985Y-310449D01*
D02*
G37*
G36*
X13650Y-308591D02*
X11772D01*
Y-310863D01*
X13650D01*
Y-308591D01*
D02*
G37*
G36*
X10772D02*
X8895D01*
Y-310863D01*
X10772D01*
Y-308591D01*
D02*
G37*
G36*
X63255Y-309409D02*
X61635D01*
Y-311029D01*
X62353Y-310732D01*
X62958Y-310127D01*
X63255Y-309409D01*
D02*
G37*
G36*
X60635D02*
X59015D01*
X59312Y-310127D01*
X59917Y-310732D01*
X60635Y-311029D01*
Y-309409D01*
D02*
G37*
G36*
X-103334Y-290535D02*
X-109239D01*
Y-294275D01*
X-107376D01*
Y-309329D01*
X-109639D01*
Y-316415D01*
X-104521D01*
Y-309329D01*
X-104750D01*
Y-294275D01*
X-103334D01*
Y-290535D01*
D02*
G37*
G36*
X-122641Y-299501D02*
X-127759D01*
Y-303831D01*
X-124880D01*
X-124856Y-303866D01*
X-117513Y-311209D01*
Y-316415D01*
X-112395D01*
Y-309329D01*
X-115681D01*
X-122641Y-302369D01*
Y-299501D01*
D02*
G37*
G36*
X19343Y-305532D02*
X15013D01*
Y-310650D01*
X19343D01*
Y-309404D01*
X21093D01*
X23104Y-311415D01*
Y-316842D01*
X28616D01*
Y-309558D01*
X24960D01*
X22565Y-307163D01*
X22139Y-306879D01*
X21637Y-306779D01*
X19343D01*
Y-305532D01*
D02*
G37*
G36*
X119219Y-325839D02*
X117586D01*
X115985Y-326157D01*
X114477Y-326782D01*
X113119Y-327689D01*
X111965Y-328843D01*
X111058Y-330201D01*
X110433Y-331709D01*
X110115Y-333310D01*
Y-334943D01*
X110433Y-336544D01*
X111058Y-338052D01*
X111965Y-339409D01*
X113119Y-340564D01*
X114477Y-341471D01*
X115985Y-342095D01*
X117586Y-342414D01*
X119219D01*
X120820Y-342095D01*
X122328Y-341471D01*
X123685Y-340564D01*
X124839Y-339409D01*
X125746Y-338052D01*
X126371Y-336544D01*
X126690Y-334943D01*
Y-333310D01*
X126371Y-331709D01*
X125746Y-330201D01*
X124839Y-328843D01*
X123685Y-327689D01*
X122328Y-326782D01*
X120820Y-326157D01*
X119219Y-325839D01*
D02*
G37*
G36*
X-194769D02*
X-196401D01*
X-198002Y-326157D01*
X-199510Y-326782D01*
X-200868Y-327689D01*
X-202022Y-328843D01*
X-202929Y-330201D01*
X-203554Y-331709D01*
X-203872Y-333310D01*
Y-334943D01*
X-203554Y-336544D01*
X-202929Y-338052D01*
X-202022Y-339409D01*
X-200868Y-340564D01*
X-199510Y-341471D01*
X-198002Y-342095D01*
X-196401Y-342414D01*
X-194769D01*
X-193167Y-342095D01*
X-191659Y-341471D01*
X-190302Y-340564D01*
X-189148Y-339409D01*
X-188241Y-338052D01*
X-187616Y-336544D01*
X-187297Y-334943D01*
Y-333310D01*
X-187616Y-331709D01*
X-188241Y-330201D01*
X-189148Y-328843D01*
X-190302Y-327689D01*
X-191659Y-326782D01*
X-193167Y-326157D01*
X-194769Y-325839D01*
D02*
G37*
%LPD*%
G36*
X78369Y-41598D02*
X66942Y-54615D01*
X16555D01*
X997Y-69022D01*
X-34249D01*
Y-60975D01*
X-4276D01*
X13200Y-45177D01*
X60333D01*
X71267Y-33600D01*
X78369D01*
Y-41598D01*
D02*
G37*
G36*
X-48409Y-69799D02*
X-47911Y-69805D01*
Y-70986D01*
X-61282Y-128302D01*
X-61779Y-128245D01*
Y-115243D01*
X-62190D01*
Y-99595D01*
X-61861Y-99265D01*
X-61566Y-98554D01*
Y-97783D01*
X-61861Y-97071D01*
X-62406Y-96526D01*
X-63118Y-96231D01*
X-63888D01*
X-64600Y-96526D01*
X-65145Y-97071D01*
X-65440Y-97783D01*
Y-98554D01*
X-65145Y-99265D01*
X-64816Y-99595D01*
Y-115243D01*
X-66820D01*
Y-69825D01*
X-49188D01*
X-49059Y-69799D01*
X-48409D01*
Y-69799D01*
D02*
G37*
G36*
X-49188Y-69022D02*
X-67622D01*
Y-131899D01*
X-74990D01*
Y-60975D01*
X-49188D01*
Y-69022D01*
D02*
G37*
G36*
X-41519Y-45597D02*
Y-74410D01*
X-55371Y-138831D01*
X-87163D01*
Y-116026D01*
X-80954D01*
Y-132715D01*
X-61487D01*
X-47108Y-71079D01*
Y-45597D01*
X-41519Y-45597D01*
D02*
G37*
G36*
X-36000Y-71500D02*
X-14575Y-121791D01*
X11346D01*
Y-129050D01*
X-8800D01*
Y-214640D01*
X4797D01*
Y-228004D01*
X-19977D01*
Y-125196D01*
X-40396Y-75946D01*
X-40534Y-45952D01*
X-40182Y-45597D01*
X-36000D01*
Y-71500D01*
D02*
G37*
G36*
X13012Y-287632D02*
X-8800D01*
Y-238492D01*
X5600D01*
Y-214640D01*
X13012D01*
Y-287632D01*
D02*
G37*
%LPC*%
G36*
X-57905Y-79883D02*
Y-81503D01*
X-56285D01*
X-56583Y-80786D01*
X-57187Y-80181D01*
X-57905Y-79883D01*
D02*
G37*
G36*
X-58905D02*
X-59623Y-80181D01*
X-60228Y-80786D01*
X-60525Y-81503D01*
X-58905D01*
Y-79883D01*
D02*
G37*
G36*
X-56285Y-82503D02*
X-57905D01*
Y-84123D01*
X-57187Y-83826D01*
X-56583Y-83221D01*
X-56285Y-82503D01*
D02*
G37*
G36*
X-58905D02*
X-60525D01*
X-60228Y-83221D01*
X-59623Y-83826D01*
X-58905Y-84123D01*
Y-82503D01*
D02*
G37*
%LPD*%
G36*
X21246Y-115787D02*
X-4543D01*
Y-108484D01*
X13200D01*
Y-69777D01*
X21246D01*
Y-115787D01*
D02*
G37*
G36*
X-60173Y-262508D02*
X-60115Y-262594D01*
X-60115D01*
Y-262594D01*
X-60028Y-262652D01*
X-59854Y-262768D01*
X-59854D01*
X-59732Y-262819D01*
X-59732Y-262819D01*
X-59424Y-262880D01*
X-52067D01*
Y-268564D01*
X-66351D01*
X-71600Y-274785D01*
X-151330D01*
Y-269049D01*
X-137672D01*
X-137219Y-269835D01*
X-136420Y-270634D01*
X-135441Y-271199D01*
X-134350Y-271491D01*
X-133220D01*
X-132128Y-271199D01*
X-131150Y-270634D01*
X-130351Y-269835D01*
X-129897Y-269049D01*
X-76261D01*
X-70728Y-262471D01*
X-60197Y-262471D01*
X-60173Y-262508D01*
D02*
G37*
G36*
X26316Y-214640D02*
X26316Y-238500D01*
X40961D01*
Y-269509D01*
X91977D01*
X92165Y-269835D01*
X92964Y-270634D01*
X93943Y-271199D01*
X95034Y-271491D01*
X96164D01*
X97256Y-271199D01*
X98234Y-270634D01*
X99033Y-269835D01*
X99222Y-269509D01*
X113080D01*
Y-274800D01*
X40961D01*
Y-287632D01*
X24400D01*
Y-299536D01*
X-42594D01*
Y-262077D01*
X-59424D01*
X-59547Y-262026D01*
Y-256800D01*
X-37600D01*
Y-294254D01*
X18967D01*
Y-287632D01*
Y-214640D01*
X26316Y-214640D01*
D02*
G37*
G36*
X78419Y-318703D02*
X71185Y-325937D01*
X915D01*
X-6439Y-318583D01*
Y-311544D01*
X-6084Y-311191D01*
X915Y-311230D01*
X8998Y-318337D01*
X64908Y-318337D01*
X71965Y-311189D01*
X78419D01*
X78419Y-318703D01*
D02*
G37*
G36*
X-75985Y-318626D02*
X-83200Y-325841D01*
Y-326000D01*
X-148800D01*
X-156154Y-318646D01*
Y-311607D01*
X-155799Y-311254D01*
X-148800Y-311293D01*
X-140717Y-318400D01*
X-90415Y-318400D01*
X-83359Y-311252D01*
X-75985D01*
Y-318626D01*
D02*
G37*
D13*
X21637Y-308091D02*
X25860Y-312314D01*
X17178Y-308091D02*
X21637D01*
X-57619Y-253613D02*
X-55807D01*
X-58891Y-252341D02*
X-57619Y-253613D01*
X-59400Y-237919D02*
X-58891Y-237409D01*
Y-252341D02*
Y-237409D01*
X-163863Y-236611D02*
X-163863D01*
X-162555Y-237919D01*
X-59400D01*
X-165200Y-236611D02*
X-165087D01*
X-165200D02*
X-163863Y-236611D01*
X-58891Y-231504D02*
X-58855Y-231469D01*
Y-227525D01*
X-40834Y-286429D02*
Y-282913D01*
X-40021Y-282101D01*
X-52118Y-286825D02*
X-41229D01*
X-40834Y-286429D01*
X-157600Y-281600D02*
X-149944Y-273944D01*
X-166763Y-281600D02*
X-157600D01*
X-149944Y-273944D02*
X-149779D01*
X-148800Y-272965D01*
Y-272405D01*
X-148035Y-272200D02*
X-144029D01*
X-150269Y-269966D02*
X-148035Y-272200D01*
X-48709Y-185416D02*
X-26367Y-163074D01*
X-26329D01*
X-48747Y-185416D02*
X-48709D01*
X-91419Y-123979D02*
Y-90181D01*
X-149787Y-69977D02*
X-111623D01*
X-166691D02*
X-155692D01*
X-23073Y-193818D02*
X-23073Y-193818D01*
X-110201Y-193818D02*
X-23073D01*
X-113230Y-196847D02*
X-110201Y-193818D01*
X10481Y-148953D02*
X10650Y-148784D01*
X-3403Y-148953D02*
X10481D01*
X10650Y-148784D02*
Y-133787D01*
X-207331Y-108669D02*
X-198000Y-118000D01*
X-207331Y-108669D02*
Y-71590D01*
X-196716Y-60975D01*
X-178681Y-262057D02*
X-167374D01*
X-189476Y-262000D02*
X-183799D01*
X-172741Y-269966D02*
X-150269D01*
X-193225Y-281600D02*
X-172263D01*
X-196138Y-278687D02*
X-193225Y-281600D01*
X-198000Y-276923D02*
X-196236Y-278687D01*
X-196138D01*
X-198000Y-276923D02*
Y-276825D01*
Y-269200D02*
X-182038D01*
X-199003Y-270615D02*
Y-270069D01*
X-167374Y-262057D02*
X-164670Y-259353D01*
X-19977Y-97996D02*
X-12538Y-105435D01*
X3386D01*
X-196716Y-60975D02*
X-107680D01*
X-85550Y-83105D01*
Y-93752D02*
Y-83105D01*
X-111623Y-69977D02*
X-91419Y-90181D01*
X-167273Y-70560D02*
X-166691Y-69977D01*
X-167273Y-71257D02*
Y-70560D01*
X-181240Y-93753D02*
X-181240Y-93753D01*
X-181240Y-244712D02*
X-172741Y-253211D01*
X-181240Y-244712D02*
X-181240Y-93753D01*
X-164907Y-253211D02*
X-164040D01*
X-25560Y-125436D02*
X-25459Y-125537D01*
X28136Y-87494D02*
X28170Y-87529D01*
X-95748Y-97996D02*
X-95600Y-98144D01*
X-106150Y-97996D02*
X-95748D01*
X-106178Y-98023D02*
X-106150Y-97996D01*
X-156869Y-246040D02*
X-85200D01*
Y-231053D02*
X-84989D01*
X-53141Y-199205D01*
X-52930D01*
X-155687Y-98023D02*
X-106178D01*
X-165200Y-107536D02*
X-155687Y-98023D01*
X-85550Y-93752D02*
Y-93660D01*
X-84672Y-92782D01*
X-71830D01*
X-58830Y-287632D02*
X-58023Y-286825D01*
X-75268Y-287632D02*
X-58830D01*
X-58522Y-286825D02*
Y-272601D01*
X-75985Y-288348D02*
X-75268Y-287632D01*
X-164040Y-253211D02*
X-156869Y-246040D01*
X25860Y-313200D02*
Y-312314D01*
X6193Y-308091D02*
X10778D01*
X11315Y-308629D01*
X-116226Y-310616D02*
X-114954Y-311888D01*
X-123928Y-302938D02*
X-116250Y-310616D01*
X-124806Y-301666D02*
X-123928Y-302544D01*
X-114954Y-312872D02*
Y-311888D01*
X-116250Y-310616D02*
X-116226D01*
X-125200Y-301666D02*
X-124806D01*
X-123928Y-302938D02*
Y-302544D01*
X-106063Y-313528D02*
Y-292400D01*
X29272Y-221333D02*
Y-209726D01*
X-165087Y-188211D02*
Y-165600D01*
Y-189313D02*
Y-188211D01*
X-58522Y-272601D02*
X-57250Y-271329D01*
X-55807D01*
X-99200Y-294964D02*
X-77211D01*
X-23073Y-193818D02*
X-23073Y-193818D01*
Y-188369D01*
X-110913Y-256400D02*
X-107794Y-259518D01*
X-55807D01*
X33340Y-313200D02*
Y-284999D01*
X-177200Y-71165D02*
X-172511D01*
X-182512Y-87837D02*
X-181240Y-87847D01*
X-199074Y-86377D02*
X-197311Y-87721D01*
X-182512Y-87837D01*
X-198073Y-77600D02*
X-169832D01*
X-199074Y-78601D02*
X-198073Y-77600D01*
X-63503Y-122867D02*
Y-98168D01*
X-165200Y-118000D02*
Y-107536D01*
X-64616Y-123979D02*
X-63503Y-122867D01*
X-107485Y-109077D02*
Y-103816D01*
X15887Y-221333D02*
X15903Y-221350D01*
X-198000Y-139811D02*
Y-118000D01*
Y-188211D02*
Y-166400D01*
Y-236611D02*
Y-214800D01*
X-178211Y-256400D02*
X-110913D01*
X-198000Y-236611D02*
X-178211Y-256400D01*
X106656Y-82200D02*
X108400Y-80456D01*
X82998D02*
X84742Y-82200D01*
X85356D01*
X-107485Y-103816D02*
X-107422Y-103753D01*
X-33558Y-49989D02*
Y-48808D01*
X-92845Y-289795D02*
X-92794Y-289745D01*
X-99200Y-289846D02*
X-99150Y-289795D01*
X-92845D01*
X-165087Y-236611D02*
Y-214800D01*
X-23073Y-182463D02*
X-16635D01*
X-165200Y-236611D02*
X-165087D01*
X-23073Y-182463D02*
X-22997Y-182387D01*
X-157553Y-196847D02*
X-113230D01*
X-165087Y-189313D02*
X-157553Y-196847D01*
X16555Y-148784D02*
Y-112337D01*
X3386Y-132238D02*
X9101D01*
X10650Y-133787D01*
X-125200Y-273794D02*
X-123606Y-272200D01*
X-125200Y-295761D02*
Y-273794D01*
X-66933Y-264627D02*
Y-263866D01*
X-165200Y-139811D02*
Y-118000D01*
X-91419Y-123979D02*
X-91419Y-123979D01*
D14*
X-58891Y-237409D02*
D03*
Y-231504D02*
D03*
X-75985Y-294254D02*
D03*
Y-288348D02*
D03*
X-107422Y-97847D02*
D03*
Y-103753D02*
D03*
X-23073Y-188369D02*
D03*
Y-182463D02*
D03*
X-164670Y-253447D02*
D03*
Y-259353D02*
D03*
X-181240Y-87847D02*
D03*
Y-93753D02*
D03*
X-125200Y-295761D02*
D03*
Y-301666D02*
D03*
D15*
X-123537Y-272200D02*
D03*
Y-262200D02*
D03*
X-144029D02*
D03*
X-123537Y-252200D02*
D03*
X-144029D02*
D03*
X-123537Y-242200D02*
D03*
X-144029D02*
D03*
X-123537Y-232200D02*
D03*
X-144029D02*
D03*
X-123537Y-222200D02*
D03*
X-144029D02*
D03*
X-123537Y-212200D02*
D03*
X-144029D02*
D03*
X-123537Y-202200D02*
D03*
X-144029D02*
D03*
X-123537Y-192200D02*
D03*
X-144029D02*
D03*
X-123537Y-182200D02*
D03*
X-144029D02*
D03*
X-123537Y-172200D02*
D03*
X-144029D02*
D03*
X-123537Y-162200D02*
D03*
X-144029D02*
D03*
X-123537Y-152200D02*
D03*
X-144029D02*
D03*
X-123537Y-142200D02*
D03*
X-144029D02*
D03*
X-123537Y-132200D02*
D03*
X-144029D02*
D03*
X-123537Y-122200D02*
D03*
X-144029D02*
D03*
X-123537Y-112200D02*
D03*
X-144029D02*
D03*
X-123537Y-102200D02*
D03*
X-144029D02*
D03*
X-123537Y-92200D02*
D03*
X-144029D02*
D03*
X-123537Y-82200D02*
D03*
X-144029Y-272200D02*
D03*
Y-82200D02*
D03*
X105847Y-152200D02*
D03*
Y-162200D02*
D03*
Y-132200D02*
D03*
Y-142200D02*
D03*
Y-192200D02*
D03*
Y-202200D02*
D03*
Y-172200D02*
D03*
Y-182200D02*
D03*
Y-82200D02*
D03*
Y-112200D02*
D03*
Y-122200D02*
D03*
Y-92200D02*
D03*
Y-102200D02*
D03*
Y-232200D02*
D03*
Y-212200D02*
D03*
Y-222200D02*
D03*
Y-262200D02*
D03*
Y-272200D02*
D03*
Y-242200D02*
D03*
Y-252200D02*
D03*
X85355Y-142200D02*
D03*
Y-172200D02*
D03*
Y-182200D02*
D03*
Y-152200D02*
D03*
Y-162200D02*
D03*
Y-102200D02*
D03*
Y-82200D02*
D03*
Y-92200D02*
D03*
Y-122200D02*
D03*
Y-132200D02*
D03*
Y-112200D02*
D03*
Y-252200D02*
D03*
Y-262200D02*
D03*
Y-232200D02*
D03*
Y-242200D02*
D03*
Y-202200D02*
D03*
Y-192200D02*
D03*
Y-222200D02*
D03*
Y-212200D02*
D03*
Y-272200D02*
D03*
D16*
X-149787Y-69164D02*
D03*
X-155692D02*
D03*
X11272Y-308091D02*
D03*
X17178D02*
D03*
X-58023Y-286825D02*
D03*
X-52118D02*
D03*
X-91456Y-93752D02*
D03*
X-85550D02*
D03*
X10650Y-148784D02*
D03*
X16555D02*
D03*
X-172553Y-281600D02*
D03*
X-166647D02*
D03*
D17*
X-198000Y-276628D02*
D03*
Y-269147D02*
D03*
X-198073Y-78601D02*
D03*
Y-86082D02*
D03*
D18*
X-21149Y-212197D02*
D03*
X-40834D02*
D03*
D19*
X-25459Y-125537D02*
D03*
X-14829D02*
D03*
X17506Y-87494D02*
D03*
X28136D02*
D03*
X-82118Y-103120D02*
D03*
X-71488D02*
D03*
X-40021Y-282101D02*
D03*
X-29392D02*
D03*
D20*
X17168Y-50001D02*
D03*
Y-74410D02*
D03*
D21*
X-46998Y-147315D02*
D03*
Y-136685D02*
D03*
X-66921Y-254203D02*
D03*
Y-264833D02*
D03*
D22*
X-64616Y-123979D02*
D03*
X-91419D02*
D03*
X-78017D02*
D03*
X-84718D02*
D03*
X-71316D02*
D03*
D23*
X-78017Y-165129D02*
D03*
D24*
X-55807Y-271329D02*
D03*
Y-253613D02*
D03*
Y-259518D02*
D03*
Y-265424D02*
D03*
D25*
X-31791Y-262471D02*
D03*
D26*
X32738Y-263203D02*
D03*
X-726D02*
D03*
D27*
X61200Y-299036D02*
D03*
Y-278564D02*
D03*
D28*
X29272Y-221333D02*
D03*
X22580D02*
D03*
X15887D02*
D03*
X9194D02*
D03*
X2501D02*
D03*
D29*
X15887Y-179601D02*
D03*
D30*
X-99200Y-289846D02*
D03*
Y-294964D02*
D03*
X-106287Y-292405D02*
D03*
D31*
X-16940Y-238000D02*
D03*
X-28751D02*
D03*
D32*
X-53921Y-64977D02*
D03*
X-29511D02*
D03*
D33*
X-169832Y-78343D02*
D03*
X-167273Y-71257D02*
D03*
X-172391D02*
D03*
X-183799Y-262061D02*
D03*
X-178681D02*
D03*
X-181240Y-269147D02*
D03*
D34*
X-43558Y-48808D02*
D03*
X-38559D02*
D03*
X-33558D02*
D03*
D35*
X-23677Y-26957D02*
D03*
X-53440D02*
D03*
Y-46643D02*
D03*
X-23677D02*
D03*
D36*
X25860Y-313200D02*
D03*
X33340D02*
D03*
D37*
X-107080Y-312872D02*
D03*
X-114954D02*
D03*
D38*
X3386Y-105435D02*
D03*
Y-132238D02*
D03*
Y-118836D02*
D03*
Y-112135D02*
D03*
Y-125537D02*
D03*
D39*
X44536Y-118836D02*
D03*
D73*
X105919Y-262313D02*
X115691D01*
X115734Y-262270D01*
X75516Y-262185D02*
X85288D01*
X75473Y-262227D02*
X75516Y-262185D01*
X-123022Y-262306D02*
X-113250D01*
X-113207Y-262264D01*
X-153600Y-262321D02*
X-153557Y-262278D01*
X-143785D01*
X85355Y-74665D02*
X85392Y-74628D01*
X85355Y-82200D02*
Y-74665D01*
X105847Y-82200D02*
X106456Y-81592D01*
Y-74738D01*
X-82118Y-110601D02*
Y-103529D01*
X-51070Y-212197D02*
X-40834D01*
X-30525Y-125436D02*
X-25560D01*
X28170Y-87529D02*
X33177D01*
X33184Y-87536D01*
X-16940Y-238492D02*
X-15885Y-239547D01*
X-15143D02*
X-15109Y-239580D01*
X-16940Y-238492D02*
Y-238000D01*
X-15885Y-239547D02*
X-15143D01*
X-15109Y-239580D02*
X4073D01*
X-46924Y-153223D02*
Y-148329D01*
X-33558Y-49989D02*
X-29300Y-54247D01*
Y-54300D02*
Y-54247D01*
X61200Y-308844D02*
Y-299036D01*
X61135Y-308909D02*
X61200Y-308844D01*
X-66921Y-253225D02*
Y-248740D01*
X-66940Y-248721D02*
X-66921Y-248740D01*
X-29392Y-282101D02*
X-24462D01*
X-123733Y-82003D02*
X-123537Y-82200D01*
X-123733Y-82003D02*
Y-75019D01*
X-144029Y-82200D02*
Y-75010D01*
X-35138Y-238000D02*
X-28751D01*
D74*
X-55562Y-136685D02*
X-46998D01*
D75*
X-56196Y-136251D02*
Y-136159D01*
Y-136251D02*
X-55562Y-136885D01*
D76*
X9286Y-112135D02*
X9817Y-111604D01*
X3386Y-112135D02*
X9286D01*
X73603Y-38568D02*
X73610D01*
D77*
X-198000Y-214800D02*
D03*
X-165200D02*
D03*
Y-166400D02*
D03*
X-198000D02*
D03*
X-165200Y-118000D02*
D03*
X-198000D02*
D03*
D78*
X-133785Y-267200D02*
D03*
Y-87200D02*
D03*
X95599D02*
D03*
Y-267200D02*
D03*
D79*
X-1201Y-316195D02*
D03*
X-81204D02*
D03*
X73603D02*
D03*
X-150807D02*
D03*
X-150806Y-38480D02*
D03*
X-76003D02*
D03*
X-1200D02*
D03*
X73603D02*
D03*
D80*
X-24858Y-36800D02*
D03*
X-52259D02*
D03*
D81*
X-165200Y-236611D02*
D03*
Y-188211D02*
D03*
X-198000Y-236611D02*
D03*
Y-188211D02*
D03*
X-165200Y-139811D02*
D03*
X-198000D02*
D03*
D82*
X-195585Y-334126D02*
D03*
Y-20200D02*
D03*
X118402D02*
D03*
Y-334126D02*
D03*
D83*
X-58855Y-227525D02*
D03*
X-26329Y-163074D02*
D03*
X-48747Y-185416D02*
D03*
X-189476Y-262000D02*
D03*
X-172741Y-269966D02*
D03*
X115734Y-262270D02*
D03*
X75473Y-262227D02*
D03*
X-113207Y-262264D02*
D03*
X-153600Y-262321D02*
D03*
X85392Y-74628D02*
D03*
X106456Y-74738D02*
D03*
X-82118Y-110601D02*
D03*
X-51070Y-212197D02*
D03*
X-30525Y-125436D02*
D03*
X33184Y-87536D02*
D03*
X-19977Y-97996D02*
D03*
X-95600Y-98144D02*
D03*
X-172741Y-253211D02*
D03*
X-85200Y-246040D02*
D03*
Y-231053D02*
D03*
X-52930Y-199205D02*
D03*
X-46924Y-153223D02*
D03*
X-29300Y-54300D02*
D03*
X6193Y-308091D02*
D03*
X61135Y-308909D02*
D03*
X-66940Y-248721D02*
D03*
X29272Y-209726D02*
D03*
X-24462Y-282101D02*
D03*
X-23073Y-193818D02*
D03*
X-3403Y-148953D02*
D03*
X-58405Y-82003D02*
D03*
X-63503Y-98168D02*
D03*
X-107485Y-109077D02*
D03*
X-92845Y-212197D02*
D03*
X-123733Y-75019D02*
D03*
X-144029Y-75010D02*
D03*
X-29823Y-253094D02*
D03*
X-33760D02*
D03*
X-25032Y-256568D02*
D03*
Y-260596D02*
D03*
Y-264536D02*
D03*
Y-268564D02*
D03*
X-33760Y-271704D02*
D03*
X-29823D02*
D03*
X-3403Y-159901D02*
D03*
X520D02*
D03*
X4578D02*
D03*
X8576D02*
D03*
X12573D02*
D03*
X16601D02*
D03*
X24566D02*
D03*
X20570D02*
D03*
X28593D02*
D03*
X32533D02*
D03*
X36561D02*
D03*
X39955Y-163918D02*
D03*
X39941Y-168118D02*
D03*
X39955Y-172118D02*
D03*
Y-176116D02*
D03*
X40000Y-180145D02*
D03*
Y-184237D02*
D03*
X40014Y-188145D02*
D03*
Y-192197D02*
D03*
X40007Y-196207D02*
D03*
X28044Y-143039D02*
D03*
X32054Y-143046D02*
D03*
X36106D02*
D03*
X40014Y-143032D02*
D03*
X44106D02*
D03*
X48135Y-142986D02*
D03*
X52133D02*
D03*
X56133Y-142972D02*
D03*
X60333Y-142986D02*
D03*
X63900Y-139197D02*
D03*
Y-135170D02*
D03*
Y-131230D02*
D03*
Y-127202D02*
D03*
Y-123207D02*
D03*
Y-119237D02*
D03*
Y-115209D02*
D03*
Y-111212D02*
D03*
Y-107215D02*
D03*
Y-103156D02*
D03*
Y-99233D02*
D03*
X60800Y-94797D02*
D03*
X56600Y-94784D02*
D03*
X52600Y-94797D02*
D03*
X48603D02*
D03*
X44574Y-94843D02*
D03*
X40481D02*
D03*
X36573Y-94857D02*
D03*
X28511Y-94850D02*
D03*
X32521Y-94857D02*
D03*
X-159600Y-275200D02*
D03*
X-50346Y-280525D02*
D03*
X-58008Y-184600D02*
D03*
X-61932D02*
D03*
X-65990D02*
D03*
X-69988D02*
D03*
X-73985D02*
D03*
X-78013D02*
D03*
X-81982D02*
D03*
X-85978D02*
D03*
X-90005D02*
D03*
X-93945D02*
D03*
X-54098Y-149911D02*
D03*
X-54105Y-153921D02*
D03*
Y-157973D02*
D03*
X-54092Y-161881D02*
D03*
Y-165974D02*
D03*
X-54046Y-170003D02*
D03*
Y-174000D02*
D03*
X-54032Y-178000D02*
D03*
X-54046Y-182200D02*
D03*
X-97973Y-184600D02*
D03*
X-101948Y-182289D02*
D03*
X-101934Y-178089D02*
D03*
X-101948Y-174089D02*
D03*
Y-170092D02*
D03*
X-101993Y-166063D02*
D03*
Y-161970D02*
D03*
X-102007Y-158062D02*
D03*
Y-154010D02*
D03*
X-35138Y-238000D02*
D03*
X-102000Y-150000D02*
D03*
X-177200Y-71257D02*
D03*
X-92794Y-289745D02*
D03*
M02*
