G04*
G04 #@! TF.GenerationSoftware,Altium Limited,Altium Designer,23.11.1 (41)*
G04*
G04 Layer_Color=8421504*
%FSLAX25Y25*%
%MOIN*%
G70*
G04*
G04 #@! TF.SameCoordinates,7FD28054-1643-4BC3-9A3C-097E624A02D2*
G04*
G04*
G04 #@! TF.FilePolarity,Positive*
G04*
G01*
G75*
%ADD14R,0.03543X0.02756*%
%ADD15R,0.12500X0.04488*%
%ADD16R,0.02756X0.03543*%
%ADD17R,0.04528X0.05118*%
%ADD18R,0.12598X0.06299*%
%ADD19R,0.04331X0.06693*%
%ADD20R,0.08071X0.09449*%
%ADD21R,0.06693X0.04331*%
%ADD22R,0.04098X0.15898*%
%ADD23R,0.42299X0.32701*%
%ADD24R,0.07480X0.03543*%
%ADD25R,0.07480X0.12598*%
%ADD26R,0.15748X0.21654*%
%ADD27R,0.07284X0.14173*%
%ADD28R,0.03937X0.13386*%
%ADD29R,0.42126X0.33858*%
%ADD30R,0.04331X0.02165*%
%ADD31R,0.04409X0.05394*%
%ADD32R,0.09449X0.08071*%
%ADD33R,0.02165X0.04331*%
%ADD34R,0.03150X0.05512*%
%ADD35R,0.04724X0.09449*%
%ADD36R,0.03937X0.05709*%
%ADD37R,0.03543X0.05512*%
%ADD38R,0.15898X0.04098*%
%ADD39R,0.32701X0.42299*%
D14*
X-58891Y-237409D02*
D03*
Y-231504D02*
D03*
X-75985Y-294254D02*
D03*
Y-288348D02*
D03*
X-107422Y-97847D02*
D03*
Y-103753D02*
D03*
X-23073Y-188369D02*
D03*
Y-182463D02*
D03*
X-164670Y-253447D02*
D03*
Y-259353D02*
D03*
X-181240Y-87847D02*
D03*
Y-93753D02*
D03*
X-125200Y-295761D02*
D03*
Y-301666D02*
D03*
D15*
X-123537Y-272200D02*
D03*
Y-262200D02*
D03*
X-144029D02*
D03*
X-123537Y-252200D02*
D03*
X-144029D02*
D03*
X-123537Y-242200D02*
D03*
X-144029D02*
D03*
X-123537Y-232200D02*
D03*
X-144029D02*
D03*
X-123537Y-222200D02*
D03*
X-144029D02*
D03*
X-123537Y-212200D02*
D03*
X-144029D02*
D03*
X-123537Y-202200D02*
D03*
X-144029D02*
D03*
X-123537Y-192200D02*
D03*
X-144029D02*
D03*
X-123537Y-182200D02*
D03*
X-144029D02*
D03*
X-123537Y-172200D02*
D03*
X-144029D02*
D03*
X-123537Y-162200D02*
D03*
X-144029D02*
D03*
X-123537Y-152200D02*
D03*
X-144029D02*
D03*
X-123537Y-142200D02*
D03*
X-144029D02*
D03*
X-123537Y-132200D02*
D03*
X-144029D02*
D03*
X-123537Y-122200D02*
D03*
X-144029D02*
D03*
X-123537Y-112200D02*
D03*
X-144029D02*
D03*
X-123537Y-102200D02*
D03*
X-144029D02*
D03*
X-123537Y-92200D02*
D03*
X-144029D02*
D03*
X-123537Y-82200D02*
D03*
X-144029Y-272200D02*
D03*
Y-82200D02*
D03*
X105847Y-152200D02*
D03*
Y-162200D02*
D03*
Y-132200D02*
D03*
Y-142200D02*
D03*
Y-192200D02*
D03*
Y-202200D02*
D03*
Y-172200D02*
D03*
Y-182200D02*
D03*
Y-82200D02*
D03*
Y-112200D02*
D03*
Y-122200D02*
D03*
Y-92200D02*
D03*
Y-102200D02*
D03*
Y-232200D02*
D03*
Y-212200D02*
D03*
Y-222200D02*
D03*
Y-262200D02*
D03*
Y-272200D02*
D03*
Y-242200D02*
D03*
Y-252200D02*
D03*
X85355Y-142200D02*
D03*
Y-172200D02*
D03*
Y-182200D02*
D03*
Y-152200D02*
D03*
Y-162200D02*
D03*
Y-102200D02*
D03*
Y-82200D02*
D03*
Y-92200D02*
D03*
Y-122200D02*
D03*
Y-132200D02*
D03*
Y-112200D02*
D03*
Y-252200D02*
D03*
Y-262200D02*
D03*
Y-232200D02*
D03*
Y-242200D02*
D03*
Y-202200D02*
D03*
Y-192200D02*
D03*
Y-222200D02*
D03*
Y-212200D02*
D03*
Y-272200D02*
D03*
D16*
X-149787Y-69164D02*
D03*
X-155692D02*
D03*
X11272Y-308091D02*
D03*
X17178D02*
D03*
X-58023Y-286825D02*
D03*
X-52118D02*
D03*
X-91456Y-93752D02*
D03*
X-85550D02*
D03*
X10650Y-148784D02*
D03*
X16555D02*
D03*
X-172553Y-281600D02*
D03*
X-166647D02*
D03*
D17*
X-198000Y-276628D02*
D03*
Y-269147D02*
D03*
X-198073Y-78601D02*
D03*
Y-86082D02*
D03*
D18*
X-21149Y-212197D02*
D03*
X-40834D02*
D03*
D19*
X-25459Y-125537D02*
D03*
X-14829D02*
D03*
X17506Y-87494D02*
D03*
X28136D02*
D03*
X-82118Y-103120D02*
D03*
X-71488D02*
D03*
X-40021Y-282101D02*
D03*
X-29392D02*
D03*
D20*
X17168Y-50001D02*
D03*
Y-74410D02*
D03*
D21*
X-46998Y-147315D02*
D03*
Y-136685D02*
D03*
X-66921Y-254203D02*
D03*
Y-264833D02*
D03*
D22*
X-64616Y-123979D02*
D03*
X-91419D02*
D03*
X-78017D02*
D03*
X-84718D02*
D03*
X-71316D02*
D03*
D23*
X-78017Y-165129D02*
D03*
D24*
X-55807Y-271329D02*
D03*
Y-253613D02*
D03*
Y-259518D02*
D03*
Y-265424D02*
D03*
D25*
X-31791Y-262471D02*
D03*
D26*
X32738Y-263203D02*
D03*
X-726D02*
D03*
D27*
X61200Y-299036D02*
D03*
Y-278564D02*
D03*
D28*
X29272Y-221333D02*
D03*
X22580D02*
D03*
X15887D02*
D03*
X9194D02*
D03*
X2501D02*
D03*
D29*
X15887Y-179601D02*
D03*
D30*
X-99200Y-289846D02*
D03*
Y-294964D02*
D03*
X-106287Y-292405D02*
D03*
D31*
X-16940Y-238000D02*
D03*
X-28751D02*
D03*
D32*
X-53921Y-64977D02*
D03*
X-29511D02*
D03*
D33*
X-169832Y-78343D02*
D03*
X-167273Y-71257D02*
D03*
X-172391D02*
D03*
X-183799Y-262061D02*
D03*
X-178681D02*
D03*
X-181240Y-269147D02*
D03*
D34*
X-43558Y-48808D02*
D03*
X-38559D02*
D03*
X-33558D02*
D03*
D35*
X-23677Y-26957D02*
D03*
X-53440D02*
D03*
Y-46643D02*
D03*
X-23677D02*
D03*
D36*
X25860Y-313200D02*
D03*
X33340D02*
D03*
D37*
X-107080Y-312872D02*
D03*
X-114954D02*
D03*
D38*
X3386Y-105435D02*
D03*
Y-132238D02*
D03*
Y-118836D02*
D03*
Y-112135D02*
D03*
Y-125537D02*
D03*
D39*
X44536Y-118836D02*
D03*
M02*
