G04*
G04 #@! TF.GenerationSoftware,Altium Limited,Altium Designer,23.11.1 (41)*
G04*
G04 Layer_Color=255*
%FSLAX25Y25*%
%MOIN*%
G70*
G04*
G04 #@! TF.SameCoordinates,EDA3D6F7-09F2-47E2-B7B7-C676C2FB399E*
G04*
G04*
G04 #@! TF.FilePolarity,Positive*
G04*
G01*
G75*
%ADD53C,0.03504*%
%ADD54C,0.05512*%
%ADD55C,0.02362*%
%ADD56R,0.06496X0.06496*%
%ADD57C,0.06496*%
%ADD58C,0.05000*%
%ADD59C,0.05984*%
%ADD60R,0.05984X0.05984*%
%ADD61C,0.03150*%
%ADD62C,0.06000*%
%ADD64R,0.09016X0.05000*%
%ADD65R,0.04724X0.09449*%
%ADD66R,0.03150X0.05512*%
D53*
X282000Y86800D02*
D03*
Y266800D02*
D03*
X43000D02*
D03*
Y86800D02*
D03*
D54*
X147000Y152192D02*
D03*
Y142350D02*
D03*
Y132507D02*
D03*
D55*
X140701Y158492D02*
D03*
D56*
X132000Y279300D02*
D03*
D57*
X117000D02*
D03*
D58*
X207578Y27483D02*
D03*
X243011D02*
D03*
X243022Y326217D02*
D03*
X207589D02*
D03*
X146011Y27483D02*
D03*
X110578D02*
D03*
D59*
X219389Y35200D02*
D03*
X231211Y318500D02*
D03*
X122389Y35200D02*
D03*
D60*
X231200D02*
D03*
X219400Y318500D02*
D03*
X134200Y35200D02*
D03*
D61*
X190539Y318655D02*
D03*
X163138D02*
D03*
D62*
X20000Y20000D02*
D03*
X334000D02*
D03*
Y334000D02*
D03*
X20000D02*
D03*
D64*
X291941Y261800D02*
D03*
Y251800D02*
D03*
Y241800D02*
D03*
Y231800D02*
D03*
Y221800D02*
D03*
Y211800D02*
D03*
Y201800D02*
D03*
Y191800D02*
D03*
Y181800D02*
D03*
Y171800D02*
D03*
Y151800D02*
D03*
Y141800D02*
D03*
Y131800D02*
D03*
Y121800D02*
D03*
Y111800D02*
D03*
Y101800D02*
D03*
Y91800D02*
D03*
Y161800D02*
D03*
X272059Y261800D02*
D03*
Y251800D02*
D03*
Y241800D02*
D03*
Y231800D02*
D03*
Y221800D02*
D03*
Y211800D02*
D03*
Y201800D02*
D03*
Y191800D02*
D03*
Y181800D02*
D03*
Y171800D02*
D03*
Y161800D02*
D03*
Y151800D02*
D03*
Y121800D02*
D03*
Y91800D02*
D03*
Y101800D02*
D03*
Y111800D02*
D03*
Y141800D02*
D03*
Y131800D02*
D03*
X291941Y81800D02*
D03*
X272059D02*
D03*
X291941Y271800D02*
D03*
X272059D02*
D03*
X33059Y221800D02*
D03*
Y211800D02*
D03*
Y201800D02*
D03*
Y191800D02*
D03*
Y181800D02*
D03*
Y171800D02*
D03*
Y161800D02*
D03*
Y151800D02*
D03*
Y121800D02*
D03*
Y111800D02*
D03*
Y91800D02*
D03*
Y101800D02*
D03*
Y141800D02*
D03*
Y131800D02*
D03*
Y261800D02*
D03*
X52941D02*
D03*
Y251800D02*
D03*
Y241800D02*
D03*
Y231800D02*
D03*
Y221800D02*
D03*
Y211800D02*
D03*
Y201800D02*
D03*
Y191800D02*
D03*
Y181800D02*
D03*
Y171800D02*
D03*
Y161800D02*
D03*
Y151800D02*
D03*
Y141800D02*
D03*
Y131800D02*
D03*
Y121800D02*
D03*
Y111800D02*
D03*
Y101800D02*
D03*
Y91800D02*
D03*
X33059Y251800D02*
D03*
Y241800D02*
D03*
Y231800D02*
D03*
Y271800D02*
D03*
X52941D02*
D03*
X33059Y81800D02*
D03*
X52941D02*
D03*
D65*
X191720Y308812D02*
D03*
Y328497D02*
D03*
X161957D02*
D03*
Y308812D02*
D03*
D66*
X171838Y306647D02*
D03*
X176838D02*
D03*
X181838D02*
D03*
M02*
