G04*
G04 #@! TF.GenerationSoftware,Altium Limited,Altium Designer,23.11.1 (41)*
G04*
G04 Layer_Color=65535*
%FSLAX25Y25*%
%MOIN*%
G70*
G04*
G04 #@! TF.SameCoordinates,EDA3D6F7-09F2-47E2-B7B7-C676C2FB399E*
G04*
G04*
G04 #@! TF.FilePolarity,Positive*
G04*
G01*
G75*
%ADD10C,0.00394*%
%ADD11C,0.00787*%
%ADD12C,0.00500*%
%ADD13C,0.00800*%
%ADD14C,0.01000*%
G36*
X88334Y106205D02*
X88570D01*
Y106087D01*
X88807D01*
Y105968D01*
X88925D01*
Y105732D01*
X89043D01*
Y105614D01*
X89161D01*
Y105495D01*
X89280D01*
Y105377D01*
X89398D01*
Y105259D01*
X89516D01*
Y105140D01*
X89635D01*
Y105022D01*
X89753D01*
Y104904D01*
X89871D01*
Y104786D01*
X89989D01*
Y104667D01*
X90108D01*
Y104549D01*
X90226D01*
Y104431D01*
X129728D01*
Y104313D01*
X131265D01*
Y104194D01*
X132330D01*
Y104076D01*
X133276D01*
Y103958D01*
X133986D01*
Y103839D01*
X134577D01*
Y103721D01*
X135168D01*
Y103603D01*
X135760D01*
Y103485D01*
X136233D01*
Y103366D01*
X136706D01*
Y103248D01*
X137061D01*
Y103130D01*
X137534D01*
Y103012D01*
X137889D01*
Y102893D01*
X138243D01*
Y102657D01*
X137889D01*
Y102539D01*
X137534D01*
Y102420D01*
X137179D01*
Y102302D01*
X136706D01*
Y102184D01*
X136233D01*
Y102065D01*
X135760D01*
Y101947D01*
X135168D01*
Y101829D01*
X134695D01*
Y101711D01*
X133986D01*
Y101592D01*
X133276D01*
Y101474D01*
X132330D01*
Y101356D01*
X131147D01*
Y101237D01*
X129491D01*
Y101119D01*
X123105D01*
Y101237D01*
X109149D01*
Y101119D01*
X90226D01*
Y101001D01*
X90108D01*
Y100883D01*
X89989D01*
Y100764D01*
X89871D01*
Y100646D01*
X89753D01*
Y100528D01*
X89635D01*
Y100410D01*
X89516D01*
Y100291D01*
X89398D01*
Y100173D01*
X89280D01*
Y100055D01*
X89161D01*
Y99936D01*
X89043D01*
Y99818D01*
X88925D01*
Y99700D01*
X88807D01*
Y99582D01*
X88688D01*
Y99345D01*
X88452D01*
Y99227D01*
X81711D01*
Y99345D01*
X81829D01*
Y99463D01*
X81947D01*
Y99700D01*
X82065D01*
Y99818D01*
X82184D01*
Y99936D01*
X82302D01*
Y100173D01*
X82420D01*
Y100291D01*
X82538D01*
Y100410D01*
X82657D01*
Y100646D01*
X82775D01*
Y100764D01*
X82893D01*
Y101001D01*
X83012D01*
Y104313D01*
X83130D01*
Y104431D01*
X83012D01*
Y104667D01*
X82893D01*
Y104786D01*
X82775D01*
Y104904D01*
X82657D01*
Y105140D01*
X82538D01*
Y105259D01*
X82420D01*
Y105377D01*
X82302D01*
Y105614D01*
X82184D01*
Y105732D01*
X82065D01*
Y105850D01*
X81947D01*
Y106087D01*
X81829D01*
Y106205D01*
X81711D01*
Y106323D01*
X88334D01*
Y106205D01*
D02*
G37*
G36*
X116955Y94378D02*
X117901D01*
Y94260D01*
X118374D01*
Y94141D01*
X118729D01*
Y94023D01*
X119084D01*
Y93905D01*
X119320D01*
Y93787D01*
X119557D01*
Y93668D01*
X119793D01*
Y93550D01*
X120030D01*
Y93432D01*
X120266D01*
Y93313D01*
X120385D01*
Y93195D01*
X120503D01*
Y93077D01*
X120739D01*
Y92959D01*
X120858D01*
Y92840D01*
X120976D01*
Y92722D01*
X121094D01*
Y92604D01*
X121212D01*
Y92486D01*
X121331D01*
Y92367D01*
X121449D01*
Y92249D01*
X121567D01*
Y92131D01*
X121686D01*
Y92013D01*
X121804D01*
Y91776D01*
X121922D01*
Y91658D01*
X122040D01*
Y91421D01*
X122159D01*
Y91303D01*
X122277D01*
Y91066D01*
X122395D01*
Y90830D01*
X122513D01*
Y90593D01*
X122632D01*
Y90238D01*
X122750D01*
Y89765D01*
X122868D01*
Y89292D01*
X122986D01*
Y88346D01*
X123105D01*
Y77229D01*
X122986D01*
Y76164D01*
X122868D01*
Y75691D01*
X122750D01*
Y75336D01*
X122632D01*
Y74982D01*
X122513D01*
Y74745D01*
X122395D01*
Y74509D01*
X122277D01*
Y74272D01*
X122159D01*
Y74154D01*
X122040D01*
Y73917D01*
X121922D01*
Y73799D01*
X121804D01*
Y73681D01*
X121686D01*
Y73444D01*
X121567D01*
Y73326D01*
X121449D01*
Y73208D01*
X121331D01*
Y73089D01*
X121212D01*
Y72971D01*
X121094D01*
Y72853D01*
X120976D01*
Y72735D01*
X120858D01*
Y72616D01*
X120739D01*
Y72498D01*
X120503D01*
Y72380D01*
X120385D01*
Y72262D01*
X120266D01*
Y82314D01*
X120148D01*
Y82433D01*
X119912D01*
Y82314D01*
X119793D01*
Y82196D01*
X119557D01*
Y82078D01*
X119439D01*
Y81960D01*
X119202D01*
Y81841D01*
X119084D01*
Y81723D01*
X118847D01*
Y81605D01*
X118729D01*
Y81486D01*
X118611D01*
Y81368D01*
X118374D01*
Y81132D01*
X118256D01*
Y80659D01*
X118374D01*
Y80422D01*
X117428D01*
Y80540D01*
X116837D01*
Y80659D01*
X116718D01*
Y80540D01*
X116482D01*
Y80304D01*
X116364D01*
Y80186D01*
X116482D01*
Y79121D01*
X116364D01*
Y79003D01*
X116245D01*
Y78885D01*
X116009D01*
Y79003D01*
X115772D01*
Y80540D01*
X115536D01*
Y80659D01*
X115417D01*
Y80540D01*
X114708D01*
Y80422D01*
X113998D01*
Y80304D01*
X113880D01*
Y80659D01*
X113998D01*
Y81250D01*
X113880D01*
Y81368D01*
X113761D01*
Y81486D01*
X113525D01*
Y81605D01*
X113407D01*
Y81723D01*
X113170D01*
Y81841D01*
X113052D01*
Y81960D01*
X112815D01*
Y82078D01*
X112697D01*
Y82196D01*
X112579D01*
Y82314D01*
X112342D01*
Y82433D01*
X112106D01*
Y72380D01*
X111751D01*
Y72498D01*
X111633D01*
Y72616D01*
X111514D01*
Y72735D01*
X111396D01*
Y72853D01*
X111278D01*
Y72971D01*
X111160D01*
Y73089D01*
X111041D01*
Y73208D01*
X110923D01*
Y73326D01*
X110805D01*
Y73444D01*
X110687D01*
Y73563D01*
X110568D01*
Y73681D01*
X110450D01*
Y73917D01*
X110332D01*
Y74036D01*
X110213D01*
Y74154D01*
X110095D01*
Y74390D01*
X109977D01*
Y74627D01*
X109859D01*
Y74863D01*
X109740D01*
Y75100D01*
X109622D01*
Y75455D01*
X109504D01*
Y75810D01*
X109386D01*
Y76401D01*
X109267D01*
Y81368D01*
X109149D01*
Y84325D01*
X109267D01*
Y89174D01*
X109386D01*
Y89647D01*
X109504D01*
Y90120D01*
X109622D01*
Y90475D01*
X109740D01*
Y90711D01*
X109859D01*
Y90948D01*
X109977D01*
Y91185D01*
X110095D01*
Y91421D01*
X110213D01*
Y91539D01*
X110332D01*
Y91776D01*
X110450D01*
Y91894D01*
X110568D01*
Y92131D01*
X110687D01*
Y92249D01*
X110805D01*
Y92367D01*
X110923D01*
Y92486D01*
X111041D01*
Y92604D01*
X111160D01*
Y92722D01*
X111278D01*
Y92840D01*
X111396D01*
Y92959D01*
X111514D01*
Y93077D01*
X111751D01*
Y93195D01*
X111869D01*
Y93313D01*
X112106D01*
Y93432D01*
X112224D01*
Y93550D01*
X112461D01*
Y93668D01*
X112697D01*
Y93787D01*
X112934D01*
Y93905D01*
X113170D01*
Y94023D01*
X113525D01*
Y94141D01*
X113880D01*
Y94260D01*
X114353D01*
Y94378D01*
X115181D01*
Y94496D01*
X116955D01*
Y94378D01*
D02*
G37*
G36*
X132211Y94023D02*
X133394D01*
Y93905D01*
X133986D01*
Y93787D01*
X134340D01*
Y93668D01*
X134695D01*
Y93550D01*
X134932D01*
Y93432D01*
X135168D01*
Y93313D01*
X135405D01*
Y93195D01*
X135641D01*
Y93077D01*
X135760D01*
Y92959D01*
X135996D01*
Y92840D01*
X136114D01*
Y92722D01*
X136233D01*
Y92604D01*
X136351D01*
Y92486D01*
X136588D01*
Y92367D01*
X136706D01*
Y92249D01*
X136824D01*
Y92131D01*
X136942D01*
Y91894D01*
X137061D01*
Y91776D01*
X137179D01*
Y91658D01*
X137297D01*
Y91539D01*
X137415D01*
Y91303D01*
X137534D01*
Y91185D01*
X137652D01*
Y90948D01*
X137770D01*
Y90830D01*
X137889D01*
Y90593D01*
X138007D01*
Y90357D01*
X138125D01*
Y90120D01*
X138243D01*
Y89765D01*
X138362D01*
Y89411D01*
X138480D01*
Y88819D01*
X138598D01*
Y83852D01*
X138480D01*
Y83734D01*
X138362D01*
Y83615D01*
X138125D01*
Y83497D01*
X137534D01*
Y83379D01*
X136942D01*
Y83261D01*
X136351D01*
Y83142D01*
X135878D01*
Y83024D01*
X135286D01*
Y82906D01*
X134695D01*
Y82788D01*
X134222D01*
Y82669D01*
X133631D01*
Y82551D01*
X133158D01*
Y82433D01*
X133039D01*
Y82314D01*
X133276D01*
Y82196D01*
X133631D01*
Y82078D01*
X133986D01*
Y81960D01*
X134340D01*
Y81841D01*
X134695D01*
Y81723D01*
X134932D01*
Y81605D01*
X135286D01*
Y81486D01*
X135641D01*
Y81368D01*
X135996D01*
Y81250D01*
X136351D01*
Y81132D01*
X136588D01*
Y81014D01*
X136942D01*
Y80895D01*
X137297D01*
Y80777D01*
X137652D01*
Y80659D01*
X138007D01*
Y80540D01*
X138243D01*
Y80422D01*
X138480D01*
Y80186D01*
X138598D01*
Y76164D01*
X138480D01*
Y75455D01*
X138362D01*
Y74982D01*
X138243D01*
Y74627D01*
X138125D01*
Y74390D01*
X138007D01*
Y74154D01*
X137889D01*
Y73917D01*
X137770D01*
Y73681D01*
X137652D01*
Y73563D01*
X137534D01*
Y73326D01*
X137415D01*
Y73208D01*
X137297D01*
Y73089D01*
X137179D01*
Y72971D01*
X137061D01*
Y72735D01*
X136942D01*
Y72616D01*
X136824D01*
Y72498D01*
X136588D01*
Y72380D01*
X136469D01*
Y72262D01*
X136351D01*
Y72143D01*
X136233D01*
Y72025D01*
X136114D01*
Y71907D01*
X135878D01*
Y71789D01*
X135760D01*
Y73563D01*
Y73681D01*
Y78057D01*
X135641D01*
Y78293D01*
X135523D01*
Y78412D01*
X135286D01*
Y78530D01*
X134932D01*
Y78648D01*
X134695D01*
Y78766D01*
X134459D01*
Y78885D01*
X134104D01*
Y79003D01*
X133867D01*
Y79121D01*
X133631D01*
Y79239D01*
X133276D01*
Y79358D01*
X133039D01*
Y79476D01*
X132803D01*
Y79594D01*
X132448D01*
Y79712D01*
X132211D01*
Y79831D01*
X131975D01*
Y79949D01*
X131620D01*
Y80067D01*
X131384D01*
Y80186D01*
X131147D01*
Y80304D01*
X130911D01*
Y80422D01*
X130556D01*
Y80540D01*
X130319D01*
Y80659D01*
X130083D01*
Y80777D01*
X129728D01*
Y80895D01*
X129491D01*
Y81014D01*
X129255D01*
Y81132D01*
X129018D01*
Y81250D01*
X128664D01*
Y81368D01*
X128427D01*
Y81486D01*
X128072D01*
Y81250D01*
X127954D01*
Y72262D01*
X128072D01*
Y72025D01*
X127954D01*
Y71907D01*
X127717D01*
Y72025D01*
X127599D01*
Y72143D01*
X127481D01*
Y72262D01*
X127363D01*
Y72380D01*
X127244D01*
Y72498D01*
X127126D01*
Y72616D01*
X127008D01*
Y72735D01*
X126889D01*
Y72853D01*
X126771D01*
Y72971D01*
X126653D01*
Y73089D01*
X126535D01*
Y73208D01*
X126416D01*
Y73326D01*
X126298D01*
Y73563D01*
X126180D01*
Y73681D01*
X126061D01*
Y73917D01*
X125943D01*
Y74154D01*
X125825D01*
Y74390D01*
X125707D01*
Y74627D01*
X125589D01*
Y74982D01*
X125470D01*
Y75336D01*
X125352D01*
Y75928D01*
X125234D01*
Y76756D01*
X125115D01*
Y86572D01*
X125234D01*
Y88937D01*
X125352D01*
Y89529D01*
X125470D01*
Y89884D01*
X125589D01*
Y90120D01*
X125707D01*
Y90475D01*
X125825D01*
Y90711D01*
X125943D01*
Y90830D01*
X126061D01*
Y91066D01*
X126180D01*
Y91185D01*
X126298D01*
Y91421D01*
X126416D01*
Y91539D01*
X126535D01*
Y91658D01*
X126653D01*
Y91894D01*
X126771D01*
Y92013D01*
X126889D01*
Y92131D01*
X127008D01*
Y92249D01*
X127126D01*
Y92367D01*
X127244D01*
Y92486D01*
X127481D01*
Y92604D01*
X127599D01*
Y92722D01*
X127717D01*
Y92840D01*
X127836D01*
Y92959D01*
X128072D01*
Y93077D01*
X128190D01*
Y93195D01*
X128427D01*
Y93313D01*
X128664D01*
Y93432D01*
X128900D01*
Y93550D01*
X129137D01*
Y93668D01*
X129491D01*
Y93787D01*
X129846D01*
Y93905D01*
X130319D01*
Y94023D01*
X131502D01*
Y94141D01*
X132211D01*
Y94023D01*
D02*
G37*
G36*
X81238Y104313D02*
X81356D01*
Y103839D01*
X81238D01*
Y101237D01*
X81119D01*
Y101119D01*
X76270D01*
Y101001D01*
X75679D01*
Y100883D01*
X75324D01*
Y100764D01*
X74969D01*
Y100646D01*
X74733D01*
Y100528D01*
X74496D01*
Y100410D01*
X74378D01*
Y100291D01*
X74141D01*
Y100173D01*
X74023D01*
Y100055D01*
X73905D01*
Y99936D01*
X73668D01*
Y99818D01*
X73550D01*
Y99582D01*
X73432D01*
Y99463D01*
X73313D01*
Y99345D01*
X73195D01*
Y99227D01*
X73077D01*
Y98990D01*
X72959D01*
Y98754D01*
X72840D01*
Y98517D01*
X72722D01*
Y98281D01*
X72604D01*
Y97926D01*
X72486D01*
Y97453D01*
X72367D01*
Y96980D01*
X72249D01*
Y94260D01*
X72367D01*
Y93787D01*
X72486D01*
Y93432D01*
X72604D01*
Y93077D01*
X72722D01*
Y92840D01*
X72840D01*
Y92604D01*
X72959D01*
Y92367D01*
X73077D01*
Y92131D01*
X73195D01*
Y92013D01*
X73313D01*
Y91776D01*
X73432D01*
Y91658D01*
X73550D01*
Y91421D01*
X73668D01*
Y91303D01*
X73786D01*
Y91185D01*
X73905D01*
Y91066D01*
X74023D01*
Y90948D01*
X74141D01*
Y90830D01*
X74260D01*
Y90711D01*
X74378D01*
Y90593D01*
X74614D01*
Y90475D01*
X74733D01*
Y90357D01*
X74851D01*
Y90238D01*
X75087D01*
Y90120D01*
X75324D01*
Y90002D01*
X75561D01*
Y89884D01*
X75915D01*
Y89765D01*
X76507D01*
Y89647D01*
X77808D01*
Y89765D01*
X78872D01*
Y89647D01*
X81711D01*
Y89529D01*
X82065D01*
Y89647D01*
X84786D01*
Y89529D01*
X85259D01*
Y89411D01*
X85732D01*
Y89292D01*
X86086D01*
Y89174D01*
X86323D01*
Y89056D01*
X86678D01*
Y88937D01*
X86914D01*
Y88819D01*
X87151D01*
Y88701D01*
X87269D01*
Y88583D01*
X87506D01*
Y88464D01*
X87742D01*
Y88346D01*
X87861D01*
Y88228D01*
X88097D01*
Y88110D01*
X88215D01*
Y87991D01*
X88334D01*
Y87873D01*
X88570D01*
Y87755D01*
X88688D01*
Y87637D01*
X88807D01*
Y87518D01*
X88925D01*
Y87400D01*
X89043D01*
Y87282D01*
X89161D01*
Y87164D01*
X89280D01*
Y87045D01*
X89398D01*
Y86927D01*
X89516D01*
Y86809D01*
X89635D01*
Y86572D01*
X89753D01*
Y86454D01*
X89871D01*
Y86336D01*
X89989D01*
Y86217D01*
X90108D01*
Y85981D01*
X90226D01*
Y85862D01*
X90344D01*
Y85626D01*
X90462D01*
Y85389D01*
X90581D01*
Y85271D01*
X90699D01*
Y85035D01*
X90817D01*
Y84798D01*
X90936D01*
Y84443D01*
X91054D01*
Y84207D01*
X91172D01*
Y83852D01*
X91290D01*
Y83497D01*
X91409D01*
Y83024D01*
X91527D01*
Y82551D01*
X91645D01*
Y81960D01*
X91764D01*
Y81132D01*
X91882D01*
Y79003D01*
X91764D01*
Y78175D01*
X91645D01*
Y77702D01*
X91527D01*
Y77347D01*
X91409D01*
Y76992D01*
X91290D01*
Y76638D01*
X91172D01*
Y76401D01*
X91054D01*
Y76164D01*
X90936D01*
Y75928D01*
X90817D01*
Y75691D01*
X90699D01*
Y75455D01*
X90581D01*
Y75218D01*
X90462D01*
Y75100D01*
X90344D01*
Y74863D01*
X90226D01*
Y74745D01*
X90108D01*
Y74627D01*
X89989D01*
Y74390D01*
X89871D01*
Y74272D01*
X89753D01*
Y74154D01*
X89635D01*
Y74036D01*
X89516D01*
Y73917D01*
X89398D01*
Y73799D01*
X89280D01*
Y73681D01*
X89161D01*
Y73563D01*
X89043D01*
Y73444D01*
X88925D01*
Y73326D01*
X88807D01*
Y73208D01*
X88688D01*
Y73089D01*
X88452D01*
Y72971D01*
X88334D01*
Y72853D01*
X88097D01*
Y72735D01*
X87979D01*
Y72616D01*
X87742D01*
Y72498D01*
X87506D01*
Y72380D01*
X87269D01*
Y72262D01*
X87033D01*
Y72143D01*
X86678D01*
Y72025D01*
X86323D01*
Y71907D01*
X85968D01*
Y71789D01*
X85377D01*
Y71670D01*
X83130D01*
Y71552D01*
X64916D01*
Y71789D01*
X65153D01*
Y71907D01*
X65271D01*
Y72025D01*
X65508D01*
Y72143D01*
X65626D01*
Y72262D01*
X65744D01*
Y72380D01*
X65981D01*
Y72498D01*
X66099D01*
Y72616D01*
X66336D01*
Y72735D01*
X66454D01*
Y72853D01*
X66690D01*
Y72971D01*
X66809D01*
Y73089D01*
X67045D01*
Y73208D01*
X67163D01*
Y73326D01*
X67400D01*
Y73444D01*
X67518D01*
Y73563D01*
X67637D01*
Y73681D01*
X67873D01*
Y73799D01*
X67991D01*
Y73917D01*
X68228D01*
Y74036D01*
X68346D01*
Y74154D01*
X68583D01*
Y74272D01*
X68701D01*
Y74390D01*
X68937D01*
Y74509D01*
X69056D01*
Y74627D01*
X69174D01*
Y74745D01*
X69411D01*
Y74863D01*
X84312D01*
Y74982D01*
X84904D01*
Y75100D01*
X85259D01*
Y75218D01*
X85614D01*
Y75336D01*
X85850D01*
Y75455D01*
X86086D01*
Y75573D01*
X86205D01*
Y75691D01*
X86441D01*
Y75810D01*
X86560D01*
Y75928D01*
X86796D01*
Y76046D01*
X86914D01*
Y76164D01*
X87033D01*
Y76283D01*
X87151D01*
Y76401D01*
X87269D01*
Y76519D01*
X87388D01*
Y76638D01*
X87506D01*
Y76874D01*
X87624D01*
Y76992D01*
X87742D01*
Y77229D01*
X87861D01*
Y77347D01*
X87979D01*
Y77584D01*
X88097D01*
Y77938D01*
X88215D01*
Y78293D01*
X88334D01*
Y78766D01*
X88452D01*
Y80067D01*
X88570D01*
Y80422D01*
X88452D01*
Y81723D01*
X88334D01*
Y82314D01*
X88215D01*
Y82669D01*
X88097D01*
Y83024D01*
X87979D01*
Y83261D01*
X87861D01*
Y83497D01*
X87742D01*
Y83734D01*
X87624D01*
Y83970D01*
X87506D01*
Y84088D01*
X87388D01*
Y84325D01*
X87269D01*
Y84443D01*
X87151D01*
Y84562D01*
X87033D01*
Y84680D01*
X86914D01*
Y84798D01*
X86796D01*
Y84916D01*
X86678D01*
Y85035D01*
X86560D01*
Y85153D01*
X86441D01*
Y85271D01*
X86323D01*
Y85389D01*
X86205D01*
Y85508D01*
X85968D01*
Y85626D01*
X85850D01*
Y85744D01*
X85614D01*
Y85862D01*
X85377D01*
Y85981D01*
X85140D01*
Y86099D01*
X84786D01*
Y86217D01*
X84431D01*
Y86336D01*
X81001D01*
Y86217D01*
X78044D01*
Y86336D01*
X76625D01*
Y86454D01*
X75797D01*
Y86572D01*
X75324D01*
Y86690D01*
X74851D01*
Y86809D01*
X74496D01*
Y86927D01*
X74141D01*
Y87045D01*
X73905D01*
Y87164D01*
X73550D01*
Y87282D01*
X73313D01*
Y87400D01*
X73195D01*
Y87518D01*
X72959D01*
Y87637D01*
X72722D01*
Y87755D01*
X72604D01*
Y87873D01*
X72486D01*
Y87991D01*
X72249D01*
Y88110D01*
X72131D01*
Y88228D01*
X72013D01*
Y88346D01*
X71894D01*
Y88464D01*
X71776D01*
Y88583D01*
X71658D01*
Y88701D01*
X71539D01*
Y88819D01*
X71421D01*
Y88937D01*
X71303D01*
Y89056D01*
X71185D01*
Y89174D01*
X71066D01*
Y89292D01*
X70948D01*
Y89529D01*
X70830D01*
Y89647D01*
X70711D01*
Y89765D01*
X70593D01*
Y90002D01*
X70475D01*
Y90238D01*
X70357D01*
Y90357D01*
X70239D01*
Y90593D01*
X70120D01*
Y90830D01*
X70002D01*
Y91066D01*
X69884D01*
Y91303D01*
X69765D01*
Y91658D01*
X69647D01*
Y92013D01*
X69529D01*
Y92367D01*
X69411D01*
Y92722D01*
X69292D01*
Y93077D01*
X69174D01*
Y93668D01*
X69056D01*
Y94378D01*
X68937D01*
Y95797D01*
X68819D01*
Y96034D01*
X68937D01*
Y97453D01*
X69056D01*
Y98044D01*
X69174D01*
Y98517D01*
X69292D01*
Y98990D01*
X69411D01*
Y99227D01*
X69529D01*
Y99582D01*
X69647D01*
Y99818D01*
X69765D01*
Y100055D01*
X69884D01*
Y100291D01*
X70002D01*
Y100528D01*
X70120D01*
Y100764D01*
X70239D01*
Y100883D01*
X70357D01*
Y101119D01*
X70475D01*
Y101237D01*
X70593D01*
Y101356D01*
X70711D01*
Y101592D01*
X70830D01*
Y101711D01*
X70948D01*
Y101829D01*
X71066D01*
Y101947D01*
X71185D01*
Y102065D01*
X71303D01*
Y102184D01*
X71421D01*
Y102302D01*
X71539D01*
Y102420D01*
X71658D01*
Y102539D01*
X71776D01*
Y102657D01*
X72013D01*
Y102775D01*
X72131D01*
Y102893D01*
X72249D01*
Y103012D01*
X72486D01*
Y103130D01*
X72604D01*
Y103248D01*
X72840D01*
Y103366D01*
X73077D01*
Y103485D01*
X73313D01*
Y103603D01*
X73550D01*
Y103721D01*
X73786D01*
Y103839D01*
X74141D01*
Y103958D01*
X74496D01*
Y104076D01*
X74851D01*
Y104194D01*
X75324D01*
Y104313D01*
X76034D01*
Y104431D01*
X81238D01*
Y104313D01*
D02*
G37*
G36*
X101580Y94378D02*
X102171D01*
Y94260D01*
X102644D01*
Y94141D01*
X102999D01*
Y94023D01*
X103236D01*
Y93905D01*
X103590D01*
Y93787D01*
X103827D01*
Y93668D01*
X104063D01*
Y93550D01*
X104182D01*
Y93432D01*
X104418D01*
Y93313D01*
X104536D01*
Y93195D01*
X104773D01*
Y93077D01*
X104891D01*
Y92959D01*
X105010D01*
Y92840D01*
X105128D01*
Y92722D01*
X105246D01*
Y92604D01*
X105364D01*
Y92486D01*
X105483D01*
Y92367D01*
X105601D01*
Y92249D01*
X105719D01*
Y92131D01*
X105838D01*
Y92013D01*
X105956D01*
Y91776D01*
X106074D01*
Y91658D01*
X106192D01*
Y91421D01*
X106311D01*
Y91185D01*
X106429D01*
Y91066D01*
X106547D01*
Y90711D01*
X106665D01*
Y90475D01*
X106784D01*
Y90120D01*
X106902D01*
Y89765D01*
X107020D01*
Y89174D01*
X107139D01*
Y76283D01*
X107020D01*
Y75810D01*
X106902D01*
Y75455D01*
X106784D01*
Y75100D01*
X106665D01*
Y74863D01*
X106547D01*
Y74627D01*
X106429D01*
Y74390D01*
X106311D01*
Y74154D01*
X106192D01*
Y74036D01*
X106074D01*
Y73799D01*
X105956D01*
Y73681D01*
X105838D01*
Y73563D01*
X105719D01*
Y73326D01*
X105601D01*
Y73208D01*
X105483D01*
Y73089D01*
X105364D01*
Y72971D01*
X105246D01*
Y72853D01*
X105128D01*
Y72735D01*
X105010D01*
Y72616D01*
X104773D01*
Y72498D01*
X104655D01*
Y72380D01*
X104536D01*
Y72262D01*
X104300D01*
Y72143D01*
X104182D01*
Y72025D01*
X103945D01*
Y71907D01*
X103709D01*
Y71789D01*
X103472D01*
Y71670D01*
X103236D01*
Y71552D01*
X102999D01*
Y71434D01*
X102644D01*
Y71315D01*
X102171D01*
Y71197D01*
X101343D01*
Y71079D01*
X99687D01*
Y71197D01*
X98860D01*
Y71315D01*
X98268D01*
Y71434D01*
X97913D01*
Y71552D01*
X97677D01*
Y71670D01*
X97322D01*
Y71789D01*
X97086D01*
Y71907D01*
X96967D01*
Y72025D01*
X96731D01*
Y72143D01*
X96494D01*
Y72262D01*
X96376D01*
Y72380D01*
X96258D01*
Y72498D01*
X96021D01*
Y72616D01*
X95903D01*
Y72735D01*
X95785D01*
Y72853D01*
X95666D01*
Y72971D01*
X95548D01*
Y73089D01*
X95430D01*
Y73208D01*
X95311D01*
Y73326D01*
X95193D01*
Y73444D01*
X95075D01*
Y73681D01*
X94957D01*
Y73799D01*
X94839D01*
Y73917D01*
X94720D01*
Y74154D01*
X94602D01*
Y74390D01*
X94484D01*
Y74509D01*
X94365D01*
Y74745D01*
X94247D01*
Y75100D01*
X94129D01*
Y75336D01*
X94011D01*
Y75691D01*
X93892D01*
Y76283D01*
X93774D01*
Y87873D01*
X93656D01*
Y88464D01*
X93774D01*
Y89411D01*
X93892D01*
Y89884D01*
X94011D01*
Y90238D01*
X94129D01*
Y90593D01*
X94247D01*
Y90830D01*
X94365D01*
Y91066D01*
X94484D01*
Y91303D01*
X94602D01*
Y91421D01*
X94720D01*
Y91658D01*
X94839D01*
Y91776D01*
X94957D01*
Y92013D01*
X95075D01*
Y92131D01*
X95193D01*
Y92249D01*
X95311D01*
Y92367D01*
X95430D01*
Y92486D01*
X95548D01*
Y92604D01*
X95666D01*
Y92722D01*
X95785D01*
Y92840D01*
X95903D01*
Y92959D01*
X96021D01*
Y93077D01*
X96139D01*
Y93195D01*
X96258D01*
Y93313D01*
X96494D01*
Y93432D01*
X96613D01*
Y93550D01*
X96849D01*
Y93668D01*
X97086D01*
Y93787D01*
X97322D01*
Y93905D01*
X97559D01*
Y94023D01*
X97913D01*
Y94141D01*
X98268D01*
Y94260D01*
X98623D01*
Y94378D01*
X99333D01*
Y94496D01*
X101580D01*
Y94378D01*
D02*
G37*
%LPC*%
G36*
X117310Y91658D02*
X115062D01*
Y91539D01*
X114589D01*
Y91421D01*
X114235D01*
Y91303D01*
X113998D01*
Y91185D01*
X113761D01*
Y91066D01*
X113525D01*
Y90948D01*
X113407D01*
Y90830D01*
X113170D01*
Y90711D01*
X113052D01*
Y90593D01*
X112934D01*
Y90475D01*
X112815D01*
Y90238D01*
X112697D01*
Y90120D01*
X112579D01*
Y90002D01*
X112461D01*
Y89765D01*
X112342D01*
Y89411D01*
X112224D01*
Y88937D01*
X112106D01*
Y87400D01*
X111987D01*
Y85271D01*
X112106D01*
Y83024D01*
X112461D01*
Y83497D01*
X112342D01*
Y84088D01*
X112224D01*
Y84207D01*
X112934D01*
Y84088D01*
X113407D01*
Y84207D01*
X113525D01*
Y84325D01*
X113643D01*
Y84562D01*
X113998D01*
Y84443D01*
X114116D01*
Y84325D01*
X114235D01*
Y84207D01*
X114353D01*
Y84088D01*
X114471D01*
Y83970D01*
X114708D01*
Y84325D01*
X114589D01*
Y85035D01*
X114471D01*
Y85744D01*
X114353D01*
Y85862D01*
X114589D01*
Y85744D01*
X114826D01*
Y85626D01*
X114944D01*
Y85508D01*
X115299D01*
Y85626D01*
X115417D01*
Y85744D01*
X115536D01*
Y85981D01*
X115654D01*
Y86217D01*
X115772D01*
Y86454D01*
X115890D01*
Y86572D01*
X116009D01*
Y86690D01*
X116245D01*
Y86454D01*
X116364D01*
Y86336D01*
X116482D01*
Y86099D01*
X116600D01*
Y85862D01*
X116718D01*
Y85744D01*
X116837D01*
Y85626D01*
X116955D01*
Y85508D01*
X117310D01*
Y85626D01*
X117428D01*
Y85744D01*
X117664D01*
Y85862D01*
X117783D01*
Y85389D01*
X117664D01*
Y84680D01*
X117546D01*
Y84207D01*
X117428D01*
Y84088D01*
X117546D01*
Y83970D01*
X117783D01*
Y84088D01*
X117901D01*
Y84207D01*
X118019D01*
Y84325D01*
X118256D01*
Y84443D01*
X118374D01*
Y84562D01*
X118611D01*
Y84325D01*
X118729D01*
Y84207D01*
X119084D01*
Y84088D01*
X119320D01*
Y84207D01*
X119912D01*
Y84325D01*
X120030D01*
Y83734D01*
X119912D01*
Y83024D01*
X120030D01*
Y82906D01*
X120148D01*
Y83261D01*
X120266D01*
Y88228D01*
X120148D01*
Y88346D01*
Y89056D01*
X120030D01*
Y89411D01*
X119912D01*
Y89647D01*
X119793D01*
Y89884D01*
X119675D01*
Y90120D01*
X119557D01*
Y90238D01*
X119439D01*
Y90357D01*
X119320D01*
Y90593D01*
X119202D01*
Y90711D01*
X118965D01*
Y90830D01*
X118847D01*
Y90948D01*
X118729D01*
Y91066D01*
X118492D01*
Y91185D01*
X118374D01*
Y91303D01*
X118138D01*
Y91421D01*
X117783D01*
Y91539D01*
X117310D01*
Y91658D01*
D02*
G37*
G36*
X132921Y91185D02*
X130911D01*
Y91066D01*
X130438D01*
Y90948D01*
X130083D01*
Y90830D01*
X129846D01*
Y90711D01*
X129728D01*
Y90593D01*
X129491D01*
Y90475D01*
X129373D01*
Y90357D01*
X129255D01*
Y90238D01*
X129137D01*
Y90120D01*
X129018D01*
Y90002D01*
X128900D01*
Y89884D01*
X128782D01*
Y89765D01*
X128664D01*
Y89529D01*
X128545D01*
Y89411D01*
X128427D01*
Y89174D01*
X128309D01*
Y88819D01*
X128190D01*
Y88346D01*
X128072D01*
Y87282D01*
X127954D01*
Y85744D01*
X128072D01*
Y85035D01*
X127954D01*
Y84562D01*
X128072D01*
Y84443D01*
X128190D01*
Y84325D01*
X128545D01*
Y84443D01*
X129137D01*
Y84562D01*
X129610D01*
Y84680D01*
X130201D01*
Y84798D01*
X130792D01*
Y84916D01*
X131265D01*
Y85035D01*
X131857D01*
Y85153D01*
X132330D01*
Y85271D01*
X132921D01*
Y85389D01*
X133394D01*
Y85508D01*
X133986D01*
Y85626D01*
X134577D01*
Y85744D01*
X135168D01*
Y85862D01*
X135523D01*
Y85981D01*
X135641D01*
Y86099D01*
X135760D01*
Y88346D01*
X135641D01*
Y88464D01*
Y88583D01*
Y88819D01*
X135523D01*
Y89056D01*
X135405D01*
Y89411D01*
X135286D01*
Y89529D01*
X135168D01*
Y89765D01*
X135050D01*
Y89884D01*
X134932D01*
Y90002D01*
X134813D01*
Y90120D01*
X134695D01*
Y90238D01*
X134577D01*
Y90357D01*
X134459D01*
Y90475D01*
X134340D01*
Y90593D01*
X134104D01*
Y90711D01*
X133986D01*
Y90830D01*
X133749D01*
Y90948D01*
X133394D01*
Y91066D01*
X132921D01*
Y91185D01*
D02*
G37*
G36*
X101225Y91658D02*
X99569D01*
Y91539D01*
X99096D01*
Y91421D01*
X98741D01*
Y91303D01*
X98505D01*
Y91185D01*
X98268D01*
Y91066D01*
X98032D01*
Y90948D01*
X97913D01*
Y90830D01*
X97795D01*
Y90711D01*
X97677D01*
Y90593D01*
X97559D01*
Y90475D01*
X97440D01*
Y90357D01*
X97322D01*
Y90238D01*
X97204D01*
Y90120D01*
X97086D01*
Y89884D01*
X96967D01*
Y89647D01*
X96849D01*
Y89292D01*
X96731D01*
Y88937D01*
X96613D01*
Y88110D01*
X96494D01*
Y87518D01*
X96613D01*
Y76992D01*
X96731D01*
Y76519D01*
X96849D01*
Y76164D01*
X96967D01*
Y75928D01*
X97086D01*
Y75691D01*
X97204D01*
Y75455D01*
X97322D01*
Y75336D01*
X97440D01*
Y75218D01*
X97559D01*
Y74982D01*
X97677D01*
Y74863D01*
X97913D01*
Y74745D01*
X98032D01*
Y74627D01*
X98150D01*
Y74509D01*
X98387D01*
Y74390D01*
X98623D01*
Y74272D01*
X98860D01*
Y74154D01*
X99214D01*
Y74036D01*
X99806D01*
Y73917D01*
X100988D01*
Y74036D01*
X101580D01*
Y74154D01*
X102053D01*
Y74272D01*
X102408D01*
Y74390D01*
X102644D01*
Y74509D01*
X102762D01*
Y74627D01*
X102999D01*
Y74745D01*
X103117D01*
Y74863D01*
X103354D01*
Y74982D01*
X103472D01*
Y75218D01*
X103590D01*
Y75336D01*
X103709D01*
Y75455D01*
X103827D01*
Y75691D01*
X103945D01*
Y75928D01*
X104063D01*
Y76164D01*
X104182D01*
Y76638D01*
X104300D01*
Y77347D01*
X104418D01*
Y80186D01*
X104300D01*
Y83497D01*
Y83615D01*
Y88346D01*
X104182D01*
Y89056D01*
X104063D01*
Y89529D01*
X103945D01*
Y89765D01*
X103827D01*
Y90002D01*
X103709D01*
Y90120D01*
X103590D01*
Y90357D01*
X103472D01*
Y90475D01*
X103354D01*
Y90593D01*
X103236D01*
Y90711D01*
X103117D01*
Y90830D01*
X102881D01*
Y90948D01*
X102762D01*
Y91066D01*
X102526D01*
Y91185D01*
X102408D01*
Y91303D01*
X102053D01*
Y91421D01*
X101698D01*
Y91539D01*
X101225D01*
Y91658D01*
D02*
G37*
%LPD*%
D10*
X248353Y113180D02*
G03*
X248353Y113574I0J197D01*
G01*
D02*
G03*
X248353Y113180I0J-197D01*
G01*
X132000Y273001D02*
G03*
X132000Y273394I0J197D01*
G01*
D02*
G03*
X132000Y273001I0J-197D01*
G01*
X96069Y232219D02*
G03*
X96069Y232613I0J197D01*
G01*
D02*
G03*
X96069Y232219I0J-197D01*
G01*
X77718D02*
G03*
X77718Y232613I0J197D01*
G01*
D02*
G03*
X77718Y232219I0J-197D01*
G01*
X237420Y254674D02*
G03*
X237420Y254280I0J-197D01*
G01*
D02*
G03*
X237420Y254674I0J197D01*
G01*
X129697Y122862D02*
Y161838D01*
Y122862D02*
Y161838D01*
X164303Y122862D02*
Y161838D01*
Y122862D02*
Y161838D01*
X129697D02*
X136173D01*
X129697D02*
X136173D01*
X129697Y122862D02*
X164303D01*
X129697D02*
X164303D01*
X146016Y161838D02*
X164303D01*
X146016D02*
X164303D01*
X94494Y229463D02*
X94887D01*
Y229857D01*
X87013Y229463D02*
X87407D01*
X87013D02*
Y229857D01*
X94494Y237337D02*
X94887D01*
Y236943D02*
Y237337D01*
X87013D02*
X87407D01*
X87013Y236943D02*
Y237337D01*
X76143Y229463D02*
X76537D01*
Y229857D01*
X68663Y229463D02*
X69057D01*
X68663D02*
Y229857D01*
X76143Y237337D02*
X76537D01*
Y236943D02*
Y237337D01*
X68663D02*
X69057D01*
X68663Y236943D02*
Y237337D01*
X238995Y236958D02*
X250805D01*
X238995Y256643D02*
X250805D01*
D11*
X147000Y164397D02*
G03*
X147000Y164003I0J-197D01*
G01*
D02*
G03*
X147000Y164397I0J197D01*
G01*
D02*
G03*
X147000Y164003I0J-197D01*
G01*
X250321Y109637D02*
Y111606D01*
X240479Y109637D02*
Y111606D01*
Y99795D02*
Y101763D01*
X250321Y99795D02*
Y101763D01*
X202813Y264142D02*
X204387D01*
X202813Y261386D02*
X204387D01*
X157705Y262764D02*
Y277331D01*
X195895D01*
Y262764D02*
Y277331D01*
X157705Y262764D02*
X195895D01*
X157902Y255579D02*
Y261386D01*
X149113Y264622D02*
X150687D01*
X149113Y267378D02*
X150687D01*
X188700Y240413D02*
Y241987D01*
X185944Y240413D02*
Y241987D01*
X168178Y240313D02*
Y241887D01*
X165422Y240313D02*
Y241887D01*
X175378Y240413D02*
Y241987D01*
X172622Y240413D02*
Y241987D01*
X182017Y240413D02*
Y241987D01*
X179261Y240413D02*
Y241987D01*
X149113Y271122D02*
X150687D01*
X149113Y273878D02*
X150687D01*
X196178Y240413D02*
Y241987D01*
X193422Y240413D02*
Y241987D01*
X187757Y52596D02*
Y66612D01*
X194843Y55588D02*
Y66612D01*
X217243Y280988D02*
Y295004D01*
X210157Y280988D02*
Y292012D01*
X159257Y52596D02*
Y66612D01*
X166343Y55588D02*
Y66612D01*
X137098Y275363D02*
X139461D01*
Y330875D01*
X109500D02*
X139461D01*
X109500D02*
X109539Y275363D01*
X112689D01*
X119776D02*
X127650D01*
X68356Y153334D02*
Y180066D01*
X108844D01*
Y153334D02*
Y180066D01*
X68356Y153334D02*
X108844D01*
X68344Y144358D02*
Y151956D01*
D12*
X246948Y35200D02*
X250885Y37168D01*
X246948Y35200D02*
X250885Y33231D01*
Y37168D01*
X206298Y47405D02*
X244290D01*
X199715Y316531D02*
X203652Y318500D01*
X199715Y320468D02*
X203652Y318500D01*
X199715Y316531D02*
Y320468D01*
X206310Y306295D02*
X244302D01*
X109298Y47405D02*
X147291D01*
X153885Y33231D02*
Y37168D01*
X149948Y35200D02*
X153885Y33231D01*
X149948Y35200D02*
X153885Y37168D01*
D13*
X183957Y231340D02*
Y235339D01*
X185956D01*
X186623Y234672D01*
Y233339D01*
X185956Y232673D01*
X183957D01*
X185290D02*
X186623Y231340D01*
X187955Y234672D02*
X188622Y235339D01*
X189955D01*
X190621Y234672D01*
Y234006D01*
X189955Y233339D01*
X190621Y232673D01*
Y232007D01*
X189955Y231340D01*
X188622D01*
X187955Y232007D01*
Y232673D01*
X188622Y233339D01*
X187955Y234006D01*
Y234672D01*
X188622Y233339D02*
X189955D01*
X163468Y247810D02*
Y251809D01*
X165467D01*
X166134Y251143D01*
Y249810D01*
X165467Y249143D01*
X163468D01*
X164801D02*
X166134Y247810D01*
X170132Y251809D02*
X168799Y251143D01*
X167466Y249810D01*
Y248477D01*
X168133Y247810D01*
X169466D01*
X170132Y248477D01*
Y249143D01*
X169466Y249810D01*
X167466D01*
X170640Y231197D02*
Y235196D01*
X172639D01*
X173305Y234529D01*
Y233196D01*
X172639Y232530D01*
X170640D01*
X171972D02*
X173305Y231197D01*
X177304Y235196D02*
X174638D01*
Y233196D01*
X175971Y233863D01*
X176637D01*
X177304Y233196D01*
Y231863D01*
X176637Y231197D01*
X175305D01*
X174638Y231863D01*
X177306Y247810D02*
Y251809D01*
X179306D01*
X179972Y251143D01*
Y249810D01*
X179306Y249143D01*
X177306D01*
X178639D02*
X179972Y247810D01*
X183304D02*
Y251809D01*
X181305Y249810D01*
X183971D01*
X146568Y275862D02*
Y279861D01*
X148567D01*
X149234Y279194D01*
Y277861D01*
X148567Y277195D01*
X146568D01*
X147901D02*
X149234Y275862D01*
X153232D02*
X150566D01*
X153232Y278528D01*
Y279194D01*
X152566Y279861D01*
X151233D01*
X150566Y279194D01*
X191468Y248115D02*
Y252114D01*
X193467D01*
X194134Y251447D01*
Y250114D01*
X193467Y249448D01*
X191468D01*
X192801D02*
X194134Y248115D01*
X195466Y252114D02*
X198132D01*
Y251447D01*
X195466Y248782D01*
Y248115D01*
X146568Y258539D02*
Y262538D01*
X148567D01*
X149233Y261872D01*
Y260539D01*
X148567Y259872D01*
X146568D01*
X147901D02*
X149233Y258539D01*
X150566Y261872D02*
X151233Y262538D01*
X152566D01*
X153232Y261872D01*
Y261205D01*
X152566Y260539D01*
X151899D01*
X152566D01*
X153232Y259872D01*
Y259206D01*
X152566Y258539D01*
X151233D01*
X150566Y259206D01*
X227033Y267903D02*
X226367Y268569D01*
X225034D01*
X224368Y267903D01*
Y265237D01*
X225034Y264571D01*
X226367D01*
X227033Y265237D01*
X228366Y268569D02*
X231032D01*
Y267903D01*
X228366Y265237D01*
Y264571D01*
X229989Y233748D02*
X229323Y234415D01*
X227990D01*
X227324Y233748D01*
Y231082D01*
X227990Y230416D01*
X229323D01*
X229989Y231082D01*
X233988Y234415D02*
X232655Y233748D01*
X231322Y232415D01*
Y231082D01*
X231989Y230416D01*
X233322D01*
X233988Y231082D01*
Y231749D01*
X233322Y232415D01*
X231322D01*
X212734Y243133D02*
X212067Y243799D01*
X210734D01*
X210068Y243133D01*
Y240467D01*
X210734Y239801D01*
X212067D01*
X212734Y240467D01*
X216732Y243799D02*
X214067D01*
Y241800D01*
X215399Y242466D01*
X216066D01*
X216732Y241800D01*
Y240467D01*
X216066Y239801D01*
X214733D01*
X214067Y240467D01*
X200934Y255521D02*
Y259520D01*
X202934D01*
X203600Y258854D01*
Y257521D01*
X202934Y256854D01*
X200934D01*
X202267D02*
X203600Y255521D01*
X204933D02*
X206266D01*
X205599D01*
Y259520D01*
X204933Y258854D01*
X69965Y217264D02*
X69299Y217931D01*
X67966D01*
X67299Y217264D01*
Y214599D01*
X67966Y213932D01*
X69299D01*
X69965Y214599D01*
X73297Y213932D02*
Y217931D01*
X71298Y215932D01*
X73964D01*
X90574Y217410D02*
X89908Y218077D01*
X88575D01*
X87908Y217410D01*
Y214744D01*
X88575Y214078D01*
X89908D01*
X90574Y214744D01*
X91907Y217410D02*
X92573Y218077D01*
X93906D01*
X94573Y217410D01*
Y216744D01*
X93906Y216077D01*
X93240D01*
X93906D01*
X94573Y215411D01*
Y214744D01*
X93906Y214078D01*
X92573D01*
X91907Y214744D01*
X225734Y104833D02*
X225067Y105499D01*
X223734D01*
X223068Y104833D01*
Y102167D01*
X223734Y101501D01*
X225067D01*
X225734Y102167D01*
X229732Y101501D02*
X227066D01*
X229732Y104166D01*
Y104833D01*
X229066Y105499D01*
X227733D01*
X227066Y104833D01*
X81100Y138033D02*
X80434Y138699D01*
X79101D01*
X78434Y138033D01*
Y135367D01*
X79101Y134701D01*
X80434D01*
X81100Y135367D01*
X82433Y134701D02*
X83766D01*
X83099D01*
Y138699D01*
X82433Y138033D01*
D14*
X151526Y293194D02*
Y288196D01*
X152526Y287196D01*
X154525D01*
X155525Y288196D01*
Y293194D01*
X161523D02*
X159523Y292195D01*
X157524Y290195D01*
Y288196D01*
X158524Y287196D01*
X160523D01*
X161523Y288196D01*
Y289195D01*
X160523Y290195D01*
X157524D01*
X220302Y284699D02*
Y278701D01*
X223301D01*
X224300Y279701D01*
Y283699D01*
X223301Y284699D01*
X220302D01*
X230298D02*
X228299Y283699D01*
X226300Y281700D01*
Y279701D01*
X227299Y278701D01*
X229299D01*
X230298Y279701D01*
Y280700D01*
X229299Y281700D01*
X226300D01*
X197802Y61499D02*
Y55501D01*
X200801D01*
X201800Y56501D01*
Y60499D01*
X200801Y61499D01*
X197802D01*
X206799Y55501D02*
Y61499D01*
X203800Y58500D01*
X207798D01*
X146165Y61799D02*
Y55801D01*
X149164D01*
X150164Y56801D01*
Y60799D01*
X149164Y61799D01*
X146165D01*
X156162D02*
X152163D01*
Y58800D01*
X154163Y59800D01*
X155162D01*
X156162Y58800D01*
Y56801D01*
X155162Y55801D01*
X153163D01*
X152163Y56801D01*
X144951Y120006D02*
X142951D01*
X143951D01*
Y115008D01*
X142951Y114008D01*
X141952D01*
X140952Y115008D01*
X146950Y119007D02*
X147950Y120006D01*
X149949D01*
X150949Y119007D01*
Y118007D01*
X149949Y117007D01*
X150949Y116008D01*
Y115008D01*
X149949Y114008D01*
X147950D01*
X146950Y115008D01*
Y116008D01*
X147950Y117007D01*
X146950Y118007D01*
Y119007D01*
X147950Y117007D02*
X149949D01*
X98402Y231899D02*
Y226901D01*
X99401Y225901D01*
X101401D01*
X102400Y226901D01*
Y231899D01*
X104400Y230899D02*
X105399Y231899D01*
X107399D01*
X108398Y230899D01*
Y229900D01*
X107399Y228900D01*
X106399D01*
X107399D01*
X108398Y227900D01*
Y226901D01*
X107399Y225901D01*
X105399D01*
X104400Y226901D01*
X59368Y246336D02*
Y241338D01*
X60368Y240338D01*
X62367D01*
X63367Y241338D01*
Y246336D01*
X68365Y240338D02*
Y246336D01*
X65366Y243337D01*
X69365D01*
X99800Y282299D02*
X97801D01*
X98801D01*
Y277301D01*
X97801Y276301D01*
X96801D01*
X95802Y277301D01*
X101800Y282299D02*
X105798D01*
Y281299D01*
X101800Y277301D01*
Y276301D01*
X224306Y304294D02*
X222306D01*
X223306D01*
Y299296D01*
X222306Y298296D01*
X221307D01*
X220307Y299296D01*
X230304Y304294D02*
X228305Y303295D01*
X226305Y301295D01*
Y299296D01*
X227305Y298296D01*
X229304D01*
X230304Y299296D01*
Y300296D01*
X229304Y301295D01*
X226305D01*
X127295Y55404D02*
X125295D01*
X126295D01*
Y50405D01*
X125295Y49406D01*
X124296D01*
X123296Y50405D01*
X133293Y55404D02*
X129294D01*
Y52405D01*
X131293Y53404D01*
X132293D01*
X133293Y52405D01*
Y50405D01*
X132293Y49406D01*
X130294D01*
X129294Y50405D01*
X224295Y55404D02*
X222295D01*
X223295D01*
Y50405D01*
X222295Y49406D01*
X221296D01*
X220296Y50405D01*
X229293Y49406D02*
Y55404D01*
X226294Y52405D01*
X230293D01*
X240002Y265799D02*
Y260801D01*
X241001Y259801D01*
X243001D01*
X244000Y260801D01*
Y265799D01*
X249998D02*
X246000D01*
Y262800D01*
X247999Y263800D01*
X248999D01*
X249998Y262800D01*
Y260801D01*
X248999Y259801D01*
X246999D01*
X246000Y260801D01*
X67900Y199098D02*
Y194100D01*
X68900Y193100D01*
X70899D01*
X71899Y194100D01*
Y199098D01*
X73898Y193100D02*
X75897D01*
X74898D01*
Y199098D01*
X73898Y198098D01*
X235480Y123404D02*
Y118405D01*
X236480Y117406D01*
X238479D01*
X239479Y118405D01*
Y123404D01*
X245477Y117406D02*
X241478D01*
X245477Y121405D01*
Y122404D01*
X244477Y123404D01*
X242478D01*
X241478Y122404D01*
M02*
