G04*
G04 #@! TF.GenerationSoftware,Altium Limited,Altium Designer,23.11.1 (41)*
G04*
G04 Layer_Physical_Order=2*
G04 Layer_Color=16440176*
%FSLAX25Y25*%
%MOIN*%
G70*
G04*
G04 #@! TF.SameCoordinates,EDA3D6F7-09F2-47E2-B7B7-C676C2FB399E*
G04*
G04*
G04 #@! TF.FilePolarity,Positive*
G04*
G01*
G75*
%ADD53C,0.03504*%
%ADD54C,0.05512*%
%ADD55C,0.02362*%
%ADD56R,0.06496X0.06496*%
%ADD57C,0.06496*%
%ADD58C,0.05000*%
%ADD59C,0.05984*%
%ADD60R,0.05984X0.05984*%
%ADD61C,0.03150*%
%ADD62C,0.06000*%
%ADD63C,0.02300*%
G36*
X348879Y352963D02*
X349988Y352503D01*
X350987Y351836D01*
X351836Y350987D01*
X352503Y349988D01*
X352963Y348879D01*
X353197Y347701D01*
Y347100D01*
Y321333D01*
X336932Y305068D01*
X336932Y305068D01*
X336758Y304807D01*
X336697Y304500D01*
Y49500D01*
X336758Y49193D01*
X336932Y48932D01*
X353197Y32667D01*
X353197Y7000D01*
Y7000D01*
Y7000D01*
X353197Y6390D01*
X352959Y5192D01*
X352492Y4064D01*
X351814Y3049D01*
X350951Y2186D01*
X349936Y1508D01*
X348808Y1041D01*
X347610Y803D01*
X347000Y803D01*
X347000D01*
X347000D01*
X321333D01*
X305068Y17068D01*
X305068Y17068D01*
X304807Y17242D01*
X304500Y17303D01*
X49500D01*
X49193Y17242D01*
X48932Y17068D01*
X32667Y803D01*
X7000D01*
X7000D01*
X7000D01*
X6390Y803D01*
X5192Y1041D01*
X4064Y1508D01*
X3049Y2186D01*
X2186Y3049D01*
X1508Y4064D01*
X1041Y5192D01*
X803Y6390D01*
X803Y7000D01*
Y7000D01*
Y7000D01*
Y32667D01*
X17068Y48932D01*
X17068Y48932D01*
X17242Y49193D01*
X17303Y49500D01*
Y304500D01*
X17242Y304807D01*
X17068Y305068D01*
X803Y321333D01*
Y347000D01*
Y347610D01*
X1041Y348808D01*
X1508Y349936D01*
X2186Y350951D01*
X3049Y351814D01*
X4064Y352492D01*
X5192Y352959D01*
X6390Y353197D01*
X32667D01*
X48932Y336932D01*
X48932Y336932D01*
X49193Y336758D01*
X49500Y336697D01*
X304500D01*
X304807Y336758D01*
X305068Y336932D01*
X321333Y353197D01*
X347701D01*
X348879Y352963D01*
D02*
G37*
%LPC*%
G36*
X334816Y342287D02*
X333184D01*
X331583Y341969D01*
X330074Y341344D01*
X328717Y340437D01*
X327563Y339283D01*
X326656Y337926D01*
X326031Y336417D01*
X325713Y334816D01*
Y333184D01*
X326031Y331583D01*
X326656Y330074D01*
X327563Y328717D01*
X328717Y327563D01*
X330074Y326656D01*
X331583Y326031D01*
X333184Y325713D01*
X334816D01*
X336417Y326031D01*
X337926Y326656D01*
X339283Y327563D01*
X340437Y328717D01*
X341344Y330074D01*
X341969Y331583D01*
X342287Y333184D01*
Y334816D01*
X341969Y336417D01*
X341344Y337926D01*
X340437Y339283D01*
X339283Y340437D01*
X337926Y341344D01*
X336417Y341969D01*
X334816Y342287D01*
D02*
G37*
G36*
X20816D02*
X19184D01*
X17583Y341969D01*
X16074Y341344D01*
X14717Y340437D01*
X13563Y339283D01*
X12656Y337926D01*
X12031Y336417D01*
X11713Y334816D01*
Y333184D01*
X12031Y331583D01*
X12656Y330074D01*
X13563Y328717D01*
X14717Y327563D01*
X16074Y326656D01*
X17583Y326031D01*
X19184Y325713D01*
X20816D01*
X22417Y326031D01*
X23926Y326656D01*
X25283Y327563D01*
X26437Y328717D01*
X27344Y330074D01*
X27969Y331583D01*
X28287Y333184D01*
Y334816D01*
X27969Y336417D01*
X27344Y337926D01*
X26437Y339283D01*
X25283Y340437D01*
X23926Y341344D01*
X22417Y341969D01*
X20816Y342287D01*
D02*
G37*
G36*
X243455Y329504D02*
X242589D01*
X241753Y329280D01*
X241003Y328847D01*
X240391Y328235D01*
X239959Y327485D01*
X239735Y326649D01*
Y325784D01*
X239959Y324948D01*
X240391Y324198D01*
X241003Y323586D01*
X241753Y323153D01*
X242589Y322929D01*
X243455D01*
X244291Y323153D01*
X245041Y323586D01*
X245653Y324198D01*
X246085Y324948D01*
X246309Y325784D01*
Y326649D01*
X246085Y327485D01*
X245653Y328235D01*
X245041Y328847D01*
X244291Y329280D01*
X243455Y329504D01*
D02*
G37*
G36*
X208022D02*
X207156D01*
X206320Y329280D01*
X205571Y328847D01*
X204958Y328235D01*
X204526Y327485D01*
X204302Y326649D01*
Y325784D01*
X204526Y324948D01*
X204958Y324198D01*
X205571Y323586D01*
X206320Y323153D01*
X207156Y322929D01*
X208022D01*
X208858Y323153D01*
X209608Y323586D01*
X210220Y324198D01*
X210652Y324948D01*
X210876Y325784D01*
Y326649D01*
X210652Y327485D01*
X210220Y328235D01*
X209608Y328847D01*
X208858Y329280D01*
X208022Y329504D01*
D02*
G37*
G36*
X231961Y322432D02*
Y319250D01*
X235143D01*
X234931Y320041D01*
X234405Y320951D01*
X233662Y321694D01*
X232752Y322220D01*
X231961Y322432D01*
D02*
G37*
G36*
X230461D02*
X229670Y322220D01*
X228760Y321694D01*
X228016Y320951D01*
X227491Y320041D01*
X227279Y319250D01*
X230461D01*
Y322432D01*
D02*
G37*
G36*
X223180Y322280D02*
X215620D01*
Y314721D01*
X223180D01*
Y322280D01*
D02*
G37*
G36*
X191058Y322592D02*
X190021D01*
X189020Y322323D01*
X188122Y321805D01*
X187389Y321072D01*
X186871Y320174D01*
X186602Y319173D01*
Y318136D01*
X186871Y317135D01*
X187389Y316237D01*
X188122Y315504D01*
X189020Y314986D01*
X190021Y314718D01*
X191058D01*
X192059Y314986D01*
X192957Y315504D01*
X193690Y316237D01*
X194208Y317135D01*
X194476Y318136D01*
Y319173D01*
X194208Y320174D01*
X193690Y321072D01*
X192957Y321805D01*
X192059Y322323D01*
X191058Y322592D01*
D02*
G37*
G36*
X163656D02*
X162619D01*
X161618Y322323D01*
X160720Y321805D01*
X159987Y321072D01*
X159469Y320174D01*
X159201Y319173D01*
Y318136D01*
X159469Y317135D01*
X159987Y316237D01*
X160720Y315504D01*
X161618Y314986D01*
X162619Y314718D01*
X163656D01*
X164657Y314986D01*
X165555Y315504D01*
X166288Y316237D01*
X166806Y317135D01*
X167075Y318136D01*
Y319173D01*
X166806Y320174D01*
X166288Y321072D01*
X165555Y321805D01*
X164657Y322323D01*
X163656Y322592D01*
D02*
G37*
G36*
X235143Y317750D02*
X231961D01*
Y314568D01*
X232752Y314780D01*
X233662Y315305D01*
X234405Y316049D01*
X234931Y316959D01*
X235143Y317750D01*
D02*
G37*
G36*
X230461D02*
X227279D01*
X227491Y316959D01*
X228016Y316049D01*
X228760Y315305D01*
X229670Y314780D01*
X230461Y314568D01*
Y317750D01*
D02*
G37*
G36*
X168456Y313480D02*
X167685D01*
X166973Y313185D01*
X166428Y312640D01*
X166133Y311928D01*
Y311157D01*
X166428Y310445D01*
X166973Y309900D01*
X167685Y309605D01*
X168456D01*
X169168Y309900D01*
X169713Y310445D01*
X170008Y311157D01*
Y311928D01*
X169713Y312640D01*
X169168Y313185D01*
X168456Y313480D01*
D02*
G37*
G36*
X187246Y302651D02*
Y301031D01*
X188865D01*
X188568Y301749D01*
X187963Y302354D01*
X187246Y302651D01*
D02*
G37*
G36*
X186246D02*
X185528Y302354D01*
X184923Y301749D01*
X184625Y301031D01*
X186246D01*
Y302651D01*
D02*
G37*
G36*
X168456Y303269D02*
X167685D01*
X166973Y302974D01*
X166428Y302429D01*
X166133Y301717D01*
Y300946D01*
X166428Y300234D01*
X166973Y299689D01*
X167685Y299394D01*
X168456D01*
X169168Y299689D01*
X169713Y300234D01*
X170008Y300946D01*
Y301717D01*
X169713Y302429D01*
X169168Y302974D01*
X168456Y303269D01*
D02*
G37*
G36*
X188865Y300031D02*
X187246D01*
Y298411D01*
X187963Y298709D01*
X188568Y299313D01*
X188865Y300031D01*
D02*
G37*
G36*
X186246D02*
X184625D01*
X184923Y299313D01*
X185528Y298709D01*
X186246Y298411D01*
Y300031D01*
D02*
G37*
G36*
X187360Y289964D02*
X186589D01*
X185877Y289669D01*
X185332Y289124D01*
X185037Y288412D01*
Y287641D01*
X185332Y286929D01*
X185877Y286384D01*
X186589Y286089D01*
X187360D01*
X188072Y286384D01*
X188617Y286929D01*
X188912Y287641D01*
Y288412D01*
X188617Y289124D01*
X188072Y289669D01*
X187360Y289964D01*
D02*
G37*
G36*
X181024D02*
X180253D01*
X179541Y289669D01*
X178996Y289124D01*
X178701Y288412D01*
Y287641D01*
X178996Y286929D01*
X179541Y286384D01*
X180253Y286089D01*
X181024D01*
X181736Y286384D01*
X182281Y286929D01*
X182576Y287641D01*
Y288412D01*
X182281Y289124D01*
X181736Y289669D01*
X181024Y289964D01*
D02*
G37*
G36*
X173347Y289914D02*
X172576D01*
X171864Y289619D01*
X171319Y289074D01*
X171024Y288362D01*
Y287591D01*
X171319Y286879D01*
X171864Y286334D01*
X172576Y286039D01*
X173347D01*
X174059Y286334D01*
X174604Y286879D01*
X174899Y287591D01*
Y288362D01*
X174604Y289074D01*
X174059Y289619D01*
X173347Y289914D01*
D02*
G37*
G36*
X167451Y289876D02*
X166680D01*
X165968Y289581D01*
X165423Y289036D01*
X165128Y288324D01*
Y287554D01*
X165423Y286841D01*
X165968Y286296D01*
X166680Y286001D01*
X167451D01*
X168163Y286296D01*
X168708Y286841D01*
X169003Y287554D01*
Y288324D01*
X168708Y289036D01*
X168163Y289581D01*
X167451Y289876D01*
D02*
G37*
G36*
X118500Y283296D02*
Y280800D01*
X120996D01*
X120958Y280940D01*
X120399Y281908D01*
X119608Y282699D01*
X118640Y283259D01*
X118500Y283296D01*
D02*
G37*
G36*
X115500D02*
X115360Y283259D01*
X114392Y282699D01*
X113601Y281908D01*
X113041Y280940D01*
X113004Y280800D01*
X115500D01*
Y283296D01*
D02*
G37*
G36*
X33559Y281620D02*
Y280000D01*
X35179D01*
X34882Y280718D01*
X34277Y281323D01*
X33559Y281620D01*
D02*
G37*
G36*
X32559D02*
X31841Y281323D01*
X31236Y280718D01*
X30939Y280000D01*
X32559D01*
Y281620D01*
D02*
G37*
G36*
X53452Y281557D02*
Y279936D01*
X55072D01*
X54774Y280654D01*
X54170Y281259D01*
X53452Y281557D01*
D02*
G37*
G36*
X52452D02*
X51734Y281259D01*
X51129Y280654D01*
X50832Y279936D01*
X52452D01*
Y281557D01*
D02*
G37*
G36*
X292441Y281420D02*
Y279800D01*
X294061D01*
X293764Y280518D01*
X293159Y281123D01*
X292441Y281420D01*
D02*
G37*
G36*
X291441D02*
X290723Y281123D01*
X290118Y280518D01*
X289821Y279800D01*
X291441D01*
Y281420D01*
D02*
G37*
G36*
X272559D02*
Y279800D01*
X274179D01*
X273882Y280518D01*
X273277Y281123D01*
X272559Y281420D01*
D02*
G37*
G36*
X271559D02*
X270841Y281123D01*
X270236Y280518D01*
X269939Y279800D01*
X271559D01*
Y281420D01*
D02*
G37*
G36*
X200685Y282704D02*
X199915D01*
X199203Y282409D01*
X198658Y281864D01*
X198363Y281152D01*
Y280382D01*
X198658Y279669D01*
X199203Y279124D01*
X199915Y278830D01*
X200685D01*
X201397Y279124D01*
X201942Y279669D01*
X202237Y280382D01*
Y281152D01*
X201942Y281864D01*
X201397Y282409D01*
X200685Y282704D01*
D02*
G37*
G36*
X35179Y279000D02*
X33559D01*
Y277380D01*
X34277Y277677D01*
X34882Y278282D01*
X35179Y279000D01*
D02*
G37*
G36*
X32559D02*
X30939D01*
X31236Y278282D01*
X31841Y277677D01*
X32559Y277380D01*
Y279000D01*
D02*
G37*
G36*
X55072Y278936D02*
X53452D01*
Y277316D01*
X54170Y277614D01*
X54774Y278219D01*
X55072Y278936D01*
D02*
G37*
G36*
X52452D02*
X50832D01*
X51129Y278219D01*
X51734Y277614D01*
X52452Y277316D01*
Y278936D01*
D02*
G37*
G36*
X294061Y278800D02*
X292441D01*
Y277180D01*
X293159Y277477D01*
X293764Y278082D01*
X294061Y278800D01*
D02*
G37*
G36*
X291441D02*
X289821D01*
X290118Y278082D01*
X290723Y277477D01*
X291441Y277180D01*
Y278800D01*
D02*
G37*
G36*
X274179D02*
X272559D01*
Y277180D01*
X273277Y277477D01*
X273882Y278082D01*
X274179Y278800D01*
D02*
G37*
G36*
X271559D02*
X269939D01*
X270236Y278082D01*
X270841Y277477D01*
X271559Y277180D01*
Y278800D01*
D02*
G37*
G36*
X214200Y277120D02*
Y275500D01*
X215820D01*
X215523Y276218D01*
X214918Y276823D01*
X214200Y277120D01*
D02*
G37*
G36*
X213200D02*
X212482Y276823D01*
X211877Y276218D01*
X211580Y275500D01*
X213200D01*
Y277120D01*
D02*
G37*
G36*
X120996Y277800D02*
X118500D01*
Y275304D01*
X118640Y275342D01*
X119608Y275901D01*
X120399Y276692D01*
X120958Y277660D01*
X120996Y277800D01*
D02*
G37*
G36*
X115500D02*
X113004D01*
X113041Y277660D01*
X113601Y276692D01*
X114392Y275901D01*
X115360Y275342D01*
X115500Y275304D01*
Y277800D01*
D02*
G37*
G36*
X136035Y283335D02*
X127965D01*
Y275265D01*
X136035D01*
Y283335D01*
D02*
G37*
G36*
X215820Y274500D02*
X214200D01*
Y272880D01*
X214918Y273177D01*
X215523Y273782D01*
X215820Y274500D01*
D02*
G37*
G36*
X213200D02*
X211580D01*
X211877Y273782D01*
X212482Y273177D01*
X213200Y272880D01*
Y274500D01*
D02*
G37*
G36*
X197251Y274464D02*
Y272844D01*
X198871D01*
X198573Y273561D01*
X197969Y274166D01*
X197251Y274464D01*
D02*
G37*
G36*
X196251D02*
X195533Y274166D01*
X194928Y273561D01*
X194631Y272844D01*
X196251D01*
Y274464D01*
D02*
G37*
G36*
X198871Y271844D02*
X197251D01*
Y270223D01*
X197969Y270521D01*
X198573Y271126D01*
X198871Y271844D01*
D02*
G37*
G36*
X196251D02*
X194631D01*
X194928Y271126D01*
X195533Y270521D01*
X196251Y270223D01*
Y271844D01*
D02*
G37*
G36*
X201184Y271071D02*
Y269451D01*
X202804D01*
X202507Y270169D01*
X201902Y270774D01*
X201184Y271071D01*
D02*
G37*
G36*
X200184D02*
X199466Y270774D01*
X198861Y270169D01*
X198564Y269451D01*
X200184D01*
Y271071D01*
D02*
G37*
G36*
X202804Y268451D02*
X201184D01*
Y266831D01*
X201902Y267128D01*
X202507Y267733D01*
X202804Y268451D01*
D02*
G37*
G36*
X200184D02*
X198564D01*
X198861Y267733D01*
X199466Y267128D01*
X200184Y266831D01*
Y268451D01*
D02*
G37*
G36*
X211475Y264884D02*
Y263264D01*
X213095D01*
X212798Y263982D01*
X212193Y264587D01*
X211475Y264884D01*
D02*
G37*
G36*
X210475D02*
X209758Y264587D01*
X209153Y263982D01*
X208855Y263264D01*
X210475D01*
Y264884D01*
D02*
G37*
G36*
X282565Y271091D02*
X281435D01*
X280344Y270799D01*
X279365Y270234D01*
X278566Y269435D01*
X278001Y268456D01*
X277709Y267365D01*
Y266235D01*
X278001Y265144D01*
X278566Y264165D01*
X279365Y263366D01*
X280344Y262801D01*
X281435Y262509D01*
X282565D01*
X283656Y262801D01*
X284635Y263366D01*
X285434Y264165D01*
X285999Y265144D01*
X286291Y266235D01*
Y267365D01*
X285999Y268456D01*
X285434Y269435D01*
X284635Y270234D01*
X283656Y270799D01*
X282565Y271091D01*
D02*
G37*
G36*
X43565D02*
X42435D01*
X41344Y270799D01*
X40365Y270234D01*
X39566Y269435D01*
X39001Y268456D01*
X38709Y267365D01*
Y266235D01*
X39001Y265144D01*
X39566Y264165D01*
X40365Y263366D01*
X41344Y262801D01*
X42435Y262509D01*
X43565D01*
X44656Y262801D01*
X45635Y263366D01*
X46434Y264165D01*
X46999Y265144D01*
X47291Y266235D01*
Y267365D01*
X46999Y268456D01*
X46434Y269435D01*
X45635Y270234D01*
X44656Y270799D01*
X43565Y271091D01*
D02*
G37*
G36*
X213095Y262264D02*
X211475D01*
Y260644D01*
X212193Y260941D01*
X212798Y261546D01*
X213095Y262264D01*
D02*
G37*
G36*
X210475D02*
X208855D01*
X209153Y261546D01*
X209758Y260941D01*
X210475Y260644D01*
Y262264D01*
D02*
G37*
G36*
X220082Y261920D02*
Y260300D01*
X221702D01*
X221405Y261018D01*
X220800Y261623D01*
X220082Y261920D01*
D02*
G37*
G36*
X219082D02*
X218364Y261623D01*
X217759Y261018D01*
X217462Y260300D01*
X219082D01*
Y261920D01*
D02*
G37*
G36*
X261224Y263737D02*
X260453D01*
X259741Y263442D01*
X259196Y262897D01*
X258901Y262185D01*
Y261415D01*
X259196Y260703D01*
X259741Y260157D01*
X260453Y259863D01*
X261224D01*
X261936Y260157D01*
X262481Y260703D01*
X262776Y261415D01*
Y262185D01*
X262481Y262897D01*
X261936Y263442D01*
X261224Y263737D01*
D02*
G37*
G36*
X61771D02*
X61001D01*
X60288Y263442D01*
X59743Y262897D01*
X59448Y262185D01*
Y261415D01*
X59743Y260703D01*
X60288Y260157D01*
X61001Y259863D01*
X61771D01*
X62483Y260157D01*
X63028Y260703D01*
X63323Y261415D01*
Y262185D01*
X63028Y262897D01*
X62483Y263442D01*
X61771Y263737D01*
D02*
G37*
G36*
X24503Y263534D02*
X23732D01*
X23020Y263239D01*
X22475Y262694D01*
X22180Y261982D01*
Y261211D01*
X22475Y260499D01*
X23020Y259954D01*
X23732Y259659D01*
X24503D01*
X25215Y259954D01*
X25760Y260499D01*
X26055Y261211D01*
Y261982D01*
X25760Y262694D01*
X25215Y263239D01*
X24503Y263534D01*
D02*
G37*
G36*
X221702Y259300D02*
X220082D01*
Y257680D01*
X220800Y257977D01*
X221405Y258582D01*
X221702Y259300D01*
D02*
G37*
G36*
X219082D02*
X217462D01*
X217759Y258582D01*
X218364Y257977D01*
X219082Y257680D01*
Y259300D01*
D02*
G37*
G36*
X189040Y253148D02*
Y251528D01*
X190660D01*
X190363Y252245D01*
X189758Y252850D01*
X189040Y253148D01*
D02*
G37*
G36*
X188040D02*
X187322Y252850D01*
X186717Y252245D01*
X186420Y251528D01*
X188040D01*
Y253148D01*
D02*
G37*
G36*
X160659Y252517D02*
Y250897D01*
X162279D01*
X161982Y251615D01*
X161377Y252220D01*
X160659Y252517D01*
D02*
G37*
G36*
X159659D02*
X158941Y252220D01*
X158337Y251615D01*
X158039Y250897D01*
X159659D01*
Y252517D01*
D02*
G37*
G36*
X231156Y252220D02*
Y250600D01*
X232776D01*
X232478Y251318D01*
X231874Y251923D01*
X231156Y252220D01*
D02*
G37*
G36*
X230156D02*
X229438Y251923D01*
X228833Y251318D01*
X228536Y250600D01*
X230156D01*
Y252220D01*
D02*
G37*
G36*
X221300D02*
Y250600D01*
X222920D01*
X222623Y251318D01*
X222018Y251923D01*
X221300Y252220D01*
D02*
G37*
G36*
X220300D02*
X219582Y251923D01*
X218977Y251318D01*
X218680Y250600D01*
X220300D01*
Y252220D01*
D02*
G37*
G36*
X61771Y253737D02*
X61001D01*
X60288Y253443D01*
X59743Y252897D01*
X59448Y252185D01*
Y251415D01*
X59743Y250703D01*
X60288Y250157D01*
X61001Y249863D01*
X61771D01*
X62483Y250157D01*
X63028Y250703D01*
X63323Y251415D01*
Y252185D01*
X63028Y252897D01*
X62483Y253443D01*
X61771Y253737D01*
D02*
G37*
G36*
X24485D02*
X23715D01*
X23002Y253443D01*
X22458Y252897D01*
X22163Y252185D01*
Y251415D01*
X22458Y250703D01*
X23002Y250157D01*
X23715Y249863D01*
X24485D01*
X25197Y250157D01*
X25743Y250703D01*
X26037Y251415D01*
Y252185D01*
X25743Y252897D01*
X25197Y253443D01*
X24485Y253737D01*
D02*
G37*
G36*
X261149Y253730D02*
X260379D01*
X259667Y253435D01*
X259122Y252890D01*
X258827Y252178D01*
Y251407D01*
X259122Y250695D01*
X259667Y250150D01*
X260379Y249855D01*
X261149D01*
X261861Y250150D01*
X262406Y250695D01*
X262702Y251407D01*
Y252178D01*
X262406Y252890D01*
X261861Y253435D01*
X261149Y253730D01*
D02*
G37*
G36*
X190660Y250528D02*
X189040D01*
Y248908D01*
X189758Y249205D01*
X190363Y249810D01*
X190660Y250528D01*
D02*
G37*
G36*
X188040D02*
X186420D01*
X186717Y249810D01*
X187322Y249205D01*
X188040Y248908D01*
Y250528D01*
D02*
G37*
G36*
X162279Y249897D02*
X160659D01*
Y248277D01*
X161377Y248574D01*
X161982Y249179D01*
X162279Y249897D01*
D02*
G37*
G36*
X159659D02*
X158039D01*
X158337Y249179D01*
X158941Y248574D01*
X159659Y248277D01*
Y249897D01*
D02*
G37*
G36*
X232776Y249600D02*
X231156D01*
Y247980D01*
X231874Y248277D01*
X232478Y248882D01*
X232776Y249600D01*
D02*
G37*
G36*
X230156D02*
X228536D01*
X228833Y248882D01*
X229438Y248277D01*
X230156Y247980D01*
Y249600D01*
D02*
G37*
G36*
X222920D02*
X221300D01*
Y247980D01*
X222018Y248277D01*
X222623Y248882D01*
X222920Y249600D01*
D02*
G37*
G36*
X220300D02*
X218680D01*
X218977Y248882D01*
X219582Y248277D01*
X220300Y247980D01*
Y249600D01*
D02*
G37*
G36*
X72985Y249215D02*
X72215D01*
X71503Y248920D01*
X70958Y248375D01*
X70663Y247663D01*
Y246892D01*
X70958Y246180D01*
X71503Y245635D01*
X72215Y245340D01*
X72985D01*
X73698Y245635D01*
X74242Y246180D01*
X74537Y246892D01*
Y247663D01*
X74242Y248375D01*
X73698Y248920D01*
X72985Y249215D01*
D02*
G37*
G36*
X98771Y245275D02*
X98000D01*
X97288Y244980D01*
X96743Y244435D01*
X96448Y243723D01*
Y242952D01*
X96743Y242240D01*
X97288Y241695D01*
X98000Y241400D01*
X98771D01*
X99483Y241695D01*
X100028Y242240D01*
X100323Y242952D01*
Y243723D01*
X100028Y244435D01*
X99483Y244980D01*
X98771Y245275D01*
D02*
G37*
G36*
X81568D02*
X80797D01*
X80085Y244980D01*
X79540Y244435D01*
X79245Y243723D01*
Y242952D01*
X79540Y242240D01*
X80085Y241695D01*
X80797Y241400D01*
X81568D01*
X82280Y241695D01*
X82825Y242240D01*
X83120Y242952D01*
Y243723D01*
X82825Y244435D01*
X82280Y244980D01*
X81568Y245275D01*
D02*
G37*
G36*
X95494Y241926D02*
Y240305D01*
X97114D01*
X96816Y241023D01*
X96212Y241628D01*
X95494Y241926D01*
D02*
G37*
G36*
X94494D02*
X93776Y241628D01*
X93171Y241023D01*
X92874Y240305D01*
X94494D01*
Y241926D01*
D02*
G37*
G36*
X77143Y241870D02*
Y240250D01*
X78763D01*
X78466Y240968D01*
X77861Y241573D01*
X77143Y241870D01*
D02*
G37*
G36*
X76143D02*
X75425Y241573D01*
X74821Y240968D01*
X74523Y240250D01*
X76143D01*
Y241870D01*
D02*
G37*
G36*
X261249Y243888D02*
X260479D01*
X259767Y243593D01*
X259222Y243048D01*
X258927Y242336D01*
Y241565D01*
X259222Y240853D01*
X259767Y240308D01*
X260479Y240013D01*
X261249D01*
X261962Y240308D01*
X262507Y240853D01*
X262802Y241565D01*
Y242336D01*
X262507Y243048D01*
X261962Y243593D01*
X261249Y243888D01*
D02*
G37*
G36*
X97114Y239305D02*
X95494D01*
Y237685D01*
X96212Y237983D01*
X96816Y238588D01*
X97114Y239305D01*
D02*
G37*
G36*
X94494D02*
X92874D01*
X93171Y238588D01*
X93776Y237983D01*
X94494Y237685D01*
Y239305D01*
D02*
G37*
G36*
X78763Y239250D02*
X77143D01*
Y237630D01*
X77861Y237927D01*
X78466Y238532D01*
X78763Y239250D01*
D02*
G37*
G36*
X76143D02*
X74523D01*
X74821Y238532D01*
X75425Y237927D01*
X76143Y237630D01*
Y239250D01*
D02*
G37*
G36*
X82785Y236237D02*
X82015D01*
X81302Y235943D01*
X80758Y235397D01*
X80463Y234685D01*
Y233915D01*
X80758Y233203D01*
X81302Y232658D01*
X82015Y232363D01*
X82785D01*
X83498Y232658D01*
X84042Y233203D01*
X84337Y233915D01*
Y234685D01*
X84042Y235397D01*
X83498Y235943D01*
X82785Y236237D01*
D02*
G37*
G36*
X221185Y234958D02*
X220415D01*
X219703Y234663D01*
X219158Y234118D01*
X218863Y233406D01*
Y232635D01*
X219158Y231923D01*
X219703Y231378D01*
X220415Y231083D01*
X221185D01*
X221897Y231378D01*
X222442Y231923D01*
X222737Y232635D01*
Y233406D01*
X222442Y234118D01*
X221897Y234663D01*
X221185Y234958D01*
D02*
G37*
G36*
X261249Y233769D02*
X260479D01*
X259767Y233475D01*
X259222Y232930D01*
X258927Y232218D01*
Y231447D01*
X259222Y230735D01*
X259767Y230190D01*
X260479Y229895D01*
X261249D01*
X261962Y230190D01*
X262507Y230735D01*
X262802Y231447D01*
Y232218D01*
X262507Y232930D01*
X261962Y233475D01*
X261249Y233769D01*
D02*
G37*
G36*
X61771Y233737D02*
X61001D01*
X60288Y233442D01*
X59743Y232897D01*
X59448Y232185D01*
Y231415D01*
X59743Y230703D01*
X60288Y230157D01*
X61001Y229863D01*
X61771D01*
X62483Y230157D01*
X63028Y230703D01*
X63323Y231415D01*
Y232185D01*
X63028Y232897D01*
X62483Y233442D01*
X61771Y233737D01*
D02*
G37*
G36*
X84608Y231222D02*
X83837D01*
X83125Y230926D01*
X82580Y230381D01*
X82285Y229669D01*
Y228899D01*
X82580Y228187D01*
X83125Y227642D01*
X83837Y227347D01*
X84608D01*
X85320Y227642D01*
X85865Y228187D01*
X86160Y228899D01*
Y229669D01*
X85865Y230381D01*
X85320Y230926D01*
X84608Y231222D01*
D02*
G37*
G36*
X66293Y230973D02*
X65522D01*
X64810Y230678D01*
X64265Y230133D01*
X63970Y229421D01*
Y228650D01*
X64265Y227938D01*
X64810Y227393D01*
X65522Y227098D01*
X66293D01*
X67005Y227393D01*
X67550Y227938D01*
X67844Y228650D01*
Y229421D01*
X67550Y230133D01*
X67005Y230678D01*
X66293Y230973D01*
D02*
G37*
G36*
X84118Y224273D02*
Y222653D01*
X85738D01*
X85441Y223371D01*
X84836Y223976D01*
X84118Y224273D01*
D02*
G37*
G36*
X83118D02*
X82400Y223976D01*
X81795Y223371D01*
X81498Y222653D01*
X83118D01*
Y224273D01*
D02*
G37*
G36*
X63104Y223920D02*
Y222300D01*
X64724D01*
X64426Y223018D01*
X63822Y223623D01*
X63104Y223920D01*
D02*
G37*
G36*
X62104D02*
X61386Y223623D01*
X60781Y223018D01*
X60484Y222300D01*
X62104D01*
Y223920D01*
D02*
G37*
G36*
X85738Y221653D02*
X84118D01*
Y220033D01*
X84836Y220330D01*
X85441Y220935D01*
X85738Y221653D01*
D02*
G37*
G36*
X83118D02*
X81498D01*
X81795Y220935D01*
X82400Y220330D01*
X83118Y220033D01*
Y221653D01*
D02*
G37*
G36*
X64724Y221300D02*
X63104D01*
Y219680D01*
X63822Y219977D01*
X64426Y220582D01*
X64724Y221300D01*
D02*
G37*
G36*
X62104D02*
X60484D01*
X60781Y220582D01*
X61386Y219977D01*
X62104Y219680D01*
Y221300D01*
D02*
G37*
G36*
X261224Y221737D02*
X260453D01*
X259741Y221443D01*
X259196Y220897D01*
X258901Y220185D01*
Y219415D01*
X259196Y218703D01*
X259741Y218158D01*
X260453Y217863D01*
X261224D01*
X261936Y218158D01*
X262481Y218703D01*
X262776Y219415D01*
Y220185D01*
X262481Y220897D01*
X261936Y221443D01*
X261224Y221737D01*
D02*
G37*
G36*
X84003Y215637D02*
X83232D01*
X82520Y215342D01*
X81975Y214797D01*
X81681Y214085D01*
Y213315D01*
X81975Y212603D01*
X82520Y212057D01*
X83232Y211763D01*
X84003D01*
X84715Y212057D01*
X85260Y212603D01*
X85555Y213315D01*
Y214085D01*
X85260Y214797D01*
X84715Y215342D01*
X84003Y215637D01*
D02*
G37*
G36*
X261224Y213737D02*
X260453D01*
X259741Y213442D01*
X259196Y212897D01*
X258901Y212185D01*
Y211415D01*
X259196Y210703D01*
X259741Y210157D01*
X260453Y209863D01*
X261224D01*
X261936Y210157D01*
X262481Y210703D01*
X262776Y211415D01*
Y212185D01*
X262481Y212897D01*
X261936Y213442D01*
X261224Y213737D01*
D02*
G37*
G36*
Y203737D02*
X260453D01*
X259741Y203443D01*
X259196Y202898D01*
X258901Y202185D01*
Y201415D01*
X259196Y200703D01*
X259741Y200157D01*
X260453Y199863D01*
X261224D01*
X261936Y200157D01*
X262481Y200703D01*
X262776Y201415D01*
Y202185D01*
X262481Y202898D01*
X261936Y203443D01*
X261224Y203737D01*
D02*
G37*
G36*
X101578Y195520D02*
Y193900D01*
X103198D01*
X102901Y194618D01*
X102296Y195223D01*
X101578Y195520D01*
D02*
G37*
G36*
X100578D02*
X99860Y195223D01*
X99255Y194618D01*
X98958Y193900D01*
X100578D01*
Y195520D01*
D02*
G37*
G36*
X103198Y192900D02*
X101578D01*
Y191280D01*
X102296Y191577D01*
X102901Y192182D01*
X103198Y192900D01*
D02*
G37*
G36*
X100578D02*
X98958D01*
X99255Y192182D01*
X99860Y191577D01*
X100578Y191280D01*
Y192900D01*
D02*
G37*
G36*
X261285Y193737D02*
X260515D01*
X259803Y193442D01*
X259258Y192897D01*
X258963Y192185D01*
Y191415D01*
X259258Y190702D01*
X259803Y190157D01*
X260515Y189863D01*
X261285D01*
X261997Y190157D01*
X262543Y190702D01*
X262837Y191415D01*
Y192185D01*
X262543Y192897D01*
X261997Y193442D01*
X261285Y193737D01*
D02*
G37*
G36*
X61771D02*
X61001D01*
X60288Y193442D01*
X59743Y192897D01*
X59448Y192185D01*
Y191415D01*
X59743Y190702D01*
X60288Y190157D01*
X61001Y189863D01*
X61771D01*
X62483Y190157D01*
X63028Y190702D01*
X63323Y191415D01*
Y192185D01*
X63028Y192897D01*
X62483Y193442D01*
X61771Y193737D01*
D02*
G37*
G36*
X80413Y179737D02*
X79642D01*
X78930Y179443D01*
X78385Y178898D01*
X78090Y178185D01*
Y177415D01*
X78385Y176702D01*
X78930Y176157D01*
X79642Y175863D01*
X80413D01*
X81125Y176157D01*
X81670Y176702D01*
X81965Y177415D01*
Y178185D01*
X81670Y178898D01*
X81125Y179443D01*
X80413Y179737D01*
D02*
G37*
G36*
X61771Y173737D02*
X61001D01*
X60288Y173442D01*
X59743Y172898D01*
X59448Y172185D01*
Y171415D01*
X59743Y170703D01*
X60288Y170158D01*
X61001Y169863D01*
X61771D01*
X62483Y170158D01*
X63028Y170703D01*
X63323Y171415D01*
Y172185D01*
X63028Y172898D01*
X62483Y173442D01*
X61771Y173737D01*
D02*
G37*
G36*
X261224Y163737D02*
X260453D01*
X259741Y163443D01*
X259196Y162898D01*
X258901Y162185D01*
Y161415D01*
X259196Y160703D01*
X259741Y160158D01*
X260453Y159863D01*
X261224D01*
X261936Y160158D01*
X262481Y160703D01*
X262776Y161415D01*
Y162185D01*
X262481Y162898D01*
X261936Y163443D01*
X261224Y163737D01*
D02*
G37*
G36*
X61771D02*
X61001D01*
X60288Y163443D01*
X59743Y162898D01*
X59448Y162185D01*
Y161415D01*
X59743Y160703D01*
X60288Y160158D01*
X61001Y159863D01*
X61771D01*
X62483Y160158D01*
X63028Y160703D01*
X63323Y161415D01*
Y162185D01*
X63028Y162898D01*
X62483Y163443D01*
X61771Y163737D01*
D02*
G37*
G36*
X141115Y161641D02*
X140286D01*
X139485Y161426D01*
X138767Y161012D01*
X138180Y160425D01*
X137766Y159707D01*
X137551Y158906D01*
Y158077D01*
X137766Y157276D01*
X138180Y156558D01*
X138767Y155971D01*
X139485Y155556D01*
X140286Y155342D01*
X141115D01*
X141917Y155556D01*
X142635Y155971D01*
X143221Y156558D01*
X143636Y157276D01*
X143850Y158077D01*
Y158906D01*
X143636Y159707D01*
X143221Y160425D01*
X142635Y161012D01*
X141917Y161426D01*
X141115Y161641D01*
D02*
G37*
G36*
X61771Y155737D02*
X61001D01*
X60288Y155443D01*
X59743Y154897D01*
X59448Y154185D01*
Y153415D01*
X59743Y152702D01*
X60288Y152157D01*
X61001Y151863D01*
X61771D01*
X62483Y152157D01*
X63028Y152702D01*
X63323Y153415D01*
Y154185D01*
X63028Y154897D01*
X62483Y155443D01*
X61771Y155737D01*
D02*
G37*
G36*
X261099Y153702D02*
X260329D01*
X259616Y153407D01*
X259071Y152862D01*
X258776Y152150D01*
Y151379D01*
X259071Y150667D01*
X259616Y150122D01*
X260329Y149827D01*
X261099D01*
X261811Y150122D01*
X262356Y150667D01*
X262651Y151379D01*
Y152150D01*
X262356Y152862D01*
X261811Y153407D01*
X261099Y153702D01*
D02*
G37*
G36*
X147467Y155736D02*
X146534D01*
X145632Y155494D01*
X144824Y155028D01*
X144165Y154368D01*
X143698Y153560D01*
X143457Y152659D01*
Y151726D01*
X143698Y150825D01*
X144165Y150017D01*
X144824Y149357D01*
X145632Y148890D01*
X146534Y148649D01*
X147467D01*
X148368Y148890D01*
X149176Y149357D01*
X149835Y150017D01*
X150302Y150825D01*
X150543Y151726D01*
Y152659D01*
X150302Y153560D01*
X149835Y154368D01*
X149176Y155028D01*
X148368Y155494D01*
X147467Y155736D01*
D02*
G37*
G36*
X61771Y145311D02*
X61001D01*
X60288Y145016D01*
X59743Y144471D01*
X59448Y143759D01*
Y142988D01*
X59743Y142276D01*
X60288Y141731D01*
X61001Y141436D01*
X61771D01*
X62483Y141731D01*
X63028Y142276D01*
X63323Y142988D01*
Y143759D01*
X63028Y144471D01*
X62483Y145016D01*
X61771Y145311D01*
D02*
G37*
G36*
X147467Y145893D02*
X146534D01*
X145632Y145651D01*
X144824Y145185D01*
X144165Y144525D01*
X143698Y143717D01*
X143457Y142816D01*
Y141883D01*
X143698Y140982D01*
X144165Y140174D01*
X144824Y139514D01*
X145632Y139048D01*
X146534Y138806D01*
X147467D01*
X148368Y139048D01*
X149176Y139514D01*
X149835Y140174D01*
X150302Y140982D01*
X150543Y141883D01*
Y142816D01*
X150302Y143717D01*
X149835Y144525D01*
X149176Y145185D01*
X148368Y145651D01*
X147467Y145893D01*
D02*
G37*
G36*
X64036Y138820D02*
Y137200D01*
X65656D01*
X65359Y137918D01*
X64754Y138523D01*
X64036Y138820D01*
D02*
G37*
G36*
X63036D02*
X62318Y138523D01*
X61713Y137918D01*
X61416Y137200D01*
X63036D01*
Y138820D01*
D02*
G37*
G36*
X65656Y136200D02*
X64036D01*
Y134580D01*
X64754Y134877D01*
X65359Y135482D01*
X65656Y136200D01*
D02*
G37*
G36*
X63036D02*
X61416D01*
X61713Y135482D01*
X62318Y134877D01*
X63036Y134580D01*
Y136200D01*
D02*
G37*
G36*
X261747Y133677D02*
X260976D01*
X260264Y133382D01*
X259719Y132837D01*
X259424Y132124D01*
Y131354D01*
X259719Y130642D01*
X260264Y130097D01*
X260976Y129802D01*
X261747D01*
X262459Y130097D01*
X263004Y130642D01*
X263299Y131354D01*
Y132124D01*
X263004Y132837D01*
X262459Y133382D01*
X261747Y133677D01*
D02*
G37*
G36*
X147467Y136050D02*
X146534D01*
X145632Y135809D01*
X144824Y135343D01*
X144165Y134683D01*
X143698Y133875D01*
X143457Y132974D01*
Y132041D01*
X143698Y131140D01*
X144165Y130332D01*
X144824Y129672D01*
X145632Y129205D01*
X146534Y128964D01*
X147467D01*
X148368Y129205D01*
X149176Y129672D01*
X149835Y130332D01*
X150302Y131140D01*
X150543Y132041D01*
Y132974D01*
X150302Y133875D01*
X149835Y134683D01*
X149176Y135343D01*
X148368Y135809D01*
X147467Y136050D01*
D02*
G37*
G36*
X76485Y130437D02*
X75715D01*
X75002Y130142D01*
X74458Y129597D01*
X74163Y128885D01*
Y128115D01*
X74458Y127402D01*
X75002Y126857D01*
X75715Y126563D01*
X76485D01*
X77197Y126857D01*
X77742Y127402D01*
X78037Y128115D01*
Y128885D01*
X77742Y129597D01*
X77197Y130142D01*
X76485Y130437D01*
D02*
G37*
G36*
X232500Y121920D02*
Y120300D01*
X234120D01*
X233823Y121018D01*
X233218Y121623D01*
X232500Y121920D01*
D02*
G37*
G36*
X231500D02*
X230782Y121623D01*
X230177Y121018D01*
X229880Y120300D01*
X231500D01*
Y121920D01*
D02*
G37*
G36*
X261793Y121737D02*
X261023D01*
X260311Y121442D01*
X259766Y120897D01*
X259471Y120185D01*
Y119415D01*
X259766Y118702D01*
X260311Y118157D01*
X261023Y117863D01*
X261793D01*
X262505Y118157D01*
X263050Y118702D01*
X263345Y119415D01*
Y120185D01*
X263050Y120897D01*
X262505Y121442D01*
X261793Y121737D01*
D02*
G37*
G36*
X234120Y119300D02*
X232500D01*
Y117680D01*
X233218Y117977D01*
X233823Y118582D01*
X234120Y119300D01*
D02*
G37*
G36*
X231500D02*
X229880D01*
X230177Y118582D01*
X230782Y117977D01*
X231500Y117680D01*
Y119300D01*
D02*
G37*
G36*
X248738Y120519D02*
X247967D01*
X247255Y120225D01*
X246710Y119680D01*
X246415Y118967D01*
Y118197D01*
X246710Y117485D01*
X247255Y116940D01*
X247967Y116645D01*
X248738D01*
X249450Y116940D01*
X249995Y117485D01*
X250290Y118197D01*
Y118967D01*
X249995Y119680D01*
X249450Y120225D01*
X248738Y120519D01*
D02*
G37*
G36*
X261793Y113543D02*
X261023D01*
X260311Y113248D01*
X259766Y112703D01*
X259471Y111991D01*
Y111220D01*
X259766Y110508D01*
X260311Y109963D01*
X261023Y109668D01*
X261793D01*
X262505Y109963D01*
X263050Y110508D01*
X263345Y111220D01*
Y111991D01*
X263050Y112703D01*
X262505Y113248D01*
X261793Y113543D01*
D02*
G37*
G36*
X237991Y113311D02*
X237221D01*
X236509Y113016D01*
X235964Y112471D01*
X235669Y111759D01*
Y110988D01*
X235964Y110276D01*
X236509Y109731D01*
X237221Y109436D01*
X237991D01*
X238703Y109731D01*
X239248Y110276D01*
X239543Y110988D01*
Y111759D01*
X239248Y112471D01*
X238703Y113016D01*
X237991Y113311D01*
D02*
G37*
G36*
X221058Y110482D02*
X220287D01*
X219575Y110187D01*
X219030Y109642D01*
X218735Y108930D01*
Y108159D01*
X219030Y107447D01*
X219575Y106902D01*
X220287Y106607D01*
X221058D01*
X221770Y106902D01*
X222315Y107447D01*
X222610Y108159D01*
Y108930D01*
X222315Y109642D01*
X221770Y110187D01*
X221058Y110482D01*
D02*
G37*
G36*
X262221Y93737D02*
X261450D01*
X260738Y93442D01*
X260193Y92897D01*
X259898Y92185D01*
Y91415D01*
X260193Y90702D01*
X260738Y90158D01*
X261450Y89863D01*
X262221D01*
X262933Y90158D01*
X263478Y90702D01*
X263773Y91415D01*
Y92185D01*
X263478Y92897D01*
X262933Y93442D01*
X262221Y93737D01*
D02*
G37*
G36*
X282565Y91091D02*
X281435D01*
X280344Y90799D01*
X279365Y90234D01*
X278566Y89435D01*
X278001Y88456D01*
X277709Y87365D01*
Y86235D01*
X278001Y85144D01*
X278566Y84165D01*
X279365Y83366D01*
X280344Y82801D01*
X281435Y82509D01*
X282565D01*
X283656Y82801D01*
X284635Y83366D01*
X285434Y84165D01*
X285999Y85144D01*
X286291Y86235D01*
Y87365D01*
X285999Y88456D01*
X285434Y89435D01*
X284635Y90234D01*
X283656Y90799D01*
X282565Y91091D01*
D02*
G37*
G36*
X43565D02*
X42435D01*
X41344Y90799D01*
X40365Y90234D01*
X39566Y89435D01*
X39001Y88456D01*
X38709Y87365D01*
Y86235D01*
X39001Y85144D01*
X39566Y84165D01*
X40365Y83366D01*
X41344Y82801D01*
X42435Y82509D01*
X43565D01*
X44656Y82801D01*
X45635Y83366D01*
X46434Y84165D01*
X46999Y85144D01*
X47291Y86235D01*
Y87365D01*
X46999Y88456D01*
X46434Y89435D01*
X45635Y90234D01*
X44656Y90799D01*
X43565Y91091D01*
D02*
G37*
G36*
X191700Y75620D02*
Y74000D01*
X193320D01*
X193023Y74718D01*
X192418Y75323D01*
X191700Y75620D01*
D02*
G37*
G36*
X190700D02*
X189982Y75323D01*
X189377Y74718D01*
X189080Y74000D01*
X190700D01*
Y75620D01*
D02*
G37*
G36*
X163300Y75505D02*
Y73885D01*
X164920D01*
X164623Y74603D01*
X164018Y75208D01*
X163300Y75505D01*
D02*
G37*
G36*
X162300D02*
X161582Y75208D01*
X160977Y74603D01*
X160680Y73885D01*
X162300D01*
Y75505D01*
D02*
G37*
G36*
X193320Y73000D02*
X191700D01*
Y71380D01*
X192418Y71677D01*
X193023Y72282D01*
X193320Y73000D01*
D02*
G37*
G36*
X190700D02*
X189080D01*
X189377Y72282D01*
X189982Y71677D01*
X190700Y71380D01*
Y73000D01*
D02*
G37*
G36*
X164920Y72885D02*
X163300D01*
Y71265D01*
X164018Y71562D01*
X164623Y72167D01*
X164920Y72885D01*
D02*
G37*
G36*
X162300D02*
X160680D01*
X160977Y72167D01*
X161582Y71562D01*
X162300Y71265D01*
Y72885D01*
D02*
G37*
G36*
X220139Y39132D02*
Y35950D01*
X223321D01*
X223109Y36741D01*
X222584Y37651D01*
X221840Y38394D01*
X220930Y38920D01*
X220139Y39132D01*
D02*
G37*
G36*
X218639D02*
X217848Y38920D01*
X216938Y38394D01*
X216195Y37651D01*
X215669Y36741D01*
X215457Y35950D01*
X218639D01*
Y39132D01*
D02*
G37*
G36*
X123139D02*
Y35950D01*
X126321D01*
X126109Y36741D01*
X125584Y37651D01*
X124840Y38394D01*
X123930Y38920D01*
X123139Y39132D01*
D02*
G37*
G36*
X121639D02*
X120848Y38920D01*
X119938Y38394D01*
X119194Y37651D01*
X118669Y36741D01*
X118457Y35950D01*
X121639D01*
Y39132D01*
D02*
G37*
G36*
X234980Y38980D02*
X227420D01*
Y31420D01*
X234980D01*
Y38980D01*
D02*
G37*
G36*
X137979D02*
X130420D01*
Y31420D01*
X137979D01*
Y38980D01*
D02*
G37*
G36*
X223321Y34450D02*
X220139D01*
Y31268D01*
X220930Y31480D01*
X221840Y32006D01*
X222584Y32749D01*
X223109Y33659D01*
X223321Y34450D01*
D02*
G37*
G36*
X218639D02*
X215457D01*
X215669Y33659D01*
X216195Y32749D01*
X216938Y32006D01*
X217848Y31480D01*
X218639Y31268D01*
Y34450D01*
D02*
G37*
G36*
X126321D02*
X123139D01*
Y31268D01*
X123930Y31480D01*
X124840Y32006D01*
X125584Y32749D01*
X126109Y33659D01*
X126321Y34450D01*
D02*
G37*
G36*
X121639D02*
X118457D01*
X118669Y33659D01*
X119194Y32749D01*
X119938Y32006D01*
X120848Y31480D01*
X121639Y31268D01*
Y34450D01*
D02*
G37*
G36*
X243444Y30771D02*
X242578D01*
X241742Y30547D01*
X240992Y30114D01*
X240380Y29502D01*
X239948Y28752D01*
X239724Y27916D01*
Y27051D01*
X239948Y26215D01*
X240380Y25465D01*
X240992Y24853D01*
X241742Y24420D01*
X242578Y24196D01*
X243444D01*
X244280Y24420D01*
X245029Y24853D01*
X245642Y25465D01*
X246074Y26215D01*
X246298Y27051D01*
Y27916D01*
X246074Y28752D01*
X245642Y29502D01*
X245029Y30114D01*
X244280Y30547D01*
X243444Y30771D01*
D02*
G37*
G36*
X208011D02*
X207145D01*
X206309Y30547D01*
X205559Y30114D01*
X204947Y29502D01*
X204515Y28752D01*
X204291Y27916D01*
Y27051D01*
X204515Y26215D01*
X204947Y25465D01*
X205559Y24853D01*
X206309Y24420D01*
X207145Y24196D01*
X208011D01*
X208847Y24420D01*
X209596Y24853D01*
X210209Y25465D01*
X210641Y26215D01*
X210865Y27051D01*
Y27916D01*
X210641Y28752D01*
X210209Y29502D01*
X209596Y30114D01*
X208847Y30547D01*
X208011Y30771D01*
D02*
G37*
G36*
X146444D02*
X145578D01*
X144742Y30547D01*
X143992Y30114D01*
X143380Y29502D01*
X142948Y28752D01*
X142724Y27916D01*
Y27051D01*
X142948Y26215D01*
X143380Y25465D01*
X143992Y24853D01*
X144742Y24420D01*
X145578Y24196D01*
X146444D01*
X147280Y24420D01*
X148029Y24853D01*
X148642Y25465D01*
X149074Y26215D01*
X149298Y27051D01*
Y27916D01*
X149074Y28752D01*
X148642Y29502D01*
X148029Y30114D01*
X147280Y30547D01*
X146444Y30771D01*
D02*
G37*
G36*
X111011D02*
X110145D01*
X109309Y30547D01*
X108559Y30114D01*
X107947Y29502D01*
X107515Y28752D01*
X107291Y27916D01*
Y27051D01*
X107515Y26215D01*
X107947Y25465D01*
X108559Y24853D01*
X109309Y24420D01*
X110145Y24196D01*
X111011D01*
X111847Y24420D01*
X112596Y24853D01*
X113208Y25465D01*
X113641Y26215D01*
X113865Y27051D01*
Y27916D01*
X113641Y28752D01*
X113208Y29502D01*
X112596Y30114D01*
X111847Y30547D01*
X111011Y30771D01*
D02*
G37*
G36*
X334816Y28287D02*
X333184D01*
X331583Y27969D01*
X330074Y27344D01*
X328717Y26437D01*
X327563Y25283D01*
X326656Y23926D01*
X326031Y22417D01*
X325713Y20816D01*
Y19184D01*
X326031Y17583D01*
X326656Y16074D01*
X327563Y14717D01*
X328717Y13563D01*
X330074Y12656D01*
X331583Y12031D01*
X333184Y11713D01*
X334816D01*
X336417Y12031D01*
X337926Y12656D01*
X339283Y13563D01*
X340437Y14717D01*
X341344Y16074D01*
X341969Y17583D01*
X342287Y19184D01*
Y20816D01*
X341969Y22417D01*
X341344Y23926D01*
X340437Y25283D01*
X339283Y26437D01*
X337926Y27344D01*
X336417Y27969D01*
X334816Y28287D01*
D02*
G37*
G36*
X20816D02*
X19184D01*
X17583Y27969D01*
X16074Y27344D01*
X14717Y26437D01*
X13563Y25283D01*
X12656Y23926D01*
X12031Y22417D01*
X11713Y20816D01*
Y19184D01*
X12031Y17583D01*
X12656Y16074D01*
X13563Y14717D01*
X14717Y13563D01*
X16074Y12656D01*
X17583Y12031D01*
X19184Y11713D01*
X20816D01*
X22417Y12031D01*
X23926Y12656D01*
X25283Y13563D01*
X26437Y14717D01*
X27344Y16074D01*
X27969Y17583D01*
X28287Y19184D01*
Y20816D01*
X27969Y22417D01*
X27344Y23926D01*
X26437Y25283D01*
X25283Y26437D01*
X23926Y27344D01*
X22417Y27969D01*
X20816Y28287D01*
D02*
G37*
%LPD*%
D53*
X282000Y86800D02*
D03*
Y266800D02*
D03*
X43000D02*
D03*
Y86800D02*
D03*
D54*
X147000Y152192D02*
D03*
Y142350D02*
D03*
Y132507D02*
D03*
D55*
X140701Y158492D02*
D03*
D56*
X132000Y279300D02*
D03*
D57*
X117000D02*
D03*
D58*
X207578Y27483D02*
D03*
X243011D02*
D03*
X243022Y326217D02*
D03*
X207589D02*
D03*
X146011Y27483D02*
D03*
X110578D02*
D03*
D59*
X219389Y35200D02*
D03*
X231211Y318500D02*
D03*
X122389Y35200D02*
D03*
D60*
X231200D02*
D03*
X219400Y318500D02*
D03*
X134200Y35200D02*
D03*
D61*
X190539Y318655D02*
D03*
X163138D02*
D03*
D62*
X20000Y20000D02*
D03*
X334000D02*
D03*
Y334000D02*
D03*
X20000D02*
D03*
D63*
X76643Y239750D02*
D03*
X94994Y239806D02*
D03*
X81183Y243337D02*
D03*
X98385D02*
D03*
X186746Y300531D02*
D03*
X210975Y262764D02*
D03*
X196751Y272343D02*
D03*
X200684Y268951D02*
D03*
X167066Y287939D02*
D03*
X186975Y288026D02*
D03*
X191200Y73500D02*
D03*
X162800Y73385D02*
D03*
X213700Y275000D02*
D03*
X261361Y131739D02*
D03*
X261408Y119800D02*
D03*
Y111606D02*
D03*
X261836Y91800D02*
D03*
X237606Y111373D02*
D03*
X84223Y229284D02*
D03*
X65907Y229035D02*
D03*
X260714Y151764D02*
D03*
X260839Y161800D02*
D03*
X188540Y251028D02*
D03*
X160159Y250397D02*
D03*
X33059Y279500D02*
D03*
X168071Y301332D02*
D03*
X291941Y279300D02*
D03*
X272059D02*
D03*
X52952Y279436D02*
D03*
X180639Y288026D02*
D03*
X172961Y287976D02*
D03*
X232000Y119800D02*
D03*
X220672Y108544D02*
D03*
X63536Y136700D02*
D03*
X80028Y177800D02*
D03*
X76100Y128500D02*
D03*
X101078Y193400D02*
D03*
X62604Y221800D02*
D03*
X83618Y222153D02*
D03*
X219582Y259800D02*
D03*
X230656Y250100D02*
D03*
X220800D02*
D03*
X220800Y233020D02*
D03*
X168071Y311542D02*
D03*
X260839Y219800D02*
D03*
X61386Y251800D02*
D03*
Y161800D02*
D03*
Y153800D02*
D03*
X248353Y118582D02*
D03*
X83618Y213700D02*
D03*
X72600Y247278D02*
D03*
X24118Y261597D02*
D03*
X260900Y191800D02*
D03*
X260839Y201800D02*
D03*
Y211800D02*
D03*
X82400Y234300D02*
D03*
X260864Y231832D02*
D03*
Y241950D02*
D03*
X260764Y251793D02*
D03*
X260839Y261800D02*
D03*
X61386Y143373D02*
D03*
Y191800D02*
D03*
Y171800D02*
D03*
X24100Y251800D02*
D03*
X61386Y231800D02*
D03*
Y261800D02*
D03*
X200300Y280767D02*
D03*
M02*
