G04*
G04 #@! TF.GenerationSoftware,Altium Limited,Altium Designer,23.11.1 (41)*
G04*
G04 Layer_Physical_Order=4*
G04 Layer_Color=16711680*
%FSLAX25Y25*%
%MOIN*%
G70*
G04*
G04 #@! TF.SameCoordinates,EDA3D6F7-09F2-47E2-B7B7-C676C2FB399E*
G04*
G04*
G04 #@! TF.FilePolarity,Positive*
G04*
G01*
G75*
%ADD14C,0.01000*%
%ADD53C,0.03504*%
%ADD54C,0.05512*%
%ADD55C,0.02362*%
%ADD56R,0.06496X0.06496*%
%ADD57C,0.06496*%
%ADD58C,0.05000*%
%ADD59C,0.05984*%
%ADD60R,0.05984X0.05984*%
%ADD61C,0.03150*%
%ADD62C,0.06000*%
%ADD63C,0.02300*%
%ADD64R,0.09016X0.05000*%
%ADD65R,0.04724X0.09449*%
%ADD66R,0.03150X0.05512*%
%ADD67C,0.01800*%
G36*
X173400Y298661D02*
Y298600D01*
X165305D01*
Y314505D01*
X173400D01*
Y298661D01*
D02*
G37*
G36*
X179263Y296425D02*
X184288Y291400D01*
Y284653D01*
X169288D01*
Y291300D01*
X174430Y296442D01*
Y309800D01*
X179263D01*
Y296425D01*
D02*
G37*
%LPC*%
G36*
X168821Y313559D02*
Y312292D01*
X170087D01*
X169893Y312760D01*
X169289Y313365D01*
X168821Y313559D01*
D02*
G37*
G36*
X167321D02*
X166853Y313365D01*
X166248Y312760D01*
X166054Y312292D01*
X167321D01*
Y313559D01*
D02*
G37*
G36*
X170087Y310792D02*
X168821D01*
Y309526D01*
X169289Y309720D01*
X169893Y310324D01*
X170087Y310792D01*
D02*
G37*
G36*
X167321D02*
X166054D01*
X166248Y310324D01*
X166853Y309720D01*
X167321Y309526D01*
Y310792D01*
D02*
G37*
G36*
X168821Y303348D02*
Y302082D01*
X170087D01*
X169893Y302550D01*
X169289Y303154D01*
X168821Y303348D01*
D02*
G37*
G36*
X167321D02*
X166853Y303154D01*
X166248Y302550D01*
X166054Y302082D01*
X167321D01*
Y303348D01*
D02*
G37*
G36*
X170087Y300582D02*
X168821D01*
Y299315D01*
X169289Y299509D01*
X169893Y300114D01*
X170087Y300582D01*
D02*
G37*
G36*
X167321D02*
X166054D01*
X166248Y300114D01*
X166853Y299509D01*
X167321Y299315D01*
Y300582D01*
D02*
G37*
G36*
X181389Y290043D02*
Y288776D01*
X182655D01*
X182461Y289244D01*
X181857Y289849D01*
X181389Y290043D01*
D02*
G37*
G36*
X179889D02*
X179421Y289849D01*
X178816Y289244D01*
X178622Y288776D01*
X179889D01*
Y290043D01*
D02*
G37*
G36*
X173711Y289993D02*
Y288726D01*
X174978D01*
X174784Y289194D01*
X174179Y289799D01*
X173711Y289993D01*
D02*
G37*
G36*
X172211D02*
X171744Y289799D01*
X171139Y289194D01*
X170945Y288726D01*
X172211D01*
Y289993D01*
D02*
G37*
G36*
X182655Y287276D02*
X181389D01*
Y286010D01*
X181857Y286204D01*
X182461Y286808D01*
X182655Y287276D01*
D02*
G37*
G36*
X179889D02*
X178622D01*
X178816Y286808D01*
X179421Y286204D01*
X179889Y286010D01*
Y287276D01*
D02*
G37*
G36*
X174978Y287226D02*
X173711D01*
Y285960D01*
X174179Y286154D01*
X174784Y286758D01*
X174978Y287226D01*
D02*
G37*
G36*
X172211D02*
X170945D01*
X171139Y286758D01*
X171744Y286154D01*
X172211Y285960D01*
Y287226D01*
D02*
G37*
%LPD*%
D14*
X80128Y229117D02*
Y232028D01*
X76511Y225500D02*
X80128Y229117D01*
X58649Y225500D02*
X76511D01*
X47759Y217100D02*
X72039D01*
X84223Y229284D01*
X54478Y243337D02*
X98385D01*
X52941Y241800D02*
X54478Y243337D01*
X54949Y81800D02*
X58649Y78100D01*
X190228D02*
X220672Y108544D01*
X58649Y78100D02*
X190228D01*
X261121Y141800D02*
X272059D01*
X261400Y131800D02*
X272059D01*
X270059Y119800D02*
X272059Y121800D01*
X261408Y119800D02*
X270059D01*
X261408Y111606D02*
X271865D01*
X248518Y118582D02*
X265300Y101800D01*
X248353Y118582D02*
X248518D01*
X265300Y101800D02*
X272059D01*
X261836Y91800D02*
X272059D01*
X237606Y118285D02*
X261121Y141800D01*
X237606Y111373D02*
Y118285D01*
X34473Y241800D02*
X36473Y239800D01*
Y238386D02*
X47365Y227495D01*
X64366D01*
X33059Y241800D02*
X34473D01*
X36473Y238386D02*
Y239800D01*
X64366Y227495D02*
X65907Y229035D01*
X34473Y231800D02*
X36473Y229800D01*
Y228386D02*
X47759Y217100D01*
X33059Y231800D02*
X34473D01*
X36473Y228386D02*
Y229800D01*
X80128Y232028D02*
X82400Y234300D01*
X54949Y221800D02*
X58649Y225500D01*
X52941Y221800D02*
X53041Y221700D01*
X260839Y151800D02*
X272059D01*
X260839Y161800D02*
X272059D01*
X35059Y79800D02*
X50941D01*
X181838Y305466D02*
Y306647D01*
X220672Y108544D02*
X220736Y108608D01*
Y232957D02*
X220800Y233020D01*
X220736Y108608D02*
Y232957D01*
X58949Y177800D02*
X80028D01*
X83618Y99836D02*
Y213700D01*
X54949Y181800D02*
X58949Y177800D01*
X65582Y81800D02*
X83618Y99836D01*
X52941Y221800D02*
X54949D01*
X260839Y219800D02*
X270059D01*
X272059Y221800D01*
Y81800D02*
X274059Y79800D01*
X289941D01*
X291941Y81800D01*
X54949D02*
X76100Y102951D01*
X50941Y79800D02*
X52941Y81800D01*
X33059D02*
X35059Y79800D01*
X52941Y81800D02*
X54949D01*
X66186Y257000D02*
X70100D01*
X72600Y254500D01*
X61386Y261800D02*
X66186Y257000D01*
X72600Y247278D02*
Y254500D01*
X52941Y251800D02*
X61386D01*
X52941Y161800D02*
X61386D01*
X54941Y153800D02*
X61386D01*
X271865Y111606D02*
X272059Y111800D01*
X52941Y261800D02*
X61386D01*
X32856Y261597D02*
X33059Y261800D01*
X24118Y261597D02*
X32856D01*
X260839Y201800D02*
X272059D01*
X260800D02*
X260839D01*
Y211800D02*
X272059D01*
X260800D02*
X260839D01*
X260900Y191800D02*
X272059D01*
X54949Y81800D02*
X65582D01*
X76100Y102951D02*
Y128500D01*
X260939Y231800D02*
X272059D01*
X260939Y241800D02*
X272059D01*
X260939Y251800D02*
X272059D01*
X260839Y261800D02*
X272059D01*
X54514Y143373D02*
X61386D01*
X52941Y141800D02*
X54514Y143373D01*
X52941Y191800D02*
X61386D01*
X52941Y171800D02*
X61386D01*
X52941Y181800D02*
X54949D01*
X52941Y151800D02*
X54941Y153800D01*
X24100Y251800D02*
X33059D01*
X52941Y231800D02*
X61386D01*
X50933Y261800D02*
X52941D01*
D53*
X282000Y86800D02*
D03*
Y266800D02*
D03*
X43000D02*
D03*
Y86800D02*
D03*
D54*
X147000Y152192D02*
D03*
Y142350D02*
D03*
Y132507D02*
D03*
D55*
X140701Y158492D02*
D03*
D56*
X132000Y279300D02*
D03*
D57*
X117000D02*
D03*
D58*
X207578Y27483D02*
D03*
X243011D02*
D03*
X243022Y326217D02*
D03*
X207589D02*
D03*
X146011Y27483D02*
D03*
X110578D02*
D03*
D59*
X219389Y35200D02*
D03*
X231211Y318500D02*
D03*
X122389Y35200D02*
D03*
D60*
X231200D02*
D03*
X219400Y318500D02*
D03*
X134200Y35200D02*
D03*
D61*
X190539Y318655D02*
D03*
X163138D02*
D03*
D62*
X20000Y20000D02*
D03*
X334000D02*
D03*
Y334000D02*
D03*
X20000D02*
D03*
D63*
X76643Y239750D02*
D03*
X94994Y239806D02*
D03*
X81183Y243337D02*
D03*
X98385D02*
D03*
X186746Y300531D02*
D03*
X210975Y262764D02*
D03*
X196751Y272343D02*
D03*
X200684Y268951D02*
D03*
X167066Y287939D02*
D03*
X186975Y288026D02*
D03*
X191200Y73500D02*
D03*
X162800Y73385D02*
D03*
X213700Y275000D02*
D03*
X261361Y131739D02*
D03*
X261408Y119800D02*
D03*
Y111606D02*
D03*
X261836Y91800D02*
D03*
X237606Y111373D02*
D03*
X84223Y229284D02*
D03*
X65907Y229035D02*
D03*
X260714Y151764D02*
D03*
X260839Y161800D02*
D03*
X188540Y251028D02*
D03*
X160159Y250397D02*
D03*
X33059Y279500D02*
D03*
X168071Y301332D02*
D03*
X291941Y279300D02*
D03*
X272059D02*
D03*
X52952Y279436D02*
D03*
X180639Y288026D02*
D03*
X172961Y287976D02*
D03*
X232000Y119800D02*
D03*
X220672Y108544D02*
D03*
X63536Y136700D02*
D03*
X80028Y177800D02*
D03*
X76100Y128500D02*
D03*
X101078Y193400D02*
D03*
X62604Y221800D02*
D03*
X83618Y222153D02*
D03*
X219582Y259800D02*
D03*
X230656Y250100D02*
D03*
X220800D02*
D03*
X220800Y233020D02*
D03*
X168071Y311542D02*
D03*
X260839Y219800D02*
D03*
X61386Y251800D02*
D03*
Y161800D02*
D03*
Y153800D02*
D03*
X248353Y118582D02*
D03*
X83618Y213700D02*
D03*
X72600Y247278D02*
D03*
X24118Y261597D02*
D03*
X260900Y191800D02*
D03*
X260839Y201800D02*
D03*
Y211800D02*
D03*
X82400Y234300D02*
D03*
X260864Y231832D02*
D03*
Y241950D02*
D03*
X260764Y251793D02*
D03*
X260839Y261800D02*
D03*
X61386Y143373D02*
D03*
Y191800D02*
D03*
Y171800D02*
D03*
X24100Y251800D02*
D03*
X61386Y231800D02*
D03*
Y261800D02*
D03*
X200300Y280767D02*
D03*
D64*
X291941Y261800D02*
D03*
Y251800D02*
D03*
Y241800D02*
D03*
Y231800D02*
D03*
Y221800D02*
D03*
Y211800D02*
D03*
Y201800D02*
D03*
Y191800D02*
D03*
Y181800D02*
D03*
Y171800D02*
D03*
Y151800D02*
D03*
Y141800D02*
D03*
Y131800D02*
D03*
Y121800D02*
D03*
Y111800D02*
D03*
Y101800D02*
D03*
Y91800D02*
D03*
Y161800D02*
D03*
X272059Y261800D02*
D03*
Y251800D02*
D03*
Y241800D02*
D03*
Y231800D02*
D03*
Y221800D02*
D03*
Y211800D02*
D03*
Y201800D02*
D03*
Y191800D02*
D03*
Y181800D02*
D03*
Y171800D02*
D03*
Y161800D02*
D03*
Y151800D02*
D03*
Y121800D02*
D03*
Y91800D02*
D03*
Y101800D02*
D03*
Y111800D02*
D03*
Y141800D02*
D03*
Y131800D02*
D03*
X291941Y81800D02*
D03*
X272059D02*
D03*
X291941Y271800D02*
D03*
X272059D02*
D03*
X33059Y221800D02*
D03*
Y211800D02*
D03*
Y201800D02*
D03*
Y191800D02*
D03*
Y181800D02*
D03*
Y171800D02*
D03*
Y161800D02*
D03*
Y151800D02*
D03*
Y121800D02*
D03*
Y111800D02*
D03*
Y91800D02*
D03*
Y101800D02*
D03*
Y141800D02*
D03*
Y131800D02*
D03*
Y261800D02*
D03*
X52941D02*
D03*
Y251800D02*
D03*
Y241800D02*
D03*
Y231800D02*
D03*
Y221800D02*
D03*
Y211800D02*
D03*
Y201800D02*
D03*
Y191800D02*
D03*
Y181800D02*
D03*
Y171800D02*
D03*
Y161800D02*
D03*
Y151800D02*
D03*
Y141800D02*
D03*
Y131800D02*
D03*
Y121800D02*
D03*
Y111800D02*
D03*
Y101800D02*
D03*
Y91800D02*
D03*
X33059Y251800D02*
D03*
Y241800D02*
D03*
Y231800D02*
D03*
Y271800D02*
D03*
X52941D02*
D03*
X33059Y81800D02*
D03*
X52941D02*
D03*
D65*
X191720Y308812D02*
D03*
Y328497D02*
D03*
X161957D02*
D03*
Y308812D02*
D03*
D66*
X171838Y306647D02*
D03*
X176838D02*
D03*
X181838D02*
D03*
D67*
X186746Y300531D02*
Y300559D01*
X181838Y305466D02*
X186746Y300559D01*
X291941Y271800D02*
Y279300D01*
X272059Y271800D02*
Y279300D01*
X33059Y271800D02*
Y279500D01*
X52941Y271800D02*
Y279500D01*
M02*
