G04*
G04 #@! TF.GenerationSoftware,Altium Limited,Altium Designer,23.11.1 (41)*
G04*
G04 Layer_Color=16711935*
%FSLAX25Y25*%
%MOIN*%
G70*
G04*
G04 #@! TF.SameCoordinates,EDA3D6F7-09F2-47E2-B7B7-C676C2FB399E*
G04*
G04*
G04 #@! TF.FilePolarity,Negative*
G04*
G01*
G75*
%ADD41C,0.04304*%
%ADD42C,0.06312*%
%ADD43C,0.03162*%
%ADD44R,0.07296X0.07296*%
%ADD45C,0.07296*%
%ADD46C,0.05800*%
%ADD47C,0.06784*%
%ADD48R,0.06784X0.06784*%
%ADD49C,0.03950*%
%ADD50C,0.17000*%
%ADD51C,0.03100*%
%ADD68R,0.09816X0.05800*%
%ADD69R,0.05524X0.10249*%
%ADD70R,0.03950X0.06312*%
D41*
X282000Y86800D02*
D03*
Y266800D02*
D03*
X43000D02*
D03*
Y86800D02*
D03*
D42*
X147000Y152192D02*
D03*
Y142350D02*
D03*
Y132507D02*
D03*
D43*
X140701Y158492D02*
D03*
D44*
X132000Y279300D02*
D03*
D45*
X117000D02*
D03*
D46*
X207578Y27483D02*
D03*
X243011D02*
D03*
X243022Y326217D02*
D03*
X207589D02*
D03*
X146011Y27483D02*
D03*
X110578D02*
D03*
D47*
X219389Y35200D02*
D03*
X231211Y318500D02*
D03*
X122389Y35200D02*
D03*
D48*
X231200D02*
D03*
X219400Y318500D02*
D03*
X134200Y35200D02*
D03*
D49*
X190539Y318655D02*
D03*
X163138D02*
D03*
D50*
X20000Y20000D02*
D03*
X334000D02*
D03*
Y334000D02*
D03*
X20000D02*
D03*
D51*
X76643Y239750D02*
D03*
X94994Y239806D02*
D03*
X81183Y243337D02*
D03*
X98385D02*
D03*
X186746Y300531D02*
D03*
X210975Y262764D02*
D03*
X196751Y272343D02*
D03*
X200684Y268951D02*
D03*
X167066Y287939D02*
D03*
X186975Y288026D02*
D03*
X191200Y73500D02*
D03*
X162800Y73385D02*
D03*
X213700Y275000D02*
D03*
X261361Y131739D02*
D03*
X261408Y119800D02*
D03*
Y111606D02*
D03*
X261836Y91800D02*
D03*
X237606Y111373D02*
D03*
X84223Y229284D02*
D03*
X65907Y229035D02*
D03*
X260714Y151764D02*
D03*
X260839Y161800D02*
D03*
X188540Y251028D02*
D03*
X160159Y250397D02*
D03*
X33059Y279500D02*
D03*
X168071Y301332D02*
D03*
X291941Y279300D02*
D03*
X272059D02*
D03*
X52952Y279436D02*
D03*
X180639Y288026D02*
D03*
X172961Y287976D02*
D03*
X232000Y119800D02*
D03*
X220672Y108544D02*
D03*
X63536Y136700D02*
D03*
X80028Y177800D02*
D03*
X76100Y128500D02*
D03*
X101078Y193400D02*
D03*
X62604Y221800D02*
D03*
X83618Y222153D02*
D03*
X219582Y259800D02*
D03*
X230656Y250100D02*
D03*
X220800D02*
D03*
X220800Y233020D02*
D03*
X168071Y311542D02*
D03*
X260839Y219800D02*
D03*
X61386Y251800D02*
D03*
Y161800D02*
D03*
Y153800D02*
D03*
X248353Y118582D02*
D03*
X83618Y213700D02*
D03*
X72600Y247278D02*
D03*
X24118Y261597D02*
D03*
X260900Y191800D02*
D03*
X260839Y201800D02*
D03*
Y211800D02*
D03*
X82400Y234300D02*
D03*
X260864Y231832D02*
D03*
Y241950D02*
D03*
X260764Y251793D02*
D03*
X260839Y261800D02*
D03*
X61386Y143373D02*
D03*
Y191800D02*
D03*
Y171800D02*
D03*
X24100Y251800D02*
D03*
X61386Y231800D02*
D03*
Y261800D02*
D03*
X200300Y280767D02*
D03*
D68*
X291941Y261800D02*
D03*
Y251800D02*
D03*
Y241800D02*
D03*
Y231800D02*
D03*
Y221800D02*
D03*
Y211800D02*
D03*
Y201800D02*
D03*
Y191800D02*
D03*
Y181800D02*
D03*
Y171800D02*
D03*
Y151800D02*
D03*
Y141800D02*
D03*
Y131800D02*
D03*
Y121800D02*
D03*
Y111800D02*
D03*
Y101800D02*
D03*
Y91800D02*
D03*
Y161800D02*
D03*
X272059Y261800D02*
D03*
Y251800D02*
D03*
Y241800D02*
D03*
Y231800D02*
D03*
Y221800D02*
D03*
Y211800D02*
D03*
Y201800D02*
D03*
Y191800D02*
D03*
Y181800D02*
D03*
Y171800D02*
D03*
Y161800D02*
D03*
Y151800D02*
D03*
Y121800D02*
D03*
Y91800D02*
D03*
Y101800D02*
D03*
Y111800D02*
D03*
Y141800D02*
D03*
Y131800D02*
D03*
X291941Y81800D02*
D03*
X272059D02*
D03*
X291941Y271800D02*
D03*
X272059D02*
D03*
X33059Y221800D02*
D03*
Y211800D02*
D03*
Y201800D02*
D03*
Y191800D02*
D03*
Y181800D02*
D03*
Y171800D02*
D03*
Y161800D02*
D03*
Y151800D02*
D03*
Y121800D02*
D03*
Y111800D02*
D03*
Y91800D02*
D03*
Y101800D02*
D03*
Y141800D02*
D03*
Y131800D02*
D03*
Y261800D02*
D03*
X52941D02*
D03*
Y251800D02*
D03*
Y241800D02*
D03*
Y231800D02*
D03*
Y221800D02*
D03*
Y211800D02*
D03*
Y201800D02*
D03*
Y191800D02*
D03*
Y181800D02*
D03*
Y171800D02*
D03*
Y161800D02*
D03*
Y151800D02*
D03*
Y141800D02*
D03*
Y131800D02*
D03*
Y121800D02*
D03*
Y111800D02*
D03*
Y101800D02*
D03*
Y91800D02*
D03*
X33059Y251800D02*
D03*
Y241800D02*
D03*
Y231800D02*
D03*
Y271800D02*
D03*
X52941D02*
D03*
X33059Y81800D02*
D03*
X52941D02*
D03*
D69*
X191720Y308812D02*
D03*
Y328497D02*
D03*
X161957D02*
D03*
Y308812D02*
D03*
D70*
X171838Y306647D02*
D03*
X176838D02*
D03*
X181838D02*
D03*
M02*
