G04*
G04 #@! TF.GenerationSoftware,Altium Limited,Altium Designer,23.11.1 (41)*
G04*
G04 Layer_Color=8388736*
%FSLAX25Y25*%
%MOIN*%
G70*
G04*
G04 #@! TF.SameCoordinates,EDA3D6F7-09F2-47E2-B7B7-C676C2FB399E*
G04*
G04*
G04 #@! TF.FilePolarity,Negative*
G04*
G01*
G75*
%ADD28R,0.01778X0.01581*%
%ADD29R,0.01581X0.01778*%
%ADD30R,0.01578X0.02464*%
%ADD31R,0.02464X0.01578*%
%ADD32R,0.04343X0.03950*%
%ADD33R,0.03556X0.04343*%
%ADD34R,0.02172X0.06207*%
%ADD35R,0.12998X0.07880*%
%ADD36R,0.04343X0.03556*%
%ADD37R,0.05603X0.05209*%
%ADD38R,0.03950X0.04343*%
%ADD39R,0.03556X0.08398*%
%ADD40R,0.04540X0.02965*%
%ADD41C,0.04304*%
%ADD42C,0.06312*%
%ADD43C,0.03162*%
%ADD44R,0.07296X0.07296*%
%ADD45C,0.07296*%
%ADD46C,0.05800*%
%ADD47C,0.06784*%
%ADD48R,0.06784X0.06784*%
%ADD49C,0.03950*%
%ADD50C,0.17000*%
%ADD51C,0.03100*%
D28*
X69450Y232416D02*
D03*
X75750D02*
D03*
Y234384D02*
D03*
X94100Y232416D02*
D03*
Y234384D02*
D03*
X87801D02*
D03*
Y232416D02*
D03*
X69450Y234384D02*
D03*
D29*
X70631Y230250D02*
D03*
X72600D02*
D03*
X74568D02*
D03*
Y236550D02*
D03*
X72600D02*
D03*
X70631D02*
D03*
X92919D02*
D03*
X90950D02*
D03*
X88982D02*
D03*
Y230250D02*
D03*
X90950D02*
D03*
X92919D02*
D03*
D30*
X248353Y110279D02*
D03*
X246384D02*
D03*
X244416D02*
D03*
X242447D02*
D03*
Y101121D02*
D03*
X244416D02*
D03*
X246384D02*
D03*
X248353D02*
D03*
D31*
X241806Y107668D02*
D03*
Y105700D02*
D03*
Y103732D02*
D03*
X248994D02*
D03*
Y105700D02*
D03*
Y107668D02*
D03*
D32*
X232000Y114184D02*
D03*
Y108672D02*
D03*
X220800Y239244D02*
D03*
Y244756D02*
D03*
X230656Y239244D02*
D03*
Y244756D02*
D03*
D33*
X200647Y262764D02*
D03*
X206553D02*
D03*
X152853Y266000D02*
D03*
X146947D02*
D03*
X152853Y272500D02*
D03*
X146947D02*
D03*
D34*
X160166Y258481D02*
D03*
X162725D02*
D03*
X165284D02*
D03*
X167843D02*
D03*
X170402D02*
D03*
X172961D02*
D03*
X175521D02*
D03*
X178079D02*
D03*
X180639D02*
D03*
X183198D02*
D03*
X185757D02*
D03*
X188316D02*
D03*
X190875D02*
D03*
X193434D02*
D03*
Y281614D02*
D03*
X190875D02*
D03*
X188316D02*
D03*
X185757D02*
D03*
X183198D02*
D03*
X180639D02*
D03*
X178079D02*
D03*
X175521D02*
D03*
X172961D02*
D03*
X170402D02*
D03*
X167843D02*
D03*
X165284D02*
D03*
X162725D02*
D03*
X160166D02*
D03*
D35*
X176800Y270048D02*
D03*
D36*
X187322Y244153D02*
D03*
Y238247D02*
D03*
X166800Y244053D02*
D03*
Y238147D02*
D03*
X174000Y244153D02*
D03*
Y238247D02*
D03*
X180639Y244153D02*
D03*
Y238247D02*
D03*
X194800Y244153D02*
D03*
Y238247D02*
D03*
D37*
X191300Y54801D02*
D03*
Y67399D02*
D03*
X213700Y292799D02*
D03*
Y280201D02*
D03*
X162800Y54801D02*
D03*
Y67399D02*
D03*
D38*
X69444Y136700D02*
D03*
X74956D02*
D03*
X224944Y259800D02*
D03*
X230456D02*
D03*
X88485Y222153D02*
D03*
X93997D02*
D03*
X73387Y221800D02*
D03*
X67876D02*
D03*
D39*
X71100Y148157D02*
D03*
X76100D02*
D03*
X81100D02*
D03*
X86100D02*
D03*
X91100D02*
D03*
X96100D02*
D03*
X101100D02*
D03*
X106100D02*
D03*
Y185243D02*
D03*
X101100D02*
D03*
X96100D02*
D03*
X91100D02*
D03*
X86100D02*
D03*
X81100D02*
D03*
X76100D02*
D03*
X71100D02*
D03*
D40*
X248935Y239418D02*
D03*
Y244339D02*
D03*
Y254182D02*
D03*
Y249261D02*
D03*
X240865Y239418D02*
D03*
Y244339D02*
D03*
Y249261D02*
D03*
Y254182D02*
D03*
D41*
X282000Y86800D02*
D03*
Y266800D02*
D03*
X43000D02*
D03*
Y86800D02*
D03*
D42*
X147000Y152192D02*
D03*
Y142350D02*
D03*
Y132507D02*
D03*
D43*
X140701Y158492D02*
D03*
D44*
X132000Y279300D02*
D03*
D45*
X117000D02*
D03*
D46*
X207578Y27483D02*
D03*
X243011D02*
D03*
X243022Y326217D02*
D03*
X207589D02*
D03*
X146011Y27483D02*
D03*
X110578D02*
D03*
D47*
X219389Y35200D02*
D03*
X231211Y318500D02*
D03*
X122389Y35200D02*
D03*
D48*
X231200D02*
D03*
X219400Y318500D02*
D03*
X134200Y35200D02*
D03*
D49*
X190539Y318655D02*
D03*
X163138D02*
D03*
D50*
X20000Y20000D02*
D03*
X334000D02*
D03*
Y334000D02*
D03*
X20000D02*
D03*
D51*
X76643Y239750D02*
D03*
X94994Y239806D02*
D03*
X81183Y243337D02*
D03*
X98385D02*
D03*
X186746Y300531D02*
D03*
X210975Y262764D02*
D03*
X196751Y272343D02*
D03*
X200684Y268951D02*
D03*
X167066Y287939D02*
D03*
X186975Y288026D02*
D03*
X191200Y73500D02*
D03*
X162800Y73385D02*
D03*
X213700Y275000D02*
D03*
X261361Y131739D02*
D03*
X261408Y119800D02*
D03*
Y111606D02*
D03*
X261836Y91800D02*
D03*
X237606Y111373D02*
D03*
X84223Y229284D02*
D03*
X65907Y229035D02*
D03*
X260714Y151764D02*
D03*
X260839Y161800D02*
D03*
X188540Y251028D02*
D03*
X160159Y250397D02*
D03*
X33059Y279500D02*
D03*
X168071Y301332D02*
D03*
X291941Y279300D02*
D03*
X272059D02*
D03*
X52952Y279436D02*
D03*
X180639Y288026D02*
D03*
X172961Y287976D02*
D03*
X232000Y119800D02*
D03*
X220672Y108544D02*
D03*
X63536Y136700D02*
D03*
X80028Y177800D02*
D03*
X76100Y128500D02*
D03*
X101078Y193400D02*
D03*
X62604Y221800D02*
D03*
X83618Y222153D02*
D03*
X219582Y259800D02*
D03*
X230656Y250100D02*
D03*
X220800D02*
D03*
X220800Y233020D02*
D03*
X168071Y311542D02*
D03*
X260839Y219800D02*
D03*
X61386Y251800D02*
D03*
Y161800D02*
D03*
Y153800D02*
D03*
X248353Y118582D02*
D03*
X83618Y213700D02*
D03*
X72600Y247278D02*
D03*
X24118Y261597D02*
D03*
X260900Y191800D02*
D03*
X260839Y201800D02*
D03*
Y211800D02*
D03*
X82400Y234300D02*
D03*
X260864Y231832D02*
D03*
Y241950D02*
D03*
X260764Y251793D02*
D03*
X260839Y261800D02*
D03*
X61386Y143373D02*
D03*
Y191800D02*
D03*
Y171800D02*
D03*
X24100Y251800D02*
D03*
X61386Y231800D02*
D03*
Y261800D02*
D03*
X200300Y280767D02*
D03*
M02*
