G04*
G04 #@! TF.GenerationSoftware,Altium Limited,Altium Designer,23.11.1 (41)*
G04*
G04 Layer_Color=8421504*
%FSLAX25Y25*%
%MOIN*%
G70*
G04*
G04 #@! TF.SameCoordinates,EDA3D6F7-09F2-47E2-B7B7-C676C2FB399E*
G04*
G04*
G04 #@! TF.FilePolarity,Positive*
G04*
G01*
G75*
%ADD15R,0.01378X0.01181*%
%ADD16R,0.01181X0.01378*%
%ADD17R,0.01378X0.02264*%
%ADD18R,0.02264X0.01378*%
%ADD19R,0.03543X0.03150*%
%ADD20R,0.02756X0.03543*%
%ADD21R,0.01772X0.05807*%
%ADD22R,0.12598X0.07480*%
%ADD23R,0.03543X0.02756*%
%ADD24R,0.04803X0.04409*%
%ADD25R,0.03150X0.03543*%
%ADD26R,0.02756X0.07598*%
%ADD27R,0.03740X0.02165*%
D15*
X69450Y232416D02*
D03*
X75750D02*
D03*
Y234384D02*
D03*
X94100Y232416D02*
D03*
Y234384D02*
D03*
X87801D02*
D03*
Y232416D02*
D03*
X69450Y234384D02*
D03*
D16*
X70631Y230250D02*
D03*
X72600D02*
D03*
X74568D02*
D03*
Y236550D02*
D03*
X72600D02*
D03*
X70631D02*
D03*
X92919D02*
D03*
X90950D02*
D03*
X88982D02*
D03*
Y230250D02*
D03*
X90950D02*
D03*
X92919D02*
D03*
D17*
X248353Y110279D02*
D03*
X246384D02*
D03*
X244416D02*
D03*
X242447D02*
D03*
Y101121D02*
D03*
X244416D02*
D03*
X246384D02*
D03*
X248353D02*
D03*
D18*
X241806Y107668D02*
D03*
Y105700D02*
D03*
Y103732D02*
D03*
X248994D02*
D03*
Y105700D02*
D03*
Y107668D02*
D03*
D19*
X232000Y114184D02*
D03*
Y108672D02*
D03*
X220800Y239244D02*
D03*
Y244756D02*
D03*
X230656Y239244D02*
D03*
Y244756D02*
D03*
D20*
X200647Y262764D02*
D03*
X206553D02*
D03*
X152853Y266000D02*
D03*
X146947D02*
D03*
X152853Y272500D02*
D03*
X146947D02*
D03*
D21*
X160166Y258481D02*
D03*
X162725D02*
D03*
X165284D02*
D03*
X167843D02*
D03*
X170402D02*
D03*
X172961D02*
D03*
X175521D02*
D03*
X178079D02*
D03*
X180639D02*
D03*
X183198D02*
D03*
X185757D02*
D03*
X188316D02*
D03*
X190875D02*
D03*
X193434D02*
D03*
Y281614D02*
D03*
X190875D02*
D03*
X188316D02*
D03*
X185757D02*
D03*
X183198D02*
D03*
X180639D02*
D03*
X178079D02*
D03*
X175521D02*
D03*
X172961D02*
D03*
X170402D02*
D03*
X167843D02*
D03*
X165284D02*
D03*
X162725D02*
D03*
X160166D02*
D03*
D22*
X176800Y270048D02*
D03*
D23*
X187322Y244153D02*
D03*
Y238247D02*
D03*
X166800Y244053D02*
D03*
Y238147D02*
D03*
X174000Y244153D02*
D03*
Y238247D02*
D03*
X180639Y244153D02*
D03*
Y238247D02*
D03*
X194800Y244153D02*
D03*
Y238247D02*
D03*
D24*
X191300Y54801D02*
D03*
Y67399D02*
D03*
X213700Y292799D02*
D03*
Y280201D02*
D03*
X162800Y54801D02*
D03*
Y67399D02*
D03*
D25*
X69444Y136700D02*
D03*
X74956D02*
D03*
X224944Y259800D02*
D03*
X230456D02*
D03*
X88485Y222153D02*
D03*
X93997D02*
D03*
X73387Y221800D02*
D03*
X67876D02*
D03*
D26*
X71100Y148157D02*
D03*
X76100D02*
D03*
X81100D02*
D03*
X86100D02*
D03*
X91100D02*
D03*
X96100D02*
D03*
X101100D02*
D03*
X106100D02*
D03*
Y185243D02*
D03*
X101100D02*
D03*
X96100D02*
D03*
X91100D02*
D03*
X86100D02*
D03*
X81100D02*
D03*
X76100D02*
D03*
X71100D02*
D03*
D27*
X248935Y239418D02*
D03*
Y244339D02*
D03*
Y254182D02*
D03*
Y249261D02*
D03*
X240865Y239418D02*
D03*
Y244339D02*
D03*
Y249261D02*
D03*
Y254182D02*
D03*
M02*
