M48
;Layer_Color=9474304
;FILE_FORMAT=2:4
INCH,TZ
;TYPE=PLATED
T01F00S00C0.0120
T02F00S00C0.0354
T03F00S00C0.0402
T04F00S00C0.0433
;TYPE=NON_PLATED
T05F00S00C0.0472
T06F00S00C0.0500
T07F00S00C0.0630
T08F00S00C0.0701
T09F00S00C0.1500
%
T01
X22067Y10854
X23761Y11137
X23200Y11980
X24835Y11858
X26141Y11980
Y11161
X26136Y13174
X26071Y15176
X26084Y16180
X26090Y19180
X26084Y20180
Y21180
X26184Y9180
X19120Y7350
X16280Y7339
X7610Y12850
X6354Y13670
X6139Y14337
Y15380
Y16180
Y17180
Y19180
X8003Y17780
X10108Y19340
X5295Y27944
X3306Y27950
X2412Y26160
X2410Y25180
X6139
Y26180
X7260Y24728
X7664Y23975
X8118Y24334
X8240Y23430
X8422Y22928
X8362Y22215
Y21370
X6260Y22180
X6591Y22904
X6139Y23180
X9499Y23981
X9839Y24334
X16016Y25040
X18854Y25103
X19675Y27234
X20068Y26895
X20030Y28077
X18697Y28803
X18064
X17296Y28798
X16707Y28794
X16807Y30133
Y31154
X18675Y30053
X21098Y26276
X21958Y25980
X22080Y25010
X23066
X22080Y23302
X26086Y23183
Y24195
X26076Y25179
X26084Y26180
X27206Y27930
X29194
X21370Y27500
X26084Y21980
T02
X14700Y13251
Y14235
Y15219
T03
X12239Y3520
X13420
X21939
X23120
X23121Y31850
X21940
T04
X11700Y27930
X13200
T05
X14070Y15849
T06
X11058Y2748
X14601
X20758
X24301
X20759Y32622
X24302
T07
X16314Y31865
X19054
T08
X28200Y8680
X4300
Y26680
X28200
T09
X2000Y2000
X33400
X2000Y33400
X33400
M30
