G04*
G04 #@! TF.GenerationSoftware,Altium Limited,Altium Designer,23.11.1 (41)*
G04*
G04 Layer_Physical_Order=2*
G04 Layer_Color=16440176*
%FSLAX25Y25*%
%MOIN*%
G70*
G04*
G04 #@! TF.SameCoordinates,7B13C31F-70D5-41CF-BA4D-497FEED21CC8*
G04*
G04*
G04 #@! TF.FilePolarity,Positive*
G04*
G01*
G75*
%ADD73C,0.07008*%
%ADD74C,0.03504*%
%ADD75C,0.06000*%
%ADD76C,0.02400*%
G36*
X348761Y352577D02*
X349798Y352148D01*
X350731Y351524D01*
X351524Y350731D01*
X352148Y349798D01*
X352577Y348761D01*
X352796Y347661D01*
Y347100D01*
Y321499D01*
X336649Y305351D01*
X336649Y305351D01*
X336387Y304961D01*
X336296Y304500D01*
Y49500D01*
X336296Y49500D01*
X336387Y49039D01*
X336649Y48649D01*
X352796Y32501D01*
X352796Y7000D01*
X352796Y6429D01*
X352573Y5309D01*
X352136Y4255D01*
X351502Y3305D01*
X350695Y2498D01*
X349745Y1864D01*
X348691Y1427D01*
X347571Y1204D01*
X347000Y1204D01*
X321499D01*
X305351Y17351D01*
X305351Y17352D01*
X304961Y17613D01*
X304500Y17704D01*
X49500D01*
X49500Y17704D01*
X49039Y17613D01*
X48649Y17352D01*
X32501Y1204D01*
X7000D01*
X6429Y1204D01*
X5309Y1427D01*
X4255Y1864D01*
X3305Y2498D01*
X2498Y3305D01*
X1864Y4254D01*
X1427Y5309D01*
X1204Y6429D01*
X1204Y7000D01*
Y32501D01*
X17351Y48649D01*
X17352Y48649D01*
X17613Y49039D01*
X17704Y49500D01*
Y304500D01*
X17704Y304500D01*
X17613Y304961D01*
X17352Y305351D01*
X1204Y321499D01*
Y347000D01*
Y347571D01*
X1427Y348691D01*
X1864Y349745D01*
X2498Y350695D01*
X3305Y351502D01*
X4255Y352136D01*
X5309Y352573D01*
X6429Y352796D01*
X32501D01*
X48649Y336649D01*
X48649Y336649D01*
X49039Y336387D01*
X49500Y336296D01*
X304500D01*
X304500Y336296D01*
X304961Y336387D01*
X305351Y336649D01*
X321499Y352796D01*
X347661D01*
X348761Y352577D01*
D02*
G37*
%LPC*%
G36*
X334816Y342287D02*
X333184D01*
X331583Y341969D01*
X330074Y341344D01*
X328717Y340437D01*
X327563Y339283D01*
X326656Y337926D01*
X326031Y336417D01*
X325713Y334816D01*
Y333184D01*
X326031Y331583D01*
X326656Y330074D01*
X327563Y328717D01*
X328717Y327563D01*
X330074Y326656D01*
X331583Y326031D01*
X333184Y325713D01*
X334816D01*
X336417Y326031D01*
X337926Y326656D01*
X339283Y327563D01*
X340437Y328717D01*
X341344Y330074D01*
X341969Y331583D01*
X342287Y333184D01*
Y334816D01*
X341969Y336417D01*
X341344Y337926D01*
X340437Y339283D01*
X339283Y340437D01*
X337926Y341344D01*
X336417Y341969D01*
X334816Y342287D01*
D02*
G37*
G36*
X20816D02*
X19184D01*
X17583Y341969D01*
X16074Y341344D01*
X14717Y340437D01*
X13563Y339283D01*
X12656Y337926D01*
X12031Y336417D01*
X11713Y334816D01*
Y333184D01*
X12031Y331583D01*
X12656Y330074D01*
X13563Y328717D01*
X14717Y327563D01*
X16074Y326656D01*
X17583Y326031D01*
X19184Y325713D01*
X20816D01*
X22417Y326031D01*
X23926Y326656D01*
X25283Y327563D01*
X26437Y328717D01*
X27344Y330074D01*
X27969Y331583D01*
X28287Y333184D01*
Y334816D01*
X27969Y336417D01*
X27344Y337926D01*
X26437Y339283D01*
X25283Y340437D01*
X23926Y341344D01*
X22417Y341969D01*
X20816Y342287D01*
D02*
G37*
G36*
X159056Y326349D02*
Y324675D01*
X160730D01*
X160421Y325421D01*
X159802Y326040D01*
X159056Y326349D01*
D02*
G37*
G36*
X158056D02*
X157310Y326040D01*
X156691Y325421D01*
X156382Y324675D01*
X158056D01*
Y326349D01*
D02*
G37*
G36*
X153439Y326162D02*
X152649D01*
X151918Y325859D01*
X151359Y325300D01*
X151057Y324570D01*
Y323779D01*
X151359Y323049D01*
X151918Y322490D01*
X152649Y322187D01*
X153439D01*
X154170Y322490D01*
X154729Y323049D01*
X155032Y323779D01*
Y324570D01*
X154729Y325300D01*
X154170Y325859D01*
X153439Y326162D01*
D02*
G37*
G36*
X160730Y323675D02*
X159056D01*
Y322000D01*
X159802Y322309D01*
X160421Y322928D01*
X160730Y323675D01*
D02*
G37*
G36*
X158056D02*
X156382D01*
X156691Y322928D01*
X157310Y322309D01*
X158056Y322000D01*
Y323675D01*
D02*
G37*
G36*
X65525Y307774D02*
Y306100D01*
X67200D01*
X66891Y306846D01*
X66272Y307465D01*
X65525Y307774D01*
D02*
G37*
G36*
X64525D02*
X63779Y307465D01*
X63160Y306846D01*
X62851Y306100D01*
X64525D01*
Y307774D01*
D02*
G37*
G36*
X67200Y305100D02*
X65525D01*
Y303426D01*
X66272Y303735D01*
X66891Y304354D01*
X67200Y305100D01*
D02*
G37*
G36*
X64525D02*
X62851D01*
X63160Y304354D01*
X63779Y303735D01*
X64525Y303426D01*
Y305100D01*
D02*
G37*
G36*
X113826Y302518D02*
Y300844D01*
X115500D01*
X115191Y301590D01*
X114572Y302209D01*
X113826Y302518D01*
D02*
G37*
G36*
X112826D02*
X112079Y302209D01*
X111460Y301590D01*
X111151Y300844D01*
X112826D01*
Y302518D01*
D02*
G37*
G36*
X115500Y299844D02*
X113826D01*
Y298170D01*
X114572Y298479D01*
X115191Y299098D01*
X115500Y299844D01*
D02*
G37*
G36*
X112826D02*
X111151D01*
X111460Y299098D01*
X112079Y298479D01*
X112826Y298170D01*
Y299844D01*
D02*
G37*
G36*
X321400Y279674D02*
Y278000D01*
X323074D01*
X322765Y278746D01*
X322146Y279365D01*
X321400Y279674D01*
D02*
G37*
G36*
X320400D02*
X319654Y279365D01*
X319035Y278746D01*
X318726Y278000D01*
X320400D01*
Y279674D01*
D02*
G37*
G36*
X72300D02*
Y278000D01*
X73974D01*
X73665Y278746D01*
X73046Y279365D01*
X72300Y279674D01*
D02*
G37*
G36*
X71300D02*
X70554Y279365D01*
X69935Y278746D01*
X69626Y278000D01*
X71300D01*
Y279674D01*
D02*
G37*
G36*
X57100D02*
Y278000D01*
X58774D01*
X58465Y278746D01*
X57846Y279365D01*
X57100Y279674D01*
D02*
G37*
G36*
X56100D02*
X55354Y279365D01*
X54735Y278746D01*
X54426Y278000D01*
X56100D01*
Y279674D01*
D02*
G37*
G36*
X29900D02*
Y278000D01*
X31574D01*
X31265Y278746D01*
X30646Y279365D01*
X29900Y279674D01*
D02*
G37*
G36*
X28900D02*
X28154Y279365D01*
X27535Y278746D01*
X27226Y278000D01*
X28900D01*
Y279674D01*
D02*
G37*
G36*
X301400Y279474D02*
Y277800D01*
X303074D01*
X302765Y278546D01*
X302146Y279165D01*
X301400Y279474D01*
D02*
G37*
G36*
X300400D02*
X299654Y279165D01*
X299035Y278546D01*
X298726Y277800D01*
X300400D01*
Y279474D01*
D02*
G37*
G36*
X295900D02*
Y277800D01*
X297574D01*
X297265Y278546D01*
X296646Y279165D01*
X295900Y279474D01*
D02*
G37*
G36*
X294900D02*
X294154Y279165D01*
X293535Y278546D01*
X293226Y277800D01*
X294900D01*
Y279474D01*
D02*
G37*
G36*
X92500D02*
Y277800D01*
X94174D01*
X93865Y278546D01*
X93246Y279165D01*
X92500Y279474D01*
D02*
G37*
G36*
X91500D02*
X90754Y279165D01*
X90135Y278546D01*
X89826Y277800D01*
X91500D01*
Y279474D01*
D02*
G37*
G36*
X268400Y279374D02*
Y277700D01*
X270074D01*
X269765Y278446D01*
X269146Y279065D01*
X268400Y279374D01*
D02*
G37*
G36*
X267400D02*
X266654Y279065D01*
X266035Y278446D01*
X265726Y277700D01*
X267400D01*
Y279374D01*
D02*
G37*
G36*
X201816Y280087D02*
X201026D01*
X200295Y279785D01*
X199736Y279226D01*
X199434Y278495D01*
Y277705D01*
X199736Y276974D01*
X200295Y276415D01*
X201026Y276113D01*
X201816D01*
X202547Y276415D01*
X203106Y276974D01*
X203409Y277705D01*
Y278495D01*
X203106Y279226D01*
X202547Y279785D01*
X201816Y280087D01*
D02*
G37*
G36*
X323074Y277000D02*
X321400D01*
Y275326D01*
X322146Y275635D01*
X322765Y276254D01*
X323074Y277000D01*
D02*
G37*
G36*
X320400D02*
X318726D01*
X319035Y276254D01*
X319654Y275635D01*
X320400Y275326D01*
Y277000D01*
D02*
G37*
G36*
X73974D02*
X72300D01*
Y275326D01*
X73046Y275635D01*
X73665Y276254D01*
X73974Y277000D01*
D02*
G37*
G36*
X71300D02*
X69626D01*
X69935Y276254D01*
X70554Y275635D01*
X71300Y275326D01*
Y277000D01*
D02*
G37*
G36*
X58774D02*
X57100D01*
Y275326D01*
X57846Y275635D01*
X58465Y276254D01*
X58774Y277000D01*
D02*
G37*
G36*
X56100D02*
X54426D01*
X54735Y276254D01*
X55354Y275635D01*
X56100Y275326D01*
Y277000D01*
D02*
G37*
G36*
X31574D02*
X29900D01*
Y275326D01*
X30646Y275635D01*
X31265Y276254D01*
X31574Y277000D01*
D02*
G37*
G36*
X28900D02*
X27226D01*
X27535Y276254D01*
X28154Y275635D01*
X28900Y275326D01*
Y277000D01*
D02*
G37*
G36*
X94174Y276800D02*
X92500D01*
Y275126D01*
X93246Y275435D01*
X93865Y276054D01*
X94174Y276800D01*
D02*
G37*
G36*
X91500D02*
X89826D01*
X90135Y276054D01*
X90754Y275435D01*
X91500Y275126D01*
Y276800D01*
D02*
G37*
G36*
X303074D02*
X301400D01*
Y275126D01*
X302146Y275435D01*
X302765Y276054D01*
X303074Y276800D01*
D02*
G37*
G36*
X300400D02*
X298726D01*
X299035Y276054D01*
X299654Y275435D01*
X300400Y275126D01*
Y276800D01*
D02*
G37*
G36*
X297574D02*
X295900D01*
Y275126D01*
X296646Y275435D01*
X297265Y276054D01*
X297574Y276800D01*
D02*
G37*
G36*
X294900D02*
X293226D01*
X293535Y276054D01*
X294154Y275435D01*
X294900Y275126D01*
Y276800D01*
D02*
G37*
G36*
X270074Y276700D02*
X268400D01*
Y275026D01*
X269146Y275335D01*
X269765Y275954D01*
X270074Y276700D01*
D02*
G37*
G36*
X267400D02*
X265726D01*
X266035Y275954D01*
X266654Y275335D01*
X267400Y275026D01*
Y276700D01*
D02*
G37*
G36*
X242195Y267387D02*
X241405D01*
X240674Y267085D01*
X240115Y266526D01*
X239813Y265795D01*
Y265005D01*
X240115Y264274D01*
X240674Y263715D01*
X241405Y263413D01*
X242195D01*
X242926Y263715D01*
X243485Y264274D01*
X243787Y265005D01*
Y265795D01*
X243485Y266526D01*
X242926Y267085D01*
X242195Y267387D01*
D02*
G37*
G36*
X311565Y271091D02*
X310435D01*
X309344Y270799D01*
X308365Y270234D01*
X307566Y269435D01*
X307001Y268456D01*
X306709Y267365D01*
Y266235D01*
X307001Y265144D01*
X307566Y264165D01*
X308365Y263366D01*
X309344Y262801D01*
X310435Y262509D01*
X311565D01*
X312656Y262801D01*
X313635Y263366D01*
X314434Y264165D01*
X314999Y265144D01*
X315291Y266235D01*
Y267365D01*
X314999Y268456D01*
X314434Y269435D01*
X313635Y270234D01*
X312656Y270799D01*
X311565Y271091D01*
D02*
G37*
G36*
X282491D02*
X281362D01*
X280270Y270799D01*
X279292Y270234D01*
X278492Y269435D01*
X277927Y268456D01*
X277635Y267365D01*
Y266235D01*
X277927Y265144D01*
X278492Y264165D01*
X279292Y263366D01*
X280270Y262801D01*
X281362Y262509D01*
X282491D01*
X283583Y262801D01*
X284561Y263366D01*
X285360Y264165D01*
X285925Y265144D01*
X286218Y266235D01*
Y267365D01*
X285925Y268456D01*
X285360Y269435D01*
X284561Y270234D01*
X283583Y270799D01*
X282491Y271091D01*
D02*
G37*
G36*
X43538D02*
X42408D01*
X41317Y270799D01*
X40338Y270234D01*
X39539Y269435D01*
X38974Y268456D01*
X38682Y267365D01*
Y266235D01*
X38974Y265144D01*
X39539Y264165D01*
X40338Y263366D01*
X41317Y262801D01*
X42408Y262509D01*
X43538D01*
X44630Y262801D01*
X45608Y263366D01*
X46407Y264165D01*
X46972Y265144D01*
X47265Y266235D01*
Y267365D01*
X46972Y268456D01*
X46407Y269435D01*
X45608Y270234D01*
X44630Y270799D01*
X43538Y271091D01*
D02*
G37*
G36*
X82524Y271091D02*
X81394D01*
X80303Y270799D01*
X79324Y270234D01*
X78525Y269435D01*
X77960Y268456D01*
X77668Y267365D01*
Y266235D01*
X77960Y265144D01*
X78525Y264165D01*
X79324Y263366D01*
X80303Y262801D01*
X81394Y262509D01*
X82524D01*
X83615Y262801D01*
X84594Y263366D01*
X85393Y264165D01*
X85958Y265144D01*
X86250Y266235D01*
Y267365D01*
X85958Y268456D01*
X85393Y269435D01*
X84594Y270234D01*
X83615Y270799D01*
X82524Y271091D01*
D02*
G37*
G36*
X196395Y258887D02*
X195605D01*
X194874Y258585D01*
X194315Y258026D01*
X194013Y257295D01*
Y256505D01*
X194315Y255774D01*
X194874Y255215D01*
X195605Y254913D01*
X196395D01*
X197126Y255215D01*
X197685Y255774D01*
X197987Y256505D01*
Y257295D01*
X197685Y258026D01*
X197126Y258585D01*
X196395Y258887D01*
D02*
G37*
G36*
X236395Y257587D02*
X235605D01*
X234874Y257285D01*
X234315Y256726D01*
X234013Y255995D01*
Y255205D01*
X234315Y254474D01*
X234874Y253915D01*
X235605Y253613D01*
X236395D01*
X237126Y253915D01*
X237685Y254474D01*
X237987Y255205D01*
Y255995D01*
X237685Y256726D01*
X237126Y257285D01*
X236395Y257587D01*
D02*
G37*
G36*
X103895Y255587D02*
X103105D01*
X102374Y255285D01*
X101815Y254726D01*
X101513Y253995D01*
Y253205D01*
X101815Y252474D01*
X102374Y251915D01*
X103105Y251613D01*
X103895D01*
X104626Y251915D01*
X105185Y252474D01*
X105487Y253205D01*
Y253995D01*
X105185Y254726D01*
X104626Y255285D01*
X103895Y255587D01*
D02*
G37*
G36*
X236500Y252200D02*
Y250525D01*
X238174D01*
X237865Y251272D01*
X237246Y251890D01*
X236500Y252200D01*
D02*
G37*
G36*
X235500D02*
X234754Y251890D01*
X234135Y251272D01*
X233826Y250525D01*
X235500D01*
Y252200D01*
D02*
G37*
G36*
X168595Y253987D02*
X167805D01*
X167074Y253685D01*
X166515Y253126D01*
X166213Y252395D01*
Y251605D01*
X166515Y250874D01*
X167074Y250315D01*
X167805Y250013D01*
X168595D01*
X169326Y250315D01*
X169885Y250874D01*
X170187Y251605D01*
Y252395D01*
X169885Y253126D01*
X169326Y253685D01*
X168595Y253987D01*
D02*
G37*
G36*
X201816Y252072D02*
X201026D01*
X200295Y251769D01*
X199736Y251210D01*
X199434Y250480D01*
Y249689D01*
X199736Y248958D01*
X200295Y248399D01*
X201026Y248097D01*
X201816D01*
X202547Y248399D01*
X203106Y248958D01*
X203409Y249689D01*
Y250480D01*
X203106Y251210D01*
X202547Y251769D01*
X201816Y252072D01*
D02*
G37*
G36*
X235500Y249525D02*
X233826D01*
X234135Y248779D01*
X234754Y248160D01*
X235500Y247851D01*
Y249525D01*
D02*
G37*
G36*
X238174D02*
X236500D01*
Y247851D01*
X237246Y248160D01*
X237865Y248779D01*
X238174Y249525D01*
D02*
G37*
G36*
X103995Y245787D02*
X103205D01*
X102474Y245485D01*
X101915Y244926D01*
X101613Y244195D01*
Y243405D01*
X101915Y242674D01*
X102474Y242115D01*
X103205Y241813D01*
X103995D01*
X104726Y242115D01*
X105285Y242674D01*
X105587Y243405D01*
Y244195D01*
X105285Y244926D01*
X104726Y245485D01*
X103995Y245787D01*
D02*
G37*
G36*
X222312Y243274D02*
Y241600D01*
X223986D01*
X223677Y242346D01*
X223058Y242965D01*
X222312Y243274D01*
D02*
G37*
G36*
X221312D02*
X220566Y242965D01*
X219947Y242346D01*
X219638Y241600D01*
X221312D01*
Y243274D01*
D02*
G37*
G36*
X216695Y243087D02*
X215905D01*
X215174Y242785D01*
X214615Y242226D01*
X214313Y241495D01*
Y240705D01*
X214615Y239974D01*
X215174Y239415D01*
X215905Y239113D01*
X216695D01*
X217426Y239415D01*
X217985Y239974D01*
X218287Y240705D01*
Y241495D01*
X217985Y242226D01*
X217426Y242785D01*
X216695Y243087D01*
D02*
G37*
G36*
X223986Y240600D02*
X222312D01*
Y238926D01*
X223058Y239235D01*
X223677Y239854D01*
X223986Y240600D01*
D02*
G37*
G36*
X221312D02*
X219638D01*
X219947Y239854D01*
X220566Y239235D01*
X221312Y238926D01*
Y240600D01*
D02*
G37*
G36*
X168700Y240474D02*
Y238800D01*
X170374D01*
X170065Y239546D01*
X169446Y240165D01*
X168700Y240474D01*
D02*
G37*
G36*
X167700D02*
X166954Y240165D01*
X166335Y239546D01*
X166026Y238800D01*
X167700D01*
Y240474D01*
D02*
G37*
G36*
X170374Y237800D02*
X168700D01*
Y236126D01*
X169446Y236435D01*
X170065Y237054D01*
X170374Y237800D01*
D02*
G37*
G36*
X167700D02*
X166026D01*
X166335Y237054D01*
X166954Y236435D01*
X167700Y236126D01*
Y237800D01*
D02*
G37*
G36*
X139195Y239987D02*
X138405D01*
X137674Y239685D01*
X137115Y239126D01*
X136813Y238395D01*
Y237605D01*
X137115Y236874D01*
X137674Y236315D01*
X138405Y236013D01*
X139195D01*
X139926Y236315D01*
X140485Y236874D01*
X140787Y237605D01*
Y238395D01*
X140485Y239126D01*
X139926Y239685D01*
X139195Y239987D01*
D02*
G37*
G36*
X252795Y234687D02*
X252005D01*
X251274Y234385D01*
X250715Y233826D01*
X250413Y233095D01*
Y232305D01*
X250715Y231574D01*
X251274Y231015D01*
X252005Y230713D01*
X252795D01*
X253526Y231015D01*
X254085Y231574D01*
X254387Y232305D01*
Y233095D01*
X254085Y233826D01*
X253526Y234385D01*
X252795Y234687D01*
D02*
G37*
G36*
X205300Y231553D02*
X204554Y231244D01*
X203935Y230625D01*
X203755Y230192D01*
X203214D01*
X203085Y230504D01*
X202526Y231064D01*
X201795Y231366D01*
X201005D01*
X200274Y231064D01*
X199715Y230504D01*
X199413Y229774D01*
Y228983D01*
X199715Y228253D01*
X200274Y227694D01*
X201005Y227391D01*
X201795D01*
X202526Y227694D01*
X203085Y228253D01*
X203214Y228566D01*
X203755D01*
X203935Y228133D01*
X204554Y227514D01*
X205300Y227205D01*
Y229379D01*
Y231553D01*
D02*
G37*
G36*
X191772Y231589D02*
X191026Y231280D01*
X190407Y230661D01*
X190098Y229915D01*
X191772D01*
Y231589D01*
D02*
G37*
G36*
X206300Y231553D02*
Y229879D01*
X207974D01*
X207665Y230625D01*
X207046Y231244D01*
X206300Y231553D01*
D02*
G37*
G36*
X155095Y233387D02*
X154305D01*
X153574Y233085D01*
X153015Y232526D01*
X152713Y231795D01*
Y231005D01*
X153015Y230274D01*
X153574Y229715D01*
X154305Y229413D01*
X155095D01*
X155826Y229715D01*
X156385Y230274D01*
X156687Y231005D01*
Y231795D01*
X156385Y232526D01*
X155826Y233085D01*
X155095Y233387D01*
D02*
G37*
G36*
X168616Y228986D02*
X167870Y228676D01*
X167251Y228058D01*
X167113Y227726D01*
X166572D01*
X166485Y227937D01*
X165926Y228496D01*
X165195Y228799D01*
X164405D01*
X163674Y228496D01*
X163115Y227937D01*
X162813Y227207D01*
Y226416D01*
X163115Y225686D01*
X163674Y225127D01*
X164405Y224824D01*
X165195D01*
X165926Y225127D01*
X166485Y225686D01*
X166572Y225897D01*
X167113D01*
X167251Y225565D01*
X167870Y224946D01*
X168616Y224637D01*
Y226811D01*
Y228986D01*
D02*
G37*
G36*
X138772Y228481D02*
X138025Y228172D01*
X137564Y227710D01*
X137367Y227565D01*
X136925Y227696D01*
X136629Y227991D01*
X135898Y228294D01*
X135108D01*
X134377Y227991D01*
X133818Y227432D01*
X133516Y226702D01*
Y225911D01*
X133818Y225181D01*
X134377Y224622D01*
X135108Y224319D01*
X135898D01*
X136629Y224622D01*
X136925Y224917D01*
X137367Y225048D01*
X137564Y224903D01*
X138025Y224441D01*
X138772Y224132D01*
Y226307D01*
Y228481D01*
D02*
G37*
G36*
X192772Y231589D02*
Y229415D01*
Y227240D01*
X193518Y227550D01*
X194137Y228168D01*
X194223Y228376D01*
X194764Y228376D01*
X194815Y228253D01*
X195374Y227694D01*
X196105Y227391D01*
X196895D01*
X197626Y227694D01*
X198185Y228253D01*
X198487Y228983D01*
Y229774D01*
X198185Y230504D01*
X197626Y231064D01*
X196895Y231366D01*
X196105D01*
X195374Y231064D01*
X194815Y230504D01*
X194779Y230418D01*
X194238Y230418D01*
X194137Y230661D01*
X193518Y231280D01*
X192772Y231589D01*
D02*
G37*
G36*
X169616Y228986D02*
Y227311D01*
X171290D01*
X170981Y228058D01*
X170362Y228676D01*
X169616Y228986D01*
D02*
G37*
G36*
X191772Y228915D02*
X190098D01*
X190407Y228168D01*
X191026Y227550D01*
X191772Y227240D01*
Y228915D01*
D02*
G37*
G36*
X207974Y228879D02*
X206300D01*
Y227205D01*
X207046Y227514D01*
X207665Y228133D01*
X207974Y228879D01*
D02*
G37*
G36*
X139772Y228481D02*
Y226806D01*
X141446D01*
X141137Y227553D01*
X140518Y228172D01*
X139772Y228481D01*
D02*
G37*
G36*
X171290Y226311D02*
X169616D01*
Y224637D01*
X170362Y224946D01*
X170981Y225565D01*
X171290Y226311D01*
D02*
G37*
G36*
X43195Y228187D02*
X42405D01*
X41674Y227885D01*
X41115Y227326D01*
X40813Y226595D01*
Y225805D01*
X41115Y225074D01*
X41674Y224515D01*
X42405Y224213D01*
X43195D01*
X43926Y224515D01*
X44485Y225074D01*
X44787Y225805D01*
Y226595D01*
X44485Y227326D01*
X43926Y227885D01*
X43195Y228187D01*
D02*
G37*
G36*
X141446Y225806D02*
X139772D01*
Y224132D01*
X140518Y224441D01*
X141137Y225060D01*
X141446Y225806D01*
D02*
G37*
G36*
X188528Y228016D02*
X187737D01*
X187006Y227713D01*
X186447Y227154D01*
X186145Y226424D01*
Y225633D01*
X186447Y224903D01*
X187006Y224343D01*
X187737Y224041D01*
X188528D01*
X189258Y224343D01*
X189817Y224903D01*
X190120Y225633D01*
Y226424D01*
X189817Y227154D01*
X189258Y227713D01*
X188528Y228016D01*
D02*
G37*
G36*
X194665Y223842D02*
X193874D01*
X193143Y223539D01*
X192584Y222980D01*
X192282Y222250D01*
Y221459D01*
X192584Y220728D01*
X193143Y220169D01*
X193874Y219867D01*
X194665D01*
X195395Y220169D01*
X195954Y220728D01*
X196257Y221459D01*
Y222250D01*
X195954Y222980D01*
X195395Y223539D01*
X194665Y223842D01*
D02*
G37*
G36*
X242011Y216186D02*
Y214511D01*
X243686D01*
X243377Y215258D01*
X242758Y215877D01*
X242011Y216186D01*
D02*
G37*
G36*
X241012D02*
X240265Y215877D01*
X239646Y215258D01*
X239337Y214511D01*
X241012D01*
Y216186D01*
D02*
G37*
G36*
X110825Y219493D02*
X110035D01*
X109304Y219191D01*
X108745Y218632D01*
X108442Y217901D01*
Y217110D01*
X108745Y216380D01*
X109041Y216084D01*
X109172Y215642D01*
X109027Y215445D01*
X108565Y214983D01*
X108256Y214237D01*
X112604D01*
X112295Y214983D01*
X111833Y215445D01*
X111688Y215642D01*
X111819Y216084D01*
X112115Y216380D01*
X112417Y217110D01*
Y217901D01*
X112115Y218632D01*
X111556Y219191D01*
X110825Y219493D01*
D02*
G37*
G36*
X100295Y218087D02*
X99505D01*
X98774Y217785D01*
X98215Y217226D01*
X97913Y216495D01*
Y215705D01*
X98215Y214974D01*
X98774Y214415D01*
X99505Y214113D01*
X100295D01*
X101026Y214415D01*
X101585Y214974D01*
X101887Y215705D01*
Y216495D01*
X101585Y217226D01*
X101026Y217785D01*
X100295Y218087D01*
D02*
G37*
G36*
X122595Y216887D02*
X121805D01*
X121074Y216585D01*
X120515Y216026D01*
X120213Y215295D01*
Y214505D01*
X120515Y213774D01*
X121074Y213215D01*
X121805Y212913D01*
X122595D01*
X123326Y213215D01*
X123885Y213774D01*
X124187Y214505D01*
Y215295D01*
X123885Y216026D01*
X123326Y216585D01*
X122595Y216887D01*
D02*
G37*
G36*
X243686Y213511D02*
X242011D01*
Y211837D01*
X242758Y212146D01*
X243377Y212765D01*
X243686Y213511D01*
D02*
G37*
G36*
X241012D02*
X239337D01*
X239646Y212765D01*
X240265Y212146D01*
X241012Y211837D01*
Y213511D01*
D02*
G37*
G36*
X112604Y213237D02*
X110930D01*
Y211563D01*
X111676Y211872D01*
X112295Y212491D01*
X112604Y213237D01*
D02*
G37*
G36*
X109930D02*
X108256D01*
X108565Y212491D01*
X109184Y211872D01*
X109930Y211563D01*
Y213237D01*
D02*
G37*
G36*
X110800Y209974D02*
Y208300D01*
X112474D01*
X112165Y209046D01*
X111546Y209665D01*
X110800Y209974D01*
D02*
G37*
G36*
X109800D02*
X109054Y209665D01*
X108435Y209046D01*
X108126Y208300D01*
X109800D01*
Y209974D01*
D02*
G37*
G36*
X236041Y211966D02*
X235250D01*
X234520Y211663D01*
X233960Y211104D01*
X233658Y210374D01*
Y209583D01*
X233960Y208853D01*
X234295Y208518D01*
X234387Y208079D01*
X234270Y207890D01*
X233780Y207401D01*
X233471Y206654D01*
X237819D01*
X237510Y207401D01*
X237021Y207890D01*
X236904Y208079D01*
X236995Y208518D01*
X237330Y208853D01*
X237633Y209583D01*
Y210374D01*
X237330Y211104D01*
X236771Y211663D01*
X236041Y211966D01*
D02*
G37*
G36*
X227795Y209187D02*
X227005D01*
X226274Y208885D01*
X225715Y208326D01*
X225413Y207595D01*
Y206805D01*
X225715Y206074D01*
X226274Y205515D01*
X227005Y205213D01*
X227795D01*
X228526Y205515D01*
X229085Y206074D01*
X229387Y206805D01*
Y207595D01*
X229085Y208326D01*
X228526Y208885D01*
X227795Y209187D01*
D02*
G37*
G36*
X237819Y205654D02*
X236145D01*
Y203980D01*
X236892Y204289D01*
X237510Y204908D01*
X237819Y205654D01*
D02*
G37*
G36*
X235145D02*
X233471D01*
X233780Y204908D01*
X234399Y204289D01*
X235145Y203980D01*
Y205654D01*
D02*
G37*
G36*
X112474Y207300D02*
X108126D01*
X108435Y206554D01*
X109054Y205935D01*
X109397Y205793D01*
Y205252D01*
X109304Y205213D01*
X108745Y204654D01*
X108442Y203924D01*
Y203133D01*
X108745Y202403D01*
X109304Y201844D01*
X110035Y201541D01*
X110825D01*
X111556Y201844D01*
X112115Y202403D01*
X112417Y203133D01*
Y203924D01*
X112115Y204654D01*
X111556Y205213D01*
X111333Y205306D01*
Y205847D01*
X111546Y205935D01*
X112165Y206554D01*
X112474Y207300D01*
D02*
G37*
G36*
X211850Y202236D02*
X211059D01*
X210329Y201934D01*
X209770Y201375D01*
X209467Y200644D01*
Y199854D01*
X209770Y199123D01*
X210329Y198564D01*
X211059Y198261D01*
X211850D01*
X212580Y198564D01*
X213139Y199123D01*
X213442Y199854D01*
Y200644D01*
X213139Y201375D01*
X212580Y201934D01*
X211850Y202236D01*
D02*
G37*
G36*
X260436Y191274D02*
Y189600D01*
X262110D01*
X261801Y190346D01*
X261182Y190965D01*
X260436Y191274D01*
D02*
G37*
G36*
X259436D02*
X258690Y190965D01*
X258071Y190346D01*
X257762Y189600D01*
X259436D01*
Y191274D01*
D02*
G37*
G36*
X262110Y188600D02*
X260436D01*
Y186926D01*
X261182Y187235D01*
X261801Y187854D01*
X262110Y188600D01*
D02*
G37*
G36*
X259436D02*
X257762D01*
X258071Y187854D01*
X258690Y187235D01*
X259436Y186926D01*
Y188600D01*
D02*
G37*
G36*
X132995Y188087D02*
X132205D01*
X131474Y187785D01*
X130915Y187226D01*
X130613Y186495D01*
Y185705D01*
X130915Y184974D01*
X131474Y184415D01*
X132205Y184113D01*
X132995D01*
X133726Y184415D01*
X134285Y184974D01*
X134587Y185705D01*
Y186495D01*
X134285Y187226D01*
X133726Y187785D01*
X132995Y188087D01*
D02*
G37*
G36*
X64400Y184774D02*
Y183100D01*
X66074D01*
X65765Y183846D01*
X65146Y184465D01*
X64400Y184774D01*
D02*
G37*
G36*
X63400D02*
X62654Y184465D01*
X62035Y183846D01*
X61726Y183100D01*
X63400D01*
Y184774D01*
D02*
G37*
G36*
X328422Y183853D02*
Y182179D01*
X330096D01*
X329787Y182925D01*
X329168Y183544D01*
X328422Y183853D01*
D02*
G37*
G36*
X327422D02*
X326676Y183544D01*
X326057Y182925D01*
X325748Y182179D01*
X327422D01*
Y183853D01*
D02*
G37*
G36*
X24875Y183741D02*
Y182067D01*
X26549D01*
X26240Y182813D01*
X25621Y183432D01*
X24875Y183741D01*
D02*
G37*
G36*
X23875D02*
X23129Y183432D01*
X22510Y182813D01*
X22201Y182067D01*
X23875D01*
Y183741D01*
D02*
G37*
G36*
X66074Y182100D02*
X64400D01*
Y180426D01*
X65146Y180735D01*
X65765Y181354D01*
X66074Y182100D01*
D02*
G37*
G36*
X63400D02*
X61726D01*
X62035Y181354D01*
X62654Y180735D01*
X63400Y180426D01*
Y182100D01*
D02*
G37*
G36*
X330096Y181179D02*
X328422D01*
Y179505D01*
X329168Y179814D01*
X329787Y180432D01*
X330096Y181179D01*
D02*
G37*
G36*
X327422D02*
X325748D01*
X326057Y180432D01*
X326676Y179814D01*
X327422Y179505D01*
Y181179D01*
D02*
G37*
G36*
X26549Y181067D02*
X24875D01*
Y179393D01*
X25621Y179702D01*
X26240Y180321D01*
X26549Y181067D01*
D02*
G37*
G36*
X23875D02*
X22201D01*
X22510Y180321D01*
X23129Y179702D01*
X23875Y179393D01*
Y181067D01*
D02*
G37*
G36*
X297833Y179349D02*
Y177675D01*
X299507D01*
X299198Y178421D01*
X298579Y179040D01*
X297833Y179349D01*
D02*
G37*
G36*
X296833D02*
X296087Y179040D01*
X295468Y178421D01*
X295159Y177675D01*
X296833D01*
Y179349D01*
D02*
G37*
G36*
X161895Y181387D02*
X161105D01*
X160374Y181085D01*
X159815Y180526D01*
X159513Y179795D01*
Y179005D01*
X159815Y178274D01*
X160374Y177715D01*
X161105Y177413D01*
X161895D01*
X162626Y177715D01*
X163185Y178274D01*
X163487Y179005D01*
Y179795D01*
X163185Y180526D01*
X162626Y181085D01*
X161895Y181387D01*
D02*
G37*
G36*
X100626Y180987D02*
X99835D01*
X99105Y180685D01*
X98546Y180126D01*
X98243Y179395D01*
Y178605D01*
X98546Y177874D01*
X99105Y177315D01*
X99835Y177013D01*
X100626D01*
X101357Y177315D01*
X101916Y177874D01*
X102218Y178605D01*
Y179395D01*
X101916Y180126D01*
X101357Y180685D01*
X100626Y180987D01*
D02*
G37*
G36*
X264895Y179487D02*
X264105D01*
X263374Y179185D01*
X262815Y178626D01*
X262513Y177895D01*
Y177105D01*
X262815Y176374D01*
X263374Y175815D01*
X264105Y175513D01*
X264895D01*
X265626Y175815D01*
X266185Y176374D01*
X266487Y177105D01*
Y177895D01*
X266185Y178626D01*
X265626Y179185D01*
X264895Y179487D01*
D02*
G37*
G36*
X299507Y176675D02*
X297833D01*
Y175001D01*
X298579Y175310D01*
X299198Y175928D01*
X299507Y176675D01*
D02*
G37*
G36*
X296833D02*
X295159D01*
X295468Y175928D01*
X296087Y175310D01*
X296833Y175001D01*
Y176675D01*
D02*
G37*
G36*
X108514Y174942D02*
Y173268D01*
X110188D01*
X109879Y174014D01*
X109260Y174633D01*
X108514Y174942D01*
D02*
G37*
G36*
X107514D02*
X106768Y174633D01*
X106149Y174014D01*
X105840Y173268D01*
X107514D01*
Y174942D01*
D02*
G37*
G36*
X245551Y175970D02*
X244761D01*
X244030Y175667D01*
X243471Y175108D01*
X243169Y174377D01*
Y173587D01*
X243471Y172856D01*
X243777Y172551D01*
X243874Y172087D01*
X243751Y171923D01*
X243262Y171434D01*
X242953Y170688D01*
X247302D01*
X246992Y171434D01*
X246532Y171894D01*
X246393Y172118D01*
X246519Y172534D01*
X246841Y172856D01*
X247144Y173587D01*
Y174377D01*
X246841Y175108D01*
X246282Y175667D01*
X245551Y175970D01*
D02*
G37*
G36*
X110188Y172268D02*
X108514D01*
Y170594D01*
X109260Y170903D01*
X109879Y171521D01*
X110188Y172268D01*
D02*
G37*
G36*
X107514D02*
X105840D01*
X106149Y171521D01*
X106768Y170903D01*
X107514Y170594D01*
Y172268D01*
D02*
G37*
G36*
X247302Y169688D02*
X245627D01*
Y168014D01*
X246374Y168323D01*
X246992Y168942D01*
X247302Y169688D01*
D02*
G37*
G36*
X244627D02*
X242953D01*
X243262Y168942D01*
X243881Y168323D01*
X244627Y168014D01*
Y169688D01*
D02*
G37*
G36*
X103095Y171987D02*
X102305D01*
X101574Y171685D01*
X101015Y171126D01*
X100713Y170395D01*
Y169605D01*
X101015Y168874D01*
X101574Y168315D01*
X102305Y168013D01*
X103095D01*
X103826Y168315D01*
X104385Y168874D01*
X104687Y169605D01*
Y170395D01*
X104385Y171126D01*
X103826Y171685D01*
X103095Y171987D01*
D02*
G37*
G36*
X194495Y171187D02*
X193705D01*
X192974Y170885D01*
X192415Y170326D01*
X192113Y169595D01*
Y168805D01*
X192415Y168074D01*
X192974Y167515D01*
X193705Y167213D01*
X194495D01*
X195226Y167515D01*
X195785Y168074D01*
X196087Y168805D01*
Y169595D01*
X195785Y170326D01*
X195226Y170885D01*
X194495Y171187D01*
D02*
G37*
G36*
X108409Y169402D02*
X107619D01*
X106888Y169099D01*
X106329Y168540D01*
X106027Y167809D01*
Y167019D01*
X106329Y166288D01*
X106888Y165729D01*
X107619Y165427D01*
X108409D01*
X109140Y165729D01*
X109699Y166288D01*
X110002Y167019D01*
Y167809D01*
X109699Y168540D01*
X109140Y169099D01*
X108409Y169402D01*
D02*
G37*
G36*
X264195Y168887D02*
X263405D01*
X262674Y168585D01*
X262115Y168026D01*
X261813Y167295D01*
Y166505D01*
X262115Y165774D01*
X262674Y165215D01*
X263405Y164913D01*
X264195D01*
X264926Y165215D01*
X265485Y165774D01*
X265787Y166505D01*
Y167295D01*
X265485Y168026D01*
X264926Y168585D01*
X264195Y168887D01*
D02*
G37*
G36*
X83295Y168587D02*
X82505D01*
X81774Y168285D01*
X81215Y167726D01*
X80913Y166995D01*
Y166205D01*
X81215Y165474D01*
X81774Y164915D01*
X82505Y164613D01*
X83295D01*
X84026Y164915D01*
X84585Y165474D01*
X84887Y166205D01*
Y166995D01*
X84585Y167726D01*
X84026Y168285D01*
X83295Y168587D01*
D02*
G37*
G36*
X230445Y167637D02*
X229655D01*
X228924Y167335D01*
X228365Y166776D01*
X228063Y166045D01*
Y165255D01*
X228365Y164524D01*
X228924Y163965D01*
X229655Y163663D01*
X230445D01*
X231176Y163965D01*
X231735Y164524D01*
X232037Y165255D01*
Y166045D01*
X231735Y166776D01*
X231176Y167335D01*
X230445Y167637D01*
D02*
G37*
G36*
X100895Y164303D02*
X100105D01*
X99374Y164001D01*
X98815Y163442D01*
X98513Y162711D01*
Y161920D01*
X98815Y161190D01*
X99374Y160631D01*
X100105Y160328D01*
X100895D01*
X101626Y160631D01*
X102185Y161190D01*
X102487Y161920D01*
Y162711D01*
X102185Y163442D01*
X101626Y164001D01*
X100895Y164303D01*
D02*
G37*
G36*
X234500Y160303D02*
Y158628D01*
X236174D01*
X235865Y159375D01*
X235246Y159994D01*
X234500Y160303D01*
D02*
G37*
G36*
X233500D02*
X232754Y159994D01*
X232135Y159375D01*
X231826Y158628D01*
X233500D01*
Y160303D01*
D02*
G37*
G36*
X107500Y159174D02*
Y157500D01*
X109174D01*
X108865Y158246D01*
X108246Y158865D01*
X107500Y159174D01*
D02*
G37*
G36*
X106500D02*
X105754Y158865D01*
X105135Y158246D01*
X104826Y157500D01*
X106500D01*
Y159174D01*
D02*
G37*
G36*
X236174Y157628D02*
X234500D01*
Y155954D01*
X235246Y156263D01*
X235865Y156882D01*
X236174Y157628D01*
D02*
G37*
G36*
X233500D02*
X231826D01*
X232135Y156882D01*
X232754Y156263D01*
X233500Y155954D01*
Y157628D01*
D02*
G37*
G36*
X264195Y158887D02*
X263405D01*
X262674Y158585D01*
X262115Y158026D01*
X261813Y157295D01*
Y156505D01*
X262115Y155774D01*
X262674Y155215D01*
X263405Y154913D01*
X264195D01*
X264926Y155215D01*
X265485Y155774D01*
X265787Y156505D01*
Y157295D01*
X265485Y158026D01*
X264926Y158585D01*
X264195Y158887D01*
D02*
G37*
G36*
X63795Y158687D02*
X63005D01*
X62274Y158385D01*
X61715Y157826D01*
X61413Y157095D01*
Y156305D01*
X61715Y155574D01*
X62274Y155015D01*
X63005Y154713D01*
X63795D01*
X64526Y155015D01*
X65085Y155574D01*
X65387Y156305D01*
Y157095D01*
X65085Y157826D01*
X64526Y158385D01*
X63795Y158687D01*
D02*
G37*
G36*
X239695Y157087D02*
X238905D01*
X238174Y156785D01*
X237615Y156226D01*
X237313Y155495D01*
Y154705D01*
X237615Y153974D01*
X238174Y153415D01*
X238905Y153113D01*
X239695D01*
X240426Y153415D01*
X240985Y153974D01*
X241287Y154705D01*
Y155495D01*
X240985Y156226D01*
X240426Y156785D01*
X239695Y157087D01*
D02*
G37*
G36*
X166395Y156687D02*
X165605D01*
X164874Y156385D01*
X164315Y155826D01*
X164013Y155095D01*
Y154305D01*
X164315Y153574D01*
X164874Y153015D01*
X165605Y152713D01*
X166395D01*
X167126Y153015D01*
X167685Y153574D01*
X167987Y154305D01*
Y155095D01*
X167685Y155826D01*
X167126Y156385D01*
X166395Y156687D01*
D02*
G37*
G36*
X109174Y156500D02*
X104826D01*
X105135Y155754D01*
X105754Y155135D01*
X106116Y154985D01*
Y154444D01*
X105974Y154385D01*
X105415Y153826D01*
X105113Y153095D01*
Y152305D01*
X105415Y151574D01*
X105974Y151015D01*
X106705Y150713D01*
X107495D01*
X108226Y151015D01*
X108785Y151574D01*
X109087Y152305D01*
Y153095D01*
X108785Y153826D01*
X108226Y154385D01*
X107984Y154485D01*
Y155026D01*
X108246Y155135D01*
X108865Y155754D01*
X109174Y156500D01*
D02*
G37*
G36*
X246495Y151687D02*
X245705D01*
X244974Y151385D01*
X244415Y150826D01*
X244113Y150095D01*
Y149305D01*
X244415Y148574D01*
X244974Y148015D01*
X245705Y147713D01*
X246495D01*
X247226Y148015D01*
X247785Y148574D01*
X248087Y149305D01*
Y150095D01*
X247785Y150826D01*
X247226Y151385D01*
X246495Y151687D01*
D02*
G37*
G36*
X63795Y151087D02*
X63005D01*
X62274Y150785D01*
X61715Y150226D01*
X61413Y149495D01*
Y148705D01*
X61715Y147974D01*
X62274Y147415D01*
X63005Y147113D01*
X63795D01*
X64526Y147415D01*
X65085Y147974D01*
X65387Y148705D01*
Y149495D01*
X65085Y150226D01*
X64526Y150785D01*
X63795Y151087D01*
D02*
G37*
G36*
X260995Y150987D02*
X260205D01*
X259474Y150685D01*
X258915Y150126D01*
X258613Y149395D01*
Y148605D01*
X258915Y147874D01*
X259474Y147315D01*
X260205Y147013D01*
X260995D01*
X261726Y147315D01*
X262285Y147874D01*
X262587Y148605D01*
Y149395D01*
X262285Y150126D01*
X261726Y150685D01*
X260995Y150987D01*
D02*
G37*
G36*
X256395D02*
X255605D01*
X254874Y150685D01*
X254315Y150126D01*
X254013Y149395D01*
Y148605D01*
X254315Y147874D01*
X254874Y147315D01*
X255605Y147013D01*
X256395D01*
X257126Y147315D01*
X257685Y147874D01*
X257987Y148605D01*
Y149395D01*
X257685Y150126D01*
X257126Y150685D01*
X256395Y150987D01*
D02*
G37*
G36*
X105695Y148087D02*
X104905D01*
X104174Y147785D01*
X103615Y147226D01*
X103313Y146495D01*
Y145705D01*
X103615Y144974D01*
X104174Y144415D01*
X104905Y144113D01*
X105695D01*
X106426Y144415D01*
X106985Y144974D01*
X107287Y145705D01*
Y146495D01*
X106985Y147226D01*
X106426Y147785D01*
X105695Y148087D01*
D02*
G37*
G36*
X104563Y142574D02*
Y140900D01*
X106237D01*
X105928Y141646D01*
X105309Y142265D01*
X104563Y142574D01*
D02*
G37*
G36*
X103563D02*
X102817Y142265D01*
X102198Y141646D01*
X101889Y140900D01*
X103563D01*
Y142574D01*
D02*
G37*
G36*
X106237Y139900D02*
X104563D01*
Y138226D01*
X105309Y138535D01*
X105928Y139154D01*
X106237Y139900D01*
D02*
G37*
G36*
X103563D02*
X101889D01*
X102198Y139154D01*
X102817Y138535D01*
X103563Y138226D01*
Y139900D01*
D02*
G37*
G36*
X133395Y140987D02*
X132605D01*
X131874Y140685D01*
X131315Y140126D01*
X131013Y139395D01*
Y138605D01*
X131315Y137874D01*
X131874Y137315D01*
X132605Y137013D01*
X133395D01*
X134126Y137315D01*
X134685Y137874D01*
X134987Y138605D01*
Y139395D01*
X134685Y140126D01*
X134126Y140685D01*
X133395Y140987D01*
D02*
G37*
G36*
X256395Y140387D02*
X255605D01*
X254874Y140085D01*
X254315Y139526D01*
X254013Y138795D01*
Y138005D01*
X254315Y137274D01*
X254874Y136715D01*
X255605Y136413D01*
X256395D01*
X257126Y136715D01*
X257685Y137274D01*
X257987Y138005D01*
Y138795D01*
X257685Y139526D01*
X257126Y140085D01*
X256395Y140387D01*
D02*
G37*
G36*
X260795Y138887D02*
X260005D01*
X259274Y138585D01*
X258715Y138026D01*
X258413Y137295D01*
Y136505D01*
X258715Y135774D01*
X259274Y135215D01*
X260005Y134913D01*
X260795D01*
X261526Y135215D01*
X262085Y135774D01*
X262387Y136505D01*
Y137295D01*
X262085Y138026D01*
X261526Y138585D01*
X260795Y138887D01*
D02*
G37*
G36*
X63795Y138787D02*
X63005D01*
X62274Y138485D01*
X61715Y137926D01*
X61413Y137195D01*
Y136405D01*
X61715Y135674D01*
X62274Y135115D01*
X63005Y134813D01*
X63795D01*
X64526Y135115D01*
X65085Y135674D01*
X65387Y136405D01*
Y137195D01*
X65085Y137926D01*
X64526Y138485D01*
X63795Y138787D01*
D02*
G37*
G36*
X237707Y134945D02*
Y133271D01*
X239381D01*
X239072Y134017D01*
X238453Y134636D01*
X237707Y134945D01*
D02*
G37*
G36*
X236707D02*
X235961Y134636D01*
X235342Y134017D01*
X235033Y133271D01*
X236707D01*
Y134945D01*
D02*
G37*
G36*
X228495Y135839D02*
X227704D01*
X226973Y135536D01*
X226414Y134977D01*
X226112Y134247D01*
Y133456D01*
X226414Y132725D01*
X226973Y132166D01*
X227704Y131864D01*
X228495D01*
X229225Y132166D01*
X229784Y132725D01*
X230087Y133456D01*
Y134247D01*
X229784Y134977D01*
X229225Y135536D01*
X228495Y135839D01*
D02*
G37*
G36*
X110795Y135587D02*
X110005D01*
X109274Y135285D01*
X108715Y134726D01*
X108413Y133995D01*
Y133205D01*
X108715Y132474D01*
X109274Y131915D01*
X110005Y131613D01*
X110795D01*
X111526Y131915D01*
X112085Y132474D01*
X112387Y133205D01*
Y133995D01*
X112085Y134726D01*
X111526Y135285D01*
X110795Y135587D01*
D02*
G37*
G36*
X193095Y134787D02*
X192305D01*
X191574Y134485D01*
X191015Y133926D01*
X190713Y133195D01*
Y132405D01*
X191015Y131674D01*
X191574Y131115D01*
X192305Y130813D01*
X193095D01*
X193826Y131115D01*
X194385Y131674D01*
X194687Y132405D01*
Y133195D01*
X194385Y133926D01*
X193826Y134485D01*
X193095Y134787D01*
D02*
G37*
G36*
X239381Y132271D02*
X235033D01*
X235342Y131525D01*
X235961Y130906D01*
X236669Y130613D01*
X236678Y130562D01*
X236661Y130109D01*
X236020Y129844D01*
X235461Y129285D01*
X235158Y128554D01*
Y127764D01*
X235461Y127033D01*
X236020Y126474D01*
X236750Y126172D01*
X237541D01*
X238271Y126474D01*
X238830Y127033D01*
X239133Y127764D01*
Y128554D01*
X238830Y129285D01*
X238271Y129844D01*
X237683Y130087D01*
X237667Y130288D01*
X237733Y130608D01*
X238453Y130906D01*
X239072Y131525D01*
X239381Y132271D01*
D02*
G37*
G36*
X230195Y128787D02*
X229405D01*
X228674Y128485D01*
X228115Y127926D01*
X227813Y127195D01*
Y126405D01*
X228115Y125674D01*
X228674Y125115D01*
X229405Y124813D01*
X230195D01*
X230926Y125115D01*
X231485Y125674D01*
X231787Y126405D01*
Y127195D01*
X231485Y127926D01*
X230926Y128485D01*
X230195Y128787D01*
D02*
G37*
G36*
X110000Y126274D02*
X109254Y125965D01*
X108635Y125346D01*
X108326Y124600D01*
X110000D01*
Y126274D01*
D02*
G37*
G36*
X192295Y127487D02*
X191505D01*
X190774Y127185D01*
X190215Y126626D01*
X189913Y125895D01*
Y125105D01*
X190215Y124374D01*
X190774Y123815D01*
X191505Y123513D01*
X192295D01*
X193026Y123815D01*
X193585Y124374D01*
X193887Y125105D01*
Y125895D01*
X193585Y126626D01*
X193026Y127185D01*
X192295Y127487D01*
D02*
G37*
G36*
X102995Y126187D02*
X102205D01*
X101474Y125885D01*
X100915Y125326D01*
X100613Y124595D01*
Y123805D01*
X100915Y123074D01*
X101474Y122515D01*
X102205Y122213D01*
X102995D01*
X103726Y122515D01*
X104285Y123074D01*
X104587Y123805D01*
Y124595D01*
X104285Y125326D01*
X103726Y125885D01*
X102995Y126187D01*
D02*
G37*
G36*
X111000Y126274D02*
Y124100D01*
Y121926D01*
X111746Y122235D01*
X112365Y122854D01*
X112495Y123166D01*
X113036D01*
X113115Y122974D01*
X113674Y122415D01*
X114405Y122113D01*
X115195D01*
X115926Y122415D01*
X116485Y122974D01*
X116787Y123705D01*
Y124495D01*
X116485Y125226D01*
X115926Y125785D01*
X115195Y126087D01*
X114405D01*
X113674Y125785D01*
X113115Y125226D01*
X113036Y125034D01*
X112495D01*
X112365Y125346D01*
X111746Y125965D01*
X111000Y126274D01*
D02*
G37*
G36*
X110000Y123600D02*
X108326D01*
X108635Y122854D01*
X109254Y122235D01*
X110000Y121926D01*
Y123600D01*
D02*
G37*
G36*
X226800Y122374D02*
X226054Y122065D01*
X225435Y121446D01*
X225149Y120757D01*
X224664Y120717D01*
X224635Y120722D01*
X224385Y121326D01*
X223826Y121885D01*
X223095Y122187D01*
X222305D01*
X221574Y121885D01*
X221015Y121326D01*
X220713Y120595D01*
Y119805D01*
X221015Y119074D01*
X221574Y118515D01*
X222305Y118213D01*
X223095D01*
X223826Y118515D01*
X224385Y119074D01*
X224635Y119678D01*
X224664Y119683D01*
X225149Y119643D01*
X225435Y118954D01*
X226054Y118335D01*
X226800Y118026D01*
Y120200D01*
Y122374D01*
D02*
G37*
G36*
X227800D02*
Y120200D01*
Y118026D01*
X228546Y118335D01*
X229165Y118954D01*
X229451Y119643D01*
X229936Y119683D01*
X229965Y119678D01*
X230215Y119074D01*
X230774Y118515D01*
X231505Y118213D01*
X232295D01*
X233026Y118515D01*
X233585Y119074D01*
X233887Y119805D01*
Y120595D01*
X233585Y121326D01*
X233026Y121885D01*
X232295Y122187D01*
X231505D01*
X230774Y121885D01*
X230215Y121326D01*
X229965Y120722D01*
X229936Y120717D01*
X229451Y120757D01*
X229165Y121446D01*
X228546Y122065D01*
X227800Y122374D01*
D02*
G37*
G36*
X63795Y119287D02*
X63005D01*
X62274Y118985D01*
X61715Y118426D01*
X61413Y117695D01*
Y116905D01*
X61715Y116174D01*
X62274Y115615D01*
X63005Y115313D01*
X63795D01*
X64526Y115615D01*
X65085Y116174D01*
X65387Y116905D01*
Y117695D01*
X65085Y118426D01*
X64526Y118985D01*
X63795Y119287D01*
D02*
G37*
G36*
X255595Y116587D02*
X254805D01*
X254074Y116285D01*
X253515Y115726D01*
X253213Y114995D01*
Y114205D01*
X253515Y113474D01*
X254074Y112915D01*
X254805Y112613D01*
X255595D01*
X256326Y112915D01*
X256885Y113474D01*
X257187Y114205D01*
Y114995D01*
X256885Y115726D01*
X256326Y116285D01*
X255595Y116587D01*
D02*
G37*
G36*
X188332Y111915D02*
Y110240D01*
X190006D01*
X189697Y110986D01*
X189078Y111605D01*
X188332Y111915D01*
D02*
G37*
G36*
X187332D02*
X186586Y111605D01*
X185967Y110986D01*
X185658Y110240D01*
X187332D01*
Y111915D01*
D02*
G37*
G36*
X159400Y111374D02*
Y109700D01*
X161074D01*
X160765Y110446D01*
X160146Y111065D01*
X159400Y111374D01*
D02*
G37*
G36*
X158400D02*
X157654Y111065D01*
X157035Y110446D01*
X156726Y109700D01*
X158400D01*
Y111374D01*
D02*
G37*
G36*
X190006Y109240D02*
X188332D01*
Y107566D01*
X189078Y107875D01*
X189697Y108494D01*
X190006Y109240D01*
D02*
G37*
G36*
X187332D02*
X185658D01*
X185967Y108494D01*
X186586Y107875D01*
X187332Y107566D01*
Y109240D01*
D02*
G37*
G36*
X203700Y107474D02*
X202954Y107165D01*
X202335Y106546D01*
X202306Y106475D01*
X201806D01*
X201785Y106526D01*
X201226Y107085D01*
X200495Y107387D01*
X199705D01*
X198974Y107085D01*
X198415Y106526D01*
X198113Y105795D01*
Y105005D01*
X198415Y104274D01*
X198974Y103715D01*
X199705Y103413D01*
X200495D01*
X201226Y103715D01*
X201727Y104216D01*
X202264Y104225D01*
X202335Y104054D01*
X202954Y103435D01*
X203700Y103126D01*
Y105300D01*
Y107474D01*
D02*
G37*
G36*
X204700D02*
Y105800D01*
X206374D01*
X206065Y106546D01*
X205446Y107165D01*
X204700Y107474D01*
D02*
G37*
G36*
X135400Y107374D02*
X134654Y107065D01*
X134035Y106446D01*
X133749Y105757D01*
X133264Y105717D01*
X133235Y105722D01*
X132985Y106326D01*
X132426Y106885D01*
X131695Y107187D01*
X130905D01*
X130174Y106885D01*
X129615Y106326D01*
X129313Y105595D01*
Y104805D01*
X129615Y104074D01*
X130174Y103515D01*
X130905Y103213D01*
X131695D01*
X132426Y103515D01*
X132985Y104074D01*
X133235Y104678D01*
X133264Y104683D01*
X133749Y104643D01*
X134035Y103954D01*
X134654Y103335D01*
X135400Y103026D01*
Y105200D01*
Y107374D01*
D02*
G37*
G36*
X136400D02*
Y105700D01*
X138074D01*
X137765Y106446D01*
X137146Y107065D01*
X136400Y107374D01*
D02*
G37*
G36*
X172600Y106974D02*
X171854Y106665D01*
X171235Y106046D01*
X170926Y105300D01*
X172600D01*
Y106974D01*
D02*
G37*
G36*
X242495Y108646D02*
X241705D01*
X240974Y108344D01*
X240415Y107785D01*
X240113Y107054D01*
Y106264D01*
X240415Y105533D01*
X240974Y104974D01*
X241705Y104672D01*
X242495D01*
X243226Y104974D01*
X243785Y105533D01*
X244087Y106264D01*
Y107054D01*
X243785Y107785D01*
X243226Y108344D01*
X242495Y108646D01*
D02*
G37*
G36*
X206374Y104800D02*
X204700D01*
Y103126D01*
X205446Y103435D01*
X206065Y104054D01*
X206374Y104800D01*
D02*
G37*
G36*
X138074Y104700D02*
X136400D01*
Y103026D01*
X137146Y103335D01*
X137765Y103954D01*
X138074Y104700D01*
D02*
G37*
G36*
X217400Y104674D02*
Y103000D01*
X219074D01*
X218765Y103746D01*
X218146Y104365D01*
X217400Y104674D01*
D02*
G37*
G36*
X216400D02*
X215654Y104365D01*
X215035Y103746D01*
X214726Y103000D01*
X216400D01*
Y104674D01*
D02*
G37*
G36*
X173600Y106974D02*
Y104800D01*
Y102626D01*
X174346Y102935D01*
X174965Y103554D01*
X175044Y103744D01*
X175585D01*
X175615Y103672D01*
X176174Y103113D01*
X176905Y102810D01*
X177695D01*
X178426Y103113D01*
X178985Y103672D01*
X179287Y104402D01*
Y105193D01*
X178985Y105923D01*
X178426Y106483D01*
X177695Y106785D01*
X176905D01*
X176174Y106483D01*
X175615Y105923D01*
X175586Y105853D01*
X175045D01*
X174965Y106046D01*
X174346Y106665D01*
X173600Y106974D01*
D02*
G37*
G36*
X161074Y108700D02*
X156726D01*
X157035Y107954D01*
X157654Y107335D01*
X158090Y107154D01*
Y106613D01*
X157774Y106483D01*
X157215Y105923D01*
X156913Y105193D01*
Y104402D01*
X157215Y103672D01*
X157774Y103113D01*
X158505Y102810D01*
X159295D01*
X160026Y103113D01*
X160585Y103672D01*
X160887Y104402D01*
Y105193D01*
X160585Y105923D01*
X160026Y106483D01*
X159710Y106613D01*
Y107154D01*
X160146Y107335D01*
X160765Y107954D01*
X161074Y108700D01*
D02*
G37*
G36*
X172600Y104300D02*
X170926D01*
X171235Y103554D01*
X171854Y102935D01*
X172600Y102626D01*
Y104300D01*
D02*
G37*
G36*
X224346Y105287D02*
X223556D01*
X222825Y104985D01*
X222266Y104426D01*
X221964Y103695D01*
Y102905D01*
X222266Y102174D01*
X222825Y101615D01*
X223556Y101313D01*
X224346D01*
X225077Y101615D01*
X225636Y102174D01*
X225939Y102905D01*
Y103695D01*
X225636Y104426D01*
X225077Y104985D01*
X224346Y105287D01*
D02*
G37*
G36*
X219074Y102000D02*
X217400D01*
Y100326D01*
X218146Y100635D01*
X218765Y101254D01*
X219074Y102000D01*
D02*
G37*
G36*
X216400D02*
X214726D01*
X215035Y101254D01*
X215654Y100635D01*
X216400Y100326D01*
Y102000D01*
D02*
G37*
G36*
X244895Y101887D02*
X244105D01*
X243374Y101585D01*
X242815Y101026D01*
X242513Y100295D01*
Y99505D01*
X242815Y98774D01*
X243374Y98215D01*
X244105Y97913D01*
X244895D01*
X245626Y98215D01*
X246185Y98774D01*
X246487Y99505D01*
Y100295D01*
X246185Y101026D01*
X245626Y101585D01*
X244895Y101887D01*
D02*
G37*
G36*
X297800Y99074D02*
Y97400D01*
X299474D01*
X299165Y98146D01*
X298546Y98765D01*
X297800Y99074D01*
D02*
G37*
G36*
X296800D02*
X296054Y98765D01*
X295435Y98146D01*
X295126Y97400D01*
X296800D01*
Y99074D01*
D02*
G37*
G36*
X63795Y98987D02*
X63005D01*
X62274Y98685D01*
X61715Y98126D01*
X61413Y97395D01*
Y96605D01*
X61715Y95874D01*
X62274Y95315D01*
X63005Y95013D01*
X63795D01*
X64526Y95315D01*
X65085Y95874D01*
X65387Y96605D01*
Y97395D01*
X65085Y98126D01*
X64526Y98685D01*
X63795Y98987D01*
D02*
G37*
G36*
X263295Y98787D02*
X262505D01*
X261774Y98485D01*
X261215Y97926D01*
X260913Y97195D01*
Y96405D01*
X261215Y95674D01*
X261774Y95115D01*
X262505Y94813D01*
X263295D01*
X264026Y95115D01*
X264585Y95674D01*
X264887Y96405D01*
Y97195D01*
X264585Y97926D01*
X264026Y98485D01*
X263295Y98787D01*
D02*
G37*
G36*
X299474Y96400D02*
X297800D01*
Y94726D01*
X298546Y95035D01*
X299165Y95654D01*
X299474Y96400D01*
D02*
G37*
G36*
X296800D02*
X295126D01*
X295435Y95654D01*
X296054Y95035D01*
X296800Y94726D01*
Y96400D01*
D02*
G37*
G36*
X328422Y93953D02*
Y92279D01*
X330096D01*
X329787Y93025D01*
X329168Y93644D01*
X328422Y93953D01*
D02*
G37*
G36*
X327422D02*
X326676Y93644D01*
X326057Y93025D01*
X325748Y92279D01*
X327422D01*
Y93953D01*
D02*
G37*
G36*
X239795Y96194D02*
X239005D01*
X238274Y95891D01*
X237715Y95332D01*
X237413Y94602D01*
Y93811D01*
X237715Y93080D01*
X238274Y92521D01*
X239005Y92219D01*
X239795D01*
X240526Y92521D01*
X241085Y93080D01*
X241387Y93811D01*
Y94602D01*
X241085Y95332D01*
X240526Y95891D01*
X239795Y96194D01*
D02*
G37*
G36*
X24875Y93841D02*
Y92167D01*
X26549D01*
X26240Y92913D01*
X25621Y93532D01*
X24875Y93841D01*
D02*
G37*
G36*
X23875D02*
X23129Y93532D01*
X22510Y92913D01*
X22201Y92167D01*
X23875D01*
Y93841D01*
D02*
G37*
G36*
X65578Y93695D02*
Y92021D01*
X67252D01*
X66943Y92768D01*
X66324Y93386D01*
X65578Y93695D01*
D02*
G37*
G36*
X64578D02*
X63832Y93386D01*
X63213Y92768D01*
X62904Y92021D01*
X64578D01*
Y93695D01*
D02*
G37*
G36*
X144843Y94187D02*
X144052D01*
X143321Y93885D01*
X142762Y93326D01*
X142460Y92595D01*
Y91805D01*
X142762Y91074D01*
X143321Y90515D01*
X144052Y90213D01*
X144843D01*
X145573Y90515D01*
X146132Y91074D01*
X146434Y91805D01*
Y92595D01*
X146132Y93326D01*
X145573Y93885D01*
X144843Y94187D01*
D02*
G37*
G36*
X330096Y91279D02*
X328422D01*
Y89605D01*
X329168Y89914D01*
X329787Y90532D01*
X330096Y91279D01*
D02*
G37*
G36*
X327422D02*
X325748D01*
X326057Y90532D01*
X326676Y89914D01*
X327422Y89605D01*
Y91279D01*
D02*
G37*
G36*
X26549Y91167D02*
X24875D01*
Y89493D01*
X25621Y89802D01*
X26240Y90421D01*
X26549Y91167D01*
D02*
G37*
G36*
X23875D02*
X22201D01*
X22510Y90421D01*
X23129Y89802D01*
X23875Y89493D01*
Y91167D01*
D02*
G37*
G36*
X67252Y91021D02*
X65578D01*
Y89347D01*
X66324Y89656D01*
X66943Y90275D01*
X67252Y91021D01*
D02*
G37*
G36*
X64578D02*
X62904D01*
X63213Y90275D01*
X63832Y89656D01*
X64578Y89347D01*
Y91021D01*
D02*
G37*
G36*
X127595Y91587D02*
X126805D01*
X126074Y91285D01*
X125515Y90726D01*
X125213Y89995D01*
Y89205D01*
X125515Y88474D01*
X126074Y87915D01*
X126805Y87613D01*
X127595D01*
X128326Y87915D01*
X128885Y88474D01*
X129187Y89205D01*
Y89995D01*
X128885Y90726D01*
X128326Y91285D01*
X127595Y91587D01*
D02*
G37*
G36*
X117895Y91387D02*
X117105D01*
X116374Y91085D01*
X115815Y90526D01*
X115513Y89795D01*
Y89005D01*
X115815Y88274D01*
X116374Y87715D01*
X117105Y87413D01*
X117895D01*
X118626Y87715D01*
X119185Y88274D01*
X119487Y89005D01*
Y89795D01*
X119185Y90526D01*
X118626Y91085D01*
X117895Y91387D01*
D02*
G37*
G36*
X311565Y91091D02*
X310435D01*
X309344Y90799D01*
X308365Y90234D01*
X307566Y89435D01*
X307001Y88456D01*
X306709Y87365D01*
Y86235D01*
X307001Y85144D01*
X307566Y84165D01*
X308365Y83366D01*
X309344Y82801D01*
X310435Y82509D01*
X311565D01*
X312656Y82801D01*
X313635Y83366D01*
X314434Y84165D01*
X314999Y85144D01*
X315291Y86235D01*
Y87365D01*
X314999Y88456D01*
X314434Y89435D01*
X313635Y90234D01*
X312656Y90799D01*
X311565Y91091D01*
D02*
G37*
G36*
X282491D02*
X281362D01*
X280270Y90799D01*
X279292Y90234D01*
X278492Y89435D01*
X277927Y88456D01*
X277635Y87365D01*
Y86235D01*
X277927Y85144D01*
X278492Y84165D01*
X279292Y83366D01*
X280270Y82801D01*
X281362Y82509D01*
X282491D01*
X283583Y82801D01*
X284561Y83366D01*
X285360Y84165D01*
X285925Y85144D01*
X286218Y86235D01*
Y87365D01*
X285925Y88456D01*
X285360Y89435D01*
X284561Y90234D01*
X283583Y90799D01*
X282491Y91091D01*
D02*
G37*
G36*
X43538D02*
X42408D01*
X41317Y90799D01*
X40338Y90234D01*
X39539Y89435D01*
X38974Y88456D01*
X38682Y87365D01*
Y86235D01*
X38974Y85144D01*
X39539Y84165D01*
X40338Y83366D01*
X41317Y82801D01*
X42408Y82509D01*
X43538D01*
X44630Y82801D01*
X45608Y83366D01*
X46407Y84165D01*
X46972Y85144D01*
X47265Y86235D01*
Y87365D01*
X46972Y88456D01*
X46407Y89435D01*
X45608Y90234D01*
X44630Y90799D01*
X43538Y91091D01*
D02*
G37*
G36*
X82524Y91091D02*
X81394D01*
X80303Y90799D01*
X79324Y90234D01*
X78525Y89435D01*
X77960Y88456D01*
X77668Y87365D01*
Y86235D01*
X77960Y85144D01*
X78525Y84165D01*
X79324Y83366D01*
X80303Y82801D01*
X81394Y82509D01*
X82524D01*
X83615Y82801D01*
X84594Y83366D01*
X85393Y84165D01*
X85958Y85144D01*
X86250Y86235D01*
Y87365D01*
X85958Y88456D01*
X85393Y89435D01*
X84594Y90234D01*
X83615Y90799D01*
X82524Y91091D01*
D02*
G37*
G36*
X168195Y80987D02*
X167405D01*
X166674Y80685D01*
X166115Y80126D01*
X165813Y79395D01*
Y78605D01*
X166115Y77874D01*
X166674Y77315D01*
X167405Y77013D01*
X168195D01*
X168926Y77315D01*
X169485Y77874D01*
X169787Y78605D01*
Y79395D01*
X169485Y80126D01*
X168926Y80685D01*
X168195Y80987D01*
D02*
G37*
G36*
X196895Y78287D02*
X196105D01*
X195374Y77985D01*
X194815Y77426D01*
X194513Y76695D01*
Y75905D01*
X194815Y75174D01*
X195374Y74615D01*
X196105Y74313D01*
X196895D01*
X197626Y74615D01*
X198185Y75174D01*
X198487Y75905D01*
Y76695D01*
X198185Y77426D01*
X197626Y77985D01*
X196895Y78287D01*
D02*
G37*
G36*
X297895Y77987D02*
X297105D01*
X296374Y77685D01*
X295815Y77126D01*
X295513Y76395D01*
Y75605D01*
X295815Y74874D01*
X296374Y74315D01*
X297105Y74013D01*
X297895D01*
X298626Y74315D01*
X299185Y74874D01*
X299487Y75605D01*
Y76395D01*
X299185Y77126D01*
X298626Y77685D01*
X297895Y77987D01*
D02*
G37*
G36*
X63995Y77787D02*
X63205D01*
X62474Y77485D01*
X61915Y76926D01*
X61613Y76195D01*
Y75405D01*
X61915Y74674D01*
X62474Y74115D01*
X63205Y73813D01*
X63995D01*
X64726Y74115D01*
X65285Y74674D01*
X65587Y75405D01*
Y76195D01*
X65285Y76926D01*
X64726Y77485D01*
X63995Y77787D01*
D02*
G37*
G36*
X102895Y77287D02*
X102105D01*
X101374Y76985D01*
X100815Y76426D01*
X100513Y75695D01*
Y74905D01*
X100815Y74174D01*
X101374Y73615D01*
X102105Y73313D01*
X102895D01*
X103626Y73615D01*
X104185Y74174D01*
X104487Y74905D01*
Y75695D01*
X104185Y76426D01*
X103626Y76985D01*
X102895Y77287D01*
D02*
G37*
G36*
X217295Y74687D02*
X216505D01*
X215774Y74385D01*
X215215Y73826D01*
X214913Y73095D01*
Y72305D01*
X215215Y71574D01*
X215774Y71015D01*
X216505Y70713D01*
X217295D01*
X218026Y71015D01*
X218585Y71574D01*
X218887Y72305D01*
Y73095D01*
X218585Y73826D01*
X218026Y74385D01*
X217295Y74687D01*
D02*
G37*
G36*
X196895Y66787D02*
X196105D01*
X195374Y66485D01*
X194815Y65926D01*
X194513Y65195D01*
Y64405D01*
X194815Y63674D01*
X195374Y63115D01*
X196105Y62813D01*
X196895D01*
X197626Y63115D01*
X198185Y63674D01*
X198487Y64405D01*
Y65195D01*
X198185Y65926D01*
X197626Y66485D01*
X196895Y66787D01*
D02*
G37*
G36*
X117900Y57074D02*
Y55400D01*
X119574D01*
X119265Y56146D01*
X118646Y56765D01*
X117900Y57074D01*
D02*
G37*
G36*
X116900D02*
X116154Y56765D01*
X115535Y56146D01*
X115226Y55400D01*
X116900D01*
Y57074D01*
D02*
G37*
G36*
X119574Y54400D02*
X117900D01*
Y52726D01*
X118646Y53035D01*
X119265Y53654D01*
X119574Y54400D01*
D02*
G37*
G36*
X116900D02*
X115226D01*
X115535Y53654D01*
X116154Y53035D01*
X116900Y52726D01*
Y54400D01*
D02*
G37*
G36*
X132965Y51743D02*
X131835D01*
X130744Y51450D01*
X129765Y50885D01*
X128966Y50086D01*
X128401Y49108D01*
X128109Y48016D01*
Y46886D01*
X128401Y45795D01*
X128966Y44816D01*
X129765Y44017D01*
X130744Y43452D01*
X131835Y43160D01*
X132965D01*
X134056Y43452D01*
X135035Y44017D01*
X135834Y44816D01*
X136399Y45795D01*
X136691Y46886D01*
Y48016D01*
X136399Y49108D01*
X135834Y50086D01*
X135035Y50885D01*
X134056Y51450D01*
X132965Y51743D01*
D02*
G37*
G36*
X112965D02*
X111835D01*
X110744Y51450D01*
X109765Y50885D01*
X108966Y50086D01*
X108401Y49108D01*
X108109Y48016D01*
Y46886D01*
X108401Y45795D01*
X108966Y44816D01*
X109765Y44017D01*
X110744Y43452D01*
X111835Y43160D01*
X112965D01*
X114056Y43452D01*
X115035Y44017D01*
X115834Y44816D01*
X116399Y45795D01*
X116691Y46886D01*
Y48016D01*
X116399Y49108D01*
X115834Y50086D01*
X115035Y50885D01*
X114056Y51450D01*
X112965Y51743D01*
D02*
G37*
G36*
X190854Y33274D02*
Y31600D01*
X192529D01*
X192219Y32346D01*
X191601Y32965D01*
X190854Y33274D01*
D02*
G37*
G36*
X189854D02*
X189108Y32965D01*
X188489Y32346D01*
X188180Y31600D01*
X189854D01*
Y33274D01*
D02*
G37*
G36*
X162000Y32974D02*
Y31300D01*
X163674D01*
X163365Y32046D01*
X162746Y32665D01*
X162000Y32974D01*
D02*
G37*
G36*
X161000D02*
X160254Y32665D01*
X159635Y32046D01*
X159326Y31300D01*
X161000D01*
Y32974D01*
D02*
G37*
G36*
X192529Y30600D02*
X190854D01*
Y28926D01*
X191601Y29235D01*
X192219Y29854D01*
X192529Y30600D01*
D02*
G37*
G36*
X189854D02*
X188180D01*
X188489Y29854D01*
X189108Y29235D01*
X189854Y28926D01*
Y30600D01*
D02*
G37*
G36*
X163674Y30300D02*
X162000D01*
Y28626D01*
X162746Y28935D01*
X163365Y29554D01*
X163674Y30300D01*
D02*
G37*
G36*
X161000D02*
X159326D01*
X159635Y29554D01*
X160254Y28935D01*
X161000Y28626D01*
Y30300D01*
D02*
G37*
G36*
X221519Y27574D02*
Y25900D01*
X223193D01*
X222884Y26646D01*
X222265Y27265D01*
X221519Y27574D01*
D02*
G37*
G36*
X220519D02*
X219773Y27265D01*
X219154Y26646D01*
X218845Y25900D01*
X220519D01*
Y27574D01*
D02*
G37*
G36*
X230076Y27387D02*
X229285D01*
X228555Y27085D01*
X227996Y26526D01*
X227693Y25795D01*
Y25005D01*
X227996Y24274D01*
X228555Y23715D01*
X229285Y23413D01*
X230076D01*
X230806Y23715D01*
X231365Y24274D01*
X231668Y25005D01*
Y25795D01*
X231365Y26526D01*
X230806Y27085D01*
X230076Y27387D01*
D02*
G37*
G36*
X223193Y24900D02*
X221519D01*
Y23226D01*
X222265Y23535D01*
X222884Y24154D01*
X223193Y24900D01*
D02*
G37*
G36*
X220519D02*
X218845D01*
X219154Y24154D01*
X219773Y23535D01*
X220519Y23226D01*
Y24900D01*
D02*
G37*
G36*
X334816Y28287D02*
X333184D01*
X331583Y27969D01*
X330074Y27344D01*
X328717Y26437D01*
X327563Y25283D01*
X326656Y23926D01*
X326031Y22417D01*
X325713Y20816D01*
Y19184D01*
X326031Y17583D01*
X326656Y16074D01*
X327563Y14717D01*
X328717Y13563D01*
X330074Y12656D01*
X331583Y12031D01*
X333184Y11713D01*
X334816D01*
X336417Y12031D01*
X337926Y12656D01*
X339283Y13563D01*
X340437Y14717D01*
X341344Y16074D01*
X341969Y17583D01*
X342287Y19184D01*
Y20816D01*
X341969Y22417D01*
X341344Y23926D01*
X340437Y25283D01*
X339283Y26437D01*
X337926Y27344D01*
X336417Y27969D01*
X334816Y28287D01*
D02*
G37*
G36*
X20816D02*
X19184D01*
X17583Y27969D01*
X16074Y27344D01*
X14717Y26437D01*
X13563Y25283D01*
X12656Y23926D01*
X12031Y22417D01*
X11713Y20816D01*
Y19184D01*
X12031Y17583D01*
X12656Y16074D01*
X13563Y14717D01*
X14717Y13563D01*
X16074Y12656D01*
X17583Y12031D01*
X19184Y11713D01*
X20816D01*
X22417Y12031D01*
X23926Y12656D01*
X25283Y13563D01*
X26437Y14717D01*
X27344Y16074D01*
X27969Y17583D01*
X28287Y19184D01*
Y20816D01*
X27969Y22417D01*
X27344Y23926D01*
X26437Y25283D01*
X25283Y26437D01*
X23926Y27344D01*
X22417Y27969D01*
X20816Y28287D01*
D02*
G37*
%LPD*%
D73*
X42973Y266800D02*
D03*
Y86800D02*
D03*
X281926D02*
D03*
Y266800D02*
D03*
D74*
X81959Y266800D02*
D03*
Y86800D02*
D03*
X311000Y266800D02*
D03*
Y86800D02*
D03*
X112400Y47451D02*
D03*
X132400D02*
D03*
D75*
X20000Y20000D02*
D03*
X334000D02*
D03*
Y334000D02*
D03*
X20000D02*
D03*
D76*
X63900Y182600D02*
D03*
X65078Y91521D02*
D03*
X327922Y91779D02*
D03*
Y181679D02*
D03*
X297333Y177175D02*
D03*
X24375Y181567D02*
D03*
X297300Y96900D02*
D03*
X24375Y91667D02*
D03*
X267900Y277200D02*
D03*
X295400Y277300D02*
D03*
X56600Y277500D02*
D03*
X29400D02*
D03*
X135503Y226307D02*
D03*
X235645Y206154D02*
D03*
Y209978D02*
D03*
X237207Y132771D02*
D03*
X237146Y128159D02*
D03*
X229800Y126800D02*
D03*
X227300Y120200D02*
D03*
X231900D02*
D03*
X204200Y105300D02*
D03*
X200100Y105400D02*
D03*
X177300Y104798D02*
D03*
X173100Y104800D02*
D03*
X158900Y104798D02*
D03*
Y109200D02*
D03*
X135900Y105200D02*
D03*
X131300D02*
D03*
X110500Y124100D02*
D03*
X107000Y157000D02*
D03*
X107100Y152700D02*
D03*
X110300Y207800D02*
D03*
X205800Y229379D02*
D03*
X201400D02*
D03*
X169116Y226811D02*
D03*
X164800D02*
D03*
X196500Y229379D02*
D03*
X192272Y229415D02*
D03*
X110430Y213737D02*
D03*
Y217506D02*
D03*
X196500Y76300D02*
D03*
X167800Y79000D02*
D03*
X242100Y106659D02*
D03*
X252400Y232700D02*
D03*
X194100Y169200D02*
D03*
X166000Y154700D02*
D03*
X63600Y75800D02*
D03*
X297500Y76000D02*
D03*
X168200Y252000D02*
D03*
Y238300D02*
D03*
X196000Y256900D02*
D03*
X153044Y324174D02*
D03*
X158556D02*
D03*
X161500Y179400D02*
D03*
X211454Y200249D02*
D03*
X133000Y139000D02*
D03*
X132600Y186100D02*
D03*
X102600Y124200D02*
D03*
X110400Y133600D02*
D03*
X108014Y167414D02*
D03*
X117500Y89400D02*
D03*
X114800Y124100D02*
D03*
X100231Y179000D02*
D03*
X110430Y203528D02*
D03*
X196500Y64800D02*
D03*
X216900Y72700D02*
D03*
X223951Y103300D02*
D03*
X227400Y207200D02*
D03*
X229680Y25400D02*
D03*
X239400Y94206D02*
D03*
X244500Y99900D02*
D03*
X255200Y114600D02*
D03*
X230050Y165650D02*
D03*
X245156Y173982D02*
D03*
X188132Y226028D02*
D03*
X201421Y250084D02*
D03*
Y278100D02*
D03*
X216300Y241100D02*
D03*
X236000Y255600D02*
D03*
X241800Y265400D02*
D03*
X191900Y125500D02*
D03*
X222700Y120200D02*
D03*
X99900Y216100D02*
D03*
X122200Y214900D02*
D03*
X139272Y226307D02*
D03*
X103600Y243800D02*
D03*
X103500Y253600D02*
D03*
X154700Y231400D02*
D03*
X262900Y96800D02*
D03*
X264500Y177500D02*
D03*
X259936Y189100D02*
D03*
X108014Y172768D02*
D03*
X100500Y162316D02*
D03*
X82900Y166600D02*
D03*
X260400Y136900D02*
D03*
X256000Y138400D02*
D03*
X194269Y221854D02*
D03*
X138800Y238000D02*
D03*
X260600Y149000D02*
D03*
X105300Y146100D02*
D03*
X187832Y109740D02*
D03*
X216900Y102500D02*
D03*
X228099Y133851D02*
D03*
X102700Y170000D02*
D03*
X245127Y170188D02*
D03*
X320900Y277500D02*
D03*
X192700Y132800D02*
D03*
X113326Y300344D02*
D03*
X241512Y214012D02*
D03*
X104063Y140400D02*
D03*
X246100Y149700D02*
D03*
X256000Y149000D02*
D03*
X239300Y155100D02*
D03*
X263800Y156900D02*
D03*
Y166900D02*
D03*
X234000Y158128D02*
D03*
X236000Y250025D02*
D03*
X221812Y241100D02*
D03*
X92000Y277300D02*
D03*
X71800Y277500D02*
D03*
X63400Y156700D02*
D03*
Y117300D02*
D03*
X127200Y89600D02*
D03*
X144447Y92200D02*
D03*
X102500Y75300D02*
D03*
X63400Y149100D02*
D03*
Y136800D02*
D03*
X42800Y226200D02*
D03*
X63400Y97000D02*
D03*
X161500Y30800D02*
D03*
X221019Y25400D02*
D03*
X190354Y31100D02*
D03*
X300900Y277300D02*
D03*
X117400Y54900D02*
D03*
X65025Y305600D02*
D03*
M02*
