G04*
G04 #@! TF.GenerationSoftware,Altium Limited,Altium Designer,23.11.1 (41)*
G04*
G04 Layer_Color=32896*
%FSLAX25Y25*%
%MOIN*%
G70*
G04*
G04 #@! TF.SameCoordinates,7B13C31F-70D5-41CF-BA4D-497FEED21CC8*
G04*
G04*
G04 #@! TF.FilePolarity,Positive*
G04*
G01*
G75*
%ADD10C,0.00787*%
%ADD11C,0.01000*%
%ADD13C,0.00500*%
%ADD15C,0.00394*%
%ADD16C,0.00800*%
D10*
X328028Y81603D02*
G03*
X328028Y81603I-197J0D01*
G01*
X98987D02*
G03*
X98987Y81603I-197J0D01*
G01*
X146148Y62676D02*
G03*
X146148Y62676I-394J0D01*
G01*
D11*
X214300Y151798D02*
Y146800D01*
X213300Y145800D01*
X211301D01*
X210301Y146800D01*
Y151798D01*
X204303D02*
X208302D01*
Y148799D01*
X206303Y149799D01*
X205303D01*
X204303Y148799D01*
Y146800D01*
X205303Y145800D01*
X207302D01*
X208302Y146800D01*
X322500Y289399D02*
X324499D01*
X323499D01*
Y284401D01*
X324499Y283401D01*
X325499D01*
X326498Y284401D01*
X316502Y289399D02*
X320500D01*
Y286400D01*
X318501Y287400D01*
X317501D01*
X316502Y286400D01*
Y284401D01*
X317501Y283401D01*
X319501D01*
X320500Y284401D01*
X72700Y289599D02*
X74699D01*
X73699D01*
Y284601D01*
X74699Y283601D01*
X75699D01*
X76698Y284601D01*
X67701Y283601D02*
Y289599D01*
X70700Y286600D01*
X66702D01*
D13*
X162681Y19400D02*
G03*
X158381Y23700I-4300J0D01*
G01*
X204781D02*
G03*
X200481Y19400I0J-4300D01*
G01*
X211581Y23700D02*
Y59113D01*
X162681Y19400D02*
X200481D01*
X204781Y23700D02*
X211581D01*
X151581D02*
X158381D01*
X151581D02*
Y59113D01*
Y141700D02*
X211581D01*
D15*
X301000Y76800D02*
X321000D01*
X302824Y276800D02*
X319040D01*
X71959Y76800D02*
X91959D01*
X73660Y276800D02*
X90076D01*
D16*
X62519Y273171D02*
X63185Y273837D01*
X64518D01*
X65184Y273171D01*
Y270505D01*
X64518Y269839D01*
X63185D01*
X62519Y270505D01*
Y271838D01*
X63851D01*
X61186Y269839D02*
Y273837D01*
X58520Y269839D01*
Y273837D01*
X57187D02*
Y269839D01*
X55188D01*
X54521Y270505D01*
Y273171D01*
X55188Y273837D01*
X57187D01*
X291434Y273132D02*
X292101Y273799D01*
X293434D01*
X294100Y273132D01*
Y270466D01*
X293434Y269800D01*
X292101D01*
X291434Y270466D01*
Y271799D01*
X292767D01*
X290101Y269800D02*
Y273799D01*
X287436Y269800D01*
Y273799D01*
X286103D02*
Y269800D01*
X284103D01*
X283437Y270466D01*
Y273132D01*
X284103Y273799D01*
X286103D01*
X291634Y83699D02*
X294300D01*
Y81699D01*
X292967Y82366D01*
X292301D01*
X291634Y81699D01*
Y80366D01*
X292301Y79700D01*
X293634D01*
X294300Y80366D01*
X290301Y83699D02*
Y81033D01*
X288968Y79700D01*
X287635Y81033D01*
Y83699D01*
X65300Y83332D02*
X64634Y83999D01*
X63301D01*
X62634Y83332D01*
Y82666D01*
X63301Y81999D01*
X63967D01*
X63301D01*
X62634Y81333D01*
Y80666D01*
X63301Y80000D01*
X64634D01*
X65300Y80666D01*
X61301Y83999D02*
Y81333D01*
X59968Y80000D01*
X58635Y81333D01*
Y83999D01*
X57303Y83332D02*
X56636Y83999D01*
X55303D01*
X54637Y83332D01*
Y82666D01*
X55303Y81999D01*
X55970D01*
X55303D01*
X54637Y81333D01*
Y80666D01*
X55303Y80000D01*
X56636D01*
X57303Y80666D01*
M02*
