G04*
G04 #@! TF.GenerationSoftware,Altium Limited,Altium Designer,23.11.1 (41)*
G04*
G04 Layer_Physical_Order=3*
G04 Layer_Color=36540*
%FSLAX25Y25*%
%MOIN*%
G70*
G04*
G04 #@! TF.SameCoordinates,7B13C31F-70D5-41CF-BA4D-497FEED21CC8*
G04*
G04*
G04 #@! TF.FilePolarity,Positive*
G04*
G01*
G75*
%ADD71C,0.00600*%
%ADD73C,0.07008*%
%ADD74C,0.03504*%
%ADD75C,0.06000*%
%ADD76C,0.02400*%
G36*
X348761Y352577D02*
X349798Y352148D01*
X350731Y351524D01*
X351524Y350731D01*
X352148Y349798D01*
X352577Y348761D01*
X352796Y347661D01*
Y347100D01*
Y321499D01*
X336649Y305351D01*
X336649Y305351D01*
X336387Y304961D01*
X336296Y304500D01*
Y49500D01*
X336296Y49500D01*
X336387Y49039D01*
X336649Y48649D01*
X352796Y32501D01*
X352796Y7000D01*
X352796Y6429D01*
X352573Y5309D01*
X352136Y4255D01*
X351502Y3305D01*
X350695Y2498D01*
X349745Y1864D01*
X348691Y1427D01*
X347571Y1204D01*
X347000Y1204D01*
X321499D01*
X305351Y17351D01*
X305351Y17352D01*
X304961Y17613D01*
X304500Y17704D01*
X49500D01*
X49500Y17704D01*
X49039Y17613D01*
X48649Y17352D01*
X32501Y1204D01*
X7000D01*
X6429Y1204D01*
X5309Y1427D01*
X4255Y1864D01*
X3305Y2498D01*
X2498Y3305D01*
X1864Y4254D01*
X1427Y5309D01*
X1204Y6429D01*
X1204Y7000D01*
Y32501D01*
X17351Y48649D01*
X17352Y48649D01*
X17613Y49039D01*
X17704Y49500D01*
Y304500D01*
X17704Y304500D01*
X17613Y304961D01*
X17352Y305351D01*
X1204Y321499D01*
Y347000D01*
Y347571D01*
X1427Y348691D01*
X1864Y349745D01*
X2498Y350695D01*
X3305Y351502D01*
X4255Y352136D01*
X5309Y352573D01*
X6429Y352796D01*
X32501D01*
X48649Y336649D01*
X48649Y336649D01*
X49039Y336387D01*
X49500Y336296D01*
X304500D01*
X304500Y336296D01*
X304961Y336387D01*
X305351Y336649D01*
X321499Y352796D01*
X347661D01*
X348761Y352577D01*
D02*
G37*
%LPC*%
G36*
X334816Y342287D02*
X333184D01*
X331583Y341969D01*
X330074Y341344D01*
X328717Y340437D01*
X327563Y339283D01*
X326656Y337926D01*
X326031Y336417D01*
X325713Y334816D01*
Y333184D01*
X326031Y331583D01*
X326656Y330074D01*
X327563Y328717D01*
X328717Y327563D01*
X330074Y326656D01*
X331583Y326031D01*
X333184Y325713D01*
X334816D01*
X336417Y326031D01*
X337926Y326656D01*
X339283Y327563D01*
X340437Y328717D01*
X341344Y330074D01*
X341969Y331583D01*
X342287Y333184D01*
Y334816D01*
X341969Y336417D01*
X341344Y337926D01*
X340437Y339283D01*
X339283Y340437D01*
X337926Y341344D01*
X336417Y341969D01*
X334816Y342287D01*
D02*
G37*
G36*
X20816D02*
X19184D01*
X17583Y341969D01*
X16074Y341344D01*
X14717Y340437D01*
X13563Y339283D01*
X12656Y337926D01*
X12031Y336417D01*
X11713Y334816D01*
Y333184D01*
X12031Y331583D01*
X12656Y330074D01*
X13563Y328717D01*
X14717Y327563D01*
X16074Y326656D01*
X17583Y326031D01*
X19184Y325713D01*
X20816D01*
X22417Y326031D01*
X23926Y326656D01*
X25283Y327563D01*
X26437Y328717D01*
X27344Y330074D01*
X27969Y331583D01*
X28287Y333184D01*
Y334816D01*
X27969Y336417D01*
X27344Y337926D01*
X26437Y339283D01*
X25283Y340437D01*
X23926Y341344D01*
X22417Y341969D01*
X20816Y342287D01*
D02*
G37*
G36*
X153544Y326349D02*
Y324675D01*
X155218D01*
X154909Y325421D01*
X154290Y326040D01*
X153544Y326349D01*
D02*
G37*
G36*
X152544D02*
X151798Y326040D01*
X151179Y325421D01*
X150870Y324675D01*
X152544D01*
Y326349D01*
D02*
G37*
G36*
X158951Y326162D02*
X158161D01*
X157430Y325859D01*
X156871Y325300D01*
X156569Y324570D01*
Y323779D01*
X156871Y323049D01*
X157430Y322490D01*
X158161Y322187D01*
X158951D01*
X159682Y322490D01*
X160241Y323049D01*
X160543Y323779D01*
Y324570D01*
X160241Y325300D01*
X159682Y325859D01*
X158951Y326162D01*
D02*
G37*
G36*
X155218Y323675D02*
X153544D01*
Y322000D01*
X154290Y322309D01*
X154909Y322928D01*
X155218Y323675D01*
D02*
G37*
G36*
X152544D02*
X150870D01*
X151179Y322928D01*
X151798Y322309D01*
X152544Y322000D01*
Y323675D01*
D02*
G37*
G36*
X65421Y307587D02*
X64630D01*
X63900Y307285D01*
X63341Y306726D01*
X63038Y305995D01*
Y305205D01*
X63341Y304474D01*
X63900Y303915D01*
X64630Y303613D01*
X65421D01*
X66151Y303915D01*
X66710Y304474D01*
X67013Y305205D01*
Y305995D01*
X66710Y306726D01*
X66151Y307285D01*
X65421Y307587D01*
D02*
G37*
G36*
X113721Y302331D02*
X112930D01*
X112200Y302029D01*
X111641Y301470D01*
X111338Y300739D01*
Y299949D01*
X111641Y299218D01*
X112200Y298659D01*
X112930Y298357D01*
X113721D01*
X114451Y298659D01*
X115010Y299218D01*
X115313Y299949D01*
Y300739D01*
X115010Y301470D01*
X114451Y302029D01*
X113721Y302331D01*
D02*
G37*
G36*
X201921Y280274D02*
Y278600D01*
X203595D01*
X203286Y279346D01*
X202667Y279965D01*
X201921Y280274D01*
D02*
G37*
G36*
X200921D02*
X200175Y279965D01*
X199556Y279346D01*
X199247Y278600D01*
X200921D01*
Y280274D01*
D02*
G37*
G36*
X203595Y277600D02*
X201921D01*
Y275926D01*
X202667Y276235D01*
X203286Y276854D01*
X203595Y277600D01*
D02*
G37*
G36*
X200921D02*
X199247D01*
X199556Y276854D01*
X200175Y276235D01*
X200921Y275926D01*
Y277600D01*
D02*
G37*
G36*
X321295Y279487D02*
X320505D01*
X319774Y279185D01*
X319215Y278626D01*
X318913Y277895D01*
Y277105D01*
X319215Y276374D01*
X319774Y275815D01*
X320505Y275513D01*
X321295D01*
X322026Y275815D01*
X322585Y276374D01*
X322887Y277105D01*
Y277895D01*
X322585Y278626D01*
X322026Y279185D01*
X321295Y279487D01*
D02*
G37*
G36*
X72195D02*
X71405D01*
X70674Y279185D01*
X70115Y278626D01*
X69813Y277895D01*
Y277105D01*
X70115Y276374D01*
X70674Y275815D01*
X71405Y275513D01*
X72195D01*
X72926Y275815D01*
X73485Y276374D01*
X73787Y277105D01*
Y277895D01*
X73485Y278626D01*
X72926Y279185D01*
X72195Y279487D01*
D02*
G37*
G36*
X56995D02*
X56205D01*
X55474Y279185D01*
X54915Y278626D01*
X54613Y277895D01*
Y277105D01*
X54915Y276374D01*
X55474Y275815D01*
X56205Y275513D01*
X56995D01*
X57726Y275815D01*
X58285Y276374D01*
X58587Y277105D01*
Y277895D01*
X58285Y278626D01*
X57726Y279185D01*
X56995Y279487D01*
D02*
G37*
G36*
X29795D02*
X29005D01*
X28274Y279185D01*
X27715Y278626D01*
X27413Y277895D01*
Y277105D01*
X27715Y276374D01*
X28274Y275815D01*
X29005Y275513D01*
X29795D01*
X30526Y275815D01*
X31085Y276374D01*
X31387Y277105D01*
Y277895D01*
X31085Y278626D01*
X30526Y279185D01*
X29795Y279487D01*
D02*
G37*
G36*
X301295Y279287D02*
X300505D01*
X299774Y278985D01*
X299215Y278426D01*
X298913Y277695D01*
Y276905D01*
X299215Y276174D01*
X299774Y275615D01*
X300505Y275313D01*
X301295D01*
X302026Y275615D01*
X302585Y276174D01*
X302887Y276905D01*
Y277695D01*
X302585Y278426D01*
X302026Y278985D01*
X301295Y279287D01*
D02*
G37*
G36*
X295795D02*
X295005D01*
X294274Y278985D01*
X293715Y278426D01*
X293413Y277695D01*
Y276905D01*
X293715Y276174D01*
X294274Y275615D01*
X295005Y275313D01*
X295795D01*
X296526Y275615D01*
X297085Y276174D01*
X297387Y276905D01*
Y277695D01*
X297085Y278426D01*
X296526Y278985D01*
X295795Y279287D01*
D02*
G37*
G36*
X92395D02*
X91605D01*
X90874Y278985D01*
X90315Y278426D01*
X90013Y277695D01*
Y276905D01*
X90315Y276174D01*
X90874Y275615D01*
X91605Y275313D01*
X92395D01*
X93126Y275615D01*
X93685Y276174D01*
X93987Y276905D01*
Y277695D01*
X93685Y278426D01*
X93126Y278985D01*
X92395Y279287D01*
D02*
G37*
G36*
X268295Y279187D02*
X267505D01*
X266774Y278885D01*
X266215Y278326D01*
X265913Y277595D01*
Y276805D01*
X266215Y276074D01*
X266774Y275515D01*
X267505Y275213D01*
X268295D01*
X269026Y275515D01*
X269585Y276074D01*
X269887Y276805D01*
Y277595D01*
X269585Y278326D01*
X269026Y278885D01*
X268295Y279187D01*
D02*
G37*
G36*
X242300Y267574D02*
Y265900D01*
X243974D01*
X243665Y266646D01*
X243046Y267265D01*
X242300Y267574D01*
D02*
G37*
G36*
X241300D02*
X240554Y267265D01*
X239935Y266646D01*
X239626Y265900D01*
X241300D01*
Y267574D01*
D02*
G37*
G36*
X243974Y264900D02*
X242300D01*
Y263226D01*
X243046Y263535D01*
X243665Y264154D01*
X243974Y264900D01*
D02*
G37*
G36*
X241300D02*
X239626D01*
X239935Y264154D01*
X240554Y263535D01*
X241300Y263226D01*
Y264900D01*
D02*
G37*
G36*
X311565Y271091D02*
X310435D01*
X309344Y270799D01*
X308365Y270234D01*
X307566Y269435D01*
X307001Y268456D01*
X306709Y267365D01*
Y266235D01*
X307001Y265144D01*
X307566Y264165D01*
X308365Y263366D01*
X309344Y262801D01*
X310435Y262509D01*
X311565D01*
X312656Y262801D01*
X313635Y263366D01*
X314434Y264165D01*
X314999Y265144D01*
X315291Y266235D01*
Y267365D01*
X314999Y268456D01*
X314434Y269435D01*
X313635Y270234D01*
X312656Y270799D01*
X311565Y271091D01*
D02*
G37*
G36*
X282491D02*
X281362D01*
X280270Y270799D01*
X279292Y270234D01*
X278492Y269435D01*
X277927Y268456D01*
X277635Y267365D01*
Y266235D01*
X277927Y265144D01*
X278492Y264165D01*
X279292Y263366D01*
X280270Y262801D01*
X281362Y262509D01*
X282491D01*
X283583Y262801D01*
X284561Y263366D01*
X285360Y264165D01*
X285925Y265144D01*
X286218Y266235D01*
Y267365D01*
X285925Y268456D01*
X285360Y269435D01*
X284561Y270234D01*
X283583Y270799D01*
X282491Y271091D01*
D02*
G37*
G36*
X43538D02*
X42408D01*
X41317Y270799D01*
X40338Y270234D01*
X39539Y269435D01*
X38974Y268456D01*
X38682Y267365D01*
Y266235D01*
X38974Y265144D01*
X39539Y264165D01*
X40338Y263366D01*
X41317Y262801D01*
X42408Y262509D01*
X43538D01*
X44630Y262801D01*
X45608Y263366D01*
X46407Y264165D01*
X46972Y265144D01*
X47265Y266235D01*
Y267365D01*
X46972Y268456D01*
X46407Y269435D01*
X45608Y270234D01*
X44630Y270799D01*
X43538Y271091D01*
D02*
G37*
G36*
X82524Y271091D02*
X81394D01*
X80303Y270799D01*
X79324Y270234D01*
X78525Y269435D01*
X77960Y268456D01*
X77668Y267365D01*
Y266235D01*
X77960Y265144D01*
X78525Y264165D01*
X79324Y263366D01*
X80303Y262801D01*
X81394Y262509D01*
X82524D01*
X83615Y262801D01*
X84594Y263366D01*
X85393Y264165D01*
X85958Y265144D01*
X86250Y266235D01*
Y267365D01*
X85958Y268456D01*
X85393Y269435D01*
X84594Y270234D01*
X83615Y270799D01*
X82524Y271091D01*
D02*
G37*
G36*
X236500Y257774D02*
Y256100D01*
X238174D01*
X237865Y256846D01*
X237246Y257465D01*
X236500Y257774D01*
D02*
G37*
G36*
X235500D02*
X234754Y257465D01*
X234135Y256846D01*
X233826Y256100D01*
X235500D01*
Y257774D01*
D02*
G37*
G36*
X196395Y258887D02*
X195605D01*
X194874Y258585D01*
X194315Y258026D01*
X194013Y257295D01*
Y256505D01*
X194315Y255774D01*
X194874Y255215D01*
X195605Y254913D01*
X196395D01*
X197126Y255215D01*
X197685Y255774D01*
X197987Y256505D01*
Y257295D01*
X197685Y258026D01*
X197126Y258585D01*
X196395Y258887D01*
D02*
G37*
G36*
X238174Y255100D02*
X236500D01*
Y253426D01*
X237246Y253735D01*
X237865Y254354D01*
X238174Y255100D01*
D02*
G37*
G36*
X235500D02*
X233826D01*
X234135Y254354D01*
X234754Y253735D01*
X235500Y253426D01*
Y255100D01*
D02*
G37*
G36*
X168700Y254174D02*
Y252500D01*
X170374D01*
X170065Y253246D01*
X169446Y253865D01*
X168700Y254174D01*
D02*
G37*
G36*
X167700D02*
X166954Y253865D01*
X166335Y253246D01*
X166026Y252500D01*
X167700D01*
Y254174D01*
D02*
G37*
G36*
X103895Y255587D02*
X103105D01*
X102374Y255285D01*
X101815Y254726D01*
X101513Y253995D01*
Y253205D01*
X101815Y252474D01*
X102374Y251915D01*
X103105Y251613D01*
X103895D01*
X104626Y251915D01*
X105185Y252474D01*
X105487Y253205D01*
Y253995D01*
X105185Y254726D01*
X104626Y255285D01*
X103895Y255587D01*
D02*
G37*
G36*
X201921Y252258D02*
Y250584D01*
X203595D01*
X203286Y251330D01*
X202667Y251949D01*
X201921Y252258D01*
D02*
G37*
G36*
X200921D02*
X200175Y251949D01*
X199556Y251330D01*
X199247Y250584D01*
X200921D01*
Y252258D01*
D02*
G37*
G36*
X170374Y251500D02*
X168700D01*
Y249826D01*
X169446Y250135D01*
X170065Y250754D01*
X170374Y251500D01*
D02*
G37*
G36*
X167700D02*
X166026D01*
X166335Y250754D01*
X166954Y250135D01*
X167700Y249826D01*
Y251500D01*
D02*
G37*
G36*
X236395Y252013D02*
X235605D01*
X234874Y251710D01*
X234315Y251151D01*
X234013Y250421D01*
Y249630D01*
X234315Y248900D01*
X234874Y248341D01*
X235605Y248038D01*
X236395D01*
X237126Y248341D01*
X237685Y248900D01*
X237987Y249630D01*
Y250421D01*
X237685Y251151D01*
X237126Y251710D01*
X236395Y252013D01*
D02*
G37*
G36*
X203595Y249584D02*
X201921D01*
Y247910D01*
X202667Y248219D01*
X203286Y248838D01*
X203595Y249584D01*
D02*
G37*
G36*
X200921D02*
X199247D01*
X199556Y248838D01*
X200175Y248219D01*
X200921Y247910D01*
Y249584D01*
D02*
G37*
G36*
X103995Y245787D02*
X103205D01*
X102474Y245485D01*
X101915Y244926D01*
X101613Y244195D01*
Y243405D01*
X101915Y242674D01*
X102474Y242115D01*
X103205Y241813D01*
X103995D01*
X104726Y242115D01*
X105285Y242674D01*
X105587Y243405D01*
Y244195D01*
X105285Y244926D01*
X104726Y245485D01*
X103995Y245787D01*
D02*
G37*
G36*
X216800Y243274D02*
Y241600D01*
X218474D01*
X218165Y242346D01*
X217546Y242965D01*
X216800Y243274D01*
D02*
G37*
G36*
X215800D02*
X215054Y242965D01*
X214435Y242346D01*
X214126Y241600D01*
X215800D01*
Y243274D01*
D02*
G37*
G36*
X222207Y243087D02*
X221416D01*
X220686Y242785D01*
X220127Y242226D01*
X219824Y241495D01*
Y240705D01*
X220127Y239974D01*
X220686Y239415D01*
X221416Y239113D01*
X222207D01*
X222938Y239415D01*
X223497Y239974D01*
X223799Y240705D01*
Y241495D01*
X223497Y242226D01*
X222938Y242785D01*
X222207Y243087D01*
D02*
G37*
G36*
X218474Y240600D02*
X216800D01*
Y238926D01*
X217546Y239235D01*
X218165Y239854D01*
X218474Y240600D01*
D02*
G37*
G36*
X215800D02*
X214126D01*
X214435Y239854D01*
X215054Y239235D01*
X215800Y238926D01*
Y240600D01*
D02*
G37*
G36*
X168595Y240287D02*
X167805D01*
X167074Y239985D01*
X166515Y239426D01*
X166213Y238695D01*
Y237905D01*
X166515Y237174D01*
X167074Y236615D01*
X167805Y236313D01*
X168595D01*
X169326Y236615D01*
X169885Y237174D01*
X170187Y237905D01*
Y238695D01*
X169885Y239426D01*
X169326Y239985D01*
X168595Y240287D01*
D02*
G37*
G36*
X139195Y239987D02*
X138405D01*
X137674Y239685D01*
X137115Y239126D01*
X136813Y238395D01*
Y237605D01*
X137115Y236874D01*
X137674Y236315D01*
X138405Y236013D01*
X139195D01*
X139926Y236315D01*
X140485Y236874D01*
X140787Y237605D01*
Y238395D01*
X140485Y239126D01*
X139926Y239685D01*
X139195Y239987D01*
D02*
G37*
G36*
X252900Y234874D02*
Y233200D01*
X254574D01*
X254265Y233946D01*
X253646Y234565D01*
X252900Y234874D01*
D02*
G37*
G36*
X251900D02*
X251154Y234565D01*
X250535Y233946D01*
X250226Y233200D01*
X251900D01*
Y234874D01*
D02*
G37*
G36*
X254574Y232200D02*
X252900D01*
Y230526D01*
X253646Y230835D01*
X254265Y231454D01*
X254574Y232200D01*
D02*
G37*
G36*
X251900D02*
X250226D01*
X250535Y231454D01*
X251154Y230835D01*
X251900Y230526D01*
Y232200D01*
D02*
G37*
G36*
X196000Y231553D02*
X195254Y231244D01*
X194635Y230625D01*
X194549Y230418D01*
X194008Y230418D01*
X193957Y230540D01*
X193398Y231099D01*
X192668Y231402D01*
X191877D01*
X191147Y231099D01*
X190587Y230540D01*
X190285Y229810D01*
Y229019D01*
X190587Y228289D01*
X191147Y227730D01*
X191877Y227427D01*
X192668D01*
X193398Y227730D01*
X193957Y228289D01*
X193993Y228376D01*
X194534Y228376D01*
X194635Y228133D01*
X195254Y227514D01*
X196000Y227205D01*
Y229379D01*
Y231553D01*
D02*
G37*
G36*
X200900D02*
X200154Y231244D01*
X199535Y230625D01*
X199226Y229879D01*
X200900D01*
Y231553D01*
D02*
G37*
G36*
X197000D02*
Y229879D01*
X198674D01*
X198365Y230625D01*
X197746Y231244D01*
X197000Y231553D01*
D02*
G37*
G36*
X155095Y233387D02*
X154305D01*
X153574Y233085D01*
X153015Y232526D01*
X152713Y231795D01*
Y231005D01*
X153015Y230274D01*
X153574Y229715D01*
X154305Y229413D01*
X155095D01*
X155826Y229715D01*
X156385Y230274D01*
X156687Y231005D01*
Y231795D01*
X156385Y232526D01*
X155826Y233085D01*
X155095Y233387D01*
D02*
G37*
G36*
X201900Y231553D02*
Y229379D01*
Y227205D01*
X202646Y227514D01*
X203265Y228133D01*
X203445Y228566D01*
X203986D01*
X204115Y228253D01*
X204674Y227694D01*
X205405Y227391D01*
X206195D01*
X206926Y227694D01*
X207485Y228253D01*
X207787Y228983D01*
Y229774D01*
X207485Y230504D01*
X206926Y231064D01*
X206195Y231366D01*
X205405D01*
X204674Y231064D01*
X204115Y230504D01*
X203986Y230192D01*
X203445D01*
X203265Y230625D01*
X202646Y231244D01*
X201900Y231553D01*
D02*
G37*
G36*
X164300Y228986D02*
X163554Y228676D01*
X162935Y228058D01*
X162626Y227311D01*
X164300D01*
Y228986D01*
D02*
G37*
G36*
X200900Y228879D02*
X199226D01*
X199535Y228133D01*
X200154Y227514D01*
X200900Y227205D01*
Y228879D01*
D02*
G37*
G36*
X198674D02*
X197000D01*
Y227205D01*
X197746Y227514D01*
X198365Y228133D01*
X198674Y228879D01*
D02*
G37*
G36*
X135003Y228481D02*
X134257Y228172D01*
X133638Y227553D01*
X133329Y226806D01*
X135003D01*
Y228481D01*
D02*
G37*
G36*
X188632Y228203D02*
Y226528D01*
X190306D01*
X189997Y227275D01*
X189378Y227893D01*
X188632Y228203D01*
D02*
G37*
G36*
X187632D02*
X186886Y227893D01*
X186267Y227275D01*
X185958Y226528D01*
X187632D01*
Y228203D01*
D02*
G37*
G36*
X165300Y228986D02*
Y226811D01*
Y224637D01*
X166046Y224946D01*
X166665Y225565D01*
X166802Y225897D01*
X167344D01*
X167431Y225686D01*
X167990Y225127D01*
X168720Y224824D01*
X169511D01*
X170242Y225127D01*
X170801Y225686D01*
X171103Y226416D01*
Y227207D01*
X170801Y227937D01*
X170242Y228496D01*
X169511Y228799D01*
X168720D01*
X167990Y228496D01*
X167431Y227937D01*
X167344Y227726D01*
X166802D01*
X166665Y228058D01*
X166046Y228676D01*
X165300Y228986D01*
D02*
G37*
G36*
X164300Y226311D02*
X162626D01*
X162935Y225565D01*
X163554Y224946D01*
X164300Y224637D01*
Y226311D01*
D02*
G37*
G36*
X136003Y228481D02*
Y226307D01*
Y224132D01*
X136749Y224441D01*
X137211Y224903D01*
X137408Y225048D01*
X137850Y224917D01*
X138146Y224622D01*
X138876Y224319D01*
X139667D01*
X140397Y224622D01*
X140956Y225181D01*
X141259Y225911D01*
Y226702D01*
X140956Y227432D01*
X140397Y227991D01*
X139667Y228294D01*
X138876D01*
X138146Y227991D01*
X137850Y227696D01*
X137408Y227565D01*
X137211Y227710D01*
X136749Y228172D01*
X136003Y228481D01*
D02*
G37*
G36*
X135003Y225806D02*
X133329D01*
X133638Y225060D01*
X134257Y224441D01*
X135003Y224132D01*
Y225806D01*
D02*
G37*
G36*
X190306Y225528D02*
X188632D01*
Y223854D01*
X189378Y224163D01*
X189997Y224782D01*
X190306Y225528D01*
D02*
G37*
G36*
X187632D02*
X185958D01*
X186267Y224782D01*
X186886Y224163D01*
X187632Y223854D01*
Y225528D01*
D02*
G37*
G36*
X194665Y223842D02*
X193874D01*
X193143Y223539D01*
X192584Y222980D01*
X192282Y222250D01*
Y221459D01*
X192584Y220728D01*
X193143Y220169D01*
X193874Y219867D01*
X194665D01*
X195395Y220169D01*
X195954Y220728D01*
X196257Y221459D01*
Y222250D01*
X195954Y222980D01*
X195395Y223539D01*
X194665Y223842D01*
D02*
G37*
G36*
X110930Y219680D02*
Y218006D01*
X112604D01*
X112295Y218752D01*
X111676Y219371D01*
X110930Y219680D01*
D02*
G37*
G36*
X109930D02*
X109184Y219371D01*
X108565Y218752D01*
X108256Y218006D01*
X109930D01*
Y219680D01*
D02*
G37*
G36*
X100295Y218087D02*
X99505D01*
X98774Y217785D01*
X98215Y217226D01*
X97913Y216495D01*
Y215705D01*
X98215Y214974D01*
X98774Y214415D01*
X99505Y214113D01*
X100295D01*
X101026Y214415D01*
X101585Y214974D01*
X101887Y215705D01*
Y216495D01*
X101585Y217226D01*
X101026Y217785D01*
X100295Y218087D01*
D02*
G37*
G36*
X43195Y228187D02*
X42405D01*
X41674Y227885D01*
X41115Y227326D01*
X40813Y226595D01*
Y225805D01*
X41115Y225074D01*
X41674Y224515D01*
X42405Y224213D01*
X43195D01*
X43926Y224515D01*
X44485Y225074D01*
X44492Y225091D01*
X110441D01*
X120220Y215312D01*
X120213Y215295D01*
Y214505D01*
X120515Y213774D01*
X121074Y213215D01*
X121805Y212913D01*
X122595D01*
X123326Y213215D01*
X123885Y213774D01*
X124187Y214505D01*
Y215295D01*
X123885Y216026D01*
X123326Y216585D01*
X122595Y216887D01*
X121805D01*
X121788Y216880D01*
X111684Y226984D01*
X111324Y227224D01*
X110900Y227309D01*
X44492D01*
X44485Y227326D01*
X43926Y227885D01*
X43195Y228187D01*
D02*
G37*
G36*
X241907Y215999D02*
X241116D01*
X240386Y215696D01*
X239827Y215137D01*
X239524Y214407D01*
Y213616D01*
X239827Y212886D01*
X240386Y212327D01*
X241116Y212024D01*
X241907D01*
X242637Y212327D01*
X243196Y212886D01*
X243499Y213616D01*
Y214407D01*
X243196Y215137D01*
X242637Y215696D01*
X241907Y215999D01*
D02*
G37*
G36*
X112604Y217006D02*
X108256D01*
X108565Y216260D01*
X109027Y215798D01*
X109172Y215601D01*
X109041Y215159D01*
X108745Y214863D01*
X108442Y214132D01*
Y213342D01*
X108745Y212612D01*
X109304Y212052D01*
X110035Y211750D01*
X110825D01*
X111556Y212052D01*
X112115Y212612D01*
X112417Y213342D01*
Y214132D01*
X112115Y214863D01*
X111819Y215159D01*
X111688Y215601D01*
X111833Y215798D01*
X112295Y216260D01*
X112604Y217006D01*
D02*
G37*
G36*
X236145Y212153D02*
Y210478D01*
X237819D01*
X237510Y211225D01*
X236892Y211843D01*
X236145Y212153D01*
D02*
G37*
G36*
X235145D02*
X234399Y211843D01*
X233780Y211225D01*
X233471Y210478D01*
X235145D01*
Y212153D01*
D02*
G37*
G36*
X227795Y209187D02*
X227005D01*
X226274Y208885D01*
X225715Y208326D01*
X225413Y207595D01*
Y206805D01*
X225715Y206074D01*
X226274Y205515D01*
X227005Y205213D01*
X227795D01*
X228526Y205515D01*
X229085Y206074D01*
X229387Y206805D01*
Y207595D01*
X229085Y208326D01*
X228526Y208885D01*
X227795Y209187D01*
D02*
G37*
G36*
X237819Y209478D02*
X233471D01*
X233780Y208732D01*
X234270Y208243D01*
X234387Y208054D01*
X234295Y207615D01*
X233960Y207280D01*
X233658Y206550D01*
Y205759D01*
X233960Y205029D01*
X234520Y204470D01*
X235250Y204167D01*
X236041D01*
X236771Y204470D01*
X237330Y205029D01*
X237633Y205759D01*
Y206550D01*
X237330Y207280D01*
X236995Y207615D01*
X236904Y208054D01*
X237021Y208243D01*
X237510Y208732D01*
X237819Y209478D01*
D02*
G37*
G36*
X110695Y209787D02*
X109905D01*
X109174Y209485D01*
X108615Y208926D01*
X108313Y208195D01*
Y207405D01*
X108615Y206674D01*
X109174Y206115D01*
X109397Y206023D01*
Y205482D01*
X109184Y205394D01*
X108565Y204775D01*
X108256Y204028D01*
X112604D01*
X112295Y204775D01*
X111676Y205394D01*
X111333Y205536D01*
Y206077D01*
X111426Y206115D01*
X111985Y206674D01*
X112287Y207405D01*
Y208195D01*
X111985Y208926D01*
X111426Y209485D01*
X110695Y209787D01*
D02*
G37*
G36*
X112604Y203028D02*
X110930D01*
Y201354D01*
X111676Y201663D01*
X112295Y202282D01*
X112604Y203028D01*
D02*
G37*
G36*
X109930D02*
X108256D01*
X108565Y202282D01*
X109184Y201663D01*
X109930Y201354D01*
Y203028D01*
D02*
G37*
G36*
X211850Y202236D02*
X211059D01*
X210329Y201934D01*
X209770Y201375D01*
X209467Y200644D01*
Y199854D01*
X209770Y199123D01*
X210329Y198564D01*
X211059Y198261D01*
X211850D01*
X212580Y198564D01*
X213139Y199123D01*
X213442Y199854D01*
Y200644D01*
X213139Y201375D01*
X212580Y201934D01*
X211850Y202236D01*
D02*
G37*
G36*
X260332Y191087D02*
X259541D01*
X258810Y190785D01*
X258251Y190226D01*
X257949Y189495D01*
Y188705D01*
X258251Y187974D01*
X258810Y187415D01*
X259541Y187113D01*
X260332D01*
X261062Y187415D01*
X261621Y187974D01*
X261924Y188705D01*
Y189495D01*
X261621Y190226D01*
X261062Y190785D01*
X260332Y191087D01*
D02*
G37*
G36*
X132995Y188087D02*
X132205D01*
X131474Y187785D01*
X130915Y187226D01*
X130613Y186495D01*
Y185705D01*
X130915Y184974D01*
X131474Y184415D01*
X132205Y184113D01*
X132995D01*
X133726Y184415D01*
X134285Y184974D01*
X134587Y185705D01*
Y186495D01*
X134285Y187226D01*
X133726Y187785D01*
X132995Y188087D01*
D02*
G37*
G36*
X64295Y184587D02*
X63505D01*
X62774Y184285D01*
X62215Y183726D01*
X61913Y182995D01*
Y182205D01*
X62215Y181474D01*
X62774Y180915D01*
X63505Y180613D01*
X64295D01*
X65026Y180915D01*
X65585Y181474D01*
X65887Y182205D01*
Y182995D01*
X65585Y183726D01*
X65026Y184285D01*
X64295Y184587D01*
D02*
G37*
G36*
X328318Y183666D02*
X327527D01*
X326797Y183364D01*
X326237Y182805D01*
X325935Y182074D01*
Y181283D01*
X326237Y180553D01*
X326797Y179994D01*
X327527Y179691D01*
X328318D01*
X329048Y179994D01*
X329607Y180553D01*
X329910Y181283D01*
Y182074D01*
X329607Y182805D01*
X329048Y183364D01*
X328318Y183666D01*
D02*
G37*
G36*
X24770Y183554D02*
X23979D01*
X23249Y183252D01*
X22690Y182693D01*
X22387Y181962D01*
Y181172D01*
X22690Y180441D01*
X23249Y179882D01*
X23979Y179579D01*
X24770D01*
X25501Y179882D01*
X26060Y180441D01*
X26362Y181172D01*
Y181962D01*
X26060Y182693D01*
X25501Y183252D01*
X24770Y183554D01*
D02*
G37*
G36*
X100731Y181174D02*
Y179500D01*
X102405D01*
X102096Y180246D01*
X101477Y180865D01*
X100731Y181174D01*
D02*
G37*
G36*
X99731D02*
X98985Y180865D01*
X98366Y180246D01*
X98057Y179500D01*
X99731D01*
Y181174D01*
D02*
G37*
G36*
X161895Y181387D02*
X161105D01*
X160374Y181085D01*
X159815Y180526D01*
X159513Y179795D01*
Y179005D01*
X159815Y178274D01*
X160374Y177715D01*
X161105Y177413D01*
X161895D01*
X162626Y177715D01*
X163185Y178274D01*
X163487Y179005D01*
Y179795D01*
X163185Y180526D01*
X162626Y181085D01*
X161895Y181387D01*
D02*
G37*
G36*
X102405Y178500D02*
X100731D01*
Y176826D01*
X101477Y177135D01*
X102096Y177754D01*
X102405Y178500D01*
D02*
G37*
G36*
X99731D02*
X98057D01*
X98366Y177754D01*
X98985Y177135D01*
X99731Y176826D01*
Y178500D01*
D02*
G37*
G36*
X264895Y179487D02*
X264105D01*
X263374Y179185D01*
X262815Y178626D01*
X262513Y177895D01*
Y177105D01*
X262815Y176374D01*
X263374Y175815D01*
X264105Y175513D01*
X264895D01*
X265626Y175815D01*
X266185Y176374D01*
X266487Y177105D01*
Y177895D01*
X266185Y178626D01*
X265626Y179185D01*
X264895Y179487D01*
D02*
G37*
G36*
X297728Y179162D02*
X296938D01*
X296207Y178860D01*
X295648Y178300D01*
X295346Y177570D01*
Y176779D01*
X295648Y176049D01*
X296207Y175490D01*
X296938Y175187D01*
X297728D01*
X298459Y175490D01*
X299018Y176049D01*
X299321Y176779D01*
Y177570D01*
X299018Y178300D01*
X298459Y178860D01*
X297728Y179162D01*
D02*
G37*
G36*
X245656Y176156D02*
Y174482D01*
X247330D01*
X247021Y175228D01*
X246402Y175847D01*
X245656Y176156D01*
D02*
G37*
G36*
X244656D02*
X243910Y175847D01*
X243291Y175228D01*
X242982Y174482D01*
X244656D01*
Y176156D01*
D02*
G37*
G36*
X108409Y174755D02*
X107619D01*
X106888Y174452D01*
X106329Y173893D01*
X106027Y173163D01*
Y172372D01*
X106329Y171642D01*
X106888Y171083D01*
X107619Y170780D01*
X108409D01*
X109140Y171083D01*
X109699Y171642D01*
X110002Y172372D01*
Y173163D01*
X109699Y173893D01*
X109140Y174452D01*
X108409Y174755D01*
D02*
G37*
G36*
X247330Y173482D02*
X242982D01*
X243291Y172736D01*
X243751Y172276D01*
X243890Y172052D01*
X243765Y171636D01*
X243443Y171314D01*
X243140Y170583D01*
Y169792D01*
X243443Y169062D01*
X244002Y168503D01*
X244732Y168200D01*
X245523D01*
X246253Y168503D01*
X246812Y169062D01*
X247115Y169792D01*
Y170583D01*
X246812Y171314D01*
X246507Y171619D01*
X246410Y172082D01*
X246532Y172247D01*
X247021Y172736D01*
X247330Y173482D01*
D02*
G37*
G36*
X103095Y171987D02*
X102305D01*
X101574Y171685D01*
X101015Y171126D01*
X100713Y170395D01*
Y169605D01*
X101015Y168874D01*
X101574Y168315D01*
X102305Y168013D01*
X103095D01*
X103826Y168315D01*
X104385Y168874D01*
X104687Y169605D01*
Y170395D01*
X104385Y171126D01*
X103826Y171685D01*
X103095Y171987D01*
D02*
G37*
G36*
X108514Y169588D02*
Y167914D01*
X110188D01*
X109879Y168660D01*
X109260Y169279D01*
X108514Y169588D01*
D02*
G37*
G36*
X107514D02*
X106768Y169279D01*
X106149Y168660D01*
X105840Y167914D01*
X107514D01*
Y169588D01*
D02*
G37*
G36*
X194495Y171187D02*
X193705D01*
X192974Y170885D01*
X192415Y170326D01*
X192113Y169595D01*
Y168805D01*
X192415Y168074D01*
X192974Y167515D01*
X193705Y167213D01*
X194495D01*
X195226Y167515D01*
X195785Y168074D01*
X196087Y168805D01*
Y169595D01*
X195785Y170326D01*
X195226Y170885D01*
X194495Y171187D01*
D02*
G37*
G36*
X230550Y167824D02*
Y166150D01*
X232224D01*
X231915Y166896D01*
X231296Y167515D01*
X230550Y167824D01*
D02*
G37*
G36*
X229550D02*
X228804Y167515D01*
X228185Y166896D01*
X227876Y166150D01*
X229550D01*
Y167824D01*
D02*
G37*
G36*
X110188Y166914D02*
X108514D01*
Y165240D01*
X109260Y165549D01*
X109879Y166168D01*
X110188Y166914D01*
D02*
G37*
G36*
X107514D02*
X105840D01*
X106149Y166168D01*
X106768Y165549D01*
X107514Y165240D01*
Y166914D01*
D02*
G37*
G36*
X264195Y168887D02*
X263405D01*
X262674Y168585D01*
X262115Y168026D01*
X261813Y167295D01*
Y166505D01*
X262115Y165774D01*
X262674Y165215D01*
X263405Y164913D01*
X264195D01*
X264926Y165215D01*
X265485Y165774D01*
X265787Y166505D01*
Y167295D01*
X265485Y168026D01*
X264926Y168585D01*
X264195Y168887D01*
D02*
G37*
G36*
X232224Y165150D02*
X230550D01*
Y163476D01*
X231296Y163785D01*
X231915Y164404D01*
X232224Y165150D01*
D02*
G37*
G36*
X229550D02*
X227876D01*
X228185Y164404D01*
X228804Y163785D01*
X229550Y163476D01*
Y165150D01*
D02*
G37*
G36*
X234395Y160116D02*
X233605D01*
X232874Y159813D01*
X232315Y159254D01*
X232013Y158524D01*
Y157733D01*
X232315Y157003D01*
X232874Y156444D01*
X233605Y156141D01*
X234395D01*
X235126Y156444D01*
X235685Y157003D01*
X235987Y157733D01*
Y158524D01*
X235685Y159254D01*
X235126Y159813D01*
X234395Y160116D01*
D02*
G37*
G36*
X264195Y158887D02*
X263405D01*
X262674Y158585D01*
X262115Y158026D01*
X261813Y157295D01*
Y156505D01*
X262115Y155774D01*
X262674Y155215D01*
X263405Y154913D01*
X264195D01*
X264926Y155215D01*
X265485Y155774D01*
X265787Y156505D01*
Y157295D01*
X265485Y158026D01*
X264926Y158585D01*
X264195Y158887D01*
D02*
G37*
G36*
X63795Y158687D02*
X63005D01*
X62274Y158385D01*
X61715Y157826D01*
X61413Y157095D01*
Y156305D01*
X61715Y155574D01*
X62274Y155015D01*
X63005Y154713D01*
X63795D01*
X64526Y155015D01*
X65085Y155574D01*
X65387Y156305D01*
Y157095D01*
X65085Y157826D01*
X64526Y158385D01*
X63795Y158687D01*
D02*
G37*
G36*
X107395Y158987D02*
X106605D01*
X105874Y158685D01*
X105315Y158126D01*
X105013Y157395D01*
Y156605D01*
X105315Y155874D01*
X105874Y155315D01*
X106116Y155215D01*
Y154674D01*
X105854Y154565D01*
X105235Y153946D01*
X104926Y153200D01*
X109274D01*
X108965Y153946D01*
X108346Y154565D01*
X107984Y154715D01*
Y155256D01*
X108126Y155315D01*
X108685Y155874D01*
X108987Y156605D01*
Y157395D01*
X108685Y158126D01*
X108126Y158685D01*
X107395Y158987D01*
D02*
G37*
G36*
X239695Y157087D02*
X238905D01*
X238174Y156785D01*
X237615Y156226D01*
X237313Y155495D01*
Y154705D01*
X237615Y153974D01*
X238174Y153415D01*
X238905Y153113D01*
X239695D01*
X240426Y153415D01*
X240985Y153974D01*
X241287Y154705D01*
Y155495D01*
X240985Y156226D01*
X240426Y156785D01*
X239695Y157087D01*
D02*
G37*
G36*
X166395Y156687D02*
X165605D01*
X164874Y156385D01*
X164315Y155826D01*
X164013Y155095D01*
Y154305D01*
X164315Y153574D01*
X164874Y153015D01*
X165605Y152713D01*
X166395D01*
X167126Y153015D01*
X167685Y153574D01*
X167987Y154305D01*
Y155095D01*
X167685Y155826D01*
X167126Y156385D01*
X166395Y156687D01*
D02*
G37*
G36*
X109274Y152200D02*
X107600D01*
Y150526D01*
X108346Y150835D01*
X108965Y151454D01*
X109274Y152200D01*
D02*
G37*
G36*
X106600D02*
X104926D01*
X105235Y151454D01*
X105854Y150835D01*
X106600Y150526D01*
Y152200D01*
D02*
G37*
G36*
X246495Y151687D02*
X245705D01*
X244974Y151385D01*
X244415Y150826D01*
X244113Y150095D01*
Y149305D01*
X244415Y148574D01*
X244974Y148015D01*
X245705Y147713D01*
X246495D01*
X247226Y148015D01*
X247785Y148574D01*
X248087Y149305D01*
Y150095D01*
X247785Y150826D01*
X247226Y151385D01*
X246495Y151687D01*
D02*
G37*
G36*
X63795Y151087D02*
X63005D01*
X62274Y150785D01*
X61715Y150226D01*
X61413Y149495D01*
Y148705D01*
X61715Y147974D01*
X62274Y147415D01*
X63005Y147113D01*
X63795D01*
X64526Y147415D01*
X65085Y147974D01*
X65387Y148705D01*
Y149495D01*
X65085Y150226D01*
X64526Y150785D01*
X63795Y151087D01*
D02*
G37*
G36*
X260995Y150987D02*
X260205D01*
X259474Y150685D01*
X258915Y150126D01*
X258613Y149395D01*
Y148605D01*
X258915Y147874D01*
X259474Y147315D01*
X260205Y147013D01*
X260995D01*
X261726Y147315D01*
X262285Y147874D01*
X262587Y148605D01*
Y149395D01*
X262285Y150126D01*
X261726Y150685D01*
X260995Y150987D01*
D02*
G37*
G36*
X256395D02*
X255605D01*
X254874Y150685D01*
X254315Y150126D01*
X254013Y149395D01*
Y148605D01*
X254315Y147874D01*
X254874Y147315D01*
X255605Y147013D01*
X256395D01*
X257126Y147315D01*
X257685Y147874D01*
X257987Y148605D01*
Y149395D01*
X257685Y150126D01*
X257126Y150685D01*
X256395Y150987D01*
D02*
G37*
G36*
X105695Y148087D02*
X104905D01*
X104174Y147785D01*
X103615Y147226D01*
X103313Y146495D01*
Y145705D01*
X103320Y145688D01*
X62616Y104984D01*
X62376Y104624D01*
X62291Y104200D01*
Y98692D01*
X62274Y98685D01*
X61715Y98126D01*
X61413Y97395D01*
Y96605D01*
X61715Y95874D01*
X62274Y95315D01*
X63005Y95013D01*
X63795D01*
X64526Y95315D01*
X65085Y95874D01*
X65387Y96605D01*
Y97395D01*
X65085Y98126D01*
X64526Y98685D01*
X64509Y98692D01*
Y103741D01*
X101584Y140816D01*
X102076Y140601D01*
Y140005D01*
X102378Y139274D01*
X102937Y138715D01*
X103668Y138413D01*
X104458D01*
X105189Y138715D01*
X105748Y139274D01*
X106050Y140005D01*
Y140795D01*
X105748Y141526D01*
X105189Y142085D01*
X104458Y142387D01*
X103862D01*
X103647Y142879D01*
X104888Y144120D01*
X104905Y144113D01*
X105695D01*
X106426Y144415D01*
X106985Y144974D01*
X107287Y145705D01*
Y146495D01*
X106985Y147226D01*
X106426Y147785D01*
X105695Y148087D01*
D02*
G37*
G36*
X83295Y168587D02*
X82505D01*
X81774Y168285D01*
X81215Y167726D01*
X80913Y166995D01*
Y166205D01*
X81215Y165474D01*
X81774Y164915D01*
X81791Y164908D01*
Y156759D01*
X63812Y138780D01*
X63795Y138787D01*
X63005D01*
X62274Y138485D01*
X61715Y137926D01*
X61413Y137195D01*
Y136405D01*
X61715Y135674D01*
X62274Y135115D01*
X63005Y134813D01*
X63795D01*
X64526Y135115D01*
X65085Y135674D01*
X65387Y136405D01*
Y137195D01*
X65380Y137212D01*
X83684Y155516D01*
X83924Y155876D01*
X84009Y156300D01*
Y164908D01*
X84026Y164915D01*
X84585Y165474D01*
X84887Y166205D01*
Y166995D01*
X84585Y167726D01*
X84026Y168285D01*
X83295Y168587D01*
D02*
G37*
G36*
X133395Y140987D02*
X132605D01*
X131874Y140685D01*
X131315Y140126D01*
X131013Y139395D01*
Y138605D01*
X131315Y137874D01*
X131874Y137315D01*
X132605Y137013D01*
X133395D01*
X134126Y137315D01*
X134685Y137874D01*
X134987Y138605D01*
Y139395D01*
X134685Y140126D01*
X134126Y140685D01*
X133395Y140987D01*
D02*
G37*
G36*
X256395Y140387D02*
X255605D01*
X254874Y140085D01*
X254315Y139526D01*
X254013Y138795D01*
Y138005D01*
X254315Y137274D01*
X254874Y136715D01*
X255605Y136413D01*
X256395D01*
X257126Y136715D01*
X257685Y137274D01*
X257987Y138005D01*
Y138795D01*
X257685Y139526D01*
X257126Y140085D01*
X256395Y140387D01*
D02*
G37*
G36*
X260795Y138887D02*
X260005D01*
X259274Y138585D01*
X258715Y138026D01*
X258413Y137295D01*
Y136505D01*
X258715Y135774D01*
X259274Y135215D01*
X260005Y134913D01*
X260795D01*
X261526Y135215D01*
X262085Y135774D01*
X262387Y136505D01*
Y137295D01*
X262085Y138026D01*
X261526Y138585D01*
X260795Y138887D01*
D02*
G37*
G36*
X228495Y135839D02*
X227704D01*
X226973Y135536D01*
X226414Y134977D01*
X226112Y134247D01*
Y133456D01*
X226414Y132725D01*
X226973Y132166D01*
X227704Y131864D01*
X228495D01*
X229225Y132166D01*
X229784Y132725D01*
X230087Y133456D01*
Y134247D01*
X229784Y134977D01*
X229225Y135536D01*
X228495Y135839D01*
D02*
G37*
G36*
X110795Y135587D02*
X110005D01*
X109274Y135285D01*
X108715Y134726D01*
X108413Y133995D01*
Y133205D01*
X108715Y132474D01*
X109274Y131915D01*
X110005Y131613D01*
X110795D01*
X111526Y131915D01*
X112085Y132474D01*
X112387Y133205D01*
Y133995D01*
X112085Y134726D01*
X111526Y135285D01*
X110795Y135587D01*
D02*
G37*
G36*
X237602Y134759D02*
X236811D01*
X236081Y134456D01*
X235522Y133897D01*
X235219Y133167D01*
Y132376D01*
X235522Y131646D01*
X236081Y131086D01*
X236669Y130843D01*
X236685Y130642D01*
X236619Y130322D01*
X235899Y130024D01*
X235281Y129405D01*
X234971Y128659D01*
X239320D01*
X239011Y129405D01*
X238392Y130024D01*
X237683Y130317D01*
X237674Y130368D01*
X237691Y130821D01*
X238333Y131086D01*
X238892Y131646D01*
X239194Y132376D01*
Y133167D01*
X238892Y133897D01*
X238333Y134456D01*
X237602Y134759D01*
D02*
G37*
G36*
X239320Y127659D02*
X237646D01*
Y125985D01*
X238392Y126294D01*
X239011Y126913D01*
X239320Y127659D01*
D02*
G37*
G36*
X236646D02*
X234971D01*
X235281Y126913D01*
X235899Y126294D01*
X236646Y125985D01*
Y127659D01*
D02*
G37*
G36*
X114300Y126274D02*
X113554Y125965D01*
X112935Y125346D01*
X112805Y125034D01*
X112264D01*
X112185Y125226D01*
X111626Y125785D01*
X110895Y126087D01*
X110105D01*
X109374Y125785D01*
X108815Y125226D01*
X108513Y124495D01*
Y123705D01*
X108815Y122974D01*
X109374Y122415D01*
X110105Y122113D01*
X110895D01*
X111626Y122415D01*
X112185Y122974D01*
X112264Y123166D01*
X112805D01*
X112935Y122854D01*
X113554Y122235D01*
X114300Y121926D01*
Y124100D01*
Y126274D01*
D02*
G37*
G36*
X103100Y126374D02*
Y124700D01*
X104774D01*
X104465Y125446D01*
X103846Y126065D01*
X103100Y126374D01*
D02*
G37*
G36*
X102100D02*
X101354Y126065D01*
X100735Y125446D01*
X100426Y124700D01*
X102100D01*
Y126374D01*
D02*
G37*
G36*
X115300Y126274D02*
Y124600D01*
X116974D01*
X116665Y125346D01*
X116046Y125965D01*
X115300Y126274D01*
D02*
G37*
G36*
X104774Y123700D02*
X103100D01*
Y122026D01*
X103846Y122335D01*
X104465Y122954D01*
X104774Y123700D01*
D02*
G37*
G36*
X102100D02*
X100426D01*
X100735Y122954D01*
X101354Y122335D01*
X102100Y122026D01*
Y123700D01*
D02*
G37*
G36*
X116974Y123600D02*
X115300D01*
Y121926D01*
X116046Y122235D01*
X116665Y122854D01*
X116974Y123600D01*
D02*
G37*
G36*
X100895Y164303D02*
X100105D01*
X99374Y164001D01*
X98815Y163442D01*
X98513Y162711D01*
Y161920D01*
X98815Y161190D01*
X99374Y160631D01*
X99391Y160624D01*
Y154859D01*
X63812Y119280D01*
X63795Y119287D01*
X63005D01*
X62274Y118985D01*
X61715Y118426D01*
X61413Y117695D01*
Y116905D01*
X61715Y116174D01*
X62274Y115615D01*
X63005Y115313D01*
X63795D01*
X64526Y115615D01*
X65085Y116174D01*
X65387Y116905D01*
Y117695D01*
X65380Y117712D01*
X101284Y153616D01*
X101524Y153976D01*
X101609Y154400D01*
Y160624D01*
X101626Y160631D01*
X102185Y161190D01*
X102487Y161920D01*
Y162711D01*
X102185Y163442D01*
X101626Y164001D01*
X100895Y164303D01*
D02*
G37*
G36*
X193095Y134787D02*
X192305D01*
X191574Y134485D01*
X191015Y133926D01*
X190713Y133195D01*
Y132405D01*
X191015Y131674D01*
X191574Y131115D01*
X192305Y130813D01*
X192920D01*
X198516Y125216D01*
X198876Y124976D01*
X199300Y124891D01*
X225641D01*
X227883Y122649D01*
X227756Y122337D01*
X227638Y122187D01*
X226905D01*
X226174Y121885D01*
X225615Y121326D01*
X225313Y120595D01*
Y119805D01*
X225615Y119074D01*
X226174Y118515D01*
X226905Y118213D01*
X227695D01*
X228426Y118515D01*
X228985Y119074D01*
X229287Y119805D01*
Y120147D01*
X229787Y120401D01*
X229913Y120309D01*
Y119805D01*
X230215Y119074D01*
X230774Y118515D01*
X231505Y118213D01*
X232295D01*
X233026Y118515D01*
X233585Y119074D01*
X233887Y119805D01*
Y120595D01*
X233585Y121326D01*
X233026Y121885D01*
X232295Y122187D01*
X231505D01*
X231488Y122180D01*
X229321Y124347D01*
X229562Y124813D01*
X230195D01*
X230926Y125115D01*
X231485Y125674D01*
X231787Y126405D01*
Y127195D01*
X231485Y127926D01*
X230926Y128485D01*
X230195Y128787D01*
X229405D01*
X228674Y128485D01*
X228115Y127926D01*
X227813Y127195D01*
Y126562D01*
X227347Y126321D01*
X226884Y126784D01*
X226524Y127024D01*
X226100Y127109D01*
X199759D01*
X194622Y132246D01*
X194687Y132405D01*
Y133195D01*
X194385Y133926D01*
X193826Y134485D01*
X193095Y134787D01*
D02*
G37*
G36*
X192295Y127487D02*
X191505D01*
X190774Y127185D01*
X190215Y126626D01*
X189913Y125895D01*
Y125105D01*
X190215Y124374D01*
X190774Y123815D01*
X191505Y123513D01*
X192295D01*
X192312Y123520D01*
X196416Y119416D01*
X196776Y119176D01*
X197200Y119091D01*
X221008D01*
X221015Y119074D01*
X221574Y118515D01*
X222305Y118213D01*
X223095D01*
X223826Y118515D01*
X224385Y119074D01*
X224687Y119805D01*
Y120595D01*
X224385Y121326D01*
X223826Y121885D01*
X223095Y122187D01*
X222305D01*
X221574Y121885D01*
X221015Y121326D01*
X221008Y121309D01*
X197659D01*
X193880Y125088D01*
X193887Y125105D01*
Y125895D01*
X193585Y126626D01*
X193026Y127185D01*
X192295Y127487D01*
D02*
G37*
G36*
X255700Y116774D02*
Y115100D01*
X257374D01*
X257065Y115846D01*
X256446Y116465D01*
X255700Y116774D01*
D02*
G37*
G36*
X254700D02*
X253954Y116465D01*
X253335Y115846D01*
X253026Y115100D01*
X254700D01*
Y116774D01*
D02*
G37*
G36*
X257374Y114100D02*
X255700D01*
Y112426D01*
X256446Y112735D01*
X257065Y113354D01*
X257374Y114100D01*
D02*
G37*
G36*
X254700D02*
X253026D01*
X253335Y113354D01*
X253954Y112735D01*
X254700Y112426D01*
Y114100D01*
D02*
G37*
G36*
X188227Y111728D02*
X187437D01*
X186706Y111425D01*
X186147Y110866D01*
X185845Y110136D01*
Y109345D01*
X186147Y108615D01*
X186706Y108055D01*
X187437Y107753D01*
X188227D01*
X188958Y108055D01*
X189517Y108615D01*
X189820Y109345D01*
Y110136D01*
X189517Y110866D01*
X188958Y111425D01*
X188227Y111728D01*
D02*
G37*
G36*
X242600Y108833D02*
Y107159D01*
X244274D01*
X243965Y107905D01*
X243346Y108524D01*
X242600Y108833D01*
D02*
G37*
G36*
X241600D02*
X240854Y108524D01*
X240235Y107905D01*
X239926Y107159D01*
X241600D01*
Y108833D01*
D02*
G37*
G36*
X199600Y107574D02*
X198854Y107265D01*
X198235Y106646D01*
X197926Y105900D01*
X199600D01*
Y107574D01*
D02*
G37*
G36*
X176800Y106972D02*
X176054Y106663D01*
X175435Y106044D01*
X175356Y105853D01*
X174815D01*
X174785Y105926D01*
X174226Y106485D01*
X173495Y106787D01*
X172705D01*
X171974Y106485D01*
X171415Y105926D01*
X171113Y105195D01*
Y104405D01*
X171415Y103674D01*
X171974Y103115D01*
X172705Y102813D01*
X173495D01*
X174226Y103115D01*
X174785Y103674D01*
X174814Y103744D01*
X175355D01*
X175435Y103551D01*
X176054Y102933D01*
X176800Y102623D01*
Y104798D01*
Y106972D01*
D02*
G37*
G36*
X130800Y107374D02*
X130054Y107065D01*
X129435Y106446D01*
X129126Y105700D01*
X130800D01*
Y107374D01*
D02*
G37*
G36*
X177800Y106972D02*
Y105298D01*
X179474D01*
X179165Y106044D01*
X178546Y106663D01*
X177800Y106972D01*
D02*
G37*
G36*
X159295Y111187D02*
X158505D01*
X157774Y110885D01*
X157215Y110326D01*
X156913Y109595D01*
Y108805D01*
X157215Y108074D01*
X157774Y107515D01*
X158090Y107385D01*
Y106843D01*
X157654Y106663D01*
X157035Y106044D01*
X156726Y105298D01*
X161074D01*
X160765Y106044D01*
X160146Y106663D01*
X159710Y106843D01*
Y107385D01*
X160026Y107515D01*
X160585Y108074D01*
X160887Y108805D01*
Y109595D01*
X160585Y110326D01*
X160026Y110885D01*
X159295Y111187D01*
D02*
G37*
G36*
X244274Y106159D02*
X242600D01*
Y104485D01*
X243346Y104794D01*
X243965Y105413D01*
X244274Y106159D01*
D02*
G37*
G36*
X241600D02*
X239926D01*
X240235Y105413D01*
X240854Y104794D01*
X241600Y104485D01*
Y106159D01*
D02*
G37*
G36*
X224451Y105474D02*
Y103800D01*
X226125D01*
X225816Y104546D01*
X225197Y105165D01*
X224451Y105474D01*
D02*
G37*
G36*
X223451D02*
X222705Y105165D01*
X222086Y104546D01*
X221777Y103800D01*
X223451D01*
Y105474D01*
D02*
G37*
G36*
X200600Y107574D02*
Y105400D01*
Y103226D01*
X201346Y103535D01*
X201965Y104154D01*
X201994Y104225D01*
X202494D01*
X202515Y104174D01*
X203074Y103615D01*
X203805Y103313D01*
X204595D01*
X205326Y103615D01*
X205885Y104174D01*
X206187Y104905D01*
Y105695D01*
X205885Y106426D01*
X205326Y106985D01*
X204595Y107287D01*
X203805D01*
X203074Y106985D01*
X202573Y106484D01*
X202036Y106475D01*
X201965Y106646D01*
X201346Y107265D01*
X200600Y107574D01*
D02*
G37*
G36*
X199600Y104900D02*
X197926D01*
X198235Y104154D01*
X198854Y103535D01*
X199600Y103226D01*
Y104900D01*
D02*
G37*
G36*
X131800Y107374D02*
Y105200D01*
Y103026D01*
X132546Y103335D01*
X133165Y103954D01*
X133451Y104643D01*
X133936Y104683D01*
X133965Y104678D01*
X134215Y104074D01*
X134774Y103515D01*
X135505Y103213D01*
X136295D01*
X137026Y103515D01*
X137585Y104074D01*
X137887Y104805D01*
Y105595D01*
X137585Y106326D01*
X137026Y106885D01*
X136295Y107187D01*
X135505D01*
X134774Y106885D01*
X134215Y106326D01*
X133965Y105722D01*
X133936Y105717D01*
X133451Y105757D01*
X133165Y106446D01*
X132546Y107065D01*
X131800Y107374D01*
D02*
G37*
G36*
X130800Y104700D02*
X129126D01*
X129435Y103954D01*
X130054Y103335D01*
X130800Y103026D01*
Y104700D01*
D02*
G37*
G36*
X179474Y104298D02*
X177800D01*
Y102623D01*
X178546Y102933D01*
X179165Y103551D01*
X179474Y104298D01*
D02*
G37*
G36*
X161074D02*
X159400D01*
Y102623D01*
X160146Y102933D01*
X160765Y103551D01*
X161074Y104298D01*
D02*
G37*
G36*
X158400D02*
X156726D01*
X157035Y103551D01*
X157654Y102933D01*
X158400Y102623D01*
Y104298D01*
D02*
G37*
G36*
X226125Y102800D02*
X224451D01*
Y101126D01*
X225197Y101435D01*
X225816Y102054D01*
X226125Y102800D01*
D02*
G37*
G36*
X223451D02*
X221777D01*
X222086Y102054D01*
X222705Y101435D01*
X223451Y101126D01*
Y102800D01*
D02*
G37*
G36*
X217295Y104487D02*
X216505D01*
X215774Y104185D01*
X215215Y103626D01*
X214913Y102895D01*
Y102105D01*
X215215Y101374D01*
X215774Y100815D01*
X216505Y100513D01*
X217295D01*
X218026Y100815D01*
X218585Y101374D01*
X218887Y102105D01*
Y102895D01*
X218585Y103626D01*
X218026Y104185D01*
X217295Y104487D01*
D02*
G37*
G36*
X245000Y102074D02*
Y100400D01*
X246674D01*
X246365Y101146D01*
X245746Y101765D01*
X245000Y102074D01*
D02*
G37*
G36*
X244000D02*
X243254Y101765D01*
X242635Y101146D01*
X242326Y100400D01*
X244000D01*
Y102074D01*
D02*
G37*
G36*
X246674Y99400D02*
X245000D01*
Y97726D01*
X245746Y98035D01*
X246365Y98654D01*
X246674Y99400D01*
D02*
G37*
G36*
X244000D02*
X242326D01*
X242635Y98654D01*
X243254Y98035D01*
X244000Y97726D01*
Y99400D01*
D02*
G37*
G36*
X297695Y98887D02*
X296905D01*
X296174Y98585D01*
X295615Y98026D01*
X295313Y97295D01*
Y96505D01*
X295615Y95774D01*
X296174Y95215D01*
X296905Y94913D01*
X297695D01*
X298426Y95215D01*
X298985Y95774D01*
X299287Y96505D01*
Y97295D01*
X298985Y98026D01*
X298426Y98585D01*
X297695Y98887D01*
D02*
G37*
G36*
X263295Y98787D02*
X262505D01*
X261774Y98485D01*
X261215Y97926D01*
X260913Y97195D01*
Y96405D01*
X261215Y95674D01*
X261774Y95115D01*
X262505Y94813D01*
X263295D01*
X264026Y95115D01*
X264585Y95674D01*
X264887Y96405D01*
Y97195D01*
X264585Y97926D01*
X264026Y98485D01*
X263295Y98787D01*
D02*
G37*
G36*
X239900Y96380D02*
Y94706D01*
X241574D01*
X241265Y95452D01*
X240646Y96071D01*
X239900Y96380D01*
D02*
G37*
G36*
X238900D02*
X238154Y96071D01*
X237535Y95452D01*
X237226Y94706D01*
X238900D01*
Y96380D01*
D02*
G37*
G36*
X241574Y93706D02*
X239900D01*
Y92032D01*
X240646Y92341D01*
X241265Y92960D01*
X241574Y93706D01*
D02*
G37*
G36*
X238900D02*
X237226D01*
X237535Y92960D01*
X238154Y92341D01*
X238900Y92032D01*
Y93706D01*
D02*
G37*
G36*
X144843Y94187D02*
X144052D01*
X143321Y93885D01*
X142762Y93326D01*
X142460Y92595D01*
Y91805D01*
X142762Y91074D01*
X143321Y90515D01*
X144052Y90213D01*
X144843D01*
X145573Y90515D01*
X146132Y91074D01*
X146434Y91805D01*
Y92595D01*
X146132Y93326D01*
X145573Y93885D01*
X144843Y94187D01*
D02*
G37*
G36*
X118000Y91574D02*
Y89900D01*
X119674D01*
X119365Y90646D01*
X118746Y91265D01*
X118000Y91574D01*
D02*
G37*
G36*
X117000D02*
X116254Y91265D01*
X115635Y90646D01*
X115326Y89900D01*
X117000D01*
Y91574D01*
D02*
G37*
G36*
X328318Y93766D02*
X327527D01*
X326797Y93463D01*
X326237Y92905D01*
X325935Y92174D01*
Y91383D01*
X326237Y90653D01*
X326797Y90094D01*
X327527Y89791D01*
X328318D01*
X329048Y90094D01*
X329607Y90653D01*
X329910Y91383D01*
Y92174D01*
X329607Y92905D01*
X329048Y93463D01*
X328318Y93766D01*
D02*
G37*
G36*
X24770Y93654D02*
X23979D01*
X23249Y93352D01*
X22690Y92793D01*
X22387Y92062D01*
Y91272D01*
X22690Y90541D01*
X23249Y89982D01*
X23979Y89679D01*
X24770D01*
X25501Y89982D01*
X26060Y90541D01*
X26362Y91272D01*
Y92062D01*
X26060Y92793D01*
X25501Y93352D01*
X24770Y93654D01*
D02*
G37*
G36*
X65473Y93509D02*
X64682D01*
X63952Y93206D01*
X63393Y92647D01*
X63090Y91917D01*
Y91126D01*
X63393Y90395D01*
X63952Y89837D01*
X64682Y89534D01*
X65473D01*
X66203Y89837D01*
X66763Y90395D01*
X67065Y91126D01*
Y91917D01*
X66763Y92647D01*
X66203Y93206D01*
X65473Y93509D01*
D02*
G37*
G36*
X127595Y91587D02*
X126805D01*
X126074Y91285D01*
X125515Y90726D01*
X125213Y89995D01*
Y89205D01*
X125515Y88474D01*
X126074Y87915D01*
X126805Y87613D01*
X127595D01*
X128326Y87915D01*
X128885Y88474D01*
X129187Y89205D01*
Y89995D01*
X128885Y90726D01*
X128326Y91285D01*
X127595Y91587D01*
D02*
G37*
G36*
X119674Y88900D02*
X118000D01*
Y87226D01*
X118746Y87535D01*
X119365Y88154D01*
X119674Y88900D01*
D02*
G37*
G36*
X117000D02*
X115326D01*
X115635Y88154D01*
X116254Y87535D01*
X117000Y87226D01*
Y88900D01*
D02*
G37*
G36*
X311565Y91091D02*
X310435D01*
X309344Y90799D01*
X308365Y90234D01*
X307566Y89435D01*
X307001Y88456D01*
X306709Y87365D01*
Y86235D01*
X307001Y85144D01*
X307566Y84165D01*
X308365Y83366D01*
X309344Y82801D01*
X310435Y82509D01*
X311565D01*
X312656Y82801D01*
X313635Y83366D01*
X314434Y84165D01*
X314999Y85144D01*
X315291Y86235D01*
Y87365D01*
X314999Y88456D01*
X314434Y89435D01*
X313635Y90234D01*
X312656Y90799D01*
X311565Y91091D01*
D02*
G37*
G36*
X282491D02*
X281362D01*
X280270Y90799D01*
X279292Y90234D01*
X278492Y89435D01*
X277927Y88456D01*
X277635Y87365D01*
Y86235D01*
X277927Y85144D01*
X278492Y84165D01*
X279292Y83366D01*
X280270Y82801D01*
X281362Y82509D01*
X282491D01*
X283583Y82801D01*
X284561Y83366D01*
X285360Y84165D01*
X285925Y85144D01*
X286218Y86235D01*
Y87365D01*
X285925Y88456D01*
X285360Y89435D01*
X284561Y90234D01*
X283583Y90799D01*
X282491Y91091D01*
D02*
G37*
G36*
X43538D02*
X42408D01*
X41317Y90799D01*
X40338Y90234D01*
X39539Y89435D01*
X38974Y88456D01*
X38682Y87365D01*
Y86235D01*
X38974Y85144D01*
X39539Y84165D01*
X40338Y83366D01*
X41317Y82801D01*
X42408Y82509D01*
X43538D01*
X44630Y82801D01*
X45608Y83366D01*
X46407Y84165D01*
X46972Y85144D01*
X47265Y86235D01*
Y87365D01*
X46972Y88456D01*
X46407Y89435D01*
X45608Y90234D01*
X44630Y90799D01*
X43538Y91091D01*
D02*
G37*
G36*
X82524Y91091D02*
X81394D01*
X80303Y90799D01*
X79324Y90234D01*
X78525Y89435D01*
X77960Y88456D01*
X77668Y87365D01*
Y86235D01*
X77960Y85144D01*
X78525Y84165D01*
X79324Y83366D01*
X80303Y82801D01*
X81394Y82509D01*
X82524D01*
X83615Y82801D01*
X84594Y83366D01*
X85393Y84165D01*
X85958Y85144D01*
X86250Y86235D01*
Y87365D01*
X85958Y88456D01*
X85393Y89435D01*
X84594Y90234D01*
X83615Y90799D01*
X82524Y91091D01*
D02*
G37*
G36*
X168195Y80987D02*
X167405D01*
X166674Y80685D01*
X166115Y80126D01*
X165813Y79395D01*
Y78605D01*
X166115Y77874D01*
X166674Y77315D01*
X167405Y77013D01*
X168195D01*
X168926Y77315D01*
X169485Y77874D01*
X169787Y78605D01*
Y79395D01*
X169485Y80126D01*
X168926Y80685D01*
X168195Y80987D01*
D02*
G37*
G36*
X64100Y77974D02*
Y76300D01*
X65774D01*
X65465Y77046D01*
X64846Y77665D01*
X64100Y77974D01*
D02*
G37*
G36*
X63100D02*
X62354Y77665D01*
X61735Y77046D01*
X61426Y76300D01*
X63100D01*
Y77974D01*
D02*
G37*
G36*
X196895Y78287D02*
X196105D01*
X195374Y77985D01*
X194815Y77426D01*
X194513Y76695D01*
Y75905D01*
X194815Y75174D01*
X195374Y74615D01*
X196105Y74313D01*
X196895D01*
X197626Y74615D01*
X198185Y75174D01*
X198487Y75905D01*
Y76695D01*
X198185Y77426D01*
X197626Y77985D01*
X196895Y78287D01*
D02*
G37*
G36*
X297895Y77987D02*
X297105D01*
X296374Y77685D01*
X295815Y77126D01*
X295513Y76395D01*
Y75605D01*
X295815Y74874D01*
X296374Y74315D01*
X297105Y74013D01*
X297895D01*
X298626Y74315D01*
X299185Y74874D01*
X299487Y75605D01*
Y76395D01*
X299185Y77126D01*
X298626Y77685D01*
X297895Y77987D01*
D02*
G37*
G36*
X65774Y75300D02*
X64100D01*
Y73626D01*
X64846Y73935D01*
X65465Y74554D01*
X65774Y75300D01*
D02*
G37*
G36*
X63100D02*
X61426D01*
X61735Y74554D01*
X62354Y73935D01*
X63100Y73626D01*
Y75300D01*
D02*
G37*
G36*
X102895Y77287D02*
X102105D01*
X101374Y76985D01*
X100815Y76426D01*
X100513Y75695D01*
Y74905D01*
X100815Y74174D01*
X101374Y73615D01*
X102105Y73313D01*
X102895D01*
X103626Y73615D01*
X104185Y74174D01*
X104487Y74905D01*
Y75695D01*
X104185Y76426D01*
X103626Y76985D01*
X102895Y77287D01*
D02*
G37*
G36*
X217400Y74874D02*
Y73200D01*
X219074D01*
X218765Y73946D01*
X218146Y74565D01*
X217400Y74874D01*
D02*
G37*
G36*
X216400D02*
X215654Y74565D01*
X215035Y73946D01*
X214726Y73200D01*
X216400D01*
Y74874D01*
D02*
G37*
G36*
X219074Y72200D02*
X217400D01*
Y70526D01*
X218146Y70835D01*
X218765Y71454D01*
X219074Y72200D01*
D02*
G37*
G36*
X216400D02*
X214726D01*
X215035Y71454D01*
X215654Y70835D01*
X216400Y70526D01*
Y72200D01*
D02*
G37*
G36*
X197000Y66974D02*
Y65300D01*
X198674D01*
X198365Y66046D01*
X197746Y66665D01*
X197000Y66974D01*
D02*
G37*
G36*
X196000D02*
X195254Y66665D01*
X194635Y66046D01*
X194326Y65300D01*
X196000D01*
Y66974D01*
D02*
G37*
G36*
X198674Y64300D02*
X197000D01*
Y62626D01*
X197746Y62935D01*
X198365Y63554D01*
X198674Y64300D01*
D02*
G37*
G36*
X196000D02*
X194326D01*
X194635Y63554D01*
X195254Y62935D01*
X196000Y62626D01*
Y64300D01*
D02*
G37*
G36*
X117795Y56887D02*
X117005D01*
X116274Y56585D01*
X115715Y56026D01*
X115413Y55295D01*
Y54505D01*
X115715Y53774D01*
X116274Y53215D01*
X117005Y52913D01*
X117795D01*
X118526Y53215D01*
X119085Y53774D01*
X119387Y54505D01*
Y55295D01*
X119085Y56026D01*
X118526Y56585D01*
X117795Y56887D01*
D02*
G37*
G36*
X132965Y51743D02*
X131835D01*
X130744Y51450D01*
X129765Y50885D01*
X128966Y50086D01*
X128401Y49108D01*
X128109Y48016D01*
Y46886D01*
X128401Y45795D01*
X128966Y44816D01*
X129765Y44017D01*
X130744Y43452D01*
X131835Y43160D01*
X132965D01*
X134056Y43452D01*
X135035Y44017D01*
X135834Y44816D01*
X136399Y45795D01*
X136691Y46886D01*
Y48016D01*
X136399Y49108D01*
X135834Y50086D01*
X135035Y50885D01*
X134056Y51450D01*
X132965Y51743D01*
D02*
G37*
G36*
X112965D02*
X111835D01*
X110744Y51450D01*
X109765Y50885D01*
X108966Y50086D01*
X108401Y49108D01*
X108109Y48016D01*
Y46886D01*
X108401Y45795D01*
X108966Y44816D01*
X109765Y44017D01*
X110744Y43452D01*
X111835Y43160D01*
X112965D01*
X114056Y43452D01*
X115035Y44017D01*
X115834Y44816D01*
X116399Y45795D01*
X116691Y46886D01*
Y48016D01*
X116399Y49108D01*
X115834Y50086D01*
X115035Y50885D01*
X114056Y51450D01*
X112965Y51743D01*
D02*
G37*
G36*
X190750Y33087D02*
X189959D01*
X189229Y32785D01*
X188670Y32226D01*
X188367Y31495D01*
Y30705D01*
X188670Y29974D01*
X189229Y29415D01*
X189959Y29113D01*
X190750D01*
X191480Y29415D01*
X192039Y29974D01*
X192342Y30705D01*
Y31495D01*
X192039Y32226D01*
X191480Y32785D01*
X190750Y33087D01*
D02*
G37*
G36*
X161895Y32787D02*
X161105D01*
X160374Y32485D01*
X159815Y31926D01*
X159513Y31195D01*
Y30405D01*
X159815Y29674D01*
X160374Y29115D01*
X161105Y28813D01*
X161895D01*
X162626Y29115D01*
X163185Y29674D01*
X163487Y30405D01*
Y31195D01*
X163185Y31926D01*
X162626Y32485D01*
X161895Y32787D01*
D02*
G37*
G36*
X230180Y27574D02*
Y25900D01*
X231855D01*
X231545Y26646D01*
X230927Y27265D01*
X230180Y27574D01*
D02*
G37*
G36*
X229180D02*
X228434Y27265D01*
X227815Y26646D01*
X227506Y25900D01*
X229180D01*
Y27574D01*
D02*
G37*
G36*
X221414Y27387D02*
X220624D01*
X219893Y27085D01*
X219334Y26526D01*
X219032Y25795D01*
Y25005D01*
X219334Y24274D01*
X219893Y23715D01*
X220624Y23413D01*
X221414D01*
X222145Y23715D01*
X222704Y24274D01*
X223006Y25005D01*
Y25795D01*
X222704Y26526D01*
X222145Y27085D01*
X221414Y27387D01*
D02*
G37*
G36*
X231855Y24900D02*
X230180D01*
Y23226D01*
X230927Y23535D01*
X231545Y24154D01*
X231855Y24900D01*
D02*
G37*
G36*
X229180D02*
X227506D01*
X227815Y24154D01*
X228434Y23535D01*
X229180Y23226D01*
Y24900D01*
D02*
G37*
G36*
X334816Y28287D02*
X333184D01*
X331583Y27969D01*
X330074Y27344D01*
X328717Y26437D01*
X327563Y25283D01*
X326656Y23926D01*
X326031Y22417D01*
X325713Y20816D01*
Y19184D01*
X326031Y17583D01*
X326656Y16074D01*
X327563Y14717D01*
X328717Y13563D01*
X330074Y12656D01*
X331583Y12031D01*
X333184Y11713D01*
X334816D01*
X336417Y12031D01*
X337926Y12656D01*
X339283Y13563D01*
X340437Y14717D01*
X341344Y16074D01*
X341969Y17583D01*
X342287Y19184D01*
Y20816D01*
X341969Y22417D01*
X341344Y23926D01*
X340437Y25283D01*
X339283Y26437D01*
X337926Y27344D01*
X336417Y27969D01*
X334816Y28287D01*
D02*
G37*
G36*
X20816D02*
X19184D01*
X17583Y27969D01*
X16074Y27344D01*
X14717Y26437D01*
X13563Y25283D01*
X12656Y23926D01*
X12031Y22417D01*
X11713Y20816D01*
Y19184D01*
X12031Y17583D01*
X12656Y16074D01*
X13563Y14717D01*
X14717Y13563D01*
X16074Y12656D01*
X17583Y12031D01*
X19184Y11713D01*
X20816D01*
X22417Y12031D01*
X23926Y12656D01*
X25283Y13563D01*
X26437Y14717D01*
X27344Y16074D01*
X27969Y17583D01*
X28287Y19184D01*
Y20816D01*
X27969Y22417D01*
X27344Y23926D01*
X26437Y25283D01*
X25283Y26437D01*
X23926Y27344D01*
X22417Y27969D01*
X20816Y28287D01*
D02*
G37*
%LPD*%
D71*
X226100Y126000D02*
X231900Y120200D01*
X199300Y126000D02*
X226100D01*
X191900Y125500D02*
X197200Y120200D01*
X222700D01*
X192700Y132600D02*
X199300Y126000D01*
X110900Y226200D02*
X122200Y214900D01*
X42800Y226200D02*
X110900D01*
X63400Y117300D02*
X100500Y154400D01*
Y162316D01*
X82900Y156300D02*
Y166600D01*
X63400Y136800D02*
X82900Y156300D01*
X63400Y97000D02*
Y104200D01*
X105300Y146100D01*
X239300Y155100D02*
Y155167D01*
X246100Y149700D02*
X246285Y149885D01*
X192700Y132600D02*
Y132800D01*
D73*
X42973Y266800D02*
D03*
Y86800D02*
D03*
X281926D02*
D03*
Y266800D02*
D03*
D74*
X81959Y266800D02*
D03*
Y86800D02*
D03*
X311000Y266800D02*
D03*
Y86800D02*
D03*
X112400Y47451D02*
D03*
X132400D02*
D03*
D75*
X20000Y20000D02*
D03*
X334000D02*
D03*
Y334000D02*
D03*
X20000D02*
D03*
D76*
X63900Y182600D02*
D03*
X65078Y91521D02*
D03*
X327922Y91779D02*
D03*
Y181679D02*
D03*
X297333Y177175D02*
D03*
X24375Y181567D02*
D03*
X297300Y96900D02*
D03*
X24375Y91667D02*
D03*
X267900Y277200D02*
D03*
X295400Y277300D02*
D03*
X56600Y277500D02*
D03*
X29400D02*
D03*
X135503Y226307D02*
D03*
X235645Y206154D02*
D03*
Y209978D02*
D03*
X237207Y132771D02*
D03*
X237146Y128159D02*
D03*
X229800Y126800D02*
D03*
X227300Y120200D02*
D03*
X231900D02*
D03*
X204200Y105300D02*
D03*
X200100Y105400D02*
D03*
X177300Y104798D02*
D03*
X173100Y104800D02*
D03*
X158900Y104798D02*
D03*
Y109200D02*
D03*
X135900Y105200D02*
D03*
X131300D02*
D03*
X110500Y124100D02*
D03*
X107000Y157000D02*
D03*
X107100Y152700D02*
D03*
X110300Y207800D02*
D03*
X205800Y229379D02*
D03*
X201400D02*
D03*
X169116Y226811D02*
D03*
X164800D02*
D03*
X196500Y229379D02*
D03*
X192272Y229415D02*
D03*
X110430Y213737D02*
D03*
Y217506D02*
D03*
X196500Y76300D02*
D03*
X167800Y79000D02*
D03*
X242100Y106659D02*
D03*
X252400Y232700D02*
D03*
X194100Y169200D02*
D03*
X166000Y154700D02*
D03*
X63600Y75800D02*
D03*
X297500Y76000D02*
D03*
X168200Y252000D02*
D03*
Y238300D02*
D03*
X196000Y256900D02*
D03*
X153044Y324174D02*
D03*
X158556D02*
D03*
X161500Y179400D02*
D03*
X211454Y200249D02*
D03*
X133000Y139000D02*
D03*
X132600Y186100D02*
D03*
X102600Y124200D02*
D03*
X110400Y133600D02*
D03*
X108014Y167414D02*
D03*
X117500Y89400D02*
D03*
X114800Y124100D02*
D03*
X100231Y179000D02*
D03*
X110430Y203528D02*
D03*
X196500Y64800D02*
D03*
X216900Y72700D02*
D03*
X223951Y103300D02*
D03*
X227400Y207200D02*
D03*
X229680Y25400D02*
D03*
X239400Y94206D02*
D03*
X244500Y99900D02*
D03*
X255200Y114600D02*
D03*
X230050Y165650D02*
D03*
X245156Y173982D02*
D03*
X188132Y226028D02*
D03*
X201421Y250084D02*
D03*
Y278100D02*
D03*
X216300Y241100D02*
D03*
X236000Y255600D02*
D03*
X241800Y265400D02*
D03*
X191900Y125500D02*
D03*
X222700Y120200D02*
D03*
X99900Y216100D02*
D03*
X122200Y214900D02*
D03*
X139272Y226307D02*
D03*
X103600Y243800D02*
D03*
X103500Y253600D02*
D03*
X154700Y231400D02*
D03*
X262900Y96800D02*
D03*
X264500Y177500D02*
D03*
X259936Y189100D02*
D03*
X108014Y172768D02*
D03*
X100500Y162316D02*
D03*
X82900Y166600D02*
D03*
X260400Y136900D02*
D03*
X256000Y138400D02*
D03*
X194269Y221854D02*
D03*
X138800Y238000D02*
D03*
X260600Y149000D02*
D03*
X105300Y146100D02*
D03*
X187832Y109740D02*
D03*
X216900Y102500D02*
D03*
X228099Y133851D02*
D03*
X102700Y170000D02*
D03*
X245127Y170188D02*
D03*
X320900Y277500D02*
D03*
X192700Y132800D02*
D03*
X113326Y300344D02*
D03*
X241512Y214012D02*
D03*
X104063Y140400D02*
D03*
X246100Y149700D02*
D03*
X256000Y149000D02*
D03*
X239300Y155100D02*
D03*
X263800Y156900D02*
D03*
Y166900D02*
D03*
X234000Y158128D02*
D03*
X236000Y250025D02*
D03*
X221812Y241100D02*
D03*
X92000Y277300D02*
D03*
X71800Y277500D02*
D03*
X63400Y156700D02*
D03*
Y117300D02*
D03*
X127200Y89600D02*
D03*
X144447Y92200D02*
D03*
X102500Y75300D02*
D03*
X63400Y149100D02*
D03*
Y136800D02*
D03*
X42800Y226200D02*
D03*
X63400Y97000D02*
D03*
X161500Y30800D02*
D03*
X221019Y25400D02*
D03*
X190354Y31100D02*
D03*
X300900Y277300D02*
D03*
X117400Y54900D02*
D03*
X65025Y305600D02*
D03*
M02*
