G04*
G04 #@! TF.GenerationSoftware,Altium Limited,Altium Designer,23.11.1 (41)*
G04*
G04 Layer_Color=255*
%FSLAX25Y25*%
%MOIN*%
G70*
G04*
G04 #@! TF.SameCoordinates,7B13C31F-70D5-41CF-BA4D-497FEED21CC8*
G04*
G04*
G04 #@! TF.FilePolarity,Positive*
G04*
G01*
G75*
%ADD17R,0.07598X0.02756*%
%ADD18R,0.12500X0.04488*%
G04:AMPARAMS|DCode=19|XSize=21.65mil|YSize=19.68mil|CornerRadius=2.46mil|HoleSize=0mil|Usage=FLASHONLY|Rotation=270.000|XOffset=0mil|YOffset=0mil|HoleType=Round|Shape=RoundedRectangle|*
%AMROUNDEDRECTD19*
21,1,0.02165,0.01476,0,0,270.0*
21,1,0.01673,0.01968,0,0,270.0*
1,1,0.00492,-0.00738,-0.00837*
1,1,0.00492,-0.00738,0.00837*
1,1,0.00492,0.00738,0.00837*
1,1,0.00492,0.00738,-0.00837*
%
%ADD19ROUNDEDRECTD19*%
G04:AMPARAMS|DCode=20|XSize=21.65mil|YSize=19.68mil|CornerRadius=2.46mil|HoleSize=0mil|Usage=FLASHONLY|Rotation=180.000|XOffset=0mil|YOffset=0mil|HoleType=Round|Shape=RoundedRectangle|*
%AMROUNDEDRECTD20*
21,1,0.02165,0.01476,0,0,180.0*
21,1,0.01673,0.01968,0,0,180.0*
1,1,0.00492,-0.00837,0.00738*
1,1,0.00492,0.00837,0.00738*
1,1,0.00492,0.00837,-0.00738*
1,1,0.00492,-0.00837,-0.00738*
%
%ADD20ROUNDEDRECTD20*%
%ADD21R,0.01181X0.05709*%
%ADD22R,0.05709X0.01181*%
%ADD23R,0.02756X0.03543*%
%ADD24R,0.04331X0.02362*%
%ADD25R,0.03543X0.03150*%
%ADD26R,0.03150X0.03543*%
G04:AMPARAMS|DCode=27|XSize=51.18mil|YSize=29.92mil|CornerRadius=3.74mil|HoleSize=0mil|Usage=FLASHONLY|Rotation=180.000|XOffset=0mil|YOffset=0mil|HoleType=Round|Shape=RoundedRectangle|*
%AMROUNDEDRECTD27*
21,1,0.05118,0.02244,0,0,180.0*
21,1,0.04370,0.02992,0,0,180.0*
1,1,0.00748,-0.02185,0.01122*
1,1,0.00748,0.02185,0.01122*
1,1,0.00748,0.02185,-0.01122*
1,1,0.00748,-0.02185,-0.01122*
%
%ADD27ROUNDEDRECTD27*%
%ADD28R,0.05000X0.12520*%
%ADD29R,0.03543X0.02756*%
%ADD30R,0.03150X0.04882*%
%ADD31R,0.00984X0.01870*%
%ADD32R,0.01870X0.00984*%
%ADD33R,0.06693X0.05512*%
%ADD34R,0.03740X0.09843*%
%ADD35R,0.04528X0.08661*%
%ADD36R,0.04567X0.04921*%
%ADD37R,0.04567X0.04724*%
%ADD38R,0.05906X0.04528*%
%ADD39R,0.02559X0.03543*%
%ADD40R,0.02205X0.01575*%
%ADD41R,0.03740X0.03543*%
%ADD73C,0.07008*%
%ADD74C,0.03504*%
%ADD75C,0.06000*%
D17*
X173743Y311500D02*
D03*
Y306500D02*
D03*
Y301500D02*
D03*
Y296500D02*
D03*
Y291500D02*
D03*
Y286500D02*
D03*
Y281500D02*
D03*
Y276500D02*
D03*
X136657D02*
D03*
Y281500D02*
D03*
Y286500D02*
D03*
Y291500D02*
D03*
Y296500D02*
D03*
Y301500D02*
D03*
Y306500D02*
D03*
Y311500D02*
D03*
D18*
X53218Y81800D02*
D03*
X32725D02*
D03*
X53218Y241800D02*
D03*
X32725Y271800D02*
D03*
X53218D02*
D03*
X32725Y261800D02*
D03*
X53218D02*
D03*
X32725Y251800D02*
D03*
X53218D02*
D03*
X32725Y241800D02*
D03*
Y231800D02*
D03*
X53218D02*
D03*
X32725Y221800D02*
D03*
X53218D02*
D03*
X32725Y211800D02*
D03*
X53218D02*
D03*
X32725Y201800D02*
D03*
X53218D02*
D03*
X32725Y191800D02*
D03*
X53218D02*
D03*
X32725Y181800D02*
D03*
X53218D02*
D03*
X32725Y171800D02*
D03*
X53218D02*
D03*
X32725Y161800D02*
D03*
X53218D02*
D03*
X32725Y151800D02*
D03*
X53218D02*
D03*
X32725Y141800D02*
D03*
X53218D02*
D03*
X32725Y131800D02*
D03*
X53218D02*
D03*
X32725Y121800D02*
D03*
X53218D02*
D03*
X32725Y111800D02*
D03*
X53218D02*
D03*
X32725Y101800D02*
D03*
X53218D02*
D03*
X32725Y91800D02*
D03*
X53218D02*
D03*
X292171Y81800D02*
D03*
X271678D02*
D03*
X292171Y91800D02*
D03*
X271678D02*
D03*
X292171Y101800D02*
D03*
X271678D02*
D03*
X292171Y111800D02*
D03*
X271678D02*
D03*
X292171Y121800D02*
D03*
X271678D02*
D03*
X292171Y131800D02*
D03*
X271678D02*
D03*
X292171Y141800D02*
D03*
X271678D02*
D03*
X292171Y151800D02*
D03*
X271678D02*
D03*
X292171Y161800D02*
D03*
X271678D02*
D03*
X292171Y171800D02*
D03*
X271678D02*
D03*
X292171Y181800D02*
D03*
X271678D02*
D03*
X292171Y191800D02*
D03*
X271678D02*
D03*
X292171Y201800D02*
D03*
X271678D02*
D03*
X292171Y211800D02*
D03*
X271678D02*
D03*
X292171Y221800D02*
D03*
X271678D02*
D03*
X292171Y231800D02*
D03*
X271678D02*
D03*
X292171Y241800D02*
D03*
X271678D02*
D03*
X292171Y251800D02*
D03*
Y261800D02*
D03*
X271678D02*
D03*
X292171Y271800D02*
D03*
X271678D02*
D03*
Y251800D02*
D03*
D19*
X110928Y127700D02*
D03*
X114472D02*
D03*
X204192Y108756D02*
D03*
X200648D02*
D03*
X135361Y108600D02*
D03*
X131818D02*
D03*
X173428Y108672D02*
D03*
X176972D02*
D03*
X135728Y222900D02*
D03*
X165573Y223111D02*
D03*
X196041Y225415D02*
D03*
X201809Y225295D02*
D03*
X244966Y209812D02*
D03*
Y205071D02*
D03*
X139272Y222900D02*
D03*
X169116Y223111D02*
D03*
X205352Y225295D02*
D03*
X192498Y225415D02*
D03*
X241423Y209812D02*
D03*
Y205071D02*
D03*
D20*
X154700Y108672D02*
D03*
Y105128D02*
D03*
X230100Y158128D02*
D03*
Y161672D02*
D03*
X110451Y153202D02*
D03*
X111600Y167428D02*
D03*
X113900Y203528D02*
D03*
X113828Y217280D02*
D03*
X233436Y128611D02*
D03*
X241600Y175972D02*
D03*
X184700Y226028D02*
D03*
X231614Y209826D02*
D03*
X113828Y213737D02*
D03*
X113900Y207072D02*
D03*
X111600Y170972D02*
D03*
X110451Y156745D02*
D03*
X184700Y229572D02*
D03*
X231614Y206283D02*
D03*
X233436Y132154D02*
D03*
X241600Y172428D02*
D03*
D21*
X132714Y215898D02*
D03*
X207517Y115702D02*
D03*
X213423Y215898D02*
D03*
X211454D02*
D03*
X209486D02*
D03*
X207517D02*
D03*
X205549D02*
D03*
X203580D02*
D03*
X197675D02*
D03*
X195706D02*
D03*
X193738D02*
D03*
X191769D02*
D03*
X187832D02*
D03*
X185864D02*
D03*
X183895D02*
D03*
X181927D02*
D03*
X179958D02*
D03*
X177990D02*
D03*
X176021D02*
D03*
X174053D02*
D03*
X172084D02*
D03*
X170116D02*
D03*
X168147D02*
D03*
X164210D02*
D03*
X162242D02*
D03*
X160273D02*
D03*
X158305D02*
D03*
X156336D02*
D03*
X154368D02*
D03*
X152399D02*
D03*
X150431D02*
D03*
X148462D02*
D03*
X146494D02*
D03*
X144525D02*
D03*
X142557D02*
D03*
X140588D02*
D03*
X134683D02*
D03*
X130746D02*
D03*
X128777Y115702D02*
D03*
X130746D02*
D03*
X132714D02*
D03*
X136651D02*
D03*
X138620D02*
D03*
X140588D02*
D03*
X142557D02*
D03*
X144525D02*
D03*
X146494D02*
D03*
X150431D02*
D03*
X152399D02*
D03*
X154368D02*
D03*
X156336D02*
D03*
X158305D02*
D03*
X160273D02*
D03*
X162242D02*
D03*
X164210D02*
D03*
X166179D02*
D03*
X168147D02*
D03*
X170116D02*
D03*
X172084D02*
D03*
X174053D02*
D03*
X177990D02*
D03*
X179958D02*
D03*
X181927D02*
D03*
X183895D02*
D03*
X185864D02*
D03*
X187832D02*
D03*
X189801D02*
D03*
X191769D02*
D03*
X193738D02*
D03*
X195706D02*
D03*
X197675D02*
D03*
X199643D02*
D03*
X203580D02*
D03*
X205549D02*
D03*
X209486D02*
D03*
X211454D02*
D03*
X213423D02*
D03*
X176021D02*
D03*
X134683D02*
D03*
X148462D02*
D03*
X128777Y215898D02*
D03*
X136651D02*
D03*
X138620D02*
D03*
X166179D02*
D03*
X201612Y115702D02*
D03*
X189801Y215898D02*
D03*
X199643D02*
D03*
X201612D02*
D03*
D22*
X221198Y186469D02*
D03*
X121002Y208123D02*
D03*
Y206154D02*
D03*
Y204186D02*
D03*
Y200249D02*
D03*
Y198280D02*
D03*
Y196312D02*
D03*
Y194343D02*
D03*
Y192375D02*
D03*
Y190406D02*
D03*
Y188438D02*
D03*
Y186469D02*
D03*
Y184501D02*
D03*
Y182532D02*
D03*
Y180564D02*
D03*
Y178595D02*
D03*
Y176627D02*
D03*
Y174658D02*
D03*
Y172690D02*
D03*
Y170721D02*
D03*
Y166784D02*
D03*
Y164816D02*
D03*
Y162847D02*
D03*
Y160879D02*
D03*
Y158910D02*
D03*
Y154973D02*
D03*
Y153005D02*
D03*
Y151036D02*
D03*
Y149068D02*
D03*
Y147099D02*
D03*
Y145131D02*
D03*
Y143162D02*
D03*
Y141194D02*
D03*
Y137257D02*
D03*
Y133320D02*
D03*
Y129383D02*
D03*
Y125446D02*
D03*
Y123477D02*
D03*
X221198Y125446D02*
D03*
Y133320D02*
D03*
Y135288D02*
D03*
Y137257D02*
D03*
Y139225D02*
D03*
Y141194D02*
D03*
Y143162D02*
D03*
Y145131D02*
D03*
Y147099D02*
D03*
Y149068D02*
D03*
Y151036D02*
D03*
Y153005D02*
D03*
Y154973D02*
D03*
Y156942D02*
D03*
Y158910D02*
D03*
Y162847D02*
D03*
Y164816D02*
D03*
Y166784D02*
D03*
Y168753D02*
D03*
Y170721D02*
D03*
Y172690D02*
D03*
Y174658D02*
D03*
Y178595D02*
D03*
Y180564D02*
D03*
Y182532D02*
D03*
Y184501D02*
D03*
Y188438D02*
D03*
Y190406D02*
D03*
Y192375D02*
D03*
Y194343D02*
D03*
Y196312D02*
D03*
Y198280D02*
D03*
Y202217D02*
D03*
Y204186D02*
D03*
Y131351D02*
D03*
X121002Y127414D02*
D03*
X221198Y200249D02*
D03*
Y123477D02*
D03*
X121002Y139225D02*
D03*
Y131351D02*
D03*
Y156942D02*
D03*
Y135288D02*
D03*
Y202217D02*
D03*
Y168753D02*
D03*
X221198Y129383D02*
D03*
Y176627D02*
D03*
Y208123D02*
D03*
Y206154D02*
D03*
Y160879D02*
D03*
Y127414D02*
D03*
D23*
X218046Y107192D02*
D03*
X223951D02*
D03*
X165053Y268900D02*
D03*
X159147D02*
D03*
X145047Y268900D02*
D03*
X150953D02*
D03*
X104047Y179200D02*
D03*
X84912Y182499D02*
D03*
X235853Y94206D02*
D03*
X238553Y106659D02*
D03*
X237553Y265400D02*
D03*
X109953Y179200D02*
D03*
X248647Y189100D02*
D03*
X254553D02*
D03*
X231647Y265400D02*
D03*
X229947Y94206D02*
D03*
X232647Y106659D02*
D03*
X79006Y182499D02*
D03*
D24*
X184961Y252221D02*
D03*
Y247300D02*
D03*
Y242379D02*
D03*
Y237457D02*
D03*
X176300D02*
D03*
Y242379D02*
D03*
Y247300D02*
D03*
Y252221D02*
D03*
D25*
X168200Y242244D02*
D03*
Y247756D02*
D03*
X231492Y255537D02*
D03*
X113500Y290444D02*
D03*
Y295956D02*
D03*
X231492Y250025D02*
D03*
D26*
X158556Y320000D02*
D03*
X153044D02*
D03*
X216300Y245800D02*
D03*
X221812D02*
D03*
D27*
X102500Y128957D02*
D03*
Y136004D02*
D03*
D28*
X117400Y80896D02*
D03*
X107400Y64400D02*
D03*
Y80896D02*
D03*
X117400Y64400D02*
D03*
X127400D02*
D03*
Y80896D02*
D03*
X137400Y64400D02*
D03*
Y80896D02*
D03*
D29*
X196500Y59306D02*
D03*
X248400Y100012D02*
D03*
X255200Y111053D02*
D03*
X201326Y253906D02*
D03*
X239600Y227353D02*
D03*
X247000Y232647D02*
D03*
X201421Y274453D02*
D03*
X258900Y183553D02*
D03*
Y177647D02*
D03*
X196500Y53400D02*
D03*
X201421Y268547D02*
D03*
X239600Y221447D02*
D03*
X247000Y238553D02*
D03*
X201326Y259812D02*
D03*
X248400Y94106D02*
D03*
X255200Y105147D02*
D03*
D30*
X229680Y30846D02*
D03*
X242672D02*
D03*
X238342D02*
D03*
X234011D02*
D03*
X225350D02*
D03*
X221019D02*
D03*
X216688D02*
D03*
X212357D02*
D03*
D31*
X218408Y253692D02*
D03*
X220377D02*
D03*
X222345D02*
D03*
Y260877D02*
D03*
X220377D02*
D03*
X218408D02*
D03*
D32*
X224953Y254332D02*
D03*
X215800Y260237D02*
D03*
Y258269D02*
D03*
Y256300D02*
D03*
Y254332D02*
D03*
X224953Y256300D02*
D03*
Y258269D02*
D03*
Y260237D02*
D03*
D33*
X74100Y305600D02*
D03*
X100478D02*
D03*
X74100Y289852D02*
D03*
X100478D02*
D03*
D34*
X259779Y33326D02*
D03*
D35*
X203125Y32735D02*
D03*
X259779Y77932D02*
D03*
D36*
X204700Y41200D02*
D03*
D37*
X204917Y76633D02*
D03*
D38*
X212200Y81062D02*
D03*
X242830D02*
D03*
D39*
X155791Y26200D02*
D03*
X161500D02*
D03*
X184646Y25900D02*
D03*
X190354D02*
D03*
D40*
X176379Y29700D02*
D03*
X171221D02*
D03*
X142921Y30000D02*
D03*
X148079D02*
D03*
D41*
X173800Y33440D02*
D03*
Y25960D02*
D03*
X145500Y26260D02*
D03*
Y33740D02*
D03*
D73*
X42973Y266800D02*
D03*
Y86800D02*
D03*
X281926D02*
D03*
Y266800D02*
D03*
D74*
X81959Y266800D02*
D03*
Y86800D02*
D03*
X311000Y266800D02*
D03*
Y86800D02*
D03*
X112400Y47451D02*
D03*
X132400D02*
D03*
D75*
X20000Y20000D02*
D03*
X334000D02*
D03*
Y334000D02*
D03*
X20000D02*
D03*
M02*
