G04*
G04 #@! TF.GenerationSoftware,Altium Limited,Altium Designer,23.11.1 (41)*
G04*
G04 Layer_Color=128*
%FSLAX25Y25*%
%MOIN*%
G70*
G04*
G04 #@! TF.SameCoordinates,7B13C31F-70D5-41CF-BA4D-497FEED21CC8*
G04*
G04*
G04 #@! TF.FilePolarity,Positive*
G04*
G01*
G75*
%ADD77R,0.07480X0.04213*%
%ADD78R,0.09016X0.05000*%
D77*
X210400Y72700D02*
D03*
X152762Y62700D02*
D03*
Y107700D02*
D03*
Y112700D02*
D03*
Y117700D02*
D03*
Y122700D02*
D03*
Y127700D02*
D03*
Y132700D02*
D03*
Y137700D02*
D03*
X210400D02*
D03*
Y132700D02*
D03*
Y127700D02*
D03*
X152762Y67700D02*
D03*
X210400Y122700D02*
D03*
Y117700D02*
D03*
Y112700D02*
D03*
Y107700D02*
D03*
Y102700D02*
D03*
Y97700D02*
D03*
Y92700D02*
D03*
Y87700D02*
D03*
Y82700D02*
D03*
Y77700D02*
D03*
X152762Y72700D02*
D03*
X210400Y67700D02*
D03*
Y62700D02*
D03*
X152762Y77700D02*
D03*
Y82700D02*
D03*
Y87700D02*
D03*
Y92700D02*
D03*
Y97700D02*
D03*
Y102700D02*
D03*
D78*
X72018Y81800D02*
D03*
X91900D02*
D03*
X72018Y271800D02*
D03*
X91900D02*
D03*
X72018Y261800D02*
D03*
X91900D02*
D03*
X72018Y251800D02*
D03*
X91900D02*
D03*
X72018Y241800D02*
D03*
X91900D02*
D03*
X72018Y231800D02*
D03*
X91900D02*
D03*
X72018Y221800D02*
D03*
X91900D02*
D03*
X72018Y211800D02*
D03*
X91900D02*
D03*
X72018Y201800D02*
D03*
X91900D02*
D03*
X72018Y191800D02*
D03*
X91900D02*
D03*
X72018Y181800D02*
D03*
X91900D02*
D03*
X72018Y171800D02*
D03*
X91900D02*
D03*
X72018Y161800D02*
D03*
X91900D02*
D03*
X72018Y151800D02*
D03*
X91900D02*
D03*
X72018Y141800D02*
D03*
X91900D02*
D03*
X72018Y131800D02*
D03*
X91900D02*
D03*
X72018Y121800D02*
D03*
X91900D02*
D03*
X72018Y111800D02*
D03*
X91900D02*
D03*
X72018Y101800D02*
D03*
X91900D02*
D03*
X72018Y91800D02*
D03*
X91900D02*
D03*
X301059Y271800D02*
D03*
X320941D02*
D03*
X301059Y261800D02*
D03*
X320941D02*
D03*
X301059Y251800D02*
D03*
X320941D02*
D03*
X301059Y241800D02*
D03*
X320941D02*
D03*
X301059Y231800D02*
D03*
X320941D02*
D03*
X301059Y221800D02*
D03*
X320941D02*
D03*
X301059Y211800D02*
D03*
X320941D02*
D03*
X301059Y201800D02*
D03*
X320941D02*
D03*
X301059Y191800D02*
D03*
X320941D02*
D03*
X301059Y181800D02*
D03*
X320941D02*
D03*
X301059Y171800D02*
D03*
X320941D02*
D03*
X301059Y161800D02*
D03*
X320941D02*
D03*
X301059Y151800D02*
D03*
X320941D02*
D03*
X301059Y141800D02*
D03*
X320941D02*
D03*
X301059Y131800D02*
D03*
X320941D02*
D03*
X301059Y121800D02*
D03*
X320941D02*
D03*
X301059Y111800D02*
D03*
X320941D02*
D03*
X301059Y101800D02*
D03*
X320941D02*
D03*
X301059Y91800D02*
D03*
X320941D02*
D03*
X301059Y81800D02*
D03*
X320941D02*
D03*
M02*
