G04*
G04 #@! TF.GenerationSoftware,Altium Limited,Altium Designer,23.11.1 (41)*
G04*
G04 Layer_Physical_Order=4*
G04 Layer_Color=16711680*
%FSLAX25Y25*%
%MOIN*%
G70*
G04*
G04 #@! TF.SameCoordinates,7B13C31F-70D5-41CF-BA4D-497FEED21CC8*
G04*
G04*
G04 #@! TF.FilePolarity,Positive*
G04*
G01*
G75*
%ADD71C,0.00600*%
%ADD72C,0.02000*%
%ADD73C,0.07008*%
%ADD74C,0.03504*%
%ADD75C,0.06000*%
%ADD76C,0.02400*%
%ADD77R,0.07480X0.04213*%
%ADD78R,0.09016X0.05000*%
%ADD79C,0.01500*%
D71*
X318590Y91800D02*
Y92900D01*
X229800Y126800D02*
Y130990D01*
X230599Y131789D01*
Y135992D01*
X227291Y139300D02*
X230599Y135992D01*
X154356Y76107D02*
X196307D01*
X196500Y76300D01*
X165193Y119293D02*
X167800Y116687D01*
Y79000D02*
Y116687D01*
X154356Y119293D02*
X165193D01*
X215600Y204800D02*
X217010Y206210D01*
X215598Y190698D02*
Y204798D01*
X194100Y169200D02*
X215598Y190698D01*
X217040Y140160D02*
Y146260D01*
X171588Y146688D02*
X194100Y169200D01*
X217040Y146260D01*
X152188Y146688D02*
X171588D01*
X112094Y135300D02*
X140800D01*
X152188Y146688D01*
X217040Y140160D02*
X217900Y139300D01*
X153400Y154700D02*
X166000D01*
X137700Y139000D02*
X153400Y154700D01*
X211454Y200202D02*
Y200249D01*
X166000Y154747D02*
X211454Y200202D01*
X166000Y154700D02*
Y154747D01*
X318590Y91800D02*
X320941D01*
X299500Y81800D02*
X301059D01*
X299500Y81500D02*
X301059D01*
X297400Y79700D02*
X299500Y81800D01*
X157644Y256844D02*
X195944D01*
X196000Y256900D01*
X152100Y170000D02*
X161500Y179400D01*
X102700Y170000D02*
X152100D01*
X133000Y139000D02*
X137700D01*
X129300Y189400D02*
X132600Y186100D01*
X108400Y189400D02*
X129300D01*
X99900Y197900D02*
X108400Y189400D01*
X110400Y133606D02*
X112094Y135300D01*
X110400Y133600D02*
Y133606D01*
X226149Y206210D02*
X227138Y207200D01*
X227400D01*
X217010Y206210D02*
X226149D01*
X217900Y139300D02*
X227291D01*
X213829Y142900D02*
X215440Y141289D01*
Y136160D02*
Y141289D01*
X208700Y142900D02*
X213829D01*
X196300Y142900D02*
X208700D01*
X177693Y124293D02*
X196300Y142900D01*
X208700D02*
X208700Y142900D01*
X69810Y81800D02*
X69910Y81700D01*
X70119Y81909D01*
X71466D01*
X210400Y72700D02*
X216900D01*
X99900Y197900D02*
Y216100D01*
X103600Y243800D02*
Y253500D01*
X103500Y253600D02*
X103600Y253500D01*
X154700Y231400D02*
X169400D01*
X178946Y221854D01*
X194269D01*
X283200Y176700D02*
X285000Y174900D01*
Y104700D02*
Y174900D01*
X277100Y96800D02*
X285000Y104700D01*
X263800Y176700D02*
X283200D01*
X262900Y96800D02*
X277100D01*
X260400Y136900D02*
X260500Y137000D01*
Y148900D02*
X260600Y149000D01*
X260500Y137000D02*
Y148900D01*
X256000Y138400D02*
Y149000D01*
X138800Y238000D02*
X157644Y256844D01*
X246285Y149885D02*
X247685D01*
X254700Y156900D01*
X263800D01*
X239300Y155167D02*
X251033Y166900D01*
X263800D01*
X210600Y102500D02*
X216900D01*
X210400Y102700D02*
X210600Y102500D01*
X227948Y133700D02*
X228099Y133851D01*
X217900Y133700D02*
X227948D01*
X215440Y136160D02*
X217900Y133700D01*
X154356Y124293D02*
X177693D01*
X152762Y122700D02*
X154356Y124293D01*
X63400Y149100D02*
Y156700D01*
X141507Y131107D02*
X151169D01*
X127200Y116800D02*
X141507Y131107D01*
X151169D02*
X152762Y132700D01*
X146600Y121200D02*
X148100Y122700D01*
X146600Y93841D02*
Y121200D01*
X145976Y93217D02*
X146600Y93841D01*
X144934Y92200D02*
X145951Y93217D01*
X145976D01*
X127200Y89600D02*
Y116800D01*
X144447Y92200D02*
X144934D01*
X104000Y73800D02*
X146177D01*
X102500Y75300D02*
X104000Y73800D01*
X146177D02*
X148484Y76107D01*
X151169D01*
X148100Y122700D02*
X152762D01*
Y117700D02*
X154356Y119293D01*
D72*
X69810Y81600D02*
Y81800D01*
X320994Y251800D02*
Y261800D01*
X300900Y241800D02*
Y277300D01*
X320994Y221800D02*
Y251800D01*
X300900Y211800D02*
Y241800D01*
Y191800D02*
Y211800D01*
X320994Y161800D02*
Y221800D01*
X300900Y181800D02*
X300900Y191800D01*
X300900Y171800D02*
Y181800D01*
X320994Y151800D02*
X320994Y161800D01*
X320994Y141800D02*
Y151800D01*
X300900Y141800D02*
Y171800D01*
Y111800D02*
Y141800D01*
X320994Y111800D02*
Y141800D01*
Y91800D02*
Y111800D01*
X300900Y92900D02*
Y111800D01*
X72156Y272708D02*
X92000D01*
X71763Y271711D02*
Y277142D01*
X92000Y251800D02*
Y272708D01*
X71763Y251800D02*
Y271711D01*
X92000Y211800D02*
Y241800D01*
Y191800D02*
Y211800D01*
Y241800D02*
Y251800D01*
X71763Y231800D02*
Y251800D01*
Y201800D02*
Y231800D01*
X92000Y181800D02*
X92000Y191800D01*
X71763Y181800D02*
X71763Y191642D01*
Y201800D01*
X92000Y161800D02*
Y181800D01*
Y92708D02*
Y161800D01*
X71763Y121800D02*
Y151800D01*
Y181800D01*
X72156Y92708D02*
X92000D01*
X71763Y91800D02*
Y121800D01*
X92000Y91800D02*
Y92708D01*
X63977Y182524D02*
X68510D01*
X63900Y182600D02*
X63977Y182524D01*
X68834Y182847D02*
Y182921D01*
X68510Y182524D02*
X68834Y182847D01*
X65078Y91521D02*
X69534D01*
X323466Y91779D02*
X327922D01*
X323466Y181679D02*
X327922D01*
X297333Y177175D02*
Y180050D01*
X301059Y91800D02*
X302159Y92900D01*
X92000Y272708D02*
X92156D01*
X92000D02*
Y277300D01*
X92000Y92708D02*
X92156D01*
X319941Y272800D02*
X320941Y271800D01*
X301059D02*
X302059Y272800D01*
X319941D01*
X320941D02*
Y277459D01*
X71763Y271711D02*
X71800Y271749D01*
X71750Y271699D02*
X71763Y271711D01*
X320941Y261800D02*
Y271800D01*
X319841Y92900D02*
X320941Y91800D01*
X302159Y92900D02*
X318590D01*
X319841D01*
X64087Y75876D02*
X69810Y81600D01*
X63600Y75800D02*
X63677Y75876D01*
X64087D01*
X297400Y76800D02*
Y79700D01*
X297424Y76077D02*
X297500Y76000D01*
X297400Y76800D02*
X297424Y76776D01*
Y76077D02*
Y76776D01*
X319941Y80800D02*
X320941Y81800D01*
X301059D02*
X302059Y80800D01*
X319941D01*
X72018Y81800D02*
X73218Y80600D01*
X90700D02*
X91900Y81800D01*
X73218Y80600D02*
X90700D01*
D73*
X42973Y266800D02*
D03*
Y86800D02*
D03*
X281926D02*
D03*
Y266800D02*
D03*
D74*
X81959Y266800D02*
D03*
Y86800D02*
D03*
X311000Y266800D02*
D03*
Y86800D02*
D03*
X112400Y47451D02*
D03*
X132400D02*
D03*
D75*
X20000Y20000D02*
D03*
X334000D02*
D03*
Y334000D02*
D03*
X20000D02*
D03*
D76*
X63900Y182600D02*
D03*
X65078Y91521D02*
D03*
X327922Y91779D02*
D03*
Y181679D02*
D03*
X297333Y177175D02*
D03*
X24375Y181567D02*
D03*
X297300Y96900D02*
D03*
X24375Y91667D02*
D03*
X267900Y277200D02*
D03*
X295400Y277300D02*
D03*
X56600Y277500D02*
D03*
X29400D02*
D03*
X135503Y226307D02*
D03*
X235645Y206154D02*
D03*
Y209978D02*
D03*
X237207Y132771D02*
D03*
X237146Y128159D02*
D03*
X229800Y126800D02*
D03*
X227300Y120200D02*
D03*
X231900D02*
D03*
X204200Y105300D02*
D03*
X200100Y105400D02*
D03*
X177300Y104798D02*
D03*
X173100Y104800D02*
D03*
X158900Y104798D02*
D03*
Y109200D02*
D03*
X135900Y105200D02*
D03*
X131300D02*
D03*
X110500Y124100D02*
D03*
X107000Y157000D02*
D03*
X107100Y152700D02*
D03*
X110300Y207800D02*
D03*
X205800Y229379D02*
D03*
X201400D02*
D03*
X169116Y226811D02*
D03*
X164800D02*
D03*
X196500Y229379D02*
D03*
X192272Y229415D02*
D03*
X110430Y213737D02*
D03*
Y217506D02*
D03*
X196500Y76300D02*
D03*
X167800Y79000D02*
D03*
X242100Y106659D02*
D03*
X252400Y232700D02*
D03*
X194100Y169200D02*
D03*
X166000Y154700D02*
D03*
X63600Y75800D02*
D03*
X297500Y76000D02*
D03*
X168200Y252000D02*
D03*
Y238300D02*
D03*
X196000Y256900D02*
D03*
X153044Y324174D02*
D03*
X158556D02*
D03*
X161500Y179400D02*
D03*
X211454Y200249D02*
D03*
X133000Y139000D02*
D03*
X132600Y186100D02*
D03*
X102600Y124200D02*
D03*
X110400Y133600D02*
D03*
X108014Y167414D02*
D03*
X117500Y89400D02*
D03*
X114800Y124100D02*
D03*
X100231Y179000D02*
D03*
X110430Y203528D02*
D03*
X196500Y64800D02*
D03*
X216900Y72700D02*
D03*
X223951Y103300D02*
D03*
X227400Y207200D02*
D03*
X229680Y25400D02*
D03*
X239400Y94206D02*
D03*
X244500Y99900D02*
D03*
X255200Y114600D02*
D03*
X230050Y165650D02*
D03*
X245156Y173982D02*
D03*
X188132Y226028D02*
D03*
X201421Y250084D02*
D03*
Y278100D02*
D03*
X216300Y241100D02*
D03*
X236000Y255600D02*
D03*
X241800Y265400D02*
D03*
X191900Y125500D02*
D03*
X222700Y120200D02*
D03*
X99900Y216100D02*
D03*
X122200Y214900D02*
D03*
X139272Y226307D02*
D03*
X103600Y243800D02*
D03*
X103500Y253600D02*
D03*
X154700Y231400D02*
D03*
X262900Y96800D02*
D03*
X264500Y177500D02*
D03*
X259936Y189100D02*
D03*
X108014Y172768D02*
D03*
X100500Y162316D02*
D03*
X82900Y166600D02*
D03*
X260400Y136900D02*
D03*
X256000Y138400D02*
D03*
X194269Y221854D02*
D03*
X138800Y238000D02*
D03*
X260600Y149000D02*
D03*
X105300Y146100D02*
D03*
X187832Y109740D02*
D03*
X216900Y102500D02*
D03*
X228099Y133851D02*
D03*
X102700Y170000D02*
D03*
X245127Y170188D02*
D03*
X320900Y277500D02*
D03*
X192700Y132800D02*
D03*
X113326Y300344D02*
D03*
X241512Y214012D02*
D03*
X104063Y140400D02*
D03*
X246100Y149700D02*
D03*
X256000Y149000D02*
D03*
X239300Y155100D02*
D03*
X263800Y156900D02*
D03*
Y166900D02*
D03*
X234000Y158128D02*
D03*
X236000Y250025D02*
D03*
X221812Y241100D02*
D03*
X92000Y277300D02*
D03*
X71800Y277500D02*
D03*
X63400Y156700D02*
D03*
Y117300D02*
D03*
X127200Y89600D02*
D03*
X144447Y92200D02*
D03*
X102500Y75300D02*
D03*
X63400Y149100D02*
D03*
Y136800D02*
D03*
X42800Y226200D02*
D03*
X63400Y97000D02*
D03*
X161500Y30800D02*
D03*
X221019Y25400D02*
D03*
X190354Y31100D02*
D03*
X300900Y277300D02*
D03*
X117400Y54900D02*
D03*
X65025Y305600D02*
D03*
D77*
X210400Y72700D02*
D03*
X152762Y62700D02*
D03*
Y107700D02*
D03*
Y112700D02*
D03*
Y117700D02*
D03*
Y122700D02*
D03*
Y127700D02*
D03*
Y132700D02*
D03*
Y137700D02*
D03*
X210400D02*
D03*
Y132700D02*
D03*
Y127700D02*
D03*
X152762Y67700D02*
D03*
X210400Y122700D02*
D03*
Y117700D02*
D03*
Y112700D02*
D03*
Y107700D02*
D03*
Y102700D02*
D03*
Y97700D02*
D03*
Y92700D02*
D03*
Y87700D02*
D03*
Y82700D02*
D03*
Y77700D02*
D03*
X152762Y72700D02*
D03*
X210400Y67700D02*
D03*
Y62700D02*
D03*
X152762Y77700D02*
D03*
Y82700D02*
D03*
Y87700D02*
D03*
Y92700D02*
D03*
Y97700D02*
D03*
Y102700D02*
D03*
D78*
X72018Y81800D02*
D03*
X91900D02*
D03*
X72018Y271800D02*
D03*
X91900D02*
D03*
X72018Y261800D02*
D03*
X91900D02*
D03*
X72018Y251800D02*
D03*
X91900D02*
D03*
X72018Y241800D02*
D03*
X91900D02*
D03*
X72018Y231800D02*
D03*
X91900D02*
D03*
X72018Y221800D02*
D03*
X91900D02*
D03*
X72018Y211800D02*
D03*
X91900D02*
D03*
X72018Y201800D02*
D03*
X91900D02*
D03*
X72018Y191800D02*
D03*
X91900D02*
D03*
X72018Y181800D02*
D03*
X91900D02*
D03*
X72018Y171800D02*
D03*
X91900D02*
D03*
X72018Y161800D02*
D03*
X91900D02*
D03*
X72018Y151800D02*
D03*
X91900D02*
D03*
X72018Y141800D02*
D03*
X91900D02*
D03*
X72018Y131800D02*
D03*
X91900D02*
D03*
X72018Y121800D02*
D03*
X91900D02*
D03*
X72018Y111800D02*
D03*
X91900D02*
D03*
X72018Y101800D02*
D03*
X91900D02*
D03*
X72018Y91800D02*
D03*
X91900D02*
D03*
X301059Y271800D02*
D03*
X320941D02*
D03*
X301059Y261800D02*
D03*
X320941D02*
D03*
X301059Y251800D02*
D03*
X320941D02*
D03*
X301059Y241800D02*
D03*
X320941D02*
D03*
X301059Y231800D02*
D03*
X320941D02*
D03*
X301059Y221800D02*
D03*
X320941D02*
D03*
X301059Y211800D02*
D03*
X320941D02*
D03*
X301059Y201800D02*
D03*
X320941D02*
D03*
X301059Y191800D02*
D03*
X320941D02*
D03*
X301059Y181800D02*
D03*
X320941D02*
D03*
X301059Y171800D02*
D03*
X320941D02*
D03*
X301059Y161800D02*
D03*
X320941D02*
D03*
X301059Y151800D02*
D03*
X320941D02*
D03*
X301059Y141800D02*
D03*
X320941D02*
D03*
X301059Y131800D02*
D03*
X320941D02*
D03*
X301059Y121800D02*
D03*
X320941D02*
D03*
X301059Y111800D02*
D03*
X320941D02*
D03*
X301059Y101800D02*
D03*
X320941D02*
D03*
X301059Y91800D02*
D03*
X320941D02*
D03*
X301059Y81800D02*
D03*
X320941D02*
D03*
D79*
X297333Y180050D02*
X299083Y181800D01*
X300900D01*
X301059D01*
M02*
