M48
;Layer_Color=9474304
;FILE_FORMAT=2:4
INCH,TZ
;TYPE=PLATED
T01F00S00C0.0120
T02F00S00C0.0382
T03F00S00C0.0563
;TYPE=NON_PLATED
T04F00S00C0.0630
T05F00S00C0.0701
T06F00S00C0.1500
%
T01
X-18948Y-26200
X-17274Y-26997
Y-25321
X-15360Y-26232
X-15960Y-27520
X-11321Y-26226
X-8520Y-24604
X-6694Y-24872
X-3376Y-25309
X-2982
X-2503Y-25657
Y-26060
Y-26454
Y-26856
X-2982Y-27170
X-3376
X-2446Y-28210
X-5035Y-28053
X-9279Y-28974
X-3514Y-23800
X619Y-30809
X6113Y-30891
X7547Y-26223
X11573Y-26227
X2927Y-20973
X4001Y-19621
X4001Y-19220
Y-18815
X4000Y-18424
Y-18014
X3995Y-17612
Y-17212
X3994Y-16812
X3995Y-16392
X3656Y-15990
X3253
X2859
X2457
X2057
X1660
X2804Y-14304
X3205Y-14305
X3611
X4001Y-14303
X4411
X4814Y-14299
X5213
X5613Y-14297
X6033Y-14299
X6390Y-13920
Y-13517
Y-13123
Y-12720
Y-12321
Y-11924
Y-11521
Y-11121
Y-10721
Y-10316
Y-9923
X6080Y-9480
X5660Y-9478
X5260Y-9480
X4860
X4457Y-9484
X4048
X3657Y-9486
X3252
X2851Y-9485
X3318Y-8754
X-1998Y-9800
X-3053Y-12544
X-2633Y-16307
X-340Y-15990
X52
X458
X858
X1257
X-340Y-14895
X-4692Y-15322
X-5411Y-15392
X-5410Y-14991
X-5411Y-15797
X-5409Y-16188
Y-16597
X-5405Y-17000
Y-17400
X-5403Y-17800
X-5405Y-18220
X-5801Y-18460
X-6193
X-6599
X-6999
X-7398
X-7801
X-8198
X-8598
X-9001
X-9395
X-9797
X-10195Y-18229
X-10193Y-17809
X-10195Y-17409
Y-17009
X-10199Y-16606
Y-16197
X-10201Y-15806
Y-15401
X-10200Y-15000
X-10749Y-10908
X-9560Y-9814
X-8212Y-11060
X-6350Y-9817
X-5841Y-8200
X-4875Y-18542
X-5293Y-19921
X-5107Y-21220
X-5886Y-22752
X-8520Y-23105
X-9284Y-21220
X-2307Y-19382
X-14403Y-7501
X-17720Y-7126
X-12373Y-7502
X-2930Y-5430
X8539Y-7463
X10646Y-7474
T02
X-19800Y-23661
X-16520
Y-21480
Y-18821
Y-16640
Y-13981
Y-11800
X-19800
Y-13981
Y-16640
Y-18821
Y-21480
T03
X-15081Y-31619
X-8120
X-120
X7360
X-15081Y-3848
X-7600
X-120
X7360
T04
X-5226Y-3680
X-2486
T05
X-13378Y-26720
X9560
Y-8720
X-13378
T06
X-19558Y-33413
X11840
X-19558Y-2020
X11840
M30
