M48
;Layer_Color=9474304
;FILE_FORMAT=2:4
INCH,TZ
;TYPE=PLATED
T01F00S00C0.0120
;TYPE=NON_PLATED
T02F00S00C0.0701
T03F00S00C0.1500
%
T01
X11740Y5490
X16150Y3080
X19035Y3110
X22102Y2540
X22968
X21690Y7270
Y10250
X22395Y10330
X22270Y12020
X22730
X23190
X22980Y12680
X23715Y12816
X23721Y13277
X22810Y13385
X23400Y15813
X23930Y15510
X24610Y14970
X25600Y14900
X26060
X26380Y15690
Y16690
X26450Y17750
X25994Y18910
X24516Y17398
X24513Y17019
X23005Y16565
X22740Y20720
X23565Y20615
Y20998
X25600Y13840
X26040Y13690
X25520Y11460
X24210Y10666
X24450Y9990
X23940Y9421
X26290Y9680
X29730Y9690
X29750Y7600
X32792Y9178
Y18168
X29733Y17717
X21145Y20025
X19410Y16920
X19270Y13280
X19190Y12550
X18783Y10974
X17730Y10480
X17310Y10480
X15890Y10480
Y10920
X13590Y10520
X13130
X12720Y8960
X11750Y8940
X10250Y7530
X6360Y7580
X6508Y9152
X6340Y9700
Y11730
Y13680
Y14910
Y15670
X6390Y18260
X8290Y16660
X10050Y16232
X10270Y17000
X10801Y16741
Y17277
X10023Y17900
X10700Y15700
X10710Y15270
X10530Y14610
X10406Y14040
X11040Y13360
X11050Y12410
X11480
X10260Y12420
X13300Y13900
X13260Y18610
X16150Y17940
X16600Y15470
X16780Y7900
X19650Y7630
Y6480
X20010Y10540
X20420Y10530
X14445Y9220
X11043Y20353
X11030Y20780
X2437Y18157
Y9167
X4280Y22620
X2940Y27750
X5660
X7180
X9200Y27730
X10350Y25360
X10360Y24380
X9990Y21610
X11043Y21751
Y21374
X12220Y21490
X13550Y22631
X13927
X13880Y23800
X15470Y23140
X16480Y22681
X16912
X16820Y23830
Y25200
X19600Y25690
X20142Y25008
X20140Y22938
X20580
X19650
X19227Y22941
X18813Y22603
X19427Y22185
X20142Y27810
X15856Y32417
X15304
X11333Y30034
X6503Y30560
X21630Y24110
X22181
X23600Y25003
Y25560
X24180Y26540
X26790Y27720
X29540Y27730
X30090
X32090Y27750
X25240Y23270
X24151Y21401
T02
X11240Y4745
X13240
X28193Y8680
X31100
X8196Y8680
X4297Y8680
Y26680
X8196Y26680
X28193Y26680
X31100
T03
X2000Y2000
X33400
X2000Y33400
X33400
M30
